%TF.GenerationSoftware,KiCad,Pcbnew,5.1.10-88a1d61d58~88~ubuntu20.04.1*%
%TF.CreationDate,2021-06-19T20:11:57-07:00*%
%TF.ProjectId,ultrablinky,756c7472-6162-46c6-996e-6b792e6b6963,B*%
%TF.SameCoordinates,Original*%
%TF.FileFunction,Soldermask,Bot*%
%TF.FilePolarity,Negative*%
%FSLAX46Y46*%
G04 Gerber Fmt 4.6, Leading zero omitted, Abs format (unit mm)*
G04 Created by KiCad (PCBNEW 5.1.10-88a1d61d58~88~ubuntu20.04.1) date 2021-06-19 20:11:57*
%MOMM*%
%LPD*%
G01*
G04 APERTURE LIST*
%TA.AperFunction,Profile*%
%ADD10C,0.150000*%
%TD*%
%ADD11C,3.000000*%
%ADD12O,3.700000X2.700000*%
%ADD13C,1.600000*%
%ADD14R,1.600000X1.600000*%
%ADD15O,2.400000X2.400000*%
%ADD16R,2.400000X2.400000*%
%ADD17O,2.616000X1.308000*%
%ADD18C,2.500000*%
%ADD19O,3.000000X6.000000*%
%ADD20C,1.650000*%
%ADD21R,1.650000X1.650000*%
%ADD22C,2.250000*%
%ADD23C,1.308000*%
%ADD24C,6.000000*%
%ADD25O,2.000000X2.000000*%
%ADD26R,2.000000X2.000000*%
%ADD27O,3.500000X3.500000*%
%ADD28C,2.000000*%
%ADD29C,2.800000*%
%ADD30O,1.905000X2.000000*%
%ADD31R,1.905000X2.000000*%
%ADD32O,1.700000X1.700000*%
%ADD33R,1.700000X1.700000*%
%ADD34C,5.600000*%
%ADD35C,3.500000*%
G04 APERTURE END LIST*
D10*
X178700000Y-142000000D02*
X178700000Y-164100000D01*
X178200000Y-142000000D02*
G75*
G02*
X177500000Y-141300000I0J700000D01*
G01*
X177500000Y-136700000D02*
G75*
G02*
X178200000Y-136000000I700000J0D01*
G01*
X177500000Y-136700000D02*
X177500000Y-141300000D01*
X178200000Y-142000000D02*
X178700000Y-142000000D01*
X178200000Y-136000000D02*
X178700000Y-136000000D01*
X178700000Y-67550000D02*
X178700000Y-136000000D01*
X178700000Y-61550000D02*
X178700000Y-52100000D01*
X177500000Y-62250000D02*
G75*
G02*
X178200000Y-61550000I700000J0D01*
G01*
X178200000Y-61550000D02*
X178700000Y-61550000D01*
X178200000Y-67550000D02*
G75*
G02*
X177500000Y-66850000I0J700000D01*
G01*
X178200000Y-67550000D02*
X178700000Y-67550000D01*
X177500000Y-62250000D02*
X177500000Y-66850000D01*
X178200000Y-52100000D02*
X178700000Y-52100000D01*
X178200000Y-46100000D02*
X178700000Y-46100000D01*
X177500000Y-46800000D02*
X177500000Y-51400000D01*
X178200000Y-52100000D02*
G75*
G02*
X177500000Y-51400000I0J700000D01*
G01*
X177500000Y-46800000D02*
G75*
G02*
X178200000Y-46100000I700000J0D01*
G01*
X87505025Y-80109975D02*
G75*
G02*
X87300000Y-79615000I494975J494975D01*
G01*
X128694975Y-39985025D02*
G75*
G02*
X128900000Y-40480000I-494975J-494975D01*
G01*
X87510025Y-39982025D02*
G75*
G03*
X87305000Y-40477000I494975J-494975D01*
G01*
X128694975Y-80104975D02*
G75*
G03*
X128900000Y-79610000I-494975J494975D01*
G01*
X130300000Y-105100000D02*
G75*
G02*
X129600000Y-105800000I-700000J0D01*
G01*
X119700000Y-105800000D02*
G75*
G02*
X119000000Y-105100000I0J700000D01*
G01*
X129600000Y-88400000D02*
G75*
G02*
X130300000Y-89100000I0J-700000D01*
G01*
X119000000Y-89100000D02*
G75*
G02*
X119700000Y-88400000I700000J0D01*
G01*
X85900000Y-89100000D02*
G75*
G02*
X86600000Y-88400000I700000J0D01*
G01*
X96500000Y-88400000D02*
G75*
G02*
X97200000Y-89100000I0J-700000D01*
G01*
X97200000Y-105100000D02*
G75*
G02*
X96500000Y-105800000I-700000J0D01*
G01*
X86600000Y-105800000D02*
G75*
G02*
X85900000Y-105100000I0J700000D01*
G01*
X119000000Y-105100000D02*
X119000000Y-89100000D01*
X129600000Y-105800000D02*
X119700000Y-105800000D01*
X129600000Y-88400000D02*
X119700000Y-88400000D01*
X130300000Y-105100000D02*
X130300000Y-89100000D01*
X96500000Y-105800000D02*
X86600000Y-105800000D01*
X97200000Y-105100000D02*
X97200000Y-89100000D01*
X96500000Y-88400000D02*
X86600000Y-88400000D01*
X85900000Y-105100000D02*
X85900000Y-89100000D01*
X128697474Y-80107415D02*
G75*
G02*
X87505025Y-80109975I-20597474J20107415D01*
G01*
X87300000Y-79615000D02*
X87305000Y-40477000D01*
X128900000Y-79610000D02*
X128900000Y-40480000D01*
X87508953Y-39980983D02*
G75*
G02*
X128694975Y-39985025I20591047J-20019017D01*
G01*
X53700000Y-29100000D02*
X178700000Y-29100000D01*
X53700000Y-164100000D02*
X178700000Y-164100000D01*
X178700000Y-46100000D02*
X178700000Y-29100000D01*
X53700000Y-164100000D02*
X53700000Y-29100000D01*
D11*
%TO.C,J7*%
X56684000Y-126456000D03*
X56684000Y-143256000D03*
D12*
X63984000Y-126456000D03*
X63984000Y-130656000D03*
X63984000Y-134856000D03*
X63984000Y-139056000D03*
G36*
G01*
X65583999Y-144606000D02*
X62384001Y-144606000D01*
G75*
G02*
X62134000Y-144355999I0J250001D01*
G01*
X62134000Y-142156001D01*
G75*
G02*
X62384001Y-141906000I250001J0D01*
G01*
X65583999Y-141906000D01*
G75*
G02*
X65834000Y-142156001I0J-250001D01*
G01*
X65834000Y-144355999D01*
G75*
G02*
X65583999Y-144606000I-250001J0D01*
G01*
G37*
%TD*%
D11*
%TO.C,DISP1*%
X58800000Y-107740000D03*
X58800000Y-151740000D03*
X134880000Y-107740000D03*
X134880000Y-151740000D03*
D13*
X139800000Y-113230000D03*
X139800000Y-115770000D03*
X139800000Y-118310000D03*
X139800000Y-120850000D03*
X139800000Y-123390000D03*
X139800000Y-125930000D03*
X139800000Y-128470000D03*
X139800000Y-131010000D03*
X139800000Y-133550000D03*
X139800000Y-136090000D03*
X139800000Y-138630000D03*
X139800000Y-141170000D03*
X139800000Y-143710000D03*
D14*
X139800000Y-146250000D03*
%TD*%
D15*
%TO.C,C31*%
X61400000Y-95550000D03*
D16*
X68900000Y-95550000D03*
%TD*%
D17*
%TO.C,J4*%
X63200000Y-79500000D03*
X63200000Y-88100000D03*
X63200000Y-84700000D03*
X55900000Y-88500000D03*
D18*
X56900000Y-84800000D03*
D17*
X55900000Y-78600000D03*
%TD*%
D19*
%TO.C,SW2*%
X145750000Y-127550000D03*
X157150000Y-127550000D03*
D20*
X148950000Y-120050000D03*
X151450000Y-120050000D03*
X153950000Y-120050000D03*
X148950000Y-134550000D03*
D21*
X153950000Y-134550000D03*
%TD*%
D22*
%TO.C,SW1*%
X55700000Y-67550000D03*
X55700000Y-57850000D03*
D23*
X55700000Y-64700000D03*
X55700000Y-60700000D03*
X55700000Y-62700000D03*
%TD*%
D24*
%TO.C,HS1*%
X137500000Y-34600000D03*
X74500000Y-97600000D03*
X74500000Y-34600000D03*
X137500000Y-97600000D03*
%TD*%
D25*
%TO.C,R45*%
X89020000Y-108400000D03*
D26*
X94100000Y-108400000D03*
D27*
X91560000Y-91740000D03*
%TD*%
%TO.C,J3*%
G36*
G01*
X170950000Y-66000000D02*
X170950000Y-67100000D01*
G75*
G02*
X170400000Y-67650000I-550000J0D01*
G01*
X168000000Y-67650000D01*
G75*
G02*
X167450000Y-67100000I0J550000D01*
G01*
X167450000Y-66000000D01*
G75*
G02*
X168000000Y-65450000I550000J0D01*
G01*
X170400000Y-65450000D01*
G75*
G02*
X170950000Y-66000000I0J-550000D01*
G01*
G37*
G36*
G01*
X170950000Y-62000000D02*
X170950000Y-63100000D01*
G75*
G02*
X170400000Y-63650000I-550000J0D01*
G01*
X168000000Y-63650000D01*
G75*
G02*
X167450000Y-63100000I0J550000D01*
G01*
X167450000Y-62000000D01*
G75*
G02*
X168000000Y-61450000I550000J0D01*
G01*
X170400000Y-61450000D01*
G75*
G02*
X170950000Y-62000000I0J-550000D01*
G01*
G37*
G36*
G01*
X170950000Y-69000000D02*
X170950000Y-70100000D01*
G75*
G02*
X170400000Y-70650000I-550000J0D01*
G01*
X168000000Y-70650000D01*
G75*
G02*
X167450000Y-70100000I0J550000D01*
G01*
X167450000Y-69000000D01*
G75*
G02*
X168000000Y-68450000I550000J0D01*
G01*
X170400000Y-68450000D01*
G75*
G02*
X170950000Y-69000000I0J-550000D01*
G01*
G37*
G36*
G01*
X170950000Y-59000000D02*
X170950000Y-60100000D01*
G75*
G02*
X170400000Y-60650000I-550000J0D01*
G01*
X168000000Y-60650000D01*
G75*
G02*
X167450000Y-60100000I0J550000D01*
G01*
X167450000Y-59000000D01*
G75*
G02*
X168000000Y-58450000I550000J0D01*
G01*
X170400000Y-58450000D01*
G75*
G02*
X170950000Y-59000000I0J-550000D01*
G01*
G37*
G36*
G01*
X175300000Y-63350000D02*
X175300000Y-65750000D01*
G75*
G02*
X174750000Y-66300000I-550000J0D01*
G01*
X173650000Y-66300000D01*
G75*
G02*
X173100000Y-65750000I0J550000D01*
G01*
X173100000Y-63350000D01*
G75*
G02*
X173650000Y-62800000I550000J0D01*
G01*
X174750000Y-62800000D01*
G75*
G02*
X175300000Y-63350000I0J-550000D01*
G01*
G37*
%TD*%
%TO.C,J6*%
G36*
G01*
X170950000Y-140475000D02*
X170950000Y-141575000D01*
G75*
G02*
X170400000Y-142125000I-550000J0D01*
G01*
X168000000Y-142125000D01*
G75*
G02*
X167450000Y-141575000I0J550000D01*
G01*
X167450000Y-140475000D01*
G75*
G02*
X168000000Y-139925000I550000J0D01*
G01*
X170400000Y-139925000D01*
G75*
G02*
X170950000Y-140475000I0J-550000D01*
G01*
G37*
G36*
G01*
X170950000Y-136475000D02*
X170950000Y-137575000D01*
G75*
G02*
X170400000Y-138125000I-550000J0D01*
G01*
X168000000Y-138125000D01*
G75*
G02*
X167450000Y-137575000I0J550000D01*
G01*
X167450000Y-136475000D01*
G75*
G02*
X168000000Y-135925000I550000J0D01*
G01*
X170400000Y-135925000D01*
G75*
G02*
X170950000Y-136475000I0J-550000D01*
G01*
G37*
G36*
G01*
X170950000Y-143475000D02*
X170950000Y-144575000D01*
G75*
G02*
X170400000Y-145125000I-550000J0D01*
G01*
X168000000Y-145125000D01*
G75*
G02*
X167450000Y-144575000I0J550000D01*
G01*
X167450000Y-143475000D01*
G75*
G02*
X168000000Y-142925000I550000J0D01*
G01*
X170400000Y-142925000D01*
G75*
G02*
X170950000Y-143475000I0J-550000D01*
G01*
G37*
G36*
G01*
X170950000Y-133475000D02*
X170950000Y-134575000D01*
G75*
G02*
X170400000Y-135125000I-550000J0D01*
G01*
X168000000Y-135125000D01*
G75*
G02*
X167450000Y-134575000I0J550000D01*
G01*
X167450000Y-133475000D01*
G75*
G02*
X168000000Y-132925000I550000J0D01*
G01*
X170400000Y-132925000D01*
G75*
G02*
X170950000Y-133475000I0J-550000D01*
G01*
G37*
G36*
G01*
X175300000Y-137825000D02*
X175300000Y-140225000D01*
G75*
G02*
X174750000Y-140775000I-550000J0D01*
G01*
X173650000Y-140775000D01*
G75*
G02*
X173100000Y-140225000I0J550000D01*
G01*
X173100000Y-137825000D01*
G75*
G02*
X173650000Y-137275000I550000J0D01*
G01*
X174750000Y-137275000D01*
G75*
G02*
X175300000Y-137825000I0J-550000D01*
G01*
G37*
%TD*%
%TO.C,J2*%
G36*
G01*
X170950000Y-50550000D02*
X170950000Y-51650000D01*
G75*
G02*
X170400000Y-52200000I-550000J0D01*
G01*
X168000000Y-52200000D01*
G75*
G02*
X167450000Y-51650000I0J550000D01*
G01*
X167450000Y-50550000D01*
G75*
G02*
X168000000Y-50000000I550000J0D01*
G01*
X170400000Y-50000000D01*
G75*
G02*
X170950000Y-50550000I0J-550000D01*
G01*
G37*
G36*
G01*
X170950000Y-46550000D02*
X170950000Y-47650000D01*
G75*
G02*
X170400000Y-48200000I-550000J0D01*
G01*
X168000000Y-48200000D01*
G75*
G02*
X167450000Y-47650000I0J550000D01*
G01*
X167450000Y-46550000D01*
G75*
G02*
X168000000Y-46000000I550000J0D01*
G01*
X170400000Y-46000000D01*
G75*
G02*
X170950000Y-46550000I0J-550000D01*
G01*
G37*
G36*
G01*
X170950000Y-53550000D02*
X170950000Y-54650000D01*
G75*
G02*
X170400000Y-55200000I-550000J0D01*
G01*
X168000000Y-55200000D01*
G75*
G02*
X167450000Y-54650000I0J550000D01*
G01*
X167450000Y-53550000D01*
G75*
G02*
X168000000Y-53000000I550000J0D01*
G01*
X170400000Y-53000000D01*
G75*
G02*
X170950000Y-53550000I0J-550000D01*
G01*
G37*
G36*
G01*
X170950000Y-43550000D02*
X170950000Y-44650000D01*
G75*
G02*
X170400000Y-45200000I-550000J0D01*
G01*
X168000000Y-45200000D01*
G75*
G02*
X167450000Y-44650000I0J550000D01*
G01*
X167450000Y-43550000D01*
G75*
G02*
X168000000Y-43000000I550000J0D01*
G01*
X170400000Y-43000000D01*
G75*
G02*
X170950000Y-43550000I0J-550000D01*
G01*
G37*
G36*
G01*
X175300000Y-47900000D02*
X175300000Y-50300000D01*
G75*
G02*
X174750000Y-50850000I-550000J0D01*
G01*
X173650000Y-50850000D01*
G75*
G02*
X173100000Y-50300000I0J550000D01*
G01*
X173100000Y-47900000D01*
G75*
G02*
X173650000Y-47350000I550000J0D01*
G01*
X174750000Y-47350000D01*
G75*
G02*
X175300000Y-47900000I0J-550000D01*
G01*
G37*
%TD*%
D28*
%TO.C,SW3*%
X148950000Y-143600000D03*
X153450000Y-143600000D03*
X148950000Y-150100000D03*
X153450000Y-150100000D03*
%TD*%
D13*
%TO.C,U3*%
X152010000Y-90120000D03*
X149470000Y-90120000D03*
X152010000Y-92660000D03*
X149470000Y-92660000D03*
X152010000Y-95200000D03*
X149470000Y-95200000D03*
X152010000Y-97740000D03*
X149470000Y-97740000D03*
X152010000Y-100280000D03*
X149470000Y-100280000D03*
X177410000Y-87580000D03*
X174870000Y-87580000D03*
X172330000Y-87580000D03*
X169790000Y-87580000D03*
X167250000Y-87580000D03*
X164710000Y-87580000D03*
X162170000Y-87580000D03*
X159630000Y-87580000D03*
X157090000Y-87580000D03*
X154550000Y-87580000D03*
X152010000Y-87580000D03*
X149470000Y-87580000D03*
X146930000Y-87580000D03*
X174870000Y-100280000D03*
X177410000Y-102820000D03*
X174870000Y-102820000D03*
X172330000Y-102820000D03*
X169790000Y-102820000D03*
X167250000Y-102820000D03*
X164710000Y-102820000D03*
X162170000Y-102820000D03*
X159630000Y-102820000D03*
X157090000Y-102820000D03*
X154550000Y-102820000D03*
X152010000Y-102820000D03*
X149470000Y-102820000D03*
X146930000Y-102820000D03*
X144390000Y-87580000D03*
X144390000Y-90120000D03*
X144390000Y-92660000D03*
X144390000Y-102820000D03*
X144390000Y-100280000D03*
X144390000Y-97740000D03*
X144390000Y-95200000D03*
%TD*%
D29*
%TO.C,TP2*%
X74275000Y-158250000D03*
%TD*%
%TO.C,TP1*%
X173275000Y-80625000D03*
%TD*%
D30*
%TO.C,Q7*%
X122120000Y-108400000D03*
X124660000Y-108400000D03*
D31*
X127200000Y-108400000D03*
D27*
X124660000Y-91740000D03*
%TD*%
D32*
%TO.C,J1*%
X173965000Y-39525000D03*
D33*
X171425000Y-39525000D03*
%TD*%
D32*
%TO.C,J5*%
X158145000Y-111750000D03*
X160685000Y-111750000D03*
D33*
X163225000Y-111750000D03*
%TD*%
D34*
%TO.C,H4*%
X173700000Y-159100000D03*
%TD*%
%TO.C,H2*%
X173700000Y-34100000D03*
%TD*%
%TO.C,H3*%
X58700000Y-159100000D03*
%TD*%
%TO.C,H1*%
X58700000Y-34100000D03*
%TD*%
D11*
%TO.C,D7*%
X99100000Y-76500000D03*
X99100000Y-43500000D03*
D35*
X91100000Y-77000000D03*
X91100000Y-43000000D03*
X125100000Y-77000000D03*
X125100000Y-43000000D03*
G36*
G01*
X86600000Y-51081000D02*
X86600000Y-74919000D01*
G75*
G02*
X86019000Y-75500000I-581000J0D01*
G01*
X80181000Y-75500000D01*
G75*
G02*
X79600000Y-74919000I0J581000D01*
G01*
X79600000Y-51081000D01*
G75*
G02*
X80181000Y-50500000I581000J0D01*
G01*
X86019000Y-50500000D01*
G75*
G02*
X86600000Y-51081000I0J-581000D01*
G01*
G37*
G36*
G01*
X136600000Y-44581000D02*
X136600000Y-68419000D01*
G75*
G02*
X136019000Y-69000000I-581000J0D01*
G01*
X130181000Y-69000000D01*
G75*
G02*
X129600000Y-68419000I0J581000D01*
G01*
X129600000Y-44581000D01*
G75*
G02*
X130181000Y-44000000I581000J0D01*
G01*
X136019000Y-44000000D01*
G75*
G02*
X136600000Y-44581000I0J-581000D01*
G01*
G37*
%TD*%
M02*
