M48
; DRILL file {KiCad 5.1.9-73d0e3b20d~88~ubuntu20.04.1} date Fri Apr  9 17:18:59 2021
; FORMAT={-:-/ absolute / metric / decimal}
; #@! TF.CreationDate,2021-04-09T17:18:59-07:00
; #@! TF.GenerationSoftware,Kicad,Pcbnew,5.1.9-73d0e3b20d~88~ubuntu20.04.1
; #@! TF.FileFunction,Plated,1,2,PTH
FMAT,2
METRIC
T1C0.500
T2C0.700
T3C0.800
T4C0.850
T5C1.000
T6C1.100
T7C1.200
T8C1.300
T9C1.500
T10C1.600
T11C2.000
T12C3.000
T13C3.175
T14C3.200
T15C3.500
%
G90
G05
T1
X55.1Y-69.7
X55.4Y-40.0
X56.1Y-92.5
X56.1Y-99.4
X57.4Y-130.4
X57.6Y-69.7
X58.0Y-72.3
X58.5Y-92.5
X58.5Y-99.4
X60.5Y-76.75
X61.4Y-115.4
X62.25Y-68.2
X62.85Y-64.0
X64.2Y-75.3
X64.5Y-67.5
X65.1Y-137.3
X65.4Y-145.2
X66.0Y-133.8
X66.167Y-67.5
X66.3Y-80.3
X66.5Y-62.9
X67.764Y-137.436
X67.8Y-98.5
X67.8Y-120.8
X67.833Y-67.5
X68.0Y-128.0
X68.5Y-140.3
X68.9Y-138.5
X69.1Y-84.25
X69.4Y-89.3
X69.45Y-77.35
X69.5Y-67.5
X69.5Y-69.15
X69.5Y-70.8
X69.5Y-135.3
X70.7Y-138.25
X71.0Y-141.7
X71.4Y-112.8
X71.7Y-77.475
X71.9Y-120.4
X75.1Y-77.4
X78.0Y-48.6
X78.0Y-53.55
X78.0Y-58.4
X78.0Y-63.25
X78.0Y-68.1
X78.0Y-72.95
X78.0Y-77.7
X80.8Y-82.4
X81.5Y-129.3
X81.7Y-77.7
X81.8Y-135.3
X81.9Y-48.6
X82.7Y-120.1
X83.1Y-113.8
X85.4Y-77.7
X85.6Y-48.6
X85.7Y-40.8
X86.2Y-30.5
X87.7Y-115.1
X87.7Y-117.6
X88.2Y-159.6
X88.7Y-121.6
X92.3Y-116.3
X92.4Y-113.7
X94.6Y-122.7
X95.2Y-111.4
X96.8Y-115.1
X96.8Y-117.6
X96.8Y-120.1
X99.1Y-99.2
X99.1Y-102.3
X101.5Y-90.3
X104.9Y-120.5
X105.445Y-118.87
X106.3Y-117.1
X107.8Y-159.4
X110.8Y-134.3
X110.8Y-136.3
X110.8Y-138.5
X110.8Y-140.8
X113.8Y-130.2
X114.1Y-141.8
X114.5Y-132.8
X114.9Y-90.1
X115.0Y-117.0
X115.3Y-120.8
X115.95Y-146.25
X116.0Y-148.3
X116.8Y-99.2
X116.8Y-102.3
X117.0Y-133.9
X117.1Y-127.1
X117.3Y-144.2
X118.1Y-116.3
X118.6Y-130.6
X121.3Y-114.8
X121.7Y-140.7
X121.9Y-134.1
X122.6Y-124.3
X124.6Y-110.8
X124.95Y-124.35
X126.5Y-126.259
X127.0Y-160.2
X127.025Y-147.875
X127.3Y-133.2
X127.65Y-144.5
X127.7Y-86.5
X128.1Y-82.9
X128.4Y-138.5
X128.6Y-162.9
X129.4Y-110.7
X130.1Y-160.1
X130.45Y-147.65
X130.6Y-72.1
X130.8Y-41.2
X131.5Y-134.2
X131.6Y-130.4
X131.9Y-140.7
X131.95Y-144.9
X132.1Y-90.0
X132.1Y-136.2
X132.7Y-120.0
X133.9Y-117.0
X133.9Y-128.2
X133.925Y-138.45
X134.1Y-133.6
X134.825Y-118.5
X134.9Y-72.1
X135.05Y-41.2
X135.9Y-136.3
X135.9Y-140.8
X136.2Y-138.5
X136.7Y-124.8
X137.5Y-119.7
X137.6Y-117.2
X138.7Y-108.0
X138.8Y-89.9
X139.4Y-103.8
X139.6Y-41.2
X139.6Y-46.35
X139.6Y-51.5
X139.6Y-56.65
X139.6Y-61.8
X139.6Y-66.95
X139.6Y-72.1
X140.1Y-158.6
X141.166Y-107.019
X141.4Y-127.1
X141.8Y-139.8
X143.3Y-82.1
X143.9Y-69.6
X144.2Y-150.8
X145.7Y-79.1
X145.8Y-118.2
X146.2Y-77.6
X146.7Y-80.5
X146.9Y-145.6
X147.08Y-138.72
X147.3Y-66.7
X147.35Y-81.7
X147.6Y-109.8
X147.9Y-131.7
X148.1Y-64.3
X148.5Y-82.75
X148.775Y-111.5
X148.812Y-76.788
X149.5Y-130.5
X150.3Y-127.7
X151.1Y-110.2
X151.9Y-125.552
X152.0Y-137.9
X152.7Y-109.75
X154.1Y-117.9
X154.225Y-116.275
X154.3Y-68.5
X154.4Y-70.5
X154.4Y-104.8
X154.425Y-111.5
X155.4Y-153.7
X155.6Y-158.7
X156.775Y-100.775
X157.9Y-78.065
X158.1Y-121.7
X158.3Y-123.7
X158.3Y-135.2
X158.3Y-140.3
X159.375Y-117.925
X159.7Y-120.4
X160.2Y-145.0
X160.5Y-134.3
X160.6Y-140.1
X160.825Y-107.275
X161.775Y-119.575
X162.2Y-148.5
X163.1Y-131.2
X163.3Y-126.5
X163.345Y-82.345
X163.5Y-138.8
X164.0Y-109.1
X164.3Y-72.0
X164.8Y-150.8
X165.2Y-131.0
X165.5Y-128.9
X165.885Y-82.535
X166.2Y-108.8
X167.1Y-111.4
X167.433Y-109.005
X168.425Y-83.575
X168.6Y-109.6
X168.9Y-121.9
X168.9Y-131.2
X169.7Y-100.7
X171.6Y-122.0
X172.0Y-109.2
X172.6Y-130.15
X172.9Y-113.8
X174.6Y-98.3
X174.9Y-129.8
X175.0Y-126.3
X175.3Y-117.6
X176.3Y-110.0
X176.5Y-146.7
X177.1Y-128.2
X177.3Y-100.7
T2
X139.8Y-113.23
X139.8Y-115.77
X139.8Y-118.31
X139.8Y-120.85
X139.8Y-123.39
X139.8Y-125.93
X139.8Y-128.47
X139.8Y-131.01
X139.8Y-133.55
X139.8Y-136.09
X139.8Y-138.63
X139.8Y-141.17
X139.8Y-143.71
X139.8Y-146.25
T3
X55.7Y-60.7
X55.7Y-62.7
X55.7Y-64.7
T4
X150.275Y-42.7
X150.275Y-47.7
X158.65Y-53.987
X158.75Y-37.262
X158.75Y-45.625
X158.75Y-62.35
X163.65Y-53.987
X163.75Y-37.262
X163.75Y-45.625
X163.75Y-62.35
T5
X150.325Y-106.925
X152.865Y-106.925
X155.405Y-106.925
X158.145Y-111.75
X160.685Y-111.75
X163.225Y-111.75
X171.425Y-39.525
X173.965Y-39.525
T6
X89.02Y-108.4
X94.1Y-108.4
X122.12Y-108.4
X124.66Y-108.4
X127.2Y-108.4
X144.39Y-87.58
X144.39Y-90.12
X144.39Y-92.66
X144.39Y-95.2
X144.39Y-97.74
X144.39Y-100.28
X144.39Y-102.82
X146.93Y-87.58
X146.93Y-102.82
X148.95Y-120.05
X148.95Y-134.55
X148.95Y-143.6
X148.95Y-150.1
X149.47Y-87.58
X149.47Y-90.12
X149.47Y-92.66
X149.47Y-95.2
X149.47Y-97.74
X149.47Y-100.28
X149.47Y-102.82
X151.45Y-120.05
X152.01Y-87.58
X152.01Y-90.12
X152.01Y-92.66
X152.01Y-95.2
X152.01Y-97.74
X152.01Y-100.28
X152.01Y-102.82
X153.45Y-143.6
X153.45Y-150.1
X153.95Y-120.05
X153.95Y-134.55
X154.55Y-87.58
X154.55Y-102.82
X157.09Y-87.58
X157.09Y-102.82
X159.63Y-87.58
X159.63Y-102.82
X162.17Y-87.58
X162.17Y-102.82
X164.71Y-87.58
X164.71Y-102.82
X167.25Y-87.58
X167.25Y-102.82
X169.79Y-87.58
X169.79Y-102.82
X172.33Y-87.58
X172.33Y-102.82
X174.87Y-87.58
X174.87Y-100.28
X174.87Y-102.82
X177.41Y-87.58
X177.41Y-102.82
T7
X147.775Y-155.65
X147.775Y-158.19
X147.775Y-160.73
T8
X61.7Y-120.1
X61.7Y-125.18
X61.7Y-130.26
X61.7Y-135.34
X61.7Y-140.42
T9
X55.7Y-57.85
X55.7Y-67.55
T10
X74.275Y-158.25
X173.275Y-80.625
T12
X58.8Y-107.74
X58.8Y-151.74
X99.1Y-43.5
X99.1Y-76.5
X134.88Y-107.74
X134.88Y-151.74
T13
X74.5Y-34.6
X74.5Y-97.6
X137.5Y-34.6
X137.5Y-97.6
T14
X58.7Y-34.1
X58.7Y-159.1
X173.7Y-34.1
X173.7Y-159.1
T15
X91.1Y-43.0
X91.1Y-77.0
X125.1Y-43.0
X125.1Y-77.0
T3
G00X55.15Y-78.6
M15
G01X56.65Y-78.6
M16
G05
G00X55.15Y-88.5
M15
G01X56.65Y-88.5
M16
G05
G00X62.6Y-79.5
M15
G01X63.8Y-79.5
M16
G05
G00X62.6Y-84.7
M15
G01X63.8Y-84.7
M16
G05
G00X62.6Y-88.1
M15
G01X63.8Y-88.1
M16
G05
G00X169.55Y-44.1
M15
G01X168.85Y-44.1
M16
G05
G00X169.55Y-47.1
M15
G01X168.85Y-47.1
M16
G05
G00X169.55Y-51.1
M15
G01X168.85Y-51.1
M16
G05
G00X169.55Y-54.1
M15
G01X168.85Y-54.1
M16
G05
G00X169.55Y-59.55
M15
G01X168.85Y-59.55
M16
G05
G00X169.55Y-62.55
M15
G01X168.85Y-62.55
M16
G05
G00X169.55Y-66.55
M15
G01X168.85Y-66.55
M16
G05
G00X169.55Y-69.55
M15
G01X168.85Y-69.55
M16
G05
G00X169.55Y-134.025
M15
G01X168.85Y-134.025
M16
G05
G00X169.55Y-137.025
M15
G01X168.85Y-137.025
M16
G05
G00X169.55Y-141.025
M15
G01X168.85Y-141.025
M16
G05
G00X169.55Y-144.025
M15
G01X168.85Y-144.025
M16
G05
G00X174.2Y-49.45
M15
G01X174.2Y-48.75
M16
G05
G00X174.2Y-64.9
M15
G01X174.2Y-64.2
M16
G05
G00X174.2Y-139.375
M15
G01X174.2Y-138.675
M16
G05
T11
G00X145.75Y-127.95
M15
G01X145.75Y-127.15
M16
G05
G00X157.15Y-127.95
M15
G01X157.15Y-127.15
M16
G05
T0
M30
