%TF.GenerationSoftware,KiCad,Pcbnew,5.1.9-73d0e3b20d~88~ubuntu20.04.1*%
%TF.CreationDate,2021-04-09T17:18:55-07:00*%
%TF.ProjectId,ultrablinky,756c7472-6162-46c6-996e-6b792e6b6963,A*%
%TF.SameCoordinates,Original*%
%TF.FileFunction,Soldermask,Top*%
%TF.FilePolarity,Negative*%
%FSLAX46Y46*%
G04 Gerber Fmt 4.6, Leading zero omitted, Abs format (unit mm)*
G04 Created by KiCad (PCBNEW 5.1.9-73d0e3b20d~88~ubuntu20.04.1) date 2021-04-09 17:18:55*
%MOMM*%
%LPD*%
G01*
G04 APERTURE LIST*
%TA.AperFunction,Profile*%
%ADD10C,0.150000*%
%TD*%
%ADD11O,2.616000X1.308000*%
%ADD12C,2.500000*%
%ADD13C,1.800000*%
%ADD14R,1.800000X1.800000*%
%ADD15O,3.000000X6.000000*%
%ADD16C,1.650000*%
%ADD17R,1.650000X1.650000*%
%ADD18R,1.780000X1.520000*%
%ADD19R,1.520000X1.780000*%
%ADD20C,2.250000*%
%ADD21C,1.308000*%
%ADD22C,6.000000*%
%ADD23C,3.000000*%
%ADD24C,1.524000*%
%ADD25R,1.524000X1.524000*%
%ADD26R,5.500000X3.000000*%
%ADD27O,2.000000X2.000000*%
%ADD28R,2.000000X2.000000*%
%ADD29O,3.500000X3.500000*%
%ADD30C,1.381000*%
%ADD31C,2.000000*%
%ADD32R,3.600000X3.600000*%
%ADD33R,1.060000X0.650000*%
%ADD34C,1.600000*%
%ADD35R,0.650000X1.060000*%
%ADD36C,2.800000*%
%ADD37R,0.900000X0.800000*%
%ADD38R,0.800000X0.900000*%
%ADD39O,1.905000X2.000000*%
%ADD40R,1.905000X2.000000*%
%ADD41R,6.400000X5.800000*%
%ADD42R,2.200000X1.200000*%
%ADD43C,2.600000*%
%ADD44R,2.600000X2.600000*%
%ADD45O,1.700000X1.700000*%
%ADD46R,1.700000X1.700000*%
%ADD47C,5.600000*%
%ADD48R,3.660000X2.085000*%
%ADD49R,2.500000X3.300000*%
%ADD50C,3.500000*%
G04 APERTURE END LIST*
D10*
X178700000Y-142000000D02*
X178700000Y-164100000D01*
X178200000Y-142000000D02*
G75*
G02*
X177500000Y-141300000I0J700000D01*
G01*
X177500000Y-136700000D02*
G75*
G02*
X178200000Y-136000000I700000J0D01*
G01*
X177500000Y-136700000D02*
X177500000Y-141300000D01*
X178200000Y-142000000D02*
X178700000Y-142000000D01*
X178200000Y-136000000D02*
X178700000Y-136000000D01*
X178700000Y-67550000D02*
X178700000Y-136000000D01*
X178700000Y-61550000D02*
X178700000Y-52100000D01*
X177500000Y-62250000D02*
G75*
G02*
X178200000Y-61550000I700000J0D01*
G01*
X178200000Y-61550000D02*
X178700000Y-61550000D01*
X178200000Y-67550000D02*
G75*
G02*
X177500000Y-66850000I0J700000D01*
G01*
X178200000Y-67550000D02*
X178700000Y-67550000D01*
X177500000Y-62250000D02*
X177500000Y-66850000D01*
X178200000Y-52100000D02*
X178700000Y-52100000D01*
X178200000Y-46100000D02*
X178700000Y-46100000D01*
X177500000Y-46800000D02*
X177500000Y-51400000D01*
X178200000Y-52100000D02*
G75*
G02*
X177500000Y-51400000I0J700000D01*
G01*
X177500000Y-46800000D02*
G75*
G02*
X178200000Y-46100000I700000J0D01*
G01*
X87505025Y-80109975D02*
G75*
G02*
X87300000Y-79615000I494975J494975D01*
G01*
X128694975Y-39985025D02*
G75*
G02*
X128900000Y-40480000I-494975J-494975D01*
G01*
X87510025Y-39982025D02*
G75*
G03*
X87305000Y-40477000I494975J-494975D01*
G01*
X128694975Y-80104975D02*
G75*
G03*
X128900000Y-79610000I-494975J494975D01*
G01*
X130300000Y-105100000D02*
G75*
G02*
X129600000Y-105800000I-700000J0D01*
G01*
X119700000Y-105800000D02*
G75*
G02*
X119000000Y-105100000I0J700000D01*
G01*
X129600000Y-88400000D02*
G75*
G02*
X130300000Y-89100000I0J-700000D01*
G01*
X119000000Y-89100000D02*
G75*
G02*
X119700000Y-88400000I700000J0D01*
G01*
X85900000Y-89100000D02*
G75*
G02*
X86600000Y-88400000I700000J0D01*
G01*
X96500000Y-88400000D02*
G75*
G02*
X97200000Y-89100000I0J-700000D01*
G01*
X97200000Y-105100000D02*
G75*
G02*
X96500000Y-105800000I-700000J0D01*
G01*
X86600000Y-105800000D02*
G75*
G02*
X85900000Y-105100000I0J700000D01*
G01*
X119000000Y-105100000D02*
X119000000Y-89100000D01*
X129600000Y-105800000D02*
X119700000Y-105800000D01*
X129600000Y-88400000D02*
X119700000Y-88400000D01*
X130300000Y-105100000D02*
X130300000Y-89100000D01*
X96500000Y-105800000D02*
X86600000Y-105800000D01*
X97200000Y-105100000D02*
X97200000Y-89100000D01*
X96500000Y-88400000D02*
X86600000Y-88400000D01*
X85900000Y-105100000D02*
X85900000Y-89100000D01*
X128697474Y-80107415D02*
G75*
G02*
X87505025Y-80109975I-20597474J20107415D01*
G01*
X87300000Y-79615000D02*
X87305000Y-40477000D01*
X128900000Y-79610000D02*
X128900000Y-40480000D01*
X87508953Y-39980983D02*
G75*
G02*
X128694975Y-39985025I20591047J-20019017D01*
G01*
X53700000Y-29100000D02*
X178700000Y-29100000D01*
X53700000Y-164100000D02*
X178700000Y-164100000D01*
X178700000Y-46100000D02*
X178700000Y-29100000D01*
X53700000Y-164100000D02*
X53700000Y-29100000D01*
D11*
%TO.C,J4*%
X63200000Y-79500000D03*
X63200000Y-88100000D03*
X63200000Y-84700000D03*
X55900000Y-88500000D03*
D12*
X56900000Y-84800000D03*
D11*
X55900000Y-78600000D03*
%TD*%
D13*
%TO.C,U9*%
X147775000Y-160730000D03*
X147775000Y-158190000D03*
D14*
X147775000Y-155650000D03*
%TD*%
D15*
%TO.C,SW2*%
X145750000Y-127550000D03*
X157150000Y-127550000D03*
D16*
X148950000Y-120050000D03*
X151450000Y-120050000D03*
X153950000Y-120050000D03*
X148950000Y-134550000D03*
D17*
X153950000Y-134550000D03*
%TD*%
D18*
%TO.C,U4*%
X170335000Y-111900000D03*
X175415000Y-111900000D03*
X172875000Y-111900000D03*
X170335000Y-120150000D03*
X175415000Y-120150000D03*
X172875000Y-120150000D03*
%TD*%
D19*
%TO.C,U7*%
X161325000Y-129040000D03*
X161325000Y-123960000D03*
X161325000Y-126500000D03*
X169575000Y-129040000D03*
X169575000Y-123960000D03*
X169575000Y-126500000D03*
%TD*%
D20*
%TO.C,SW1*%
X55700000Y-67550000D03*
X55700000Y-57850000D03*
D21*
X55700000Y-64700000D03*
X55700000Y-60700000D03*
X55700000Y-62700000D03*
%TD*%
D22*
%TO.C,HS1*%
X137500000Y-34600000D03*
X74500000Y-97600000D03*
X74500000Y-34600000D03*
X137500000Y-97600000D03*
%TD*%
D23*
%TO.C,DISP1*%
X58800000Y-107740000D03*
X58800000Y-151740000D03*
X134880000Y-107740000D03*
X134880000Y-151740000D03*
D24*
X139800000Y-113230000D03*
X139800000Y-115770000D03*
X139800000Y-118310000D03*
X139800000Y-120850000D03*
X139800000Y-123390000D03*
X139800000Y-125930000D03*
X139800000Y-128470000D03*
X139800000Y-131010000D03*
X139800000Y-133550000D03*
X139800000Y-136090000D03*
X139800000Y-138630000D03*
X139800000Y-141170000D03*
X139800000Y-143710000D03*
D25*
X139800000Y-146250000D03*
%TD*%
%TO.C,C17*%
G36*
G01*
X174800000Y-105149999D02*
X174800000Y-106450001D01*
G75*
G02*
X174550001Y-106700000I-249999J0D01*
G01*
X173899999Y-106700000D01*
G75*
G02*
X173650000Y-106450001I0J249999D01*
G01*
X173650000Y-105149999D01*
G75*
G02*
X173899999Y-104900000I249999J0D01*
G01*
X174550001Y-104900000D01*
G75*
G02*
X174800000Y-105149999I0J-249999D01*
G01*
G37*
G36*
G01*
X177750000Y-105149999D02*
X177750000Y-106450001D01*
G75*
G02*
X177500001Y-106700000I-249999J0D01*
G01*
X176849999Y-106700000D01*
G75*
G02*
X176600000Y-106450001I0J249999D01*
G01*
X176600000Y-105149999D01*
G75*
G02*
X176849999Y-104900000I249999J0D01*
G01*
X177500001Y-104900000D01*
G75*
G02*
X177750000Y-105149999I0J-249999D01*
G01*
G37*
%TD*%
%TO.C,C29*%
G36*
G01*
X136750001Y-143800000D02*
X135449999Y-143800000D01*
G75*
G02*
X135200000Y-143550001I0J249999D01*
G01*
X135200000Y-142899999D01*
G75*
G02*
X135449999Y-142650000I249999J0D01*
G01*
X136750001Y-142650000D01*
G75*
G02*
X137000000Y-142899999I0J-249999D01*
G01*
X137000000Y-143550001D01*
G75*
G02*
X136750001Y-143800000I-249999J0D01*
G01*
G37*
G36*
G01*
X136750001Y-146750000D02*
X135449999Y-146750000D01*
G75*
G02*
X135200000Y-146500001I0J249999D01*
G01*
X135200000Y-145849999D01*
G75*
G02*
X135449999Y-145600000I249999J0D01*
G01*
X136750001Y-145600000D01*
G75*
G02*
X137000000Y-145849999I0J-249999D01*
G01*
X137000000Y-146500001D01*
G75*
G02*
X136750001Y-146750000I-249999J0D01*
G01*
G37*
%TD*%
D26*
%TO.C,L2*%
X76800000Y-132050000D03*
X76800000Y-122550000D03*
%TD*%
D27*
%TO.C,R43*%
X89020000Y-108400000D03*
D28*
X94100000Y-108400000D03*
D29*
X91560000Y-91740000D03*
%TD*%
%TO.C,C16*%
G36*
G01*
X59000000Y-95000000D02*
X59000000Y-97000000D01*
G75*
G02*
X58750000Y-97250000I-250000J0D01*
G01*
X55250000Y-97250000D01*
G75*
G02*
X55000000Y-97000000I0J250000D01*
G01*
X55000000Y-95000000D01*
G75*
G02*
X55250000Y-94750000I250000J0D01*
G01*
X58750000Y-94750000D01*
G75*
G02*
X59000000Y-95000000I0J-250000D01*
G01*
G37*
G36*
G01*
X67000000Y-95000000D02*
X67000000Y-97000000D01*
G75*
G02*
X66750000Y-97250000I-250000J0D01*
G01*
X63250000Y-97250000D01*
G75*
G02*
X63000000Y-97000000I0J250000D01*
G01*
X63000000Y-95000000D01*
G75*
G02*
X63250000Y-94750000I250000J0D01*
G01*
X66750000Y-94750000D01*
G75*
G02*
X67000000Y-95000000I0J-250000D01*
G01*
G37*
%TD*%
%TO.C,C18*%
G36*
G01*
X67900000Y-106700000D02*
X67900000Y-108700000D01*
G75*
G02*
X67650000Y-108950000I-250000J0D01*
G01*
X64150000Y-108950000D01*
G75*
G02*
X63900000Y-108700000I0J250000D01*
G01*
X63900000Y-106700000D01*
G75*
G02*
X64150000Y-106450000I250000J0D01*
G01*
X67650000Y-106450000D01*
G75*
G02*
X67900000Y-106700000I0J-250000D01*
G01*
G37*
G36*
G01*
X75900000Y-106700000D02*
X75900000Y-108700000D01*
G75*
G02*
X75650000Y-108950000I-250000J0D01*
G01*
X72150000Y-108950000D01*
G75*
G02*
X71900000Y-108700000I0J250000D01*
G01*
X71900000Y-106700000D01*
G75*
G02*
X72150000Y-106450000I250000J0D01*
G01*
X75650000Y-106450000D01*
G75*
G02*
X75900000Y-106700000I0J-250000D01*
G01*
G37*
%TD*%
D30*
%TO.C,C5*%
X158650000Y-53987500D03*
X163650000Y-53987500D03*
%TD*%
%TO.C,C6*%
X158750000Y-62350000D03*
X163750000Y-62350000D03*
%TD*%
%TO.C,C4*%
X150275000Y-42700000D03*
X150275000Y-47700000D03*
%TD*%
%TO.C,C2*%
X163750000Y-37262500D03*
X158750000Y-37262500D03*
%TD*%
%TO.C,C3*%
X163750000Y-45625000D03*
X158750000Y-45625000D03*
%TD*%
%TO.C,U5*%
G36*
G01*
X86275000Y-121260000D02*
X86275000Y-121560000D01*
G75*
G02*
X86125000Y-121710000I-150000J0D01*
G01*
X84375000Y-121710000D01*
G75*
G02*
X84225000Y-121560000I0J150000D01*
G01*
X84225000Y-121260000D01*
G75*
G02*
X84375000Y-121110000I150000J0D01*
G01*
X86125000Y-121110000D01*
G75*
G02*
X86275000Y-121260000I0J-150000D01*
G01*
G37*
G36*
G01*
X86275000Y-119990000D02*
X86275000Y-120290000D01*
G75*
G02*
X86125000Y-120440000I-150000J0D01*
G01*
X84375000Y-120440000D01*
G75*
G02*
X84225000Y-120290000I0J150000D01*
G01*
X84225000Y-119990000D01*
G75*
G02*
X84375000Y-119840000I150000J0D01*
G01*
X86125000Y-119840000D01*
G75*
G02*
X86275000Y-119990000I0J-150000D01*
G01*
G37*
G36*
G01*
X86275000Y-118720000D02*
X86275000Y-119020000D01*
G75*
G02*
X86125000Y-119170000I-150000J0D01*
G01*
X84375000Y-119170000D01*
G75*
G02*
X84225000Y-119020000I0J150000D01*
G01*
X84225000Y-118720000D01*
G75*
G02*
X84375000Y-118570000I150000J0D01*
G01*
X86125000Y-118570000D01*
G75*
G02*
X86275000Y-118720000I0J-150000D01*
G01*
G37*
G36*
G01*
X86275000Y-117450000D02*
X86275000Y-117750000D01*
G75*
G02*
X86125000Y-117900000I-150000J0D01*
G01*
X84375000Y-117900000D01*
G75*
G02*
X84225000Y-117750000I0J150000D01*
G01*
X84225000Y-117450000D01*
G75*
G02*
X84375000Y-117300000I150000J0D01*
G01*
X86125000Y-117300000D01*
G75*
G02*
X86275000Y-117450000I0J-150000D01*
G01*
G37*
G36*
G01*
X86275000Y-116180000D02*
X86275000Y-116480000D01*
G75*
G02*
X86125000Y-116630000I-150000J0D01*
G01*
X84375000Y-116630000D01*
G75*
G02*
X84225000Y-116480000I0J150000D01*
G01*
X84225000Y-116180000D01*
G75*
G02*
X84375000Y-116030000I150000J0D01*
G01*
X86125000Y-116030000D01*
G75*
G02*
X86275000Y-116180000I0J-150000D01*
G01*
G37*
G36*
G01*
X86275000Y-114910000D02*
X86275000Y-115210000D01*
G75*
G02*
X86125000Y-115360000I-150000J0D01*
G01*
X84375000Y-115360000D01*
G75*
G02*
X84225000Y-115210000I0J150000D01*
G01*
X84225000Y-114910000D01*
G75*
G02*
X84375000Y-114760000I150000J0D01*
G01*
X86125000Y-114760000D01*
G75*
G02*
X86275000Y-114910000I0J-150000D01*
G01*
G37*
G36*
G01*
X86275000Y-113640000D02*
X86275000Y-113940000D01*
G75*
G02*
X86125000Y-114090000I-150000J0D01*
G01*
X84375000Y-114090000D01*
G75*
G02*
X84225000Y-113940000I0J150000D01*
G01*
X84225000Y-113640000D01*
G75*
G02*
X84375000Y-113490000I150000J0D01*
G01*
X86125000Y-113490000D01*
G75*
G02*
X86275000Y-113640000I0J-150000D01*
G01*
G37*
G36*
G01*
X95575000Y-113640000D02*
X95575000Y-113940000D01*
G75*
G02*
X95425000Y-114090000I-150000J0D01*
G01*
X93675000Y-114090000D01*
G75*
G02*
X93525000Y-113940000I0J150000D01*
G01*
X93525000Y-113640000D01*
G75*
G02*
X93675000Y-113490000I150000J0D01*
G01*
X95425000Y-113490000D01*
G75*
G02*
X95575000Y-113640000I0J-150000D01*
G01*
G37*
G36*
G01*
X95575000Y-114910000D02*
X95575000Y-115210000D01*
G75*
G02*
X95425000Y-115360000I-150000J0D01*
G01*
X93675000Y-115360000D01*
G75*
G02*
X93525000Y-115210000I0J150000D01*
G01*
X93525000Y-114910000D01*
G75*
G02*
X93675000Y-114760000I150000J0D01*
G01*
X95425000Y-114760000D01*
G75*
G02*
X95575000Y-114910000I0J-150000D01*
G01*
G37*
G36*
G01*
X95575000Y-116180000D02*
X95575000Y-116480000D01*
G75*
G02*
X95425000Y-116630000I-150000J0D01*
G01*
X93675000Y-116630000D01*
G75*
G02*
X93525000Y-116480000I0J150000D01*
G01*
X93525000Y-116180000D01*
G75*
G02*
X93675000Y-116030000I150000J0D01*
G01*
X95425000Y-116030000D01*
G75*
G02*
X95575000Y-116180000I0J-150000D01*
G01*
G37*
G36*
G01*
X95575000Y-117450000D02*
X95575000Y-117750000D01*
G75*
G02*
X95425000Y-117900000I-150000J0D01*
G01*
X93675000Y-117900000D01*
G75*
G02*
X93525000Y-117750000I0J150000D01*
G01*
X93525000Y-117450000D01*
G75*
G02*
X93675000Y-117300000I150000J0D01*
G01*
X95425000Y-117300000D01*
G75*
G02*
X95575000Y-117450000I0J-150000D01*
G01*
G37*
G36*
G01*
X95575000Y-118720000D02*
X95575000Y-119020000D01*
G75*
G02*
X95425000Y-119170000I-150000J0D01*
G01*
X93675000Y-119170000D01*
G75*
G02*
X93525000Y-119020000I0J150000D01*
G01*
X93525000Y-118720000D01*
G75*
G02*
X93675000Y-118570000I150000J0D01*
G01*
X95425000Y-118570000D01*
G75*
G02*
X95575000Y-118720000I0J-150000D01*
G01*
G37*
G36*
G01*
X95575000Y-119990000D02*
X95575000Y-120290000D01*
G75*
G02*
X95425000Y-120440000I-150000J0D01*
G01*
X93675000Y-120440000D01*
G75*
G02*
X93525000Y-120290000I0J150000D01*
G01*
X93525000Y-119990000D01*
G75*
G02*
X93675000Y-119840000I150000J0D01*
G01*
X95425000Y-119840000D01*
G75*
G02*
X95575000Y-119990000I0J-150000D01*
G01*
G37*
G36*
G01*
X95575000Y-121260000D02*
X95575000Y-121560000D01*
G75*
G02*
X95425000Y-121710000I-150000J0D01*
G01*
X93675000Y-121710000D01*
G75*
G02*
X93525000Y-121560000I0J150000D01*
G01*
X93525000Y-121260000D01*
G75*
G02*
X93675000Y-121110000I150000J0D01*
G01*
X95425000Y-121110000D01*
G75*
G02*
X95575000Y-121260000I0J-150000D01*
G01*
G37*
%TD*%
%TO.C,J3*%
G36*
G01*
X170950000Y-66000000D02*
X170950000Y-67100000D01*
G75*
G02*
X170400000Y-67650000I-550000J0D01*
G01*
X168000000Y-67650000D01*
G75*
G02*
X167450000Y-67100000I0J550000D01*
G01*
X167450000Y-66000000D01*
G75*
G02*
X168000000Y-65450000I550000J0D01*
G01*
X170400000Y-65450000D01*
G75*
G02*
X170950000Y-66000000I0J-550000D01*
G01*
G37*
G36*
G01*
X170950000Y-62000000D02*
X170950000Y-63100000D01*
G75*
G02*
X170400000Y-63650000I-550000J0D01*
G01*
X168000000Y-63650000D01*
G75*
G02*
X167450000Y-63100000I0J550000D01*
G01*
X167450000Y-62000000D01*
G75*
G02*
X168000000Y-61450000I550000J0D01*
G01*
X170400000Y-61450000D01*
G75*
G02*
X170950000Y-62000000I0J-550000D01*
G01*
G37*
G36*
G01*
X170950000Y-69000000D02*
X170950000Y-70100000D01*
G75*
G02*
X170400000Y-70650000I-550000J0D01*
G01*
X168000000Y-70650000D01*
G75*
G02*
X167450000Y-70100000I0J550000D01*
G01*
X167450000Y-69000000D01*
G75*
G02*
X168000000Y-68450000I550000J0D01*
G01*
X170400000Y-68450000D01*
G75*
G02*
X170950000Y-69000000I0J-550000D01*
G01*
G37*
G36*
G01*
X170950000Y-59000000D02*
X170950000Y-60100000D01*
G75*
G02*
X170400000Y-60650000I-550000J0D01*
G01*
X168000000Y-60650000D01*
G75*
G02*
X167450000Y-60100000I0J550000D01*
G01*
X167450000Y-59000000D01*
G75*
G02*
X168000000Y-58450000I550000J0D01*
G01*
X170400000Y-58450000D01*
G75*
G02*
X170950000Y-59000000I0J-550000D01*
G01*
G37*
G36*
G01*
X175300000Y-63350000D02*
X175300000Y-65750000D01*
G75*
G02*
X174750000Y-66300000I-550000J0D01*
G01*
X173650000Y-66300000D01*
G75*
G02*
X173100000Y-65750000I0J550000D01*
G01*
X173100000Y-63350000D01*
G75*
G02*
X173650000Y-62800000I550000J0D01*
G01*
X174750000Y-62800000D01*
G75*
G02*
X175300000Y-63350000I0J-550000D01*
G01*
G37*
%TD*%
%TO.C,J8*%
G36*
G01*
X170950000Y-140475000D02*
X170950000Y-141575000D01*
G75*
G02*
X170400000Y-142125000I-550000J0D01*
G01*
X168000000Y-142125000D01*
G75*
G02*
X167450000Y-141575000I0J550000D01*
G01*
X167450000Y-140475000D01*
G75*
G02*
X168000000Y-139925000I550000J0D01*
G01*
X170400000Y-139925000D01*
G75*
G02*
X170950000Y-140475000I0J-550000D01*
G01*
G37*
G36*
G01*
X170950000Y-136475000D02*
X170950000Y-137575000D01*
G75*
G02*
X170400000Y-138125000I-550000J0D01*
G01*
X168000000Y-138125000D01*
G75*
G02*
X167450000Y-137575000I0J550000D01*
G01*
X167450000Y-136475000D01*
G75*
G02*
X168000000Y-135925000I550000J0D01*
G01*
X170400000Y-135925000D01*
G75*
G02*
X170950000Y-136475000I0J-550000D01*
G01*
G37*
G36*
G01*
X170950000Y-143475000D02*
X170950000Y-144575000D01*
G75*
G02*
X170400000Y-145125000I-550000J0D01*
G01*
X168000000Y-145125000D01*
G75*
G02*
X167450000Y-144575000I0J550000D01*
G01*
X167450000Y-143475000D01*
G75*
G02*
X168000000Y-142925000I550000J0D01*
G01*
X170400000Y-142925000D01*
G75*
G02*
X170950000Y-143475000I0J-550000D01*
G01*
G37*
G36*
G01*
X170950000Y-133475000D02*
X170950000Y-134575000D01*
G75*
G02*
X170400000Y-135125000I-550000J0D01*
G01*
X168000000Y-135125000D01*
G75*
G02*
X167450000Y-134575000I0J550000D01*
G01*
X167450000Y-133475000D01*
G75*
G02*
X168000000Y-132925000I550000J0D01*
G01*
X170400000Y-132925000D01*
G75*
G02*
X170950000Y-133475000I0J-550000D01*
G01*
G37*
G36*
G01*
X175300000Y-137825000D02*
X175300000Y-140225000D01*
G75*
G02*
X174750000Y-140775000I-550000J0D01*
G01*
X173650000Y-140775000D01*
G75*
G02*
X173100000Y-140225000I0J550000D01*
G01*
X173100000Y-137825000D01*
G75*
G02*
X173650000Y-137275000I550000J0D01*
G01*
X174750000Y-137275000D01*
G75*
G02*
X175300000Y-137825000I0J-550000D01*
G01*
G37*
%TD*%
%TO.C,J2*%
G36*
G01*
X170950000Y-50550000D02*
X170950000Y-51650000D01*
G75*
G02*
X170400000Y-52200000I-550000J0D01*
G01*
X168000000Y-52200000D01*
G75*
G02*
X167450000Y-51650000I0J550000D01*
G01*
X167450000Y-50550000D01*
G75*
G02*
X168000000Y-50000000I550000J0D01*
G01*
X170400000Y-50000000D01*
G75*
G02*
X170950000Y-50550000I0J-550000D01*
G01*
G37*
G36*
G01*
X170950000Y-46550000D02*
X170950000Y-47650000D01*
G75*
G02*
X170400000Y-48200000I-550000J0D01*
G01*
X168000000Y-48200000D01*
G75*
G02*
X167450000Y-47650000I0J550000D01*
G01*
X167450000Y-46550000D01*
G75*
G02*
X168000000Y-46000000I550000J0D01*
G01*
X170400000Y-46000000D01*
G75*
G02*
X170950000Y-46550000I0J-550000D01*
G01*
G37*
G36*
G01*
X170950000Y-53550000D02*
X170950000Y-54650000D01*
G75*
G02*
X170400000Y-55200000I-550000J0D01*
G01*
X168000000Y-55200000D01*
G75*
G02*
X167450000Y-54650000I0J550000D01*
G01*
X167450000Y-53550000D01*
G75*
G02*
X168000000Y-53000000I550000J0D01*
G01*
X170400000Y-53000000D01*
G75*
G02*
X170950000Y-53550000I0J-550000D01*
G01*
G37*
G36*
G01*
X170950000Y-43550000D02*
X170950000Y-44650000D01*
G75*
G02*
X170400000Y-45200000I-550000J0D01*
G01*
X168000000Y-45200000D01*
G75*
G02*
X167450000Y-44650000I0J550000D01*
G01*
X167450000Y-43550000D01*
G75*
G02*
X168000000Y-43000000I550000J0D01*
G01*
X170400000Y-43000000D01*
G75*
G02*
X170950000Y-43550000I0J-550000D01*
G01*
G37*
G36*
G01*
X175300000Y-47900000D02*
X175300000Y-50300000D01*
G75*
G02*
X174750000Y-50850000I-550000J0D01*
G01*
X173650000Y-50850000D01*
G75*
G02*
X173100000Y-50300000I0J550000D01*
G01*
X173100000Y-47900000D01*
G75*
G02*
X173650000Y-47350000I550000J0D01*
G01*
X174750000Y-47350000D01*
G75*
G02*
X175300000Y-47900000I0J-550000D01*
G01*
G37*
%TD*%
D31*
%TO.C,SW3*%
X148950000Y-143600000D03*
X153450000Y-143600000D03*
X148950000Y-150100000D03*
X153450000Y-150100000D03*
%TD*%
D32*
%TO.C,U1*%
X150725000Y-69825000D03*
G36*
G01*
X152600000Y-71937500D02*
X152600000Y-72612500D01*
G75*
G02*
X152537500Y-72675000I-62500J0D01*
G01*
X152412500Y-72675000D01*
G75*
G02*
X152350000Y-72612500I0J62500D01*
G01*
X152350000Y-71937500D01*
G75*
G02*
X152412500Y-71875000I62500J0D01*
G01*
X152537500Y-71875000D01*
G75*
G02*
X152600000Y-71937500I0J-62500D01*
G01*
G37*
G36*
G01*
X152100000Y-71937500D02*
X152100000Y-72612500D01*
G75*
G02*
X152037500Y-72675000I-62500J0D01*
G01*
X151912500Y-72675000D01*
G75*
G02*
X151850000Y-72612500I0J62500D01*
G01*
X151850000Y-71937500D01*
G75*
G02*
X151912500Y-71875000I62500J0D01*
G01*
X152037500Y-71875000D01*
G75*
G02*
X152100000Y-71937500I0J-62500D01*
G01*
G37*
G36*
G01*
X151600000Y-71937500D02*
X151600000Y-72612500D01*
G75*
G02*
X151537500Y-72675000I-62500J0D01*
G01*
X151412500Y-72675000D01*
G75*
G02*
X151350000Y-72612500I0J62500D01*
G01*
X151350000Y-71937500D01*
G75*
G02*
X151412500Y-71875000I62500J0D01*
G01*
X151537500Y-71875000D01*
G75*
G02*
X151600000Y-71937500I0J-62500D01*
G01*
G37*
G36*
G01*
X151100000Y-71937500D02*
X151100000Y-72612500D01*
G75*
G02*
X151037500Y-72675000I-62500J0D01*
G01*
X150912500Y-72675000D01*
G75*
G02*
X150850000Y-72612500I0J62500D01*
G01*
X150850000Y-71937500D01*
G75*
G02*
X150912500Y-71875000I62500J0D01*
G01*
X151037500Y-71875000D01*
G75*
G02*
X151100000Y-71937500I0J-62500D01*
G01*
G37*
G36*
G01*
X150600000Y-71937500D02*
X150600000Y-72612500D01*
G75*
G02*
X150537500Y-72675000I-62500J0D01*
G01*
X150412500Y-72675000D01*
G75*
G02*
X150350000Y-72612500I0J62500D01*
G01*
X150350000Y-71937500D01*
G75*
G02*
X150412500Y-71875000I62500J0D01*
G01*
X150537500Y-71875000D01*
G75*
G02*
X150600000Y-71937500I0J-62500D01*
G01*
G37*
G36*
G01*
X150100000Y-71937500D02*
X150100000Y-72612500D01*
G75*
G02*
X150037500Y-72675000I-62500J0D01*
G01*
X149912500Y-72675000D01*
G75*
G02*
X149850000Y-72612500I0J62500D01*
G01*
X149850000Y-71937500D01*
G75*
G02*
X149912500Y-71875000I62500J0D01*
G01*
X150037500Y-71875000D01*
G75*
G02*
X150100000Y-71937500I0J-62500D01*
G01*
G37*
G36*
G01*
X149600000Y-71937500D02*
X149600000Y-72612500D01*
G75*
G02*
X149537500Y-72675000I-62500J0D01*
G01*
X149412500Y-72675000D01*
G75*
G02*
X149350000Y-72612500I0J62500D01*
G01*
X149350000Y-71937500D01*
G75*
G02*
X149412500Y-71875000I62500J0D01*
G01*
X149537500Y-71875000D01*
G75*
G02*
X149600000Y-71937500I0J-62500D01*
G01*
G37*
G36*
G01*
X149100000Y-71937500D02*
X149100000Y-72612500D01*
G75*
G02*
X149037500Y-72675000I-62500J0D01*
G01*
X148912500Y-72675000D01*
G75*
G02*
X148850000Y-72612500I0J62500D01*
G01*
X148850000Y-71937500D01*
G75*
G02*
X148912500Y-71875000I62500J0D01*
G01*
X149037500Y-71875000D01*
G75*
G02*
X149100000Y-71937500I0J-62500D01*
G01*
G37*
G36*
G01*
X148675000Y-71512500D02*
X148675000Y-71637500D01*
G75*
G02*
X148612500Y-71700000I-62500J0D01*
G01*
X147937500Y-71700000D01*
G75*
G02*
X147875000Y-71637500I0J62500D01*
G01*
X147875000Y-71512500D01*
G75*
G02*
X147937500Y-71450000I62500J0D01*
G01*
X148612500Y-71450000D01*
G75*
G02*
X148675000Y-71512500I0J-62500D01*
G01*
G37*
G36*
G01*
X148675000Y-71012500D02*
X148675000Y-71137500D01*
G75*
G02*
X148612500Y-71200000I-62500J0D01*
G01*
X147937500Y-71200000D01*
G75*
G02*
X147875000Y-71137500I0J62500D01*
G01*
X147875000Y-71012500D01*
G75*
G02*
X147937500Y-70950000I62500J0D01*
G01*
X148612500Y-70950000D01*
G75*
G02*
X148675000Y-71012500I0J-62500D01*
G01*
G37*
G36*
G01*
X148675000Y-70512500D02*
X148675000Y-70637500D01*
G75*
G02*
X148612500Y-70700000I-62500J0D01*
G01*
X147937500Y-70700000D01*
G75*
G02*
X147875000Y-70637500I0J62500D01*
G01*
X147875000Y-70512500D01*
G75*
G02*
X147937500Y-70450000I62500J0D01*
G01*
X148612500Y-70450000D01*
G75*
G02*
X148675000Y-70512500I0J-62500D01*
G01*
G37*
G36*
G01*
X148675000Y-70012500D02*
X148675000Y-70137500D01*
G75*
G02*
X148612500Y-70200000I-62500J0D01*
G01*
X147937500Y-70200000D01*
G75*
G02*
X147875000Y-70137500I0J62500D01*
G01*
X147875000Y-70012500D01*
G75*
G02*
X147937500Y-69950000I62500J0D01*
G01*
X148612500Y-69950000D01*
G75*
G02*
X148675000Y-70012500I0J-62500D01*
G01*
G37*
G36*
G01*
X148675000Y-69512500D02*
X148675000Y-69637500D01*
G75*
G02*
X148612500Y-69700000I-62500J0D01*
G01*
X147937500Y-69700000D01*
G75*
G02*
X147875000Y-69637500I0J62500D01*
G01*
X147875000Y-69512500D01*
G75*
G02*
X147937500Y-69450000I62500J0D01*
G01*
X148612500Y-69450000D01*
G75*
G02*
X148675000Y-69512500I0J-62500D01*
G01*
G37*
G36*
G01*
X148675000Y-69012500D02*
X148675000Y-69137500D01*
G75*
G02*
X148612500Y-69200000I-62500J0D01*
G01*
X147937500Y-69200000D01*
G75*
G02*
X147875000Y-69137500I0J62500D01*
G01*
X147875000Y-69012500D01*
G75*
G02*
X147937500Y-68950000I62500J0D01*
G01*
X148612500Y-68950000D01*
G75*
G02*
X148675000Y-69012500I0J-62500D01*
G01*
G37*
G36*
G01*
X148675000Y-68512500D02*
X148675000Y-68637500D01*
G75*
G02*
X148612500Y-68700000I-62500J0D01*
G01*
X147937500Y-68700000D01*
G75*
G02*
X147875000Y-68637500I0J62500D01*
G01*
X147875000Y-68512500D01*
G75*
G02*
X147937500Y-68450000I62500J0D01*
G01*
X148612500Y-68450000D01*
G75*
G02*
X148675000Y-68512500I0J-62500D01*
G01*
G37*
G36*
G01*
X148675000Y-68012500D02*
X148675000Y-68137500D01*
G75*
G02*
X148612500Y-68200000I-62500J0D01*
G01*
X147937500Y-68200000D01*
G75*
G02*
X147875000Y-68137500I0J62500D01*
G01*
X147875000Y-68012500D01*
G75*
G02*
X147937500Y-67950000I62500J0D01*
G01*
X148612500Y-67950000D01*
G75*
G02*
X148675000Y-68012500I0J-62500D01*
G01*
G37*
G36*
G01*
X149100000Y-67037500D02*
X149100000Y-67712500D01*
G75*
G02*
X149037500Y-67775000I-62500J0D01*
G01*
X148912500Y-67775000D01*
G75*
G02*
X148850000Y-67712500I0J62500D01*
G01*
X148850000Y-67037500D01*
G75*
G02*
X148912500Y-66975000I62500J0D01*
G01*
X149037500Y-66975000D01*
G75*
G02*
X149100000Y-67037500I0J-62500D01*
G01*
G37*
G36*
G01*
X149600000Y-67037500D02*
X149600000Y-67712500D01*
G75*
G02*
X149537500Y-67775000I-62500J0D01*
G01*
X149412500Y-67775000D01*
G75*
G02*
X149350000Y-67712500I0J62500D01*
G01*
X149350000Y-67037500D01*
G75*
G02*
X149412500Y-66975000I62500J0D01*
G01*
X149537500Y-66975000D01*
G75*
G02*
X149600000Y-67037500I0J-62500D01*
G01*
G37*
G36*
G01*
X150100000Y-67037500D02*
X150100000Y-67712500D01*
G75*
G02*
X150037500Y-67775000I-62500J0D01*
G01*
X149912500Y-67775000D01*
G75*
G02*
X149850000Y-67712500I0J62500D01*
G01*
X149850000Y-67037500D01*
G75*
G02*
X149912500Y-66975000I62500J0D01*
G01*
X150037500Y-66975000D01*
G75*
G02*
X150100000Y-67037500I0J-62500D01*
G01*
G37*
G36*
G01*
X150600000Y-67037500D02*
X150600000Y-67712500D01*
G75*
G02*
X150537500Y-67775000I-62500J0D01*
G01*
X150412500Y-67775000D01*
G75*
G02*
X150350000Y-67712500I0J62500D01*
G01*
X150350000Y-67037500D01*
G75*
G02*
X150412500Y-66975000I62500J0D01*
G01*
X150537500Y-66975000D01*
G75*
G02*
X150600000Y-67037500I0J-62500D01*
G01*
G37*
G36*
G01*
X151100000Y-67037500D02*
X151100000Y-67712500D01*
G75*
G02*
X151037500Y-67775000I-62500J0D01*
G01*
X150912500Y-67775000D01*
G75*
G02*
X150850000Y-67712500I0J62500D01*
G01*
X150850000Y-67037500D01*
G75*
G02*
X150912500Y-66975000I62500J0D01*
G01*
X151037500Y-66975000D01*
G75*
G02*
X151100000Y-67037500I0J-62500D01*
G01*
G37*
G36*
G01*
X151600000Y-67037500D02*
X151600000Y-67712500D01*
G75*
G02*
X151537500Y-67775000I-62500J0D01*
G01*
X151412500Y-67775000D01*
G75*
G02*
X151350000Y-67712500I0J62500D01*
G01*
X151350000Y-67037500D01*
G75*
G02*
X151412500Y-66975000I62500J0D01*
G01*
X151537500Y-66975000D01*
G75*
G02*
X151600000Y-67037500I0J-62500D01*
G01*
G37*
G36*
G01*
X152100000Y-67037500D02*
X152100000Y-67712500D01*
G75*
G02*
X152037500Y-67775000I-62500J0D01*
G01*
X151912500Y-67775000D01*
G75*
G02*
X151850000Y-67712500I0J62500D01*
G01*
X151850000Y-67037500D01*
G75*
G02*
X151912500Y-66975000I62500J0D01*
G01*
X152037500Y-66975000D01*
G75*
G02*
X152100000Y-67037500I0J-62500D01*
G01*
G37*
G36*
G01*
X152600000Y-67037500D02*
X152600000Y-67712500D01*
G75*
G02*
X152537500Y-67775000I-62500J0D01*
G01*
X152412500Y-67775000D01*
G75*
G02*
X152350000Y-67712500I0J62500D01*
G01*
X152350000Y-67037500D01*
G75*
G02*
X152412500Y-66975000I62500J0D01*
G01*
X152537500Y-66975000D01*
G75*
G02*
X152600000Y-67037500I0J-62500D01*
G01*
G37*
G36*
G01*
X153575000Y-68012500D02*
X153575000Y-68137500D01*
G75*
G02*
X153512500Y-68200000I-62500J0D01*
G01*
X152837500Y-68200000D01*
G75*
G02*
X152775000Y-68137500I0J62500D01*
G01*
X152775000Y-68012500D01*
G75*
G02*
X152837500Y-67950000I62500J0D01*
G01*
X153512500Y-67950000D01*
G75*
G02*
X153575000Y-68012500I0J-62500D01*
G01*
G37*
G36*
G01*
X153575000Y-68512500D02*
X153575000Y-68637500D01*
G75*
G02*
X153512500Y-68700000I-62500J0D01*
G01*
X152837500Y-68700000D01*
G75*
G02*
X152775000Y-68637500I0J62500D01*
G01*
X152775000Y-68512500D01*
G75*
G02*
X152837500Y-68450000I62500J0D01*
G01*
X153512500Y-68450000D01*
G75*
G02*
X153575000Y-68512500I0J-62500D01*
G01*
G37*
G36*
G01*
X153575000Y-69012500D02*
X153575000Y-69137500D01*
G75*
G02*
X153512500Y-69200000I-62500J0D01*
G01*
X152837500Y-69200000D01*
G75*
G02*
X152775000Y-69137500I0J62500D01*
G01*
X152775000Y-69012500D01*
G75*
G02*
X152837500Y-68950000I62500J0D01*
G01*
X153512500Y-68950000D01*
G75*
G02*
X153575000Y-69012500I0J-62500D01*
G01*
G37*
G36*
G01*
X153575000Y-69512500D02*
X153575000Y-69637500D01*
G75*
G02*
X153512500Y-69700000I-62500J0D01*
G01*
X152837500Y-69700000D01*
G75*
G02*
X152775000Y-69637500I0J62500D01*
G01*
X152775000Y-69512500D01*
G75*
G02*
X152837500Y-69450000I62500J0D01*
G01*
X153512500Y-69450000D01*
G75*
G02*
X153575000Y-69512500I0J-62500D01*
G01*
G37*
G36*
G01*
X153575000Y-70012500D02*
X153575000Y-70137500D01*
G75*
G02*
X153512500Y-70200000I-62500J0D01*
G01*
X152837500Y-70200000D01*
G75*
G02*
X152775000Y-70137500I0J62500D01*
G01*
X152775000Y-70012500D01*
G75*
G02*
X152837500Y-69950000I62500J0D01*
G01*
X153512500Y-69950000D01*
G75*
G02*
X153575000Y-70012500I0J-62500D01*
G01*
G37*
G36*
G01*
X153575000Y-70512500D02*
X153575000Y-70637500D01*
G75*
G02*
X153512500Y-70700000I-62500J0D01*
G01*
X152837500Y-70700000D01*
G75*
G02*
X152775000Y-70637500I0J62500D01*
G01*
X152775000Y-70512500D01*
G75*
G02*
X152837500Y-70450000I62500J0D01*
G01*
X153512500Y-70450000D01*
G75*
G02*
X153575000Y-70512500I0J-62500D01*
G01*
G37*
G36*
G01*
X153575000Y-71012500D02*
X153575000Y-71137500D01*
G75*
G02*
X153512500Y-71200000I-62500J0D01*
G01*
X152837500Y-71200000D01*
G75*
G02*
X152775000Y-71137500I0J62500D01*
G01*
X152775000Y-71012500D01*
G75*
G02*
X152837500Y-70950000I62500J0D01*
G01*
X153512500Y-70950000D01*
G75*
G02*
X153575000Y-71012500I0J-62500D01*
G01*
G37*
G36*
G01*
X153575000Y-71512500D02*
X153575000Y-71637500D01*
G75*
G02*
X153512500Y-71700000I-62500J0D01*
G01*
X152837500Y-71700000D01*
G75*
G02*
X152775000Y-71637500I0J62500D01*
G01*
X152775000Y-71512500D01*
G75*
G02*
X152837500Y-71450000I62500J0D01*
G01*
X153512500Y-71450000D01*
G75*
G02*
X153575000Y-71512500I0J-62500D01*
G01*
G37*
%TD*%
D33*
%TO.C,U2*%
X159200000Y-79350000D03*
X159200000Y-77450000D03*
X161400000Y-77450000D03*
X161400000Y-78400000D03*
X161400000Y-79350000D03*
%TD*%
%TO.C,U6*%
G36*
G01*
X117670000Y-120350000D02*
X117370000Y-120350000D01*
G75*
G02*
X117220000Y-120200000I0J150000D01*
G01*
X117220000Y-118550000D01*
G75*
G02*
X117370000Y-118400000I150000J0D01*
G01*
X117670000Y-118400000D01*
G75*
G02*
X117820000Y-118550000I0J-150000D01*
G01*
X117820000Y-120200000D01*
G75*
G02*
X117670000Y-120350000I-150000J0D01*
G01*
G37*
G36*
G01*
X118940000Y-120350000D02*
X118640000Y-120350000D01*
G75*
G02*
X118490000Y-120200000I0J150000D01*
G01*
X118490000Y-118550000D01*
G75*
G02*
X118640000Y-118400000I150000J0D01*
G01*
X118940000Y-118400000D01*
G75*
G02*
X119090000Y-118550000I0J-150000D01*
G01*
X119090000Y-120200000D01*
G75*
G02*
X118940000Y-120350000I-150000J0D01*
G01*
G37*
G36*
G01*
X120210000Y-120350000D02*
X119910000Y-120350000D01*
G75*
G02*
X119760000Y-120200000I0J150000D01*
G01*
X119760000Y-118550000D01*
G75*
G02*
X119910000Y-118400000I150000J0D01*
G01*
X120210000Y-118400000D01*
G75*
G02*
X120360000Y-118550000I0J-150000D01*
G01*
X120360000Y-120200000D01*
G75*
G02*
X120210000Y-120350000I-150000J0D01*
G01*
G37*
G36*
G01*
X121480000Y-120350000D02*
X121180000Y-120350000D01*
G75*
G02*
X121030000Y-120200000I0J150000D01*
G01*
X121030000Y-118550000D01*
G75*
G02*
X121180000Y-118400000I150000J0D01*
G01*
X121480000Y-118400000D01*
G75*
G02*
X121630000Y-118550000I0J-150000D01*
G01*
X121630000Y-120200000D01*
G75*
G02*
X121480000Y-120350000I-150000J0D01*
G01*
G37*
G36*
G01*
X121480000Y-125300000D02*
X121180000Y-125300000D01*
G75*
G02*
X121030000Y-125150000I0J150000D01*
G01*
X121030000Y-123500000D01*
G75*
G02*
X121180000Y-123350000I150000J0D01*
G01*
X121480000Y-123350000D01*
G75*
G02*
X121630000Y-123500000I0J-150000D01*
G01*
X121630000Y-125150000D01*
G75*
G02*
X121480000Y-125300000I-150000J0D01*
G01*
G37*
G36*
G01*
X120210000Y-125300000D02*
X119910000Y-125300000D01*
G75*
G02*
X119760000Y-125150000I0J150000D01*
G01*
X119760000Y-123500000D01*
G75*
G02*
X119910000Y-123350000I150000J0D01*
G01*
X120210000Y-123350000D01*
G75*
G02*
X120360000Y-123500000I0J-150000D01*
G01*
X120360000Y-125150000D01*
G75*
G02*
X120210000Y-125300000I-150000J0D01*
G01*
G37*
G36*
G01*
X118940000Y-125300000D02*
X118640000Y-125300000D01*
G75*
G02*
X118490000Y-125150000I0J150000D01*
G01*
X118490000Y-123500000D01*
G75*
G02*
X118640000Y-123350000I150000J0D01*
G01*
X118940000Y-123350000D01*
G75*
G02*
X119090000Y-123500000I0J-150000D01*
G01*
X119090000Y-125150000D01*
G75*
G02*
X118940000Y-125300000I-150000J0D01*
G01*
G37*
G36*
G01*
X117670000Y-125300000D02*
X117370000Y-125300000D01*
G75*
G02*
X117220000Y-125150000I0J150000D01*
G01*
X117220000Y-123500000D01*
G75*
G02*
X117370000Y-123350000I150000J0D01*
G01*
X117670000Y-123350000D01*
G75*
G02*
X117820000Y-123500000I0J-150000D01*
G01*
X117820000Y-125150000D01*
G75*
G02*
X117670000Y-125300000I-150000J0D01*
G01*
G37*
%TD*%
D34*
%TO.C,U3*%
X152010000Y-90120000D03*
X149470000Y-90120000D03*
X152010000Y-92660000D03*
X149470000Y-92660000D03*
X152010000Y-95200000D03*
X149470000Y-95200000D03*
X152010000Y-97740000D03*
X149470000Y-97740000D03*
X152010000Y-100280000D03*
X149470000Y-100280000D03*
X177410000Y-87580000D03*
X174870000Y-87580000D03*
X172330000Y-87580000D03*
X169790000Y-87580000D03*
X167250000Y-87580000D03*
X164710000Y-87580000D03*
X162170000Y-87580000D03*
X159630000Y-87580000D03*
X157090000Y-87580000D03*
X154550000Y-87580000D03*
X152010000Y-87580000D03*
X149470000Y-87580000D03*
X146930000Y-87580000D03*
X174870000Y-100280000D03*
X177410000Y-102820000D03*
X174870000Y-102820000D03*
X172330000Y-102820000D03*
X169790000Y-102820000D03*
X167250000Y-102820000D03*
X164710000Y-102820000D03*
X162170000Y-102820000D03*
X159630000Y-102820000D03*
X157090000Y-102820000D03*
X154550000Y-102820000D03*
X152010000Y-102820000D03*
X149470000Y-102820000D03*
X146930000Y-102820000D03*
X144390000Y-87580000D03*
X144390000Y-90120000D03*
X144390000Y-92660000D03*
X144390000Y-102820000D03*
X144390000Y-100280000D03*
X144390000Y-97740000D03*
X144390000Y-95200000D03*
%TD*%
D35*
%TO.C,U8*%
X115875000Y-131350000D03*
X116825000Y-131350000D03*
X114925000Y-131350000D03*
X114925000Y-129150000D03*
X115875000Y-129150000D03*
X116825000Y-129150000D03*
%TD*%
D36*
%TO.C,TP2*%
X74275000Y-158250000D03*
%TD*%
%TO.C,TP1*%
X173275000Y-80625000D03*
%TD*%
%TO.C,R30*%
G36*
G01*
X66750002Y-129587500D02*
X65849998Y-129587500D01*
G75*
G02*
X65600000Y-129337502I0J249998D01*
G01*
X65600000Y-128812498D01*
G75*
G02*
X65849998Y-128562500I249998J0D01*
G01*
X66750002Y-128562500D01*
G75*
G02*
X67000000Y-128812498I0J-249998D01*
G01*
X67000000Y-129337502D01*
G75*
G02*
X66750002Y-129587500I-249998J0D01*
G01*
G37*
G36*
G01*
X66750002Y-131412500D02*
X65849998Y-131412500D01*
G75*
G02*
X65600000Y-131162502I0J249998D01*
G01*
X65600000Y-130637498D01*
G75*
G02*
X65849998Y-130387500I249998J0D01*
G01*
X66750002Y-130387500D01*
G75*
G02*
X67000000Y-130637498I0J-249998D01*
G01*
X67000000Y-131162502D01*
G75*
G02*
X66750002Y-131412500I-249998J0D01*
G01*
G37*
%TD*%
%TO.C,R36*%
G36*
G01*
X65799998Y-140067500D02*
X66700002Y-140067500D01*
G75*
G02*
X66950000Y-140317498I0J-249998D01*
G01*
X66950000Y-140842502D01*
G75*
G02*
X66700002Y-141092500I-249998J0D01*
G01*
X65799998Y-141092500D01*
G75*
G02*
X65550000Y-140842502I0J249998D01*
G01*
X65550000Y-140317498D01*
G75*
G02*
X65799998Y-140067500I249998J0D01*
G01*
G37*
G36*
G01*
X65799998Y-138242500D02*
X66700002Y-138242500D01*
G75*
G02*
X66950000Y-138492498I0J-249998D01*
G01*
X66950000Y-139017502D01*
G75*
G02*
X66700002Y-139267500I-249998J0D01*
G01*
X65799998Y-139267500D01*
G75*
G02*
X65550000Y-139017502I0J249998D01*
G01*
X65550000Y-138492498D01*
G75*
G02*
X65799998Y-138242500I249998J0D01*
G01*
G37*
%TD*%
%TO.C,R28*%
G36*
G01*
X66750002Y-125787500D02*
X65849998Y-125787500D01*
G75*
G02*
X65600000Y-125537502I0J249998D01*
G01*
X65600000Y-125012498D01*
G75*
G02*
X65849998Y-124762500I249998J0D01*
G01*
X66750002Y-124762500D01*
G75*
G02*
X67000000Y-125012498I0J-249998D01*
G01*
X67000000Y-125537502D01*
G75*
G02*
X66750002Y-125787500I-249998J0D01*
G01*
G37*
G36*
G01*
X66750002Y-127612500D02*
X65849998Y-127612500D01*
G75*
G02*
X65600000Y-127362502I0J249998D01*
G01*
X65600000Y-126837498D01*
G75*
G02*
X65849998Y-126587500I249998J0D01*
G01*
X66750002Y-126587500D01*
G75*
G02*
X67000000Y-126837498I0J-249998D01*
G01*
X67000000Y-127362502D01*
G75*
G02*
X66750002Y-127612500I-249998J0D01*
G01*
G37*
%TD*%
%TO.C,R16*%
G36*
G01*
X174012500Y-107949998D02*
X174012500Y-108850002D01*
G75*
G02*
X173762502Y-109100000I-249998J0D01*
G01*
X173237498Y-109100000D01*
G75*
G02*
X172987500Y-108850002I0J249998D01*
G01*
X172987500Y-107949998D01*
G75*
G02*
X173237498Y-107700000I249998J0D01*
G01*
X173762502Y-107700000D01*
G75*
G02*
X174012500Y-107949998I0J-249998D01*
G01*
G37*
G36*
G01*
X175837500Y-107949998D02*
X175837500Y-108850002D01*
G75*
G02*
X175587502Y-109100000I-249998J0D01*
G01*
X175062498Y-109100000D01*
G75*
G02*
X174812500Y-108850002I0J249998D01*
G01*
X174812500Y-107949998D01*
G75*
G02*
X175062498Y-107700000I249998J0D01*
G01*
X175587502Y-107700000D01*
G75*
G02*
X175837500Y-107949998I0J-249998D01*
G01*
G37*
%TD*%
%TO.C,R26*%
G36*
G01*
X164649998Y-119937500D02*
X165550002Y-119937500D01*
G75*
G02*
X165800000Y-120187498I0J-249998D01*
G01*
X165800000Y-120712502D01*
G75*
G02*
X165550002Y-120962500I-249998J0D01*
G01*
X164649998Y-120962500D01*
G75*
G02*
X164400000Y-120712502I0J249998D01*
G01*
X164400000Y-120187498D01*
G75*
G02*
X164649998Y-119937500I249998J0D01*
G01*
G37*
G36*
G01*
X164649998Y-118112500D02*
X165550002Y-118112500D01*
G75*
G02*
X165800000Y-118362498I0J-249998D01*
G01*
X165800000Y-118887502D01*
G75*
G02*
X165550002Y-119137500I-249998J0D01*
G01*
X164649998Y-119137500D01*
G75*
G02*
X164400000Y-118887502I0J249998D01*
G01*
X164400000Y-118362498D01*
G75*
G02*
X164649998Y-118112500I249998J0D01*
G01*
G37*
%TD*%
%TO.C,R4*%
G36*
G01*
X155537500Y-73974998D02*
X155537500Y-74875002D01*
G75*
G02*
X155287502Y-75125000I-249998J0D01*
G01*
X154762498Y-75125000D01*
G75*
G02*
X154512500Y-74875002I0J249998D01*
G01*
X154512500Y-73974998D01*
G75*
G02*
X154762498Y-73725000I249998J0D01*
G01*
X155287502Y-73725000D01*
G75*
G02*
X155537500Y-73974998I0J-249998D01*
G01*
G37*
G36*
G01*
X157362500Y-73974998D02*
X157362500Y-74875002D01*
G75*
G02*
X157112502Y-75125000I-249998J0D01*
G01*
X156587498Y-75125000D01*
G75*
G02*
X156337500Y-74875002I0J249998D01*
G01*
X156337500Y-73974998D01*
G75*
G02*
X156587498Y-73725000I249998J0D01*
G01*
X157112502Y-73725000D01*
G75*
G02*
X157362500Y-73974998I0J-249998D01*
G01*
G37*
%TD*%
%TO.C,R5*%
G36*
G01*
X146549998Y-75700000D02*
X147450002Y-75700000D01*
G75*
G02*
X147700000Y-75949998I0J-249998D01*
G01*
X147700000Y-76475002D01*
G75*
G02*
X147450002Y-76725000I-249998J0D01*
G01*
X146549998Y-76725000D01*
G75*
G02*
X146300000Y-76475002I0J249998D01*
G01*
X146300000Y-75949998D01*
G75*
G02*
X146549998Y-75700000I249998J0D01*
G01*
G37*
G36*
G01*
X146549998Y-73875000D02*
X147450002Y-73875000D01*
G75*
G02*
X147700000Y-74124998I0J-249998D01*
G01*
X147700000Y-74650002D01*
G75*
G02*
X147450002Y-74900000I-249998J0D01*
G01*
X146549998Y-74900000D01*
G75*
G02*
X146300000Y-74650002I0J249998D01*
G01*
X146300000Y-74124998D01*
G75*
G02*
X146549998Y-73875000I249998J0D01*
G01*
G37*
%TD*%
%TO.C,R39*%
G36*
G01*
X69299998Y-147862500D02*
X70200002Y-147862500D01*
G75*
G02*
X70450000Y-148112498I0J-249998D01*
G01*
X70450000Y-148637502D01*
G75*
G02*
X70200002Y-148887500I-249998J0D01*
G01*
X69299998Y-148887500D01*
G75*
G02*
X69050000Y-148637502I0J249998D01*
G01*
X69050000Y-148112498D01*
G75*
G02*
X69299998Y-147862500I249998J0D01*
G01*
G37*
G36*
G01*
X69299998Y-146037500D02*
X70200002Y-146037500D01*
G75*
G02*
X70450000Y-146287498I0J-249998D01*
G01*
X70450000Y-146812502D01*
G75*
G02*
X70200002Y-147062500I-249998J0D01*
G01*
X69299998Y-147062500D01*
G75*
G02*
X69050000Y-146812502I0J249998D01*
G01*
X69050000Y-146287498D01*
G75*
G02*
X69299998Y-146037500I249998J0D01*
G01*
G37*
%TD*%
%TO.C,R1*%
G36*
G01*
X152400000Y-36749998D02*
X152400000Y-37650002D01*
G75*
G02*
X152150002Y-37900000I-249998J0D01*
G01*
X151624998Y-37900000D01*
G75*
G02*
X151375000Y-37650002I0J249998D01*
G01*
X151375000Y-36749998D01*
G75*
G02*
X151624998Y-36500000I249998J0D01*
G01*
X152150002Y-36500000D01*
G75*
G02*
X152400000Y-36749998I0J-249998D01*
G01*
G37*
G36*
G01*
X154225000Y-36749998D02*
X154225000Y-37650002D01*
G75*
G02*
X153975002Y-37900000I-249998J0D01*
G01*
X153449998Y-37900000D01*
G75*
G02*
X153200000Y-37650002I0J249998D01*
G01*
X153200000Y-36749998D01*
G75*
G02*
X153449998Y-36500000I249998J0D01*
G01*
X153975002Y-36500000D01*
G75*
G02*
X154225000Y-36749998I0J-249998D01*
G01*
G37*
%TD*%
%TO.C,R33*%
G36*
G01*
X162252500Y-137380002D02*
X162252500Y-136479998D01*
G75*
G02*
X162502498Y-136230000I249998J0D01*
G01*
X163027502Y-136230000D01*
G75*
G02*
X163277500Y-136479998I0J-249998D01*
G01*
X163277500Y-137380002D01*
G75*
G02*
X163027502Y-137630000I-249998J0D01*
G01*
X162502498Y-137630000D01*
G75*
G02*
X162252500Y-137380002I0J249998D01*
G01*
G37*
G36*
G01*
X160427500Y-137380002D02*
X160427500Y-136479998D01*
G75*
G02*
X160677498Y-136230000I249998J0D01*
G01*
X161202502Y-136230000D01*
G75*
G02*
X161452500Y-136479998I0J-249998D01*
G01*
X161452500Y-137380002D01*
G75*
G02*
X161202502Y-137630000I-249998J0D01*
G01*
X160677498Y-137630000D01*
G75*
G02*
X160427500Y-137380002I0J249998D01*
G01*
G37*
%TD*%
%TO.C,R34*%
G36*
G01*
X158800002Y-137402500D02*
X157899998Y-137402500D01*
G75*
G02*
X157650000Y-137152502I0J249998D01*
G01*
X157650000Y-136627498D01*
G75*
G02*
X157899998Y-136377500I249998J0D01*
G01*
X158800002Y-136377500D01*
G75*
G02*
X159050000Y-136627498I0J-249998D01*
G01*
X159050000Y-137152502D01*
G75*
G02*
X158800002Y-137402500I-249998J0D01*
G01*
G37*
G36*
G01*
X158800002Y-139227500D02*
X157899998Y-139227500D01*
G75*
G02*
X157650000Y-138977502I0J249998D01*
G01*
X157650000Y-138452498D01*
G75*
G02*
X157899998Y-138202500I249998J0D01*
G01*
X158800002Y-138202500D01*
G75*
G02*
X159050000Y-138452498I0J-249998D01*
G01*
X159050000Y-138977502D01*
G75*
G02*
X158800002Y-139227500I-249998J0D01*
G01*
G37*
%TD*%
%TO.C,R24*%
G36*
G01*
X147105000Y-117075002D02*
X147105000Y-116174998D01*
G75*
G02*
X147354998Y-115925000I249998J0D01*
G01*
X147880002Y-115925000D01*
G75*
G02*
X148130000Y-116174998I0J-249998D01*
G01*
X148130000Y-117075002D01*
G75*
G02*
X147880002Y-117325000I-249998J0D01*
G01*
X147354998Y-117325000D01*
G75*
G02*
X147105000Y-117075002I0J249998D01*
G01*
G37*
G36*
G01*
X145280000Y-117149900D02*
X145280000Y-116250100D01*
G75*
G02*
X145530100Y-116000000I250100J0D01*
G01*
X146054900Y-116000000D01*
G75*
G02*
X146305000Y-116250100I0J-250100D01*
G01*
X146305000Y-117149900D01*
G75*
G02*
X146054900Y-117400000I-250100J0D01*
G01*
X145530100Y-117400000D01*
G75*
G02*
X145280000Y-117149900I0J250100D01*
G01*
G37*
%TD*%
%TO.C,R42*%
G36*
G01*
X158500002Y-152112500D02*
X157599998Y-152112500D01*
G75*
G02*
X157350000Y-151862502I0J249998D01*
G01*
X157350000Y-151337498D01*
G75*
G02*
X157599998Y-151087500I249998J0D01*
G01*
X158500002Y-151087500D01*
G75*
G02*
X158750000Y-151337498I0J-249998D01*
G01*
X158750000Y-151862502D01*
G75*
G02*
X158500002Y-152112500I-249998J0D01*
G01*
G37*
G36*
G01*
X158500002Y-153937500D02*
X157599998Y-153937500D01*
G75*
G02*
X157350000Y-153687502I0J249998D01*
G01*
X157350000Y-153162498D01*
G75*
G02*
X157599998Y-152912500I249998J0D01*
G01*
X158500002Y-152912500D01*
G75*
G02*
X158750000Y-153162498I0J-249998D01*
G01*
X158750000Y-153687502D01*
G75*
G02*
X158500002Y-153937500I-249998J0D01*
G01*
G37*
%TD*%
%TO.C,R25*%
G36*
G01*
X151605000Y-116249998D02*
X151605000Y-117150002D01*
G75*
G02*
X151355002Y-117400000I-249998J0D01*
G01*
X150829998Y-117400000D01*
G75*
G02*
X150580000Y-117150002I0J249998D01*
G01*
X150580000Y-116249998D01*
G75*
G02*
X150829998Y-116000000I249998J0D01*
G01*
X151355002Y-116000000D01*
G75*
G02*
X151605000Y-116249998I0J-249998D01*
G01*
G37*
G36*
G01*
X153430000Y-116249998D02*
X153430000Y-117150002D01*
G75*
G02*
X153180002Y-117400000I-249998J0D01*
G01*
X152654998Y-117400000D01*
G75*
G02*
X152405000Y-117150002I0J249998D01*
G01*
X152405000Y-116249998D01*
G75*
G02*
X152654998Y-116000000I249998J0D01*
G01*
X153180002Y-116000000D01*
G75*
G02*
X153430000Y-116249998I0J-249998D01*
G01*
G37*
%TD*%
%TO.C,R18*%
G36*
G01*
X141850002Y-109287500D02*
X140949998Y-109287500D01*
G75*
G02*
X140700000Y-109037502I0J249998D01*
G01*
X140700000Y-108512498D01*
G75*
G02*
X140949998Y-108262500I249998J0D01*
G01*
X141850002Y-108262500D01*
G75*
G02*
X142100000Y-108512498I0J-249998D01*
G01*
X142100000Y-109037502D01*
G75*
G02*
X141850002Y-109287500I-249998J0D01*
G01*
G37*
G36*
G01*
X141850002Y-111112500D02*
X140949998Y-111112500D01*
G75*
G02*
X140700000Y-110862502I0J249998D01*
G01*
X140700000Y-110337498D01*
G75*
G02*
X140949998Y-110087500I249998J0D01*
G01*
X141850002Y-110087500D01*
G75*
G02*
X142100000Y-110337498I0J-249998D01*
G01*
X142100000Y-110862502D01*
G75*
G02*
X141850002Y-111112500I-249998J0D01*
G01*
G37*
%TD*%
%TO.C,R41*%
G36*
G01*
X160825002Y-147962500D02*
X159924998Y-147962500D01*
G75*
G02*
X159675000Y-147712502I0J249998D01*
G01*
X159675000Y-147187498D01*
G75*
G02*
X159924998Y-146937500I249998J0D01*
G01*
X160825002Y-146937500D01*
G75*
G02*
X161075000Y-147187498I0J-249998D01*
G01*
X161075000Y-147712502D01*
G75*
G02*
X160825002Y-147962500I-249998J0D01*
G01*
G37*
G36*
G01*
X160825002Y-149787500D02*
X159924998Y-149787500D01*
G75*
G02*
X159675000Y-149537502I0J249998D01*
G01*
X159675000Y-149012498D01*
G75*
G02*
X159924998Y-148762500I249998J0D01*
G01*
X160825002Y-148762500D01*
G75*
G02*
X161075000Y-149012498I0J-249998D01*
G01*
X161075000Y-149537502D01*
G75*
G02*
X160825002Y-149787500I-249998J0D01*
G01*
G37*
%TD*%
%TO.C,R20*%
G36*
G01*
X146305000Y-113652498D02*
X146305000Y-114552502D01*
G75*
G02*
X146055002Y-114802500I-249998J0D01*
G01*
X145529998Y-114802500D01*
G75*
G02*
X145280000Y-114552502I0J249998D01*
G01*
X145280000Y-113652498D01*
G75*
G02*
X145529998Y-113402500I249998J0D01*
G01*
X146055002Y-113402500D01*
G75*
G02*
X146305000Y-113652498I0J-249998D01*
G01*
G37*
G36*
G01*
X148130000Y-113652498D02*
X148130000Y-114552502D01*
G75*
G02*
X147880002Y-114802500I-249998J0D01*
G01*
X147354998Y-114802500D01*
G75*
G02*
X147105000Y-114552502I0J249998D01*
G01*
X147105000Y-113652498D01*
G75*
G02*
X147354998Y-113402500I249998J0D01*
G01*
X147880002Y-113402500D01*
G75*
G02*
X148130000Y-113652498I0J-249998D01*
G01*
G37*
%TD*%
%TO.C,R21*%
G36*
G01*
X152405000Y-114615002D02*
X152405000Y-113714998D01*
G75*
G02*
X152654998Y-113465000I249998J0D01*
G01*
X153180002Y-113465000D01*
G75*
G02*
X153430000Y-113714998I0J-249998D01*
G01*
X153430000Y-114615002D01*
G75*
G02*
X153180002Y-114865000I-249998J0D01*
G01*
X152654998Y-114865000D01*
G75*
G02*
X152405000Y-114615002I0J249998D01*
G01*
G37*
G36*
G01*
X150580000Y-114615002D02*
X150580000Y-113714998D01*
G75*
G02*
X150829998Y-113465000I249998J0D01*
G01*
X151355002Y-113465000D01*
G75*
G02*
X151605000Y-113714998I0J-249998D01*
G01*
X151605000Y-114615002D01*
G75*
G02*
X151355002Y-114865000I-249998J0D01*
G01*
X150829998Y-114865000D01*
G75*
G02*
X150580000Y-114615002I0J249998D01*
G01*
G37*
%TD*%
%TO.C,R27*%
G36*
G01*
X143480002Y-120232500D02*
X142579998Y-120232500D01*
G75*
G02*
X142330000Y-119982502I0J249998D01*
G01*
X142330000Y-119457498D01*
G75*
G02*
X142579998Y-119207500I249998J0D01*
G01*
X143480002Y-119207500D01*
G75*
G02*
X143730000Y-119457498I0J-249998D01*
G01*
X143730000Y-119982502D01*
G75*
G02*
X143480002Y-120232500I-249998J0D01*
G01*
G37*
G36*
G01*
X143480002Y-122057500D02*
X142579998Y-122057500D01*
G75*
G02*
X142330000Y-121807502I0J249998D01*
G01*
X142330000Y-121282498D01*
G75*
G02*
X142579998Y-121032500I249998J0D01*
G01*
X143480002Y-121032500D01*
G75*
G02*
X143730000Y-121282498I0J-249998D01*
G01*
X143730000Y-121807502D01*
G75*
G02*
X143480002Y-122057500I-249998J0D01*
G01*
G37*
%TD*%
%TO.C,R31*%
G36*
G01*
X142259998Y-132210000D02*
X143160002Y-132210000D01*
G75*
G02*
X143410000Y-132459998I0J-249998D01*
G01*
X143410000Y-132985002D01*
G75*
G02*
X143160002Y-133235000I-249998J0D01*
G01*
X142259998Y-133235000D01*
G75*
G02*
X142010000Y-132985002I0J249998D01*
G01*
X142010000Y-132459998D01*
G75*
G02*
X142259998Y-132210000I249998J0D01*
G01*
G37*
G36*
G01*
X142259998Y-130385000D02*
X143160002Y-130385000D01*
G75*
G02*
X143410000Y-130634998I0J-249998D01*
G01*
X143410000Y-131160002D01*
G75*
G02*
X143160002Y-131410000I-249998J0D01*
G01*
X142259998Y-131410000D01*
G75*
G02*
X142010000Y-131160002I0J249998D01*
G01*
X142010000Y-130634998D01*
G75*
G02*
X142259998Y-130385000I249998J0D01*
G01*
G37*
%TD*%
%TO.C,R38*%
G36*
G01*
X143822500Y-140429998D02*
X143822500Y-141330002D01*
G75*
G02*
X143572502Y-141580000I-249998J0D01*
G01*
X143047498Y-141580000D01*
G75*
G02*
X142797500Y-141330002I0J249998D01*
G01*
X142797500Y-140429998D01*
G75*
G02*
X143047498Y-140180000I249998J0D01*
G01*
X143572502Y-140180000D01*
G75*
G02*
X143822500Y-140429998I0J-249998D01*
G01*
G37*
G36*
G01*
X145647500Y-140429998D02*
X145647500Y-141330002D01*
G75*
G02*
X145397502Y-141580000I-249998J0D01*
G01*
X144872498Y-141580000D01*
G75*
G02*
X144622500Y-141330002I0J249998D01*
G01*
X144622500Y-140429998D01*
G75*
G02*
X144872498Y-140180000I249998J0D01*
G01*
X145397502Y-140180000D01*
G75*
G02*
X145647500Y-140429998I0J-249998D01*
G01*
G37*
%TD*%
%TO.C,R37*%
G36*
G01*
X148269998Y-140652500D02*
X149170002Y-140652500D01*
G75*
G02*
X149420000Y-140902498I0J-249998D01*
G01*
X149420000Y-141427502D01*
G75*
G02*
X149170002Y-141677500I-249998J0D01*
G01*
X148269998Y-141677500D01*
G75*
G02*
X148020000Y-141427502I0J249998D01*
G01*
X148020000Y-140902498D01*
G75*
G02*
X148269998Y-140652500I249998J0D01*
G01*
G37*
G36*
G01*
X148269998Y-138827500D02*
X149170002Y-138827500D01*
G75*
G02*
X149420000Y-139077498I0J-249998D01*
G01*
X149420000Y-139602502D01*
G75*
G02*
X149170002Y-139852500I-249998J0D01*
G01*
X148269998Y-139852500D01*
G75*
G02*
X148020000Y-139602502I0J249998D01*
G01*
X148020000Y-139077498D01*
G75*
G02*
X148269998Y-138827500I249998J0D01*
G01*
G37*
%TD*%
%TO.C,R40*%
G36*
G01*
X144212500Y-147949998D02*
X144212500Y-148850002D01*
G75*
G02*
X143962502Y-149100000I-249998J0D01*
G01*
X143437498Y-149100000D01*
G75*
G02*
X143187500Y-148850002I0J249998D01*
G01*
X143187500Y-147949998D01*
G75*
G02*
X143437498Y-147700000I249998J0D01*
G01*
X143962502Y-147700000D01*
G75*
G02*
X144212500Y-147949998I0J-249998D01*
G01*
G37*
G36*
G01*
X146037500Y-147949998D02*
X146037500Y-148850002D01*
G75*
G02*
X145787502Y-149100000I-249998J0D01*
G01*
X145262498Y-149100000D01*
G75*
G02*
X145012500Y-148850002I0J249998D01*
G01*
X145012500Y-147949998D01*
G75*
G02*
X145262498Y-147700000I249998J0D01*
G01*
X145787502Y-147700000D01*
G75*
G02*
X146037500Y-147949998I0J-249998D01*
G01*
G37*
%TD*%
%TO.C,R13*%
G36*
G01*
X166849998Y-106987500D02*
X167750002Y-106987500D01*
G75*
G02*
X168000000Y-107237498I0J-249998D01*
G01*
X168000000Y-107762502D01*
G75*
G02*
X167750002Y-108012500I-249998J0D01*
G01*
X166849998Y-108012500D01*
G75*
G02*
X166600000Y-107762502I0J249998D01*
G01*
X166600000Y-107237498D01*
G75*
G02*
X166849998Y-106987500I249998J0D01*
G01*
G37*
G36*
G01*
X166849998Y-105162500D02*
X167750002Y-105162500D01*
G75*
G02*
X168000000Y-105412498I0J-249998D01*
G01*
X168000000Y-105937502D01*
G75*
G02*
X167750002Y-106187500I-249998J0D01*
G01*
X166849998Y-106187500D01*
G75*
G02*
X166600000Y-105937502I0J249998D01*
G01*
X166600000Y-105412498D01*
G75*
G02*
X166849998Y-105162500I249998J0D01*
G01*
G37*
%TD*%
%TO.C,R15*%
G36*
G01*
X170500002Y-106450000D02*
X169599998Y-106450000D01*
G75*
G02*
X169350000Y-106200002I0J249998D01*
G01*
X169350000Y-105674998D01*
G75*
G02*
X169599998Y-105425000I249998J0D01*
G01*
X170500002Y-105425000D01*
G75*
G02*
X170750000Y-105674998I0J-249998D01*
G01*
X170750000Y-106200002D01*
G75*
G02*
X170500002Y-106450000I-249998J0D01*
G01*
G37*
G36*
G01*
X170500002Y-108275000D02*
X169599998Y-108275000D01*
G75*
G02*
X169350000Y-108025002I0J249998D01*
G01*
X169350000Y-107499998D01*
G75*
G02*
X169599998Y-107250000I249998J0D01*
G01*
X170500002Y-107250000D01*
G75*
G02*
X170750000Y-107499998I0J-249998D01*
G01*
X170750000Y-108025002D01*
G75*
G02*
X170500002Y-108275000I-249998J0D01*
G01*
G37*
%TD*%
%TO.C,R17*%
G36*
G01*
X116100000Y-113050002D02*
X116100000Y-112149998D01*
G75*
G02*
X116349998Y-111900000I249998J0D01*
G01*
X116875002Y-111900000D01*
G75*
G02*
X117125000Y-112149998I0J-249998D01*
G01*
X117125000Y-113050002D01*
G75*
G02*
X116875002Y-113300000I-249998J0D01*
G01*
X116349998Y-113300000D01*
G75*
G02*
X116100000Y-113050002I0J249998D01*
G01*
G37*
G36*
G01*
X114275000Y-113050002D02*
X114275000Y-112149998D01*
G75*
G02*
X114524998Y-111900000I249998J0D01*
G01*
X115050002Y-111900000D01*
G75*
G02*
X115300000Y-112149998I0J-249998D01*
G01*
X115300000Y-113050002D01*
G75*
G02*
X115050002Y-113300000I-249998J0D01*
G01*
X114524998Y-113300000D01*
G75*
G02*
X114275000Y-113050002I0J249998D01*
G01*
G37*
%TD*%
%TO.C,R19*%
G36*
G01*
X126749998Y-112712500D02*
X127650002Y-112712500D01*
G75*
G02*
X127900000Y-112962498I0J-249998D01*
G01*
X127900000Y-113487502D01*
G75*
G02*
X127650002Y-113737500I-249998J0D01*
G01*
X126749998Y-113737500D01*
G75*
G02*
X126500000Y-113487502I0J249998D01*
G01*
X126500000Y-112962498D01*
G75*
G02*
X126749998Y-112712500I249998J0D01*
G01*
G37*
G36*
G01*
X126749998Y-110887500D02*
X127650002Y-110887500D01*
G75*
G02*
X127900000Y-111137498I0J-249998D01*
G01*
X127900000Y-111662502D01*
G75*
G02*
X127650002Y-111912500I-249998J0D01*
G01*
X126749998Y-111912500D01*
G75*
G02*
X126500000Y-111662502I0J249998D01*
G01*
X126500000Y-111137498D01*
G75*
G02*
X126749998Y-110887500I249998J0D01*
G01*
G37*
%TD*%
%TO.C,R3*%
G36*
G01*
X59612500Y-65249998D02*
X59612500Y-66150002D01*
G75*
G02*
X59362502Y-66400000I-249998J0D01*
G01*
X58837498Y-66400000D01*
G75*
G02*
X58587500Y-66150002I0J249998D01*
G01*
X58587500Y-65249998D01*
G75*
G02*
X58837498Y-65000000I249998J0D01*
G01*
X59362502Y-65000000D01*
G75*
G02*
X59612500Y-65249998I0J-249998D01*
G01*
G37*
G36*
G01*
X61437500Y-65249998D02*
X61437500Y-66150002D01*
G75*
G02*
X61187502Y-66400000I-249998J0D01*
G01*
X60662498Y-66400000D01*
G75*
G02*
X60412500Y-66150002I0J249998D01*
G01*
X60412500Y-65249998D01*
G75*
G02*
X60662498Y-65000000I249998J0D01*
G01*
X61187502Y-65000000D01*
G75*
G02*
X61437500Y-65249998I0J-249998D01*
G01*
G37*
%TD*%
%TO.C,R2*%
G36*
G01*
X59612500Y-62249998D02*
X59612500Y-63150002D01*
G75*
G02*
X59362502Y-63400000I-249998J0D01*
G01*
X58837498Y-63400000D01*
G75*
G02*
X58587500Y-63150002I0J249998D01*
G01*
X58587500Y-62249998D01*
G75*
G02*
X58837498Y-62000000I249998J0D01*
G01*
X59362502Y-62000000D01*
G75*
G02*
X59612500Y-62249998I0J-249998D01*
G01*
G37*
G36*
G01*
X61437500Y-62249998D02*
X61437500Y-63150002D01*
G75*
G02*
X61187502Y-63400000I-249998J0D01*
G01*
X60662498Y-63400000D01*
G75*
G02*
X60412500Y-63150002I0J249998D01*
G01*
X60412500Y-62249998D01*
G75*
G02*
X60662498Y-62000000I249998J0D01*
G01*
X61187502Y-62000000D01*
G75*
G02*
X61437500Y-62249998I0J-249998D01*
G01*
G37*
%TD*%
%TO.C,R29*%
G36*
G01*
X119549998Y-128612500D02*
X120450002Y-128612500D01*
G75*
G02*
X120700000Y-128862498I0J-249998D01*
G01*
X120700000Y-129387502D01*
G75*
G02*
X120450002Y-129637500I-249998J0D01*
G01*
X119549998Y-129637500D01*
G75*
G02*
X119300000Y-129387502I0J249998D01*
G01*
X119300000Y-128862498D01*
G75*
G02*
X119549998Y-128612500I249998J0D01*
G01*
G37*
G36*
G01*
X119549998Y-126787500D02*
X120450002Y-126787500D01*
G75*
G02*
X120700000Y-127037498I0J-249998D01*
G01*
X120700000Y-127562502D01*
G75*
G02*
X120450002Y-127812500I-249998J0D01*
G01*
X119549998Y-127812500D01*
G75*
G02*
X119300000Y-127562502I0J249998D01*
G01*
X119300000Y-127037498D01*
G75*
G02*
X119549998Y-126787500I249998J0D01*
G01*
G37*
%TD*%
%TO.C,R12*%
G36*
G01*
X164649998Y-106962500D02*
X165550002Y-106962500D01*
G75*
G02*
X165800000Y-107212498I0J-249998D01*
G01*
X165800000Y-107737502D01*
G75*
G02*
X165550002Y-107987500I-249998J0D01*
G01*
X164649998Y-107987500D01*
G75*
G02*
X164400000Y-107737502I0J249998D01*
G01*
X164400000Y-107212498D01*
G75*
G02*
X164649998Y-106962500I249998J0D01*
G01*
G37*
G36*
G01*
X164649998Y-105137500D02*
X165550002Y-105137500D01*
G75*
G02*
X165800000Y-105387498I0J-249998D01*
G01*
X165800000Y-105912502D01*
G75*
G02*
X165550002Y-106162500I-249998J0D01*
G01*
X164649998Y-106162500D01*
G75*
G02*
X164400000Y-105912502I0J249998D01*
G01*
X164400000Y-105387498D01*
G75*
G02*
X164649998Y-105137500I249998J0D01*
G01*
G37*
%TD*%
%TO.C,R14*%
G36*
G01*
X162149998Y-107287500D02*
X163050002Y-107287500D01*
G75*
G02*
X163300000Y-107537498I0J-249998D01*
G01*
X163300000Y-108062502D01*
G75*
G02*
X163050002Y-108312500I-249998J0D01*
G01*
X162149998Y-108312500D01*
G75*
G02*
X161900000Y-108062502I0J249998D01*
G01*
X161900000Y-107537498D01*
G75*
G02*
X162149998Y-107287500I249998J0D01*
G01*
G37*
G36*
G01*
X162149998Y-105462500D02*
X163050002Y-105462500D01*
G75*
G02*
X163300000Y-105712498I0J-249998D01*
G01*
X163300000Y-106237502D01*
G75*
G02*
X163050002Y-106487500I-249998J0D01*
G01*
X162149998Y-106487500D01*
G75*
G02*
X161900000Y-106237502I0J249998D01*
G01*
X161900000Y-105712498D01*
G75*
G02*
X162149998Y-105462500I249998J0D01*
G01*
G37*
%TD*%
%TO.C,R11*%
G36*
G01*
X143999998Y-106750000D02*
X144900002Y-106750000D01*
G75*
G02*
X145150000Y-106999998I0J-249998D01*
G01*
X145150000Y-107525002D01*
G75*
G02*
X144900002Y-107775000I-249998J0D01*
G01*
X143999998Y-107775000D01*
G75*
G02*
X143750000Y-107525002I0J249998D01*
G01*
X143750000Y-106999998D01*
G75*
G02*
X143999998Y-106750000I249998J0D01*
G01*
G37*
G36*
G01*
X143999998Y-104925000D02*
X144900002Y-104925000D01*
G75*
G02*
X145150000Y-105174998I0J-249998D01*
G01*
X145150000Y-105700002D01*
G75*
G02*
X144900002Y-105950000I-249998J0D01*
G01*
X143999998Y-105950000D01*
G75*
G02*
X143750000Y-105700002I0J249998D01*
G01*
X143750000Y-105174998D01*
G75*
G02*
X143999998Y-104925000I249998J0D01*
G01*
G37*
%TD*%
%TO.C,R6*%
G36*
G01*
X144125000Y-83599997D02*
X144125000Y-84500001D01*
G75*
G02*
X143875002Y-84749999I-249998J0D01*
G01*
X143349998Y-84749999D01*
G75*
G02*
X143100000Y-84500001I0J249998D01*
G01*
X143100000Y-83599997D01*
G75*
G02*
X143349998Y-83349999I249998J0D01*
G01*
X143875002Y-83349999D01*
G75*
G02*
X144125000Y-83599997I0J-249998D01*
G01*
G37*
G36*
G01*
X145950000Y-83599997D02*
X145950000Y-84500001D01*
G75*
G02*
X145700002Y-84749999I-249998J0D01*
G01*
X145174998Y-84749999D01*
G75*
G02*
X144925000Y-84500001I0J249998D01*
G01*
X144925000Y-83599997D01*
G75*
G02*
X145174998Y-83349999I249998J0D01*
G01*
X145700002Y-83349999D01*
G75*
G02*
X145950000Y-83599997I0J-249998D01*
G01*
G37*
%TD*%
%TO.C,R7*%
G36*
G01*
X148112500Y-83599997D02*
X148112500Y-84500001D01*
G75*
G02*
X147862502Y-84749999I-249998J0D01*
G01*
X147337498Y-84749999D01*
G75*
G02*
X147087500Y-84500001I0J249998D01*
G01*
X147087500Y-83599997D01*
G75*
G02*
X147337498Y-83349999I249998J0D01*
G01*
X147862502Y-83349999D01*
G75*
G02*
X148112500Y-83599997I0J-249998D01*
G01*
G37*
G36*
G01*
X149937500Y-83599997D02*
X149937500Y-84500001D01*
G75*
G02*
X149687502Y-84749999I-249998J0D01*
G01*
X149162498Y-84749999D01*
G75*
G02*
X148912500Y-84500001I0J249998D01*
G01*
X148912500Y-83599997D01*
G75*
G02*
X149162498Y-83349999I249998J0D01*
G01*
X149687502Y-83349999D01*
G75*
G02*
X149937500Y-83599997I0J-249998D01*
G01*
G37*
%TD*%
%TO.C,R8*%
G36*
G01*
X152325002Y-83362500D02*
X151424998Y-83362500D01*
G75*
G02*
X151175000Y-83112502I0J249998D01*
G01*
X151175000Y-82587498D01*
G75*
G02*
X151424998Y-82337500I249998J0D01*
G01*
X152325002Y-82337500D01*
G75*
G02*
X152575000Y-82587498I0J-249998D01*
G01*
X152575000Y-83112502D01*
G75*
G02*
X152325002Y-83362500I-249998J0D01*
G01*
G37*
G36*
G01*
X152325002Y-85187500D02*
X151424998Y-85187500D01*
G75*
G02*
X151175000Y-84937502I0J249998D01*
G01*
X151175000Y-84412498D01*
G75*
G02*
X151424998Y-84162500I249998J0D01*
G01*
X152325002Y-84162500D01*
G75*
G02*
X152575000Y-84412498I0J-249998D01*
G01*
X152575000Y-84937502D01*
G75*
G02*
X152325002Y-85187500I-249998J0D01*
G01*
G37*
%TD*%
%TO.C,R9*%
G36*
G01*
X155150002Y-83362500D02*
X154249998Y-83362500D01*
G75*
G02*
X154000000Y-83112502I0J249998D01*
G01*
X154000000Y-82587498D01*
G75*
G02*
X154249998Y-82337500I249998J0D01*
G01*
X155150002Y-82337500D01*
G75*
G02*
X155400000Y-82587498I0J-249998D01*
G01*
X155400000Y-83112502D01*
G75*
G02*
X155150002Y-83362500I-249998J0D01*
G01*
G37*
G36*
G01*
X155150002Y-85187500D02*
X154249998Y-85187500D01*
G75*
G02*
X154000000Y-84937502I0J249998D01*
G01*
X154000000Y-84412498D01*
G75*
G02*
X154249998Y-84162500I249998J0D01*
G01*
X155150002Y-84162500D01*
G75*
G02*
X155400000Y-84412498I0J-249998D01*
G01*
X155400000Y-84937502D01*
G75*
G02*
X155150002Y-85187500I-249998J0D01*
G01*
G37*
%TD*%
%TO.C,R10*%
G36*
G01*
X160462500Y-84599998D02*
X160462500Y-85500002D01*
G75*
G02*
X160212502Y-85750000I-249998J0D01*
G01*
X159687498Y-85750000D01*
G75*
G02*
X159437500Y-85500002I0J249998D01*
G01*
X159437500Y-84599998D01*
G75*
G02*
X159687498Y-84350000I249998J0D01*
G01*
X160212502Y-84350000D01*
G75*
G02*
X160462500Y-84599998I0J-249998D01*
G01*
G37*
G36*
G01*
X162287500Y-84599998D02*
X162287500Y-85500002D01*
G75*
G02*
X162037502Y-85750000I-249998J0D01*
G01*
X161512498Y-85750000D01*
G75*
G02*
X161262500Y-85500002I0J249998D01*
G01*
X161262500Y-84599998D01*
G75*
G02*
X161512498Y-84350000I249998J0D01*
G01*
X162037502Y-84350000D01*
G75*
G02*
X162287500Y-84599998I0J-249998D01*
G01*
G37*
%TD*%
%TO.C,R23*%
G36*
G01*
X162575002Y-115225000D02*
X161674998Y-115225000D01*
G75*
G02*
X161425000Y-114975002I0J249998D01*
G01*
X161425000Y-114449998D01*
G75*
G02*
X161674998Y-114200000I249998J0D01*
G01*
X162575002Y-114200000D01*
G75*
G02*
X162825000Y-114449998I0J-249998D01*
G01*
X162825000Y-114975002D01*
G75*
G02*
X162575002Y-115225000I-249998J0D01*
G01*
G37*
G36*
G01*
X162575002Y-117050000D02*
X161674998Y-117050000D01*
G75*
G02*
X161425000Y-116800002I0J249998D01*
G01*
X161425000Y-116274998D01*
G75*
G02*
X161674998Y-116025000I249998J0D01*
G01*
X162575002Y-116025000D01*
G75*
G02*
X162825000Y-116274998I0J-249998D01*
G01*
X162825000Y-116800002D01*
G75*
G02*
X162575002Y-117050000I-249998J0D01*
G01*
G37*
%TD*%
%TO.C,R22*%
G36*
G01*
X159900002Y-115225000D02*
X158999998Y-115225000D01*
G75*
G02*
X158750000Y-114975002I0J249998D01*
G01*
X158750000Y-114449998D01*
G75*
G02*
X158999998Y-114200000I249998J0D01*
G01*
X159900002Y-114200000D01*
G75*
G02*
X160150000Y-114449998I0J-249998D01*
G01*
X160150000Y-114975002D01*
G75*
G02*
X159900002Y-115225000I-249998J0D01*
G01*
G37*
G36*
G01*
X159900002Y-117050000D02*
X158999998Y-117050000D01*
G75*
G02*
X158750000Y-116800002I0J249998D01*
G01*
X158750000Y-116274998D01*
G75*
G02*
X158999998Y-116025000I249998J0D01*
G01*
X159900002Y-116025000D01*
G75*
G02*
X160150000Y-116274998I0J-249998D01*
G01*
X160150000Y-116800002D01*
G75*
G02*
X159900002Y-117050000I-249998J0D01*
G01*
G37*
%TD*%
%TO.C,R35*%
G36*
G01*
X113599998Y-139962500D02*
X114500002Y-139962500D01*
G75*
G02*
X114750000Y-140212498I0J-249998D01*
G01*
X114750000Y-140737502D01*
G75*
G02*
X114500002Y-140987500I-249998J0D01*
G01*
X113599998Y-140987500D01*
G75*
G02*
X113350000Y-140737502I0J249998D01*
G01*
X113350000Y-140212498D01*
G75*
G02*
X113599998Y-139962500I249998J0D01*
G01*
G37*
G36*
G01*
X113599998Y-138137500D02*
X114500002Y-138137500D01*
G75*
G02*
X114750000Y-138387498I0J-249998D01*
G01*
X114750000Y-138912502D01*
G75*
G02*
X114500002Y-139162500I-249998J0D01*
G01*
X113599998Y-139162500D01*
G75*
G02*
X113350000Y-138912502I0J249998D01*
G01*
X113350000Y-138387498D01*
G75*
G02*
X113599998Y-138137500I249998J0D01*
G01*
G37*
%TD*%
%TO.C,R32*%
G36*
G01*
X113599998Y-135750000D02*
X114500002Y-135750000D01*
G75*
G02*
X114750000Y-135999998I0J-249998D01*
G01*
X114750000Y-136525002D01*
G75*
G02*
X114500002Y-136775000I-249998J0D01*
G01*
X113599998Y-136775000D01*
G75*
G02*
X113350000Y-136525002I0J249998D01*
G01*
X113350000Y-135999998D01*
G75*
G02*
X113599998Y-135750000I249998J0D01*
G01*
G37*
G36*
G01*
X113599998Y-133925000D02*
X114500002Y-133925000D01*
G75*
G02*
X114750000Y-134174998I0J-249998D01*
G01*
X114750000Y-134700002D01*
G75*
G02*
X114500002Y-134950000I-249998J0D01*
G01*
X113599998Y-134950000D01*
G75*
G02*
X113350000Y-134700002I0J249998D01*
G01*
X113350000Y-134174998D01*
G75*
G02*
X113599998Y-133925000I249998J0D01*
G01*
G37*
%TD*%
D37*
%TO.C,Q6*%
X65190000Y-147435000D03*
X67190000Y-146485000D03*
X67190000Y-148385000D03*
%TD*%
D38*
%TO.C,Q4*%
X144420000Y-136720000D03*
X145370000Y-138720000D03*
X143470000Y-138720000D03*
%TD*%
%TO.C,Q5*%
X144690000Y-143610000D03*
X145640000Y-145610000D03*
X143740000Y-145610000D03*
%TD*%
D39*
%TO.C,Q7*%
X122120000Y-108400000D03*
X124660000Y-108400000D03*
D40*
X127200000Y-108400000D03*
D29*
X124660000Y-91740000D03*
%TD*%
D41*
%TO.C,Q1*%
X63850000Y-41325000D03*
D42*
X57550000Y-43605000D03*
X57550000Y-39045000D03*
%TD*%
D37*
%TO.C,Q3*%
X122900000Y-127200000D03*
X124900000Y-126250000D03*
X124900000Y-128150000D03*
%TD*%
D41*
%TO.C,Q2*%
X63550000Y-50625000D03*
D42*
X57250000Y-52905000D03*
X57250000Y-48345000D03*
%TD*%
%TO.C,L1*%
G36*
G01*
X161562500Y-70718750D02*
X161562500Y-71481250D01*
G75*
G02*
X161343750Y-71700000I-218750J0D01*
G01*
X160906250Y-71700000D01*
G75*
G02*
X160687500Y-71481250I0J218750D01*
G01*
X160687500Y-70718750D01*
G75*
G02*
X160906250Y-70500000I218750J0D01*
G01*
X161343750Y-70500000D01*
G75*
G02*
X161562500Y-70718750I0J-218750D01*
G01*
G37*
G36*
G01*
X163687500Y-70718750D02*
X163687500Y-71481250D01*
G75*
G02*
X163468750Y-71700000I-218750J0D01*
G01*
X163031250Y-71700000D01*
G75*
G02*
X162812500Y-71481250I0J218750D01*
G01*
X162812500Y-70718750D01*
G75*
G02*
X163031250Y-70500000I218750J0D01*
G01*
X163468750Y-70500000D01*
G75*
G02*
X163687500Y-70718750I0J-218750D01*
G01*
G37*
%TD*%
D43*
%TO.C,J7*%
X61700000Y-140420000D03*
X61700000Y-135340000D03*
X61700000Y-130260000D03*
X61700000Y-125180000D03*
D44*
X61700000Y-120100000D03*
%TD*%
D45*
%TO.C,J1*%
X173965000Y-39525000D03*
D46*
X171425000Y-39525000D03*
%TD*%
D45*
%TO.C,J5*%
X150325000Y-106925000D03*
X152865000Y-106925000D03*
D46*
X155405000Y-106925000D03*
%TD*%
D45*
%TO.C,J6*%
X158145000Y-111750000D03*
X160685000Y-111750000D03*
D46*
X163225000Y-111750000D03*
%TD*%
D47*
%TO.C,H4*%
X173700000Y-159100000D03*
%TD*%
%TO.C,H2*%
X173700000Y-34100000D03*
%TD*%
%TO.C,H3*%
X58700000Y-159100000D03*
%TD*%
%TO.C,H1*%
X58700000Y-34100000D03*
%TD*%
D48*
%TO.C,FL1*%
X65775000Y-70377000D03*
X65775000Y-73223000D03*
X61025000Y-73223000D03*
X61025000Y-70377000D03*
%TD*%
D31*
%TO.C,FID2*%
X165225000Y-155450000D03*
%TD*%
%TO.C,FID1*%
X66175000Y-34225000D03*
%TD*%
D37*
%TO.C,D4*%
X65700000Y-135400000D03*
X67700000Y-134450000D03*
X67700000Y-136350000D03*
%TD*%
%TO.C,D3*%
X65800000Y-118500000D03*
X67800000Y-117550000D03*
X67800000Y-119450000D03*
%TD*%
D49*
%TO.C,D2*%
X71700000Y-116800000D03*
X78500000Y-116800000D03*
%TD*%
D23*
%TO.C,D5*%
X99100000Y-76500000D03*
X99100000Y-43500000D03*
D50*
X91100000Y-77000000D03*
X91100000Y-43000000D03*
X125100000Y-77000000D03*
X125100000Y-43000000D03*
%TD*%
D37*
%TO.C,D1*%
X62800000Y-62700000D03*
X64800000Y-61750000D03*
X64800000Y-63650000D03*
%TD*%
%TO.C,C10*%
G36*
G01*
X159250001Y-68100000D02*
X157949999Y-68100000D01*
G75*
G02*
X157700000Y-67850001I0J249999D01*
G01*
X157700000Y-67199999D01*
G75*
G02*
X157949999Y-66950000I249999J0D01*
G01*
X159250001Y-66950000D01*
G75*
G02*
X159500000Y-67199999I0J-249999D01*
G01*
X159500000Y-67850001D01*
G75*
G02*
X159250001Y-68100000I-249999J0D01*
G01*
G37*
G36*
G01*
X159250001Y-71050000D02*
X157949999Y-71050000D01*
G75*
G02*
X157700000Y-70800001I0J249999D01*
G01*
X157700000Y-70149999D01*
G75*
G02*
X157949999Y-69900000I249999J0D01*
G01*
X159250001Y-69900000D01*
G75*
G02*
X159500000Y-70149999I0J-249999D01*
G01*
X159500000Y-70800001D01*
G75*
G02*
X159250001Y-71050000I-249999J0D01*
G01*
G37*
%TD*%
%TO.C,C9*%
G36*
G01*
X156350002Y-68300000D02*
X155449998Y-68300000D01*
G75*
G02*
X155200000Y-68050002I0J249998D01*
G01*
X155200000Y-67524998D01*
G75*
G02*
X155449998Y-67275000I249998J0D01*
G01*
X156350002Y-67275000D01*
G75*
G02*
X156600000Y-67524998I0J-249998D01*
G01*
X156600000Y-68050002D01*
G75*
G02*
X156350002Y-68300000I-249998J0D01*
G01*
G37*
G36*
G01*
X156350002Y-70125000D02*
X155449998Y-70125000D01*
G75*
G02*
X155200000Y-69875002I0J249998D01*
G01*
X155200000Y-69349998D01*
G75*
G02*
X155449998Y-69100000I249998J0D01*
G01*
X156350002Y-69100000D01*
G75*
G02*
X156600000Y-69349998I0J-249998D01*
G01*
X156600000Y-69875002D01*
G75*
G02*
X156350002Y-70125000I-249998J0D01*
G01*
G37*
%TD*%
%TO.C,C8*%
G36*
G01*
X146150002Y-68200000D02*
X145249998Y-68200000D01*
G75*
G02*
X145000000Y-67950002I0J249998D01*
G01*
X145000000Y-67424998D01*
G75*
G02*
X145249998Y-67175000I249998J0D01*
G01*
X146150002Y-67175000D01*
G75*
G02*
X146400000Y-67424998I0J-249998D01*
G01*
X146400000Y-67950002D01*
G75*
G02*
X146150002Y-68200000I-249998J0D01*
G01*
G37*
G36*
G01*
X146150002Y-70025000D02*
X145249998Y-70025000D01*
G75*
G02*
X145000000Y-69775002I0J249998D01*
G01*
X145000000Y-69249998D01*
G75*
G02*
X145249998Y-69000000I249998J0D01*
G01*
X146150002Y-69000000D01*
G75*
G02*
X146400000Y-69249998I0J-249998D01*
G01*
X146400000Y-69775002D01*
G75*
G02*
X146150002Y-70025000I-249998J0D01*
G01*
G37*
%TD*%
%TO.C,C23*%
G36*
G01*
X65825000Y-123000000D02*
X66775000Y-123000000D01*
G75*
G02*
X67025000Y-123250000I0J-250000D01*
G01*
X67025000Y-123750000D01*
G75*
G02*
X66775000Y-124000000I-250000J0D01*
G01*
X65825000Y-124000000D01*
G75*
G02*
X65575000Y-123750000I0J250000D01*
G01*
X65575000Y-123250000D01*
G75*
G02*
X65825000Y-123000000I250000J0D01*
G01*
G37*
G36*
G01*
X65825000Y-121100000D02*
X66775000Y-121100000D01*
G75*
G02*
X67025000Y-121350000I0J-250000D01*
G01*
X67025000Y-121850000D01*
G75*
G02*
X66775000Y-122100000I-250000J0D01*
G01*
X65825000Y-122100000D01*
G75*
G02*
X65575000Y-121850000I0J250000D01*
G01*
X65575000Y-121350000D01*
G75*
G02*
X65825000Y-121100000I250000J0D01*
G01*
G37*
%TD*%
%TO.C,C28*%
G36*
G01*
X67100000Y-143475000D02*
X67100000Y-142525000D01*
G75*
G02*
X67350000Y-142275000I250000J0D01*
G01*
X67850000Y-142275000D01*
G75*
G02*
X68100000Y-142525000I0J-250000D01*
G01*
X68100000Y-143475000D01*
G75*
G02*
X67850000Y-143725000I-250000J0D01*
G01*
X67350000Y-143725000D01*
G75*
G02*
X67100000Y-143475000I0J250000D01*
G01*
G37*
G36*
G01*
X65200000Y-143475000D02*
X65200000Y-142525000D01*
G75*
G02*
X65450000Y-142275000I250000J0D01*
G01*
X65950000Y-142275000D01*
G75*
G02*
X66200000Y-142525000I0J-250000D01*
G01*
X66200000Y-143475000D01*
G75*
G02*
X65950000Y-143725000I-250000J0D01*
G01*
X65450000Y-143725000D01*
G75*
G02*
X65200000Y-143475000I0J250000D01*
G01*
G37*
%TD*%
%TO.C,C13*%
G36*
G01*
X153525000Y-77975001D02*
X153525000Y-76674999D01*
G75*
G02*
X153774999Y-76425000I249999J0D01*
G01*
X154425001Y-76425000D01*
G75*
G02*
X154675000Y-76674999I0J-249999D01*
G01*
X154675000Y-77975001D01*
G75*
G02*
X154425001Y-78225000I-249999J0D01*
G01*
X153774999Y-78225000D01*
G75*
G02*
X153525000Y-77975001I0J249999D01*
G01*
G37*
G36*
G01*
X150575000Y-77975001D02*
X150575000Y-76674999D01*
G75*
G02*
X150824999Y-76425000I249999J0D01*
G01*
X151475001Y-76425000D01*
G75*
G02*
X151725000Y-76674999I0J-249999D01*
G01*
X151725000Y-77975001D01*
G75*
G02*
X151475001Y-78225000I-249999J0D01*
G01*
X150824999Y-78225000D01*
G75*
G02*
X150575000Y-77975001I0J249999D01*
G01*
G37*
%TD*%
%TO.C,C11*%
G36*
G01*
X152437500Y-74875002D02*
X152437500Y-73974998D01*
G75*
G02*
X152687498Y-73725000I249998J0D01*
G01*
X153212502Y-73725000D01*
G75*
G02*
X153462500Y-73974998I0J-249998D01*
G01*
X153462500Y-74875002D01*
G75*
G02*
X153212502Y-75125000I-249998J0D01*
G01*
X152687498Y-75125000D01*
G75*
G02*
X152437500Y-74875002I0J249998D01*
G01*
G37*
G36*
G01*
X150612500Y-74875002D02*
X150612500Y-73974998D01*
G75*
G02*
X150862498Y-73725000I249998J0D01*
G01*
X151387502Y-73725000D01*
G75*
G02*
X151637500Y-73974998I0J-249998D01*
G01*
X151637500Y-74875002D01*
G75*
G02*
X151387502Y-75125000I-249998J0D01*
G01*
X150862498Y-75125000D01*
G75*
G02*
X150612500Y-74875002I0J249998D01*
G01*
G37*
%TD*%
%TO.C,C7*%
G36*
G01*
X153725000Y-65675002D02*
X153725000Y-64774998D01*
G75*
G02*
X153974998Y-64525000I249998J0D01*
G01*
X154500002Y-64525000D01*
G75*
G02*
X154750000Y-64774998I0J-249998D01*
G01*
X154750000Y-65675002D01*
G75*
G02*
X154500002Y-65925000I-249998J0D01*
G01*
X153974998Y-65925000D01*
G75*
G02*
X153725000Y-65675002I0J249998D01*
G01*
G37*
G36*
G01*
X151900000Y-65675002D02*
X151900000Y-64774998D01*
G75*
G02*
X152149998Y-64525000I249998J0D01*
G01*
X152675002Y-64525000D01*
G75*
G02*
X152925000Y-64774998I0J-249998D01*
G01*
X152925000Y-65675002D01*
G75*
G02*
X152675002Y-65925000I-249998J0D01*
G01*
X152149998Y-65925000D01*
G75*
G02*
X151900000Y-65675002I0J249998D01*
G01*
G37*
%TD*%
%TO.C,C12*%
G36*
G01*
X160550000Y-75600002D02*
X160550000Y-74699998D01*
G75*
G02*
X160799998Y-74450000I249998J0D01*
G01*
X161325002Y-74450000D01*
G75*
G02*
X161575000Y-74699998I0J-249998D01*
G01*
X161575000Y-75600002D01*
G75*
G02*
X161325002Y-75850000I-249998J0D01*
G01*
X160799998Y-75850000D01*
G75*
G02*
X160550000Y-75600002I0J249998D01*
G01*
G37*
G36*
G01*
X158725000Y-75600002D02*
X158725000Y-74699998D01*
G75*
G02*
X158974998Y-74450000I249998J0D01*
G01*
X159500002Y-74450000D01*
G75*
G02*
X159750000Y-74699998I0J-249998D01*
G01*
X159750000Y-75600002D01*
G75*
G02*
X159500002Y-75850000I-249998J0D01*
G01*
X158974998Y-75850000D01*
G75*
G02*
X158725000Y-75600002I0J249998D01*
G01*
G37*
%TD*%
%TO.C,C1*%
G36*
G01*
X146425000Y-36549999D02*
X146425000Y-37850001D01*
G75*
G02*
X146175001Y-38100000I-249999J0D01*
G01*
X145524999Y-38100000D01*
G75*
G02*
X145275000Y-37850001I0J249999D01*
G01*
X145275000Y-36549999D01*
G75*
G02*
X145524999Y-36300000I249999J0D01*
G01*
X146175001Y-36300000D01*
G75*
G02*
X146425000Y-36549999I0J-249999D01*
G01*
G37*
G36*
G01*
X149375000Y-36549999D02*
X149375000Y-37850001D01*
G75*
G02*
X149125001Y-38100000I-249999J0D01*
G01*
X148474999Y-38100000D01*
G75*
G02*
X148225000Y-37850001I0J249999D01*
G01*
X148225000Y-36549999D01*
G75*
G02*
X148474999Y-36300000I249999J0D01*
G01*
X149125001Y-36300000D01*
G75*
G02*
X149375000Y-36549999I0J-249999D01*
G01*
G37*
%TD*%
%TO.C,C14*%
G36*
G01*
X164450002Y-78850000D02*
X163549998Y-78850000D01*
G75*
G02*
X163300000Y-78600002I0J249998D01*
G01*
X163300000Y-78074998D01*
G75*
G02*
X163549998Y-77825000I249998J0D01*
G01*
X164450002Y-77825000D01*
G75*
G02*
X164700000Y-78074998I0J-249998D01*
G01*
X164700000Y-78600002D01*
G75*
G02*
X164450002Y-78850000I-249998J0D01*
G01*
G37*
G36*
G01*
X164450002Y-80675000D02*
X163549998Y-80675000D01*
G75*
G02*
X163300000Y-80425002I0J249998D01*
G01*
X163300000Y-79899998D01*
G75*
G02*
X163549998Y-79650000I249998J0D01*
G01*
X164450002Y-79650000D01*
G75*
G02*
X164700000Y-79899998I0J-249998D01*
G01*
X164700000Y-80425002D01*
G75*
G02*
X164450002Y-80675000I-249998J0D01*
G01*
G37*
%TD*%
%TO.C,C26*%
G36*
G01*
X162875000Y-133090000D02*
X161925000Y-133090000D01*
G75*
G02*
X161675000Y-132840000I0J250000D01*
G01*
X161675000Y-132340000D01*
G75*
G02*
X161925000Y-132090000I250000J0D01*
G01*
X162875000Y-132090000D01*
G75*
G02*
X163125000Y-132340000I0J-250000D01*
G01*
X163125000Y-132840000D01*
G75*
G02*
X162875000Y-133090000I-250000J0D01*
G01*
G37*
G36*
G01*
X162875000Y-134990000D02*
X161925000Y-134990000D01*
G75*
G02*
X161675000Y-134740000I0J250000D01*
G01*
X161675000Y-134240000D01*
G75*
G02*
X161925000Y-133990000I250000J0D01*
G01*
X162875000Y-133990000D01*
G75*
G02*
X163125000Y-134240000I0J-250000D01*
G01*
X163125000Y-134740000D01*
G75*
G02*
X162875000Y-134990000I-250000J0D01*
G01*
G37*
%TD*%
%TO.C,C32*%
G36*
G01*
X144800001Y-159275000D02*
X142599999Y-159275000D01*
G75*
G02*
X142350000Y-159025001I0J249999D01*
G01*
X142350000Y-158374999D01*
G75*
G02*
X142599999Y-158125000I249999J0D01*
G01*
X144800001Y-158125000D01*
G75*
G02*
X145050000Y-158374999I0J-249999D01*
G01*
X145050000Y-159025001D01*
G75*
G02*
X144800001Y-159275000I-249999J0D01*
G01*
G37*
G36*
G01*
X144800001Y-162225000D02*
X142599999Y-162225000D01*
G75*
G02*
X142350000Y-161975001I0J249999D01*
G01*
X142350000Y-161324999D01*
G75*
G02*
X142599999Y-161075000I249999J0D01*
G01*
X144800001Y-161075000D01*
G75*
G02*
X145050000Y-161324999I0J-249999D01*
G01*
X145050000Y-161975001D01*
G75*
G02*
X144800001Y-162225000I-249999J0D01*
G01*
G37*
%TD*%
%TO.C,C30*%
G36*
G01*
X157850000Y-145450000D02*
X156900000Y-145450000D01*
G75*
G02*
X156650000Y-145200000I0J250000D01*
G01*
X156650000Y-144700000D01*
G75*
G02*
X156900000Y-144450000I250000J0D01*
G01*
X157850000Y-144450000D01*
G75*
G02*
X158100000Y-144700000I0J-250000D01*
G01*
X158100000Y-145200000D01*
G75*
G02*
X157850000Y-145450000I-250000J0D01*
G01*
G37*
G36*
G01*
X157850000Y-147350000D02*
X156900000Y-147350000D01*
G75*
G02*
X156650000Y-147100000I0J250000D01*
G01*
X156650000Y-146600000D01*
G75*
G02*
X156900000Y-146350000I250000J0D01*
G01*
X157850000Y-146350000D01*
G75*
G02*
X158100000Y-146600000I0J-250000D01*
G01*
X158100000Y-147100000D01*
G75*
G02*
X157850000Y-147350000I-250000J0D01*
G01*
G37*
%TD*%
%TO.C,C19*%
G36*
G01*
X147175000Y-112025000D02*
X147175000Y-111075000D01*
G75*
G02*
X147425000Y-110825000I250000J0D01*
G01*
X147925000Y-110825000D01*
G75*
G02*
X148175000Y-111075000I0J-250000D01*
G01*
X148175000Y-112025000D01*
G75*
G02*
X147925000Y-112275000I-250000J0D01*
G01*
X147425000Y-112275000D01*
G75*
G02*
X147175000Y-112025000I0J250000D01*
G01*
G37*
G36*
G01*
X145275000Y-112075000D02*
X145275000Y-111125000D01*
G75*
G02*
X145525000Y-110875000I250000J0D01*
G01*
X146025000Y-110875000D01*
G75*
G02*
X146275000Y-111125000I0J-250000D01*
G01*
X146275000Y-112075000D01*
G75*
G02*
X146025000Y-112325000I-250000J0D01*
G01*
X145525000Y-112325000D01*
G75*
G02*
X145275000Y-112075000I0J250000D01*
G01*
G37*
%TD*%
%TO.C,C20*%
G36*
G01*
X151575000Y-111125000D02*
X151575000Y-112075000D01*
G75*
G02*
X151325000Y-112325000I-250000J0D01*
G01*
X150825000Y-112325000D01*
G75*
G02*
X150575000Y-112075000I0J250000D01*
G01*
X150575000Y-111125000D01*
G75*
G02*
X150825000Y-110875000I250000J0D01*
G01*
X151325000Y-110875000D01*
G75*
G02*
X151575000Y-111125000I0J-250000D01*
G01*
G37*
G36*
G01*
X153475000Y-111125000D02*
X153475000Y-112075000D01*
G75*
G02*
X153225000Y-112325000I-250000J0D01*
G01*
X152725000Y-112325000D01*
G75*
G02*
X152475000Y-112075000I0J250000D01*
G01*
X152475000Y-111125000D01*
G75*
G02*
X152725000Y-110875000I250000J0D01*
G01*
X153225000Y-110875000D01*
G75*
G02*
X153475000Y-111125000I0J-250000D01*
G01*
G37*
%TD*%
%TO.C,C31*%
G36*
G01*
X143324999Y-155625000D02*
X144625001Y-155625000D01*
G75*
G02*
X144875000Y-155874999I0J-249999D01*
G01*
X144875000Y-156525001D01*
G75*
G02*
X144625001Y-156775000I-249999J0D01*
G01*
X143324999Y-156775000D01*
G75*
G02*
X143075000Y-156525001I0J249999D01*
G01*
X143075000Y-155874999D01*
G75*
G02*
X143324999Y-155625000I249999J0D01*
G01*
G37*
G36*
G01*
X143324999Y-152675000D02*
X144625001Y-152675000D01*
G75*
G02*
X144875000Y-152924999I0J-249999D01*
G01*
X144875000Y-153575001D01*
G75*
G02*
X144625001Y-153825000I-249999J0D01*
G01*
X143324999Y-153825000D01*
G75*
G02*
X143075000Y-153575001I0J249999D01*
G01*
X143075000Y-152924999D01*
G75*
G02*
X143324999Y-152675000I249999J0D01*
G01*
G37*
%TD*%
%TO.C,C25*%
G36*
G01*
X90000000Y-126600000D02*
X88000000Y-126600000D01*
G75*
G02*
X87750000Y-126350000I0J250000D01*
G01*
X87750000Y-123350000D01*
G75*
G02*
X88000000Y-123100000I250000J0D01*
G01*
X90000000Y-123100000D01*
G75*
G02*
X90250000Y-123350000I0J-250000D01*
G01*
X90250000Y-126350000D01*
G75*
G02*
X90000000Y-126600000I-250000J0D01*
G01*
G37*
G36*
G01*
X90000000Y-133100000D02*
X88000000Y-133100000D01*
G75*
G02*
X87750000Y-132850000I0J250000D01*
G01*
X87750000Y-129850000D01*
G75*
G02*
X88000000Y-129600000I250000J0D01*
G01*
X90000000Y-129600000D01*
G75*
G02*
X90250000Y-129850000I0J-250000D01*
G01*
X90250000Y-132850000D01*
G75*
G02*
X90000000Y-133100000I-250000J0D01*
G01*
G37*
%TD*%
%TO.C,C21*%
G36*
G01*
X121100000Y-112225000D02*
X121100000Y-113175000D01*
G75*
G02*
X120850000Y-113425000I-250000J0D01*
G01*
X120350000Y-113425000D01*
G75*
G02*
X120100000Y-113175000I0J250000D01*
G01*
X120100000Y-112225000D01*
G75*
G02*
X120350000Y-111975000I250000J0D01*
G01*
X120850000Y-111975000D01*
G75*
G02*
X121100000Y-112225000I0J-250000D01*
G01*
G37*
G36*
G01*
X123000000Y-112225000D02*
X123000000Y-113175000D01*
G75*
G02*
X122750000Y-113425000I-250000J0D01*
G01*
X122250000Y-113425000D01*
G75*
G02*
X122000000Y-113175000I0J250000D01*
G01*
X122000000Y-112225000D01*
G75*
G02*
X122250000Y-111975000I250000J0D01*
G01*
X122750000Y-111975000D01*
G75*
G02*
X123000000Y-112225000I0J-250000D01*
G01*
G37*
%TD*%
%TO.C,C22*%
G36*
G01*
X119925000Y-115875000D02*
X119925000Y-116825000D01*
G75*
G02*
X119675000Y-117075000I-250000J0D01*
G01*
X119175000Y-117075000D01*
G75*
G02*
X118925000Y-116825000I0J250000D01*
G01*
X118925000Y-115875000D01*
G75*
G02*
X119175000Y-115625000I250000J0D01*
G01*
X119675000Y-115625000D01*
G75*
G02*
X119925000Y-115875000I0J-250000D01*
G01*
G37*
G36*
G01*
X121825000Y-115875000D02*
X121825000Y-116825000D01*
G75*
G02*
X121575000Y-117075000I-250000J0D01*
G01*
X121075000Y-117075000D01*
G75*
G02*
X120825000Y-116825000I0J250000D01*
G01*
X120825000Y-115875000D01*
G75*
G02*
X121075000Y-115625000I250000J0D01*
G01*
X121575000Y-115625000D01*
G75*
G02*
X121825000Y-115875000I0J-250000D01*
G01*
G37*
%TD*%
%TO.C,C24*%
G36*
G01*
X114225000Y-126675000D02*
X114225000Y-127625000D01*
G75*
G02*
X113975000Y-127875000I-250000J0D01*
G01*
X113475000Y-127875000D01*
G75*
G02*
X113225000Y-127625000I0J250000D01*
G01*
X113225000Y-126675000D01*
G75*
G02*
X113475000Y-126425000I250000J0D01*
G01*
X113975000Y-126425000D01*
G75*
G02*
X114225000Y-126675000I0J-250000D01*
G01*
G37*
G36*
G01*
X116125000Y-126675000D02*
X116125000Y-127625000D01*
G75*
G02*
X115875000Y-127875000I-250000J0D01*
G01*
X115375000Y-127875000D01*
G75*
G02*
X115125000Y-127625000I0J250000D01*
G01*
X115125000Y-126675000D01*
G75*
G02*
X115375000Y-126425000I250000J0D01*
G01*
X115875000Y-126425000D01*
G75*
G02*
X116125000Y-126675000I0J-250000D01*
G01*
G37*
%TD*%
%TO.C,C15*%
G36*
G01*
X66875000Y-82800000D02*
X65925000Y-82800000D01*
G75*
G02*
X65675000Y-82550000I0J250000D01*
G01*
X65675000Y-82050000D01*
G75*
G02*
X65925000Y-81800000I250000J0D01*
G01*
X66875000Y-81800000D01*
G75*
G02*
X67125000Y-82050000I0J-250000D01*
G01*
X67125000Y-82550000D01*
G75*
G02*
X66875000Y-82800000I-250000J0D01*
G01*
G37*
G36*
G01*
X66875000Y-84700000D02*
X65925000Y-84700000D01*
G75*
G02*
X65675000Y-84450000I0J250000D01*
G01*
X65675000Y-83950000D01*
G75*
G02*
X65925000Y-83700000I250000J0D01*
G01*
X66875000Y-83700000D01*
G75*
G02*
X67125000Y-83950000I0J-250000D01*
G01*
X67125000Y-84450000D01*
G75*
G02*
X66875000Y-84700000I-250000J0D01*
G01*
G37*
%TD*%
%TO.C,C27*%
G36*
G01*
X123400000Y-137500000D02*
X123400000Y-135500000D01*
G75*
G02*
X123650000Y-135250000I250000J0D01*
G01*
X126650000Y-135250000D01*
G75*
G02*
X126900000Y-135500000I0J-250000D01*
G01*
X126900000Y-137500000D01*
G75*
G02*
X126650000Y-137750000I-250000J0D01*
G01*
X123650000Y-137750000D01*
G75*
G02*
X123400000Y-137500000I0J250000D01*
G01*
G37*
G36*
G01*
X116900000Y-137500000D02*
X116900000Y-135500000D01*
G75*
G02*
X117150000Y-135250000I250000J0D01*
G01*
X120150000Y-135250000D01*
G75*
G02*
X120400000Y-135500000I0J-250000D01*
G01*
X120400000Y-137500000D01*
G75*
G02*
X120150000Y-137750000I-250000J0D01*
G01*
X117150000Y-137750000D01*
G75*
G02*
X116900000Y-137500000I0J250000D01*
G01*
G37*
%TD*%
M02*
