%TF.GenerationSoftware,KiCad,Pcbnew,5.1.10-88a1d61d58~88~ubuntu20.04.1*%
%TF.CreationDate,2021-06-19T20:11:57-07:00*%
%TF.ProjectId,ultrablinky,756c7472-6162-46c6-996e-6b792e6b6963,B*%
%TF.SameCoordinates,Original*%
%TF.FileFunction,Soldermask,Top*%
%TF.FilePolarity,Negative*%
%FSLAX46Y46*%
G04 Gerber Fmt 4.6, Leading zero omitted, Abs format (unit mm)*
G04 Created by KiCad (PCBNEW 5.1.10-88a1d61d58~88~ubuntu20.04.1) date 2021-06-19 20:11:57*
%MOMM*%
%LPD*%
G01*
G04 APERTURE LIST*
%TA.AperFunction,Profile*%
%ADD10C,0.150000*%
%TD*%
%ADD11R,1.500000X0.400000*%
%ADD12R,1.780000X1.520000*%
%ADD13R,1.520000X1.780000*%
%ADD14C,3.000000*%
%ADD15O,3.700000X2.700000*%
%ADD16C,1.600000*%
%ADD17R,1.600000X1.600000*%
%ADD18O,2.400000X2.400000*%
%ADD19R,2.400000X2.400000*%
%ADD20R,0.900000X0.800000*%
%ADD21R,0.800000X0.900000*%
%ADD22O,2.616000X1.308000*%
%ADD23C,2.500000*%
%ADD24O,3.000000X6.000000*%
%ADD25C,1.650000*%
%ADD26R,1.650000X1.650000*%
%ADD27C,2.250000*%
%ADD28C,1.308000*%
%ADD29C,6.000000*%
%ADD30R,5.500000X3.000000*%
%ADD31O,2.000000X2.000000*%
%ADD32R,2.000000X2.000000*%
%ADD33O,3.500000X3.500000*%
%ADD34C,2.000000*%
%ADD35R,3.600000X3.600000*%
%ADD36R,1.060000X0.650000*%
%ADD37R,0.650000X1.060000*%
%ADD38C,2.800000*%
%ADD39O,1.905000X2.000000*%
%ADD40R,1.905000X2.000000*%
%ADD41R,6.400000X5.800000*%
%ADD42R,2.200000X1.200000*%
%ADD43O,1.700000X1.700000*%
%ADD44R,1.700000X1.700000*%
%ADD45C,5.600000*%
%ADD46R,3.660000X2.085000*%
%ADD47R,2.500000X3.300000*%
%ADD48C,3.500000*%
G04 APERTURE END LIST*
D10*
X178700000Y-142000000D02*
X178700000Y-164100000D01*
X178200000Y-142000000D02*
G75*
G02*
X177500000Y-141300000I0J700000D01*
G01*
X177500000Y-136700000D02*
G75*
G02*
X178200000Y-136000000I700000J0D01*
G01*
X177500000Y-136700000D02*
X177500000Y-141300000D01*
X178200000Y-142000000D02*
X178700000Y-142000000D01*
X178200000Y-136000000D02*
X178700000Y-136000000D01*
X178700000Y-67550000D02*
X178700000Y-136000000D01*
X178700000Y-61550000D02*
X178700000Y-52100000D01*
X177500000Y-62250000D02*
G75*
G02*
X178200000Y-61550000I700000J0D01*
G01*
X178200000Y-61550000D02*
X178700000Y-61550000D01*
X178200000Y-67550000D02*
G75*
G02*
X177500000Y-66850000I0J700000D01*
G01*
X178200000Y-67550000D02*
X178700000Y-67550000D01*
X177500000Y-62250000D02*
X177500000Y-66850000D01*
X178200000Y-52100000D02*
X178700000Y-52100000D01*
X178200000Y-46100000D02*
X178700000Y-46100000D01*
X177500000Y-46800000D02*
X177500000Y-51400000D01*
X178200000Y-52100000D02*
G75*
G02*
X177500000Y-51400000I0J700000D01*
G01*
X177500000Y-46800000D02*
G75*
G02*
X178200000Y-46100000I700000J0D01*
G01*
X87505025Y-80109975D02*
G75*
G02*
X87300000Y-79615000I494975J494975D01*
G01*
X128694975Y-39985025D02*
G75*
G02*
X128900000Y-40480000I-494975J-494975D01*
G01*
X87510025Y-39982025D02*
G75*
G03*
X87305000Y-40477000I494975J-494975D01*
G01*
X128694975Y-80104975D02*
G75*
G03*
X128900000Y-79610000I-494975J494975D01*
G01*
X130300000Y-105100000D02*
G75*
G02*
X129600000Y-105800000I-700000J0D01*
G01*
X119700000Y-105800000D02*
G75*
G02*
X119000000Y-105100000I0J700000D01*
G01*
X129600000Y-88400000D02*
G75*
G02*
X130300000Y-89100000I0J-700000D01*
G01*
X119000000Y-89100000D02*
G75*
G02*
X119700000Y-88400000I700000J0D01*
G01*
X85900000Y-89100000D02*
G75*
G02*
X86600000Y-88400000I700000J0D01*
G01*
X96500000Y-88400000D02*
G75*
G02*
X97200000Y-89100000I0J-700000D01*
G01*
X97200000Y-105100000D02*
G75*
G02*
X96500000Y-105800000I-700000J0D01*
G01*
X86600000Y-105800000D02*
G75*
G02*
X85900000Y-105100000I0J700000D01*
G01*
X119000000Y-105100000D02*
X119000000Y-89100000D01*
X129600000Y-105800000D02*
X119700000Y-105800000D01*
X129600000Y-88400000D02*
X119700000Y-88400000D01*
X130300000Y-105100000D02*
X130300000Y-89100000D01*
X96500000Y-105800000D02*
X86600000Y-105800000D01*
X97200000Y-105100000D02*
X97200000Y-89100000D01*
X96500000Y-88400000D02*
X86600000Y-88400000D01*
X85900000Y-105100000D02*
X85900000Y-89100000D01*
X128697474Y-80107415D02*
G75*
G02*
X87505025Y-80109975I-20597474J20107415D01*
G01*
X87300000Y-79615000D02*
X87305000Y-40477000D01*
X128900000Y-79610000D02*
X128900000Y-40480000D01*
X87508953Y-39980983D02*
G75*
G02*
X128694975Y-39985025I20591047J-20019017D01*
G01*
X53700000Y-29100000D02*
X178700000Y-29100000D01*
X53700000Y-164100000D02*
X178700000Y-164100000D01*
X178700000Y-46100000D02*
X178700000Y-29100000D01*
X53700000Y-164100000D02*
X53700000Y-29100000D01*
%TO.C,C21*%
G36*
G01*
X118275000Y-116850001D02*
X118275000Y-115549999D01*
G75*
G02*
X118524999Y-115300000I249999J0D01*
G01*
X119175001Y-115300000D01*
G75*
G02*
X119425000Y-115549999I0J-249999D01*
G01*
X119425000Y-116850001D01*
G75*
G02*
X119175001Y-117100000I-249999J0D01*
G01*
X118524999Y-117100000D01*
G75*
G02*
X118275000Y-116850001I0J249999D01*
G01*
G37*
G36*
G01*
X115325000Y-116850001D02*
X115325000Y-115549999D01*
G75*
G02*
X115574999Y-115300000I249999J0D01*
G01*
X116225001Y-115300000D01*
G75*
G02*
X116475000Y-115549999I0J-249999D01*
G01*
X116475000Y-116850001D01*
G75*
G02*
X116225001Y-117100000I-249999J0D01*
G01*
X115574999Y-117100000D01*
G75*
G02*
X115325000Y-116850001I0J249999D01*
G01*
G37*
%TD*%
D11*
%TO.C,U7*%
X129930000Y-123600000D03*
X129930000Y-124900000D03*
X127270000Y-124900000D03*
X127270000Y-124250000D03*
X127270000Y-123600000D03*
%TD*%
%TO.C,C19*%
G36*
G01*
X108425000Y-115250000D02*
X109375000Y-115250000D01*
G75*
G02*
X109625000Y-115500000I0J-250000D01*
G01*
X109625000Y-116000000D01*
G75*
G02*
X109375000Y-116250000I-250000J0D01*
G01*
X108425000Y-116250000D01*
G75*
G02*
X108175000Y-116000000I0J250000D01*
G01*
X108175000Y-115500000D01*
G75*
G02*
X108425000Y-115250000I250000J0D01*
G01*
G37*
G36*
G01*
X108425000Y-113350000D02*
X109375000Y-113350000D01*
G75*
G02*
X109625000Y-113600000I0J-250000D01*
G01*
X109625000Y-114100000D01*
G75*
G02*
X109375000Y-114350000I-250000J0D01*
G01*
X108425000Y-114350000D01*
G75*
G02*
X108175000Y-114100000I0J250000D01*
G01*
X108175000Y-113600000D01*
G75*
G02*
X108425000Y-113350000I250000J0D01*
G01*
G37*
%TD*%
%TO.C,C23*%
G36*
G01*
X128100000Y-121075000D02*
X128100000Y-122025000D01*
G75*
G02*
X127850000Y-122275000I-250000J0D01*
G01*
X127350000Y-122275000D01*
G75*
G02*
X127100000Y-122025000I0J250000D01*
G01*
X127100000Y-121075000D01*
G75*
G02*
X127350000Y-120825000I250000J0D01*
G01*
X127850000Y-120825000D01*
G75*
G02*
X128100000Y-121075000I0J-250000D01*
G01*
G37*
G36*
G01*
X130000000Y-121075000D02*
X130000000Y-122025000D01*
G75*
G02*
X129750000Y-122275000I-250000J0D01*
G01*
X129250000Y-122275000D01*
G75*
G02*
X129000000Y-122025000I0J250000D01*
G01*
X129000000Y-121075000D01*
G75*
G02*
X129250000Y-120825000I250000J0D01*
G01*
X129750000Y-120825000D01*
G75*
G02*
X130000000Y-121075000I0J-250000D01*
G01*
G37*
%TD*%
%TO.C,C12*%
G36*
G01*
X160600000Y-75625000D02*
X160600000Y-74675000D01*
G75*
G02*
X160850000Y-74425000I250000J0D01*
G01*
X161350000Y-74425000D01*
G75*
G02*
X161600000Y-74675000I0J-250000D01*
G01*
X161600000Y-75625000D01*
G75*
G02*
X161350000Y-75875000I-250000J0D01*
G01*
X160850000Y-75875000D01*
G75*
G02*
X160600000Y-75625000I0J250000D01*
G01*
G37*
G36*
G01*
X158700000Y-75625000D02*
X158700000Y-74675000D01*
G75*
G02*
X158950000Y-74425000I250000J0D01*
G01*
X159450000Y-74425000D01*
G75*
G02*
X159700000Y-74675000I0J-250000D01*
G01*
X159700000Y-75625000D01*
G75*
G02*
X159450000Y-75875000I-250000J0D01*
G01*
X158950000Y-75875000D01*
G75*
G02*
X158700000Y-75625000I0J250000D01*
G01*
G37*
%TD*%
D12*
%TO.C,U4*%
X170335000Y-111515000D03*
X175415000Y-111515000D03*
X172875000Y-111515000D03*
X170335000Y-120535000D03*
X175415000Y-120535000D03*
X172875000Y-120535000D03*
%TD*%
D13*
%TO.C,U8*%
X160940000Y-129040000D03*
X160940000Y-123960000D03*
X160940000Y-126500000D03*
X169960000Y-129040000D03*
X169960000Y-123960000D03*
X169960000Y-126500000D03*
%TD*%
D14*
%TO.C,J7*%
X56684000Y-126456000D03*
X56684000Y-143256000D03*
D15*
X63984000Y-126456000D03*
X63984000Y-130656000D03*
X63984000Y-134856000D03*
X63984000Y-139056000D03*
G36*
G01*
X65583999Y-144606000D02*
X62384001Y-144606000D01*
G75*
G02*
X62134000Y-144355999I0J250001D01*
G01*
X62134000Y-142156001D01*
G75*
G02*
X62384001Y-141906000I250001J0D01*
G01*
X65583999Y-141906000D01*
G75*
G02*
X65834000Y-142156001I0J-250001D01*
G01*
X65834000Y-144355999D01*
G75*
G02*
X65583999Y-144606000I-250001J0D01*
G01*
G37*
%TD*%
D14*
%TO.C,DISP1*%
X58800000Y-107740000D03*
X58800000Y-151740000D03*
X134880000Y-107740000D03*
X134880000Y-151740000D03*
D16*
X139800000Y-113230000D03*
X139800000Y-115770000D03*
X139800000Y-118310000D03*
X139800000Y-120850000D03*
X139800000Y-123390000D03*
X139800000Y-125930000D03*
X139800000Y-128470000D03*
X139800000Y-131010000D03*
X139800000Y-133550000D03*
X139800000Y-136090000D03*
X139800000Y-138630000D03*
X139800000Y-141170000D03*
X139800000Y-143710000D03*
D17*
X139800000Y-146250000D03*
%TD*%
%TO.C,C20*%
G36*
G01*
X122000000Y-114575000D02*
X122000000Y-115525000D01*
G75*
G02*
X121750000Y-115775000I-250000J0D01*
G01*
X121250000Y-115775000D01*
G75*
G02*
X121000000Y-115525000I0J250000D01*
G01*
X121000000Y-114575000D01*
G75*
G02*
X121250000Y-114325000I250000J0D01*
G01*
X121750000Y-114325000D01*
G75*
G02*
X122000000Y-114575000I0J-250000D01*
G01*
G37*
G36*
G01*
X123900000Y-114575000D02*
X123900000Y-115525000D01*
G75*
G02*
X123650000Y-115775000I-250000J0D01*
G01*
X123150000Y-115775000D01*
G75*
G02*
X122900000Y-115525000I0J250000D01*
G01*
X122900000Y-114575000D01*
G75*
G02*
X123150000Y-114325000I250000J0D01*
G01*
X123650000Y-114325000D01*
G75*
G02*
X123900000Y-114575000I0J-250000D01*
G01*
G37*
%TD*%
D18*
%TO.C,C31*%
X61400000Y-95550000D03*
D19*
X68900000Y-95550000D03*
%TD*%
%TO.C,R15*%
G36*
G01*
X167374998Y-106700000D02*
X168275002Y-106700000D01*
G75*
G02*
X168525000Y-106949998I0J-249998D01*
G01*
X168525000Y-107475002D01*
G75*
G02*
X168275002Y-107725000I-249998J0D01*
G01*
X167374998Y-107725000D01*
G75*
G02*
X167125000Y-107475002I0J249998D01*
G01*
X167125000Y-106949998D01*
G75*
G02*
X167374998Y-106700000I249998J0D01*
G01*
G37*
G36*
G01*
X167374998Y-104875000D02*
X168275002Y-104875000D01*
G75*
G02*
X168525000Y-105124998I0J-249998D01*
G01*
X168525000Y-105650002D01*
G75*
G02*
X168275002Y-105900000I-249998J0D01*
G01*
X167374998Y-105900000D01*
G75*
G02*
X167125000Y-105650002I0J249998D01*
G01*
X167125000Y-105124998D01*
G75*
G02*
X167374998Y-104875000I249998J0D01*
G01*
G37*
%TD*%
%TO.C,R30*%
G36*
G01*
X114037500Y-124699998D02*
X114037500Y-125600002D01*
G75*
G02*
X113787502Y-125850000I-249998J0D01*
G01*
X113262498Y-125850000D01*
G75*
G02*
X113012500Y-125600002I0J249998D01*
G01*
X113012500Y-124699998D01*
G75*
G02*
X113262498Y-124450000I249998J0D01*
G01*
X113787502Y-124450000D01*
G75*
G02*
X114037500Y-124699998I0J-249998D01*
G01*
G37*
G36*
G01*
X115862500Y-124699998D02*
X115862500Y-125600002D01*
G75*
G02*
X115612502Y-125850000I-249998J0D01*
G01*
X115087498Y-125850000D01*
G75*
G02*
X114837500Y-125600002I0J249998D01*
G01*
X114837500Y-124699998D01*
G75*
G02*
X115087498Y-124450000I249998J0D01*
G01*
X115612502Y-124450000D01*
G75*
G02*
X115862500Y-124699998I0J-249998D01*
G01*
G37*
%TD*%
%TO.C,R32*%
G36*
G01*
X119300002Y-127012500D02*
X118399998Y-127012500D01*
G75*
G02*
X118150000Y-126762502I0J249998D01*
G01*
X118150000Y-126237498D01*
G75*
G02*
X118399998Y-125987500I249998J0D01*
G01*
X119300002Y-125987500D01*
G75*
G02*
X119550000Y-126237498I0J-249998D01*
G01*
X119550000Y-126762502D01*
G75*
G02*
X119300002Y-127012500I-249998J0D01*
G01*
G37*
G36*
G01*
X119300002Y-128837500D02*
X118399998Y-128837500D01*
G75*
G02*
X118150000Y-128587502I0J249998D01*
G01*
X118150000Y-128062498D01*
G75*
G02*
X118399998Y-127812500I249998J0D01*
G01*
X119300002Y-127812500D01*
G75*
G02*
X119550000Y-128062498I0J-249998D01*
G01*
X119550000Y-128587502D01*
G75*
G02*
X119300002Y-128837500I-249998J0D01*
G01*
G37*
%TD*%
%TO.C,R27*%
G36*
G01*
X112312500Y-118599998D02*
X112312500Y-119500002D01*
G75*
G02*
X112062502Y-119750000I-249998J0D01*
G01*
X111537498Y-119750000D01*
G75*
G02*
X111287500Y-119500002I0J249998D01*
G01*
X111287500Y-118599998D01*
G75*
G02*
X111537498Y-118350000I249998J0D01*
G01*
X112062502Y-118350000D01*
G75*
G02*
X112312500Y-118599998I0J-249998D01*
G01*
G37*
G36*
G01*
X114137500Y-118599998D02*
X114137500Y-119500002D01*
G75*
G02*
X113887502Y-119750000I-249998J0D01*
G01*
X113362498Y-119750000D01*
G75*
G02*
X113112500Y-119500002I0J249998D01*
G01*
X113112500Y-118599998D01*
G75*
G02*
X113362498Y-118350000I249998J0D01*
G01*
X113887502Y-118350000D01*
G75*
G02*
X114137500Y-118599998I0J-249998D01*
G01*
G37*
%TD*%
%TO.C,R14*%
G36*
G01*
X166075002Y-105950000D02*
X165174998Y-105950000D01*
G75*
G02*
X164925000Y-105700002I0J249998D01*
G01*
X164925000Y-105174998D01*
G75*
G02*
X165174998Y-104925000I249998J0D01*
G01*
X166075002Y-104925000D01*
G75*
G02*
X166325000Y-105174998I0J-249998D01*
G01*
X166325000Y-105700002D01*
G75*
G02*
X166075002Y-105950000I-249998J0D01*
G01*
G37*
G36*
G01*
X166075002Y-107775000D02*
X165174998Y-107775000D01*
G75*
G02*
X164925000Y-107525002I0J249998D01*
G01*
X164925000Y-106999998D01*
G75*
G02*
X165174998Y-106750000I249998J0D01*
G01*
X166075002Y-106750000D01*
G75*
G02*
X166325000Y-106999998I0J-249998D01*
G01*
X166325000Y-107525002D01*
G75*
G02*
X166075002Y-107775000I-249998J0D01*
G01*
G37*
%TD*%
D20*
%TO.C,Q3*%
X111750000Y-115850000D03*
X113750000Y-114900000D03*
X113750000Y-116800000D03*
%TD*%
D21*
%TO.C,D5*%
X113300000Y-121150000D03*
X114250000Y-123150000D03*
X112350000Y-123150000D03*
%TD*%
D20*
%TO.C,D2*%
X124200000Y-111950000D03*
X122200000Y-112900000D03*
X122200000Y-111000000D03*
%TD*%
%TO.C,C22*%
G36*
G01*
X82899998Y-116912500D02*
X83800002Y-116912500D01*
G75*
G02*
X84050000Y-117162498I0J-249998D01*
G01*
X84050000Y-117687502D01*
G75*
G02*
X83800002Y-117937500I-249998J0D01*
G01*
X82899998Y-117937500D01*
G75*
G02*
X82650000Y-117687502I0J249998D01*
G01*
X82650000Y-117162498D01*
G75*
G02*
X82899998Y-116912500I249998J0D01*
G01*
G37*
G36*
G01*
X82899998Y-115087500D02*
X83800002Y-115087500D01*
G75*
G02*
X84050000Y-115337498I0J-249998D01*
G01*
X84050000Y-115862502D01*
G75*
G02*
X83800002Y-116112500I-249998J0D01*
G01*
X82899998Y-116112500D01*
G75*
G02*
X82650000Y-115862502I0J249998D01*
G01*
X82650000Y-115337498D01*
G75*
G02*
X82899998Y-115087500I249998J0D01*
G01*
G37*
%TD*%
%TO.C,C6*%
G36*
G01*
X160200000Y-63050000D02*
X160200000Y-61950000D01*
G75*
G02*
X160450000Y-61700000I250000J0D01*
G01*
X162550000Y-61700000D01*
G75*
G02*
X162800000Y-61950000I0J-250000D01*
G01*
X162800000Y-63050000D01*
G75*
G02*
X162550000Y-63300000I-250000J0D01*
G01*
X160450000Y-63300000D01*
G75*
G02*
X160200000Y-63050000I0J250000D01*
G01*
G37*
G36*
G01*
X156600000Y-63050000D02*
X156600000Y-61950000D01*
G75*
G02*
X156850000Y-61700000I250000J0D01*
G01*
X158950000Y-61700000D01*
G75*
G02*
X159200000Y-61950000I0J-250000D01*
G01*
X159200000Y-63050000D01*
G75*
G02*
X158950000Y-63300000I-250000J0D01*
G01*
X156850000Y-63300000D01*
G75*
G02*
X156600000Y-63050000I0J250000D01*
G01*
G37*
%TD*%
%TO.C,C5*%
G36*
G01*
X160200000Y-57100000D02*
X160200000Y-56000000D01*
G75*
G02*
X160450000Y-55750000I250000J0D01*
G01*
X162550000Y-55750000D01*
G75*
G02*
X162800000Y-56000000I0J-250000D01*
G01*
X162800000Y-57100000D01*
G75*
G02*
X162550000Y-57350000I-250000J0D01*
G01*
X160450000Y-57350000D01*
G75*
G02*
X160200000Y-57100000I0J250000D01*
G01*
G37*
G36*
G01*
X156600000Y-57100000D02*
X156600000Y-56000000D01*
G75*
G02*
X156850000Y-55750000I250000J0D01*
G01*
X158950000Y-55750000D01*
G75*
G02*
X159200000Y-56000000I0J-250000D01*
G01*
X159200000Y-57100000D01*
G75*
G02*
X158950000Y-57350000I-250000J0D01*
G01*
X156850000Y-57350000D01*
G75*
G02*
X156600000Y-57100000I0J250000D01*
G01*
G37*
%TD*%
%TO.C,C3*%
G36*
G01*
X151600000Y-49200000D02*
X150500000Y-49200000D01*
G75*
G02*
X150250000Y-48950000I0J250000D01*
G01*
X150250000Y-46850000D01*
G75*
G02*
X150500000Y-46600000I250000J0D01*
G01*
X151600000Y-46600000D01*
G75*
G02*
X151850000Y-46850000I0J-250000D01*
G01*
X151850000Y-48950000D01*
G75*
G02*
X151600000Y-49200000I-250000J0D01*
G01*
G37*
G36*
G01*
X151600000Y-52800000D02*
X150500000Y-52800000D01*
G75*
G02*
X150250000Y-52550000I0J250000D01*
G01*
X150250000Y-50450000D01*
G75*
G02*
X150500000Y-50200000I250000J0D01*
G01*
X151600000Y-50200000D01*
G75*
G02*
X151850000Y-50450000I0J-250000D01*
G01*
X151850000Y-52550000D01*
G75*
G02*
X151600000Y-52800000I-250000J0D01*
G01*
G37*
%TD*%
%TO.C,C4*%
G36*
G01*
X160200000Y-51150000D02*
X160200000Y-50050000D01*
G75*
G02*
X160450000Y-49800000I250000J0D01*
G01*
X162550000Y-49800000D01*
G75*
G02*
X162800000Y-50050000I0J-250000D01*
G01*
X162800000Y-51150000D01*
G75*
G02*
X162550000Y-51400000I-250000J0D01*
G01*
X160450000Y-51400000D01*
G75*
G02*
X160200000Y-51150000I0J250000D01*
G01*
G37*
G36*
G01*
X156600000Y-51150000D02*
X156600000Y-50050000D01*
G75*
G02*
X156850000Y-49800000I250000J0D01*
G01*
X158950000Y-49800000D01*
G75*
G02*
X159200000Y-50050000I0J-250000D01*
G01*
X159200000Y-51150000D01*
G75*
G02*
X158950000Y-51400000I-250000J0D01*
G01*
X156850000Y-51400000D01*
G75*
G02*
X156600000Y-51150000I0J250000D01*
G01*
G37*
%TD*%
%TO.C,C2*%
G36*
G01*
X160200000Y-45200000D02*
X160200000Y-44100000D01*
G75*
G02*
X160450000Y-43850000I250000J0D01*
G01*
X162550000Y-43850000D01*
G75*
G02*
X162800000Y-44100000I0J-250000D01*
G01*
X162800000Y-45200000D01*
G75*
G02*
X162550000Y-45450000I-250000J0D01*
G01*
X160450000Y-45450000D01*
G75*
G02*
X160200000Y-45200000I0J250000D01*
G01*
G37*
G36*
G01*
X156600000Y-45200000D02*
X156600000Y-44100000D01*
G75*
G02*
X156850000Y-43850000I250000J0D01*
G01*
X158950000Y-43850000D01*
G75*
G02*
X159200000Y-44100000I0J-250000D01*
G01*
X159200000Y-45200000D01*
G75*
G02*
X158950000Y-45450000I-250000J0D01*
G01*
X156850000Y-45450000D01*
G75*
G02*
X156600000Y-45200000I0J250000D01*
G01*
G37*
%TD*%
D22*
%TO.C,J4*%
X63200000Y-79500000D03*
X63200000Y-88100000D03*
X63200000Y-84700000D03*
X55900000Y-88500000D03*
D23*
X56900000Y-84800000D03*
D22*
X55900000Y-78600000D03*
%TD*%
D24*
%TO.C,SW2*%
X145750000Y-127550000D03*
X157150000Y-127550000D03*
D25*
X148950000Y-120050000D03*
X151450000Y-120050000D03*
X153950000Y-120050000D03*
X148950000Y-134550000D03*
D26*
X153950000Y-134550000D03*
%TD*%
D27*
%TO.C,SW1*%
X55700000Y-67550000D03*
X55700000Y-57850000D03*
D28*
X55700000Y-64700000D03*
X55700000Y-60700000D03*
X55700000Y-62700000D03*
%TD*%
D29*
%TO.C,HS1*%
X137500000Y-34600000D03*
X74500000Y-97600000D03*
X74500000Y-34600000D03*
X137500000Y-97600000D03*
%TD*%
%TO.C,C16*%
G36*
G01*
X174800000Y-105149999D02*
X174800000Y-106450001D01*
G75*
G02*
X174550001Y-106700000I-249999J0D01*
G01*
X173899999Y-106700000D01*
G75*
G02*
X173650000Y-106450001I0J249999D01*
G01*
X173650000Y-105149999D01*
G75*
G02*
X173899999Y-104900000I249999J0D01*
G01*
X174550001Y-104900000D01*
G75*
G02*
X174800000Y-105149999I0J-249999D01*
G01*
G37*
G36*
G01*
X177750000Y-105149999D02*
X177750000Y-106450001D01*
G75*
G02*
X177500001Y-106700000I-249999J0D01*
G01*
X176849999Y-106700000D01*
G75*
G02*
X176600000Y-106450001I0J249999D01*
G01*
X176600000Y-105149999D01*
G75*
G02*
X176849999Y-104900000I249999J0D01*
G01*
X177500001Y-104900000D01*
G75*
G02*
X177750000Y-105149999I0J-249999D01*
G01*
G37*
%TD*%
%TO.C,C29*%
G36*
G01*
X136750001Y-143800000D02*
X135449999Y-143800000D01*
G75*
G02*
X135200000Y-143550001I0J249999D01*
G01*
X135200000Y-142899999D01*
G75*
G02*
X135449999Y-142650000I249999J0D01*
G01*
X136750001Y-142650000D01*
G75*
G02*
X137000000Y-142899999I0J-249999D01*
G01*
X137000000Y-143550001D01*
G75*
G02*
X136750001Y-143800000I-249999J0D01*
G01*
G37*
G36*
G01*
X136750001Y-146750000D02*
X135449999Y-146750000D01*
G75*
G02*
X135200000Y-146500001I0J249999D01*
G01*
X135200000Y-145849999D01*
G75*
G02*
X135449999Y-145600000I249999J0D01*
G01*
X136750001Y-145600000D01*
G75*
G02*
X137000000Y-145849999I0J-249999D01*
G01*
X137000000Y-146500001D01*
G75*
G02*
X136750001Y-146750000I-249999J0D01*
G01*
G37*
%TD*%
D30*
%TO.C,L2*%
X78300000Y-132050000D03*
X78300000Y-122550000D03*
%TD*%
D31*
%TO.C,R45*%
X89020000Y-108400000D03*
D32*
X94100000Y-108400000D03*
D33*
X91560000Y-91740000D03*
%TD*%
%TO.C,U5*%
G36*
G01*
X87775000Y-121260000D02*
X87775000Y-121560000D01*
G75*
G02*
X87625000Y-121710000I-150000J0D01*
G01*
X85875000Y-121710000D01*
G75*
G02*
X85725000Y-121560000I0J150000D01*
G01*
X85725000Y-121260000D01*
G75*
G02*
X85875000Y-121110000I150000J0D01*
G01*
X87625000Y-121110000D01*
G75*
G02*
X87775000Y-121260000I0J-150000D01*
G01*
G37*
G36*
G01*
X87775000Y-119990000D02*
X87775000Y-120290000D01*
G75*
G02*
X87625000Y-120440000I-150000J0D01*
G01*
X85875000Y-120440000D01*
G75*
G02*
X85725000Y-120290000I0J150000D01*
G01*
X85725000Y-119990000D01*
G75*
G02*
X85875000Y-119840000I150000J0D01*
G01*
X87625000Y-119840000D01*
G75*
G02*
X87775000Y-119990000I0J-150000D01*
G01*
G37*
G36*
G01*
X87775000Y-118720000D02*
X87775000Y-119020000D01*
G75*
G02*
X87625000Y-119170000I-150000J0D01*
G01*
X85875000Y-119170000D01*
G75*
G02*
X85725000Y-119020000I0J150000D01*
G01*
X85725000Y-118720000D01*
G75*
G02*
X85875000Y-118570000I150000J0D01*
G01*
X87625000Y-118570000D01*
G75*
G02*
X87775000Y-118720000I0J-150000D01*
G01*
G37*
G36*
G01*
X87775000Y-117450000D02*
X87775000Y-117750000D01*
G75*
G02*
X87625000Y-117900000I-150000J0D01*
G01*
X85875000Y-117900000D01*
G75*
G02*
X85725000Y-117750000I0J150000D01*
G01*
X85725000Y-117450000D01*
G75*
G02*
X85875000Y-117300000I150000J0D01*
G01*
X87625000Y-117300000D01*
G75*
G02*
X87775000Y-117450000I0J-150000D01*
G01*
G37*
G36*
G01*
X87775000Y-116180000D02*
X87775000Y-116480000D01*
G75*
G02*
X87625000Y-116630000I-150000J0D01*
G01*
X85875000Y-116630000D01*
G75*
G02*
X85725000Y-116480000I0J150000D01*
G01*
X85725000Y-116180000D01*
G75*
G02*
X85875000Y-116030000I150000J0D01*
G01*
X87625000Y-116030000D01*
G75*
G02*
X87775000Y-116180000I0J-150000D01*
G01*
G37*
G36*
G01*
X87775000Y-114910000D02*
X87775000Y-115210000D01*
G75*
G02*
X87625000Y-115360000I-150000J0D01*
G01*
X85875000Y-115360000D01*
G75*
G02*
X85725000Y-115210000I0J150000D01*
G01*
X85725000Y-114910000D01*
G75*
G02*
X85875000Y-114760000I150000J0D01*
G01*
X87625000Y-114760000D01*
G75*
G02*
X87775000Y-114910000I0J-150000D01*
G01*
G37*
G36*
G01*
X87775000Y-113640000D02*
X87775000Y-113940000D01*
G75*
G02*
X87625000Y-114090000I-150000J0D01*
G01*
X85875000Y-114090000D01*
G75*
G02*
X85725000Y-113940000I0J150000D01*
G01*
X85725000Y-113640000D01*
G75*
G02*
X85875000Y-113490000I150000J0D01*
G01*
X87625000Y-113490000D01*
G75*
G02*
X87775000Y-113640000I0J-150000D01*
G01*
G37*
G36*
G01*
X97075000Y-113640000D02*
X97075000Y-113940000D01*
G75*
G02*
X96925000Y-114090000I-150000J0D01*
G01*
X95175000Y-114090000D01*
G75*
G02*
X95025000Y-113940000I0J150000D01*
G01*
X95025000Y-113640000D01*
G75*
G02*
X95175000Y-113490000I150000J0D01*
G01*
X96925000Y-113490000D01*
G75*
G02*
X97075000Y-113640000I0J-150000D01*
G01*
G37*
G36*
G01*
X97075000Y-114910000D02*
X97075000Y-115210000D01*
G75*
G02*
X96925000Y-115360000I-150000J0D01*
G01*
X95175000Y-115360000D01*
G75*
G02*
X95025000Y-115210000I0J150000D01*
G01*
X95025000Y-114910000D01*
G75*
G02*
X95175000Y-114760000I150000J0D01*
G01*
X96925000Y-114760000D01*
G75*
G02*
X97075000Y-114910000I0J-150000D01*
G01*
G37*
G36*
G01*
X97075000Y-116180000D02*
X97075000Y-116480000D01*
G75*
G02*
X96925000Y-116630000I-150000J0D01*
G01*
X95175000Y-116630000D01*
G75*
G02*
X95025000Y-116480000I0J150000D01*
G01*
X95025000Y-116180000D01*
G75*
G02*
X95175000Y-116030000I150000J0D01*
G01*
X96925000Y-116030000D01*
G75*
G02*
X97075000Y-116180000I0J-150000D01*
G01*
G37*
G36*
G01*
X97075000Y-117450000D02*
X97075000Y-117750000D01*
G75*
G02*
X96925000Y-117900000I-150000J0D01*
G01*
X95175000Y-117900000D01*
G75*
G02*
X95025000Y-117750000I0J150000D01*
G01*
X95025000Y-117450000D01*
G75*
G02*
X95175000Y-117300000I150000J0D01*
G01*
X96925000Y-117300000D01*
G75*
G02*
X97075000Y-117450000I0J-150000D01*
G01*
G37*
G36*
G01*
X97075000Y-118720000D02*
X97075000Y-119020000D01*
G75*
G02*
X96925000Y-119170000I-150000J0D01*
G01*
X95175000Y-119170000D01*
G75*
G02*
X95025000Y-119020000I0J150000D01*
G01*
X95025000Y-118720000D01*
G75*
G02*
X95175000Y-118570000I150000J0D01*
G01*
X96925000Y-118570000D01*
G75*
G02*
X97075000Y-118720000I0J-150000D01*
G01*
G37*
G36*
G01*
X97075000Y-119990000D02*
X97075000Y-120290000D01*
G75*
G02*
X96925000Y-120440000I-150000J0D01*
G01*
X95175000Y-120440000D01*
G75*
G02*
X95025000Y-120290000I0J150000D01*
G01*
X95025000Y-119990000D01*
G75*
G02*
X95175000Y-119840000I150000J0D01*
G01*
X96925000Y-119840000D01*
G75*
G02*
X97075000Y-119990000I0J-150000D01*
G01*
G37*
G36*
G01*
X97075000Y-121260000D02*
X97075000Y-121560000D01*
G75*
G02*
X96925000Y-121710000I-150000J0D01*
G01*
X95175000Y-121710000D01*
G75*
G02*
X95025000Y-121560000I0J150000D01*
G01*
X95025000Y-121260000D01*
G75*
G02*
X95175000Y-121110000I150000J0D01*
G01*
X96925000Y-121110000D01*
G75*
G02*
X97075000Y-121260000I0J-150000D01*
G01*
G37*
%TD*%
%TO.C,J3*%
G36*
G01*
X170950000Y-66000000D02*
X170950000Y-67100000D01*
G75*
G02*
X170400000Y-67650000I-550000J0D01*
G01*
X168000000Y-67650000D01*
G75*
G02*
X167450000Y-67100000I0J550000D01*
G01*
X167450000Y-66000000D01*
G75*
G02*
X168000000Y-65450000I550000J0D01*
G01*
X170400000Y-65450000D01*
G75*
G02*
X170950000Y-66000000I0J-550000D01*
G01*
G37*
G36*
G01*
X170950000Y-62000000D02*
X170950000Y-63100000D01*
G75*
G02*
X170400000Y-63650000I-550000J0D01*
G01*
X168000000Y-63650000D01*
G75*
G02*
X167450000Y-63100000I0J550000D01*
G01*
X167450000Y-62000000D01*
G75*
G02*
X168000000Y-61450000I550000J0D01*
G01*
X170400000Y-61450000D01*
G75*
G02*
X170950000Y-62000000I0J-550000D01*
G01*
G37*
G36*
G01*
X170950000Y-69000000D02*
X170950000Y-70100000D01*
G75*
G02*
X170400000Y-70650000I-550000J0D01*
G01*
X168000000Y-70650000D01*
G75*
G02*
X167450000Y-70100000I0J550000D01*
G01*
X167450000Y-69000000D01*
G75*
G02*
X168000000Y-68450000I550000J0D01*
G01*
X170400000Y-68450000D01*
G75*
G02*
X170950000Y-69000000I0J-550000D01*
G01*
G37*
G36*
G01*
X170950000Y-59000000D02*
X170950000Y-60100000D01*
G75*
G02*
X170400000Y-60650000I-550000J0D01*
G01*
X168000000Y-60650000D01*
G75*
G02*
X167450000Y-60100000I0J550000D01*
G01*
X167450000Y-59000000D01*
G75*
G02*
X168000000Y-58450000I550000J0D01*
G01*
X170400000Y-58450000D01*
G75*
G02*
X170950000Y-59000000I0J-550000D01*
G01*
G37*
G36*
G01*
X175300000Y-63350000D02*
X175300000Y-65750000D01*
G75*
G02*
X174750000Y-66300000I-550000J0D01*
G01*
X173650000Y-66300000D01*
G75*
G02*
X173100000Y-65750000I0J550000D01*
G01*
X173100000Y-63350000D01*
G75*
G02*
X173650000Y-62800000I550000J0D01*
G01*
X174750000Y-62800000D01*
G75*
G02*
X175300000Y-63350000I0J-550000D01*
G01*
G37*
%TD*%
%TO.C,J6*%
G36*
G01*
X170950000Y-140475000D02*
X170950000Y-141575000D01*
G75*
G02*
X170400000Y-142125000I-550000J0D01*
G01*
X168000000Y-142125000D01*
G75*
G02*
X167450000Y-141575000I0J550000D01*
G01*
X167450000Y-140475000D01*
G75*
G02*
X168000000Y-139925000I550000J0D01*
G01*
X170400000Y-139925000D01*
G75*
G02*
X170950000Y-140475000I0J-550000D01*
G01*
G37*
G36*
G01*
X170950000Y-136475000D02*
X170950000Y-137575000D01*
G75*
G02*
X170400000Y-138125000I-550000J0D01*
G01*
X168000000Y-138125000D01*
G75*
G02*
X167450000Y-137575000I0J550000D01*
G01*
X167450000Y-136475000D01*
G75*
G02*
X168000000Y-135925000I550000J0D01*
G01*
X170400000Y-135925000D01*
G75*
G02*
X170950000Y-136475000I0J-550000D01*
G01*
G37*
G36*
G01*
X170950000Y-143475000D02*
X170950000Y-144575000D01*
G75*
G02*
X170400000Y-145125000I-550000J0D01*
G01*
X168000000Y-145125000D01*
G75*
G02*
X167450000Y-144575000I0J550000D01*
G01*
X167450000Y-143475000D01*
G75*
G02*
X168000000Y-142925000I550000J0D01*
G01*
X170400000Y-142925000D01*
G75*
G02*
X170950000Y-143475000I0J-550000D01*
G01*
G37*
G36*
G01*
X170950000Y-133475000D02*
X170950000Y-134575000D01*
G75*
G02*
X170400000Y-135125000I-550000J0D01*
G01*
X168000000Y-135125000D01*
G75*
G02*
X167450000Y-134575000I0J550000D01*
G01*
X167450000Y-133475000D01*
G75*
G02*
X168000000Y-132925000I550000J0D01*
G01*
X170400000Y-132925000D01*
G75*
G02*
X170950000Y-133475000I0J-550000D01*
G01*
G37*
G36*
G01*
X175300000Y-137825000D02*
X175300000Y-140225000D01*
G75*
G02*
X174750000Y-140775000I-550000J0D01*
G01*
X173650000Y-140775000D01*
G75*
G02*
X173100000Y-140225000I0J550000D01*
G01*
X173100000Y-137825000D01*
G75*
G02*
X173650000Y-137275000I550000J0D01*
G01*
X174750000Y-137275000D01*
G75*
G02*
X175300000Y-137825000I0J-550000D01*
G01*
G37*
%TD*%
%TO.C,J2*%
G36*
G01*
X170950000Y-50550000D02*
X170950000Y-51650000D01*
G75*
G02*
X170400000Y-52200000I-550000J0D01*
G01*
X168000000Y-52200000D01*
G75*
G02*
X167450000Y-51650000I0J550000D01*
G01*
X167450000Y-50550000D01*
G75*
G02*
X168000000Y-50000000I550000J0D01*
G01*
X170400000Y-50000000D01*
G75*
G02*
X170950000Y-50550000I0J-550000D01*
G01*
G37*
G36*
G01*
X170950000Y-46550000D02*
X170950000Y-47650000D01*
G75*
G02*
X170400000Y-48200000I-550000J0D01*
G01*
X168000000Y-48200000D01*
G75*
G02*
X167450000Y-47650000I0J550000D01*
G01*
X167450000Y-46550000D01*
G75*
G02*
X168000000Y-46000000I550000J0D01*
G01*
X170400000Y-46000000D01*
G75*
G02*
X170950000Y-46550000I0J-550000D01*
G01*
G37*
G36*
G01*
X170950000Y-53550000D02*
X170950000Y-54650000D01*
G75*
G02*
X170400000Y-55200000I-550000J0D01*
G01*
X168000000Y-55200000D01*
G75*
G02*
X167450000Y-54650000I0J550000D01*
G01*
X167450000Y-53550000D01*
G75*
G02*
X168000000Y-53000000I550000J0D01*
G01*
X170400000Y-53000000D01*
G75*
G02*
X170950000Y-53550000I0J-550000D01*
G01*
G37*
G36*
G01*
X170950000Y-43550000D02*
X170950000Y-44650000D01*
G75*
G02*
X170400000Y-45200000I-550000J0D01*
G01*
X168000000Y-45200000D01*
G75*
G02*
X167450000Y-44650000I0J550000D01*
G01*
X167450000Y-43550000D01*
G75*
G02*
X168000000Y-43000000I550000J0D01*
G01*
X170400000Y-43000000D01*
G75*
G02*
X170950000Y-43550000I0J-550000D01*
G01*
G37*
G36*
G01*
X175300000Y-47900000D02*
X175300000Y-50300000D01*
G75*
G02*
X174750000Y-50850000I-550000J0D01*
G01*
X173650000Y-50850000D01*
G75*
G02*
X173100000Y-50300000I0J550000D01*
G01*
X173100000Y-47900000D01*
G75*
G02*
X173650000Y-47350000I550000J0D01*
G01*
X174750000Y-47350000D01*
G75*
G02*
X175300000Y-47900000I0J-550000D01*
G01*
G37*
%TD*%
D34*
%TO.C,SW3*%
X148950000Y-143600000D03*
X153450000Y-143600000D03*
X148950000Y-150100000D03*
X153450000Y-150100000D03*
%TD*%
D35*
%TO.C,U1*%
X150725000Y-69825000D03*
G36*
G01*
X152600000Y-71937500D02*
X152600000Y-72612500D01*
G75*
G02*
X152537500Y-72675000I-62500J0D01*
G01*
X152412500Y-72675000D01*
G75*
G02*
X152350000Y-72612500I0J62500D01*
G01*
X152350000Y-71937500D01*
G75*
G02*
X152412500Y-71875000I62500J0D01*
G01*
X152537500Y-71875000D01*
G75*
G02*
X152600000Y-71937500I0J-62500D01*
G01*
G37*
G36*
G01*
X152100000Y-71937500D02*
X152100000Y-72612500D01*
G75*
G02*
X152037500Y-72675000I-62500J0D01*
G01*
X151912500Y-72675000D01*
G75*
G02*
X151850000Y-72612500I0J62500D01*
G01*
X151850000Y-71937500D01*
G75*
G02*
X151912500Y-71875000I62500J0D01*
G01*
X152037500Y-71875000D01*
G75*
G02*
X152100000Y-71937500I0J-62500D01*
G01*
G37*
G36*
G01*
X151600000Y-71937500D02*
X151600000Y-72612500D01*
G75*
G02*
X151537500Y-72675000I-62500J0D01*
G01*
X151412500Y-72675000D01*
G75*
G02*
X151350000Y-72612500I0J62500D01*
G01*
X151350000Y-71937500D01*
G75*
G02*
X151412500Y-71875000I62500J0D01*
G01*
X151537500Y-71875000D01*
G75*
G02*
X151600000Y-71937500I0J-62500D01*
G01*
G37*
G36*
G01*
X151100000Y-71937500D02*
X151100000Y-72612500D01*
G75*
G02*
X151037500Y-72675000I-62500J0D01*
G01*
X150912500Y-72675000D01*
G75*
G02*
X150850000Y-72612500I0J62500D01*
G01*
X150850000Y-71937500D01*
G75*
G02*
X150912500Y-71875000I62500J0D01*
G01*
X151037500Y-71875000D01*
G75*
G02*
X151100000Y-71937500I0J-62500D01*
G01*
G37*
G36*
G01*
X150600000Y-71937500D02*
X150600000Y-72612500D01*
G75*
G02*
X150537500Y-72675000I-62500J0D01*
G01*
X150412500Y-72675000D01*
G75*
G02*
X150350000Y-72612500I0J62500D01*
G01*
X150350000Y-71937500D01*
G75*
G02*
X150412500Y-71875000I62500J0D01*
G01*
X150537500Y-71875000D01*
G75*
G02*
X150600000Y-71937500I0J-62500D01*
G01*
G37*
G36*
G01*
X150100000Y-71937500D02*
X150100000Y-72612500D01*
G75*
G02*
X150037500Y-72675000I-62500J0D01*
G01*
X149912500Y-72675000D01*
G75*
G02*
X149850000Y-72612500I0J62500D01*
G01*
X149850000Y-71937500D01*
G75*
G02*
X149912500Y-71875000I62500J0D01*
G01*
X150037500Y-71875000D01*
G75*
G02*
X150100000Y-71937500I0J-62500D01*
G01*
G37*
G36*
G01*
X149600000Y-71937500D02*
X149600000Y-72612500D01*
G75*
G02*
X149537500Y-72675000I-62500J0D01*
G01*
X149412500Y-72675000D01*
G75*
G02*
X149350000Y-72612500I0J62500D01*
G01*
X149350000Y-71937500D01*
G75*
G02*
X149412500Y-71875000I62500J0D01*
G01*
X149537500Y-71875000D01*
G75*
G02*
X149600000Y-71937500I0J-62500D01*
G01*
G37*
G36*
G01*
X149100000Y-71937500D02*
X149100000Y-72612500D01*
G75*
G02*
X149037500Y-72675000I-62500J0D01*
G01*
X148912500Y-72675000D01*
G75*
G02*
X148850000Y-72612500I0J62500D01*
G01*
X148850000Y-71937500D01*
G75*
G02*
X148912500Y-71875000I62500J0D01*
G01*
X149037500Y-71875000D01*
G75*
G02*
X149100000Y-71937500I0J-62500D01*
G01*
G37*
G36*
G01*
X148675000Y-71512500D02*
X148675000Y-71637500D01*
G75*
G02*
X148612500Y-71700000I-62500J0D01*
G01*
X147937500Y-71700000D01*
G75*
G02*
X147875000Y-71637500I0J62500D01*
G01*
X147875000Y-71512500D01*
G75*
G02*
X147937500Y-71450000I62500J0D01*
G01*
X148612500Y-71450000D01*
G75*
G02*
X148675000Y-71512500I0J-62500D01*
G01*
G37*
G36*
G01*
X148675000Y-71012500D02*
X148675000Y-71137500D01*
G75*
G02*
X148612500Y-71200000I-62500J0D01*
G01*
X147937500Y-71200000D01*
G75*
G02*
X147875000Y-71137500I0J62500D01*
G01*
X147875000Y-71012500D01*
G75*
G02*
X147937500Y-70950000I62500J0D01*
G01*
X148612500Y-70950000D01*
G75*
G02*
X148675000Y-71012500I0J-62500D01*
G01*
G37*
G36*
G01*
X148675000Y-70512500D02*
X148675000Y-70637500D01*
G75*
G02*
X148612500Y-70700000I-62500J0D01*
G01*
X147937500Y-70700000D01*
G75*
G02*
X147875000Y-70637500I0J62500D01*
G01*
X147875000Y-70512500D01*
G75*
G02*
X147937500Y-70450000I62500J0D01*
G01*
X148612500Y-70450000D01*
G75*
G02*
X148675000Y-70512500I0J-62500D01*
G01*
G37*
G36*
G01*
X148675000Y-70012500D02*
X148675000Y-70137500D01*
G75*
G02*
X148612500Y-70200000I-62500J0D01*
G01*
X147937500Y-70200000D01*
G75*
G02*
X147875000Y-70137500I0J62500D01*
G01*
X147875000Y-70012500D01*
G75*
G02*
X147937500Y-69950000I62500J0D01*
G01*
X148612500Y-69950000D01*
G75*
G02*
X148675000Y-70012500I0J-62500D01*
G01*
G37*
G36*
G01*
X148675000Y-69512500D02*
X148675000Y-69637500D01*
G75*
G02*
X148612500Y-69700000I-62500J0D01*
G01*
X147937500Y-69700000D01*
G75*
G02*
X147875000Y-69637500I0J62500D01*
G01*
X147875000Y-69512500D01*
G75*
G02*
X147937500Y-69450000I62500J0D01*
G01*
X148612500Y-69450000D01*
G75*
G02*
X148675000Y-69512500I0J-62500D01*
G01*
G37*
G36*
G01*
X148675000Y-69012500D02*
X148675000Y-69137500D01*
G75*
G02*
X148612500Y-69200000I-62500J0D01*
G01*
X147937500Y-69200000D01*
G75*
G02*
X147875000Y-69137500I0J62500D01*
G01*
X147875000Y-69012500D01*
G75*
G02*
X147937500Y-68950000I62500J0D01*
G01*
X148612500Y-68950000D01*
G75*
G02*
X148675000Y-69012500I0J-62500D01*
G01*
G37*
G36*
G01*
X148675000Y-68512500D02*
X148675000Y-68637500D01*
G75*
G02*
X148612500Y-68700000I-62500J0D01*
G01*
X147937500Y-68700000D01*
G75*
G02*
X147875000Y-68637500I0J62500D01*
G01*
X147875000Y-68512500D01*
G75*
G02*
X147937500Y-68450000I62500J0D01*
G01*
X148612500Y-68450000D01*
G75*
G02*
X148675000Y-68512500I0J-62500D01*
G01*
G37*
G36*
G01*
X148675000Y-68012500D02*
X148675000Y-68137500D01*
G75*
G02*
X148612500Y-68200000I-62500J0D01*
G01*
X147937500Y-68200000D01*
G75*
G02*
X147875000Y-68137500I0J62500D01*
G01*
X147875000Y-68012500D01*
G75*
G02*
X147937500Y-67950000I62500J0D01*
G01*
X148612500Y-67950000D01*
G75*
G02*
X148675000Y-68012500I0J-62500D01*
G01*
G37*
G36*
G01*
X149100000Y-67037500D02*
X149100000Y-67712500D01*
G75*
G02*
X149037500Y-67775000I-62500J0D01*
G01*
X148912500Y-67775000D01*
G75*
G02*
X148850000Y-67712500I0J62500D01*
G01*
X148850000Y-67037500D01*
G75*
G02*
X148912500Y-66975000I62500J0D01*
G01*
X149037500Y-66975000D01*
G75*
G02*
X149100000Y-67037500I0J-62500D01*
G01*
G37*
G36*
G01*
X149600000Y-67037500D02*
X149600000Y-67712500D01*
G75*
G02*
X149537500Y-67775000I-62500J0D01*
G01*
X149412500Y-67775000D01*
G75*
G02*
X149350000Y-67712500I0J62500D01*
G01*
X149350000Y-67037500D01*
G75*
G02*
X149412500Y-66975000I62500J0D01*
G01*
X149537500Y-66975000D01*
G75*
G02*
X149600000Y-67037500I0J-62500D01*
G01*
G37*
G36*
G01*
X150100000Y-67037500D02*
X150100000Y-67712500D01*
G75*
G02*
X150037500Y-67775000I-62500J0D01*
G01*
X149912500Y-67775000D01*
G75*
G02*
X149850000Y-67712500I0J62500D01*
G01*
X149850000Y-67037500D01*
G75*
G02*
X149912500Y-66975000I62500J0D01*
G01*
X150037500Y-66975000D01*
G75*
G02*
X150100000Y-67037500I0J-62500D01*
G01*
G37*
G36*
G01*
X150600000Y-67037500D02*
X150600000Y-67712500D01*
G75*
G02*
X150537500Y-67775000I-62500J0D01*
G01*
X150412500Y-67775000D01*
G75*
G02*
X150350000Y-67712500I0J62500D01*
G01*
X150350000Y-67037500D01*
G75*
G02*
X150412500Y-66975000I62500J0D01*
G01*
X150537500Y-66975000D01*
G75*
G02*
X150600000Y-67037500I0J-62500D01*
G01*
G37*
G36*
G01*
X151100000Y-67037500D02*
X151100000Y-67712500D01*
G75*
G02*
X151037500Y-67775000I-62500J0D01*
G01*
X150912500Y-67775000D01*
G75*
G02*
X150850000Y-67712500I0J62500D01*
G01*
X150850000Y-67037500D01*
G75*
G02*
X150912500Y-66975000I62500J0D01*
G01*
X151037500Y-66975000D01*
G75*
G02*
X151100000Y-67037500I0J-62500D01*
G01*
G37*
G36*
G01*
X151600000Y-67037500D02*
X151600000Y-67712500D01*
G75*
G02*
X151537500Y-67775000I-62500J0D01*
G01*
X151412500Y-67775000D01*
G75*
G02*
X151350000Y-67712500I0J62500D01*
G01*
X151350000Y-67037500D01*
G75*
G02*
X151412500Y-66975000I62500J0D01*
G01*
X151537500Y-66975000D01*
G75*
G02*
X151600000Y-67037500I0J-62500D01*
G01*
G37*
G36*
G01*
X152100000Y-67037500D02*
X152100000Y-67712500D01*
G75*
G02*
X152037500Y-67775000I-62500J0D01*
G01*
X151912500Y-67775000D01*
G75*
G02*
X151850000Y-67712500I0J62500D01*
G01*
X151850000Y-67037500D01*
G75*
G02*
X151912500Y-66975000I62500J0D01*
G01*
X152037500Y-66975000D01*
G75*
G02*
X152100000Y-67037500I0J-62500D01*
G01*
G37*
G36*
G01*
X152600000Y-67037500D02*
X152600000Y-67712500D01*
G75*
G02*
X152537500Y-67775000I-62500J0D01*
G01*
X152412500Y-67775000D01*
G75*
G02*
X152350000Y-67712500I0J62500D01*
G01*
X152350000Y-67037500D01*
G75*
G02*
X152412500Y-66975000I62500J0D01*
G01*
X152537500Y-66975000D01*
G75*
G02*
X152600000Y-67037500I0J-62500D01*
G01*
G37*
G36*
G01*
X153575000Y-68012500D02*
X153575000Y-68137500D01*
G75*
G02*
X153512500Y-68200000I-62500J0D01*
G01*
X152837500Y-68200000D01*
G75*
G02*
X152775000Y-68137500I0J62500D01*
G01*
X152775000Y-68012500D01*
G75*
G02*
X152837500Y-67950000I62500J0D01*
G01*
X153512500Y-67950000D01*
G75*
G02*
X153575000Y-68012500I0J-62500D01*
G01*
G37*
G36*
G01*
X153575000Y-68512500D02*
X153575000Y-68637500D01*
G75*
G02*
X153512500Y-68700000I-62500J0D01*
G01*
X152837500Y-68700000D01*
G75*
G02*
X152775000Y-68637500I0J62500D01*
G01*
X152775000Y-68512500D01*
G75*
G02*
X152837500Y-68450000I62500J0D01*
G01*
X153512500Y-68450000D01*
G75*
G02*
X153575000Y-68512500I0J-62500D01*
G01*
G37*
G36*
G01*
X153575000Y-69012500D02*
X153575000Y-69137500D01*
G75*
G02*
X153512500Y-69200000I-62500J0D01*
G01*
X152837500Y-69200000D01*
G75*
G02*
X152775000Y-69137500I0J62500D01*
G01*
X152775000Y-69012500D01*
G75*
G02*
X152837500Y-68950000I62500J0D01*
G01*
X153512500Y-68950000D01*
G75*
G02*
X153575000Y-69012500I0J-62500D01*
G01*
G37*
G36*
G01*
X153575000Y-69512500D02*
X153575000Y-69637500D01*
G75*
G02*
X153512500Y-69700000I-62500J0D01*
G01*
X152837500Y-69700000D01*
G75*
G02*
X152775000Y-69637500I0J62500D01*
G01*
X152775000Y-69512500D01*
G75*
G02*
X152837500Y-69450000I62500J0D01*
G01*
X153512500Y-69450000D01*
G75*
G02*
X153575000Y-69512500I0J-62500D01*
G01*
G37*
G36*
G01*
X153575000Y-70012500D02*
X153575000Y-70137500D01*
G75*
G02*
X153512500Y-70200000I-62500J0D01*
G01*
X152837500Y-70200000D01*
G75*
G02*
X152775000Y-70137500I0J62500D01*
G01*
X152775000Y-70012500D01*
G75*
G02*
X152837500Y-69950000I62500J0D01*
G01*
X153512500Y-69950000D01*
G75*
G02*
X153575000Y-70012500I0J-62500D01*
G01*
G37*
G36*
G01*
X153575000Y-70512500D02*
X153575000Y-70637500D01*
G75*
G02*
X153512500Y-70700000I-62500J0D01*
G01*
X152837500Y-70700000D01*
G75*
G02*
X152775000Y-70637500I0J62500D01*
G01*
X152775000Y-70512500D01*
G75*
G02*
X152837500Y-70450000I62500J0D01*
G01*
X153512500Y-70450000D01*
G75*
G02*
X153575000Y-70512500I0J-62500D01*
G01*
G37*
G36*
G01*
X153575000Y-71012500D02*
X153575000Y-71137500D01*
G75*
G02*
X153512500Y-71200000I-62500J0D01*
G01*
X152837500Y-71200000D01*
G75*
G02*
X152775000Y-71137500I0J62500D01*
G01*
X152775000Y-71012500D01*
G75*
G02*
X152837500Y-70950000I62500J0D01*
G01*
X153512500Y-70950000D01*
G75*
G02*
X153575000Y-71012500I0J-62500D01*
G01*
G37*
G36*
G01*
X153575000Y-71512500D02*
X153575000Y-71637500D01*
G75*
G02*
X153512500Y-71700000I-62500J0D01*
G01*
X152837500Y-71700000D01*
G75*
G02*
X152775000Y-71637500I0J62500D01*
G01*
X152775000Y-71512500D01*
G75*
G02*
X152837500Y-71450000I62500J0D01*
G01*
X153512500Y-71450000D01*
G75*
G02*
X153575000Y-71512500I0J-62500D01*
G01*
G37*
%TD*%
D36*
%TO.C,U2*%
X159200000Y-79350000D03*
X159200000Y-77450000D03*
X161400000Y-77450000D03*
X161400000Y-78400000D03*
X161400000Y-79350000D03*
%TD*%
%TO.C,U6*%
G36*
G01*
X117670000Y-120350000D02*
X117370000Y-120350000D01*
G75*
G02*
X117220000Y-120200000I0J150000D01*
G01*
X117220000Y-118550000D01*
G75*
G02*
X117370000Y-118400000I150000J0D01*
G01*
X117670000Y-118400000D01*
G75*
G02*
X117820000Y-118550000I0J-150000D01*
G01*
X117820000Y-120200000D01*
G75*
G02*
X117670000Y-120350000I-150000J0D01*
G01*
G37*
G36*
G01*
X118940000Y-120350000D02*
X118640000Y-120350000D01*
G75*
G02*
X118490000Y-120200000I0J150000D01*
G01*
X118490000Y-118550000D01*
G75*
G02*
X118640000Y-118400000I150000J0D01*
G01*
X118940000Y-118400000D01*
G75*
G02*
X119090000Y-118550000I0J-150000D01*
G01*
X119090000Y-120200000D01*
G75*
G02*
X118940000Y-120350000I-150000J0D01*
G01*
G37*
G36*
G01*
X120210000Y-120350000D02*
X119910000Y-120350000D01*
G75*
G02*
X119760000Y-120200000I0J150000D01*
G01*
X119760000Y-118550000D01*
G75*
G02*
X119910000Y-118400000I150000J0D01*
G01*
X120210000Y-118400000D01*
G75*
G02*
X120360000Y-118550000I0J-150000D01*
G01*
X120360000Y-120200000D01*
G75*
G02*
X120210000Y-120350000I-150000J0D01*
G01*
G37*
G36*
G01*
X121480000Y-120350000D02*
X121180000Y-120350000D01*
G75*
G02*
X121030000Y-120200000I0J150000D01*
G01*
X121030000Y-118550000D01*
G75*
G02*
X121180000Y-118400000I150000J0D01*
G01*
X121480000Y-118400000D01*
G75*
G02*
X121630000Y-118550000I0J-150000D01*
G01*
X121630000Y-120200000D01*
G75*
G02*
X121480000Y-120350000I-150000J0D01*
G01*
G37*
G36*
G01*
X121480000Y-125300000D02*
X121180000Y-125300000D01*
G75*
G02*
X121030000Y-125150000I0J150000D01*
G01*
X121030000Y-123500000D01*
G75*
G02*
X121180000Y-123350000I150000J0D01*
G01*
X121480000Y-123350000D01*
G75*
G02*
X121630000Y-123500000I0J-150000D01*
G01*
X121630000Y-125150000D01*
G75*
G02*
X121480000Y-125300000I-150000J0D01*
G01*
G37*
G36*
G01*
X120210000Y-125300000D02*
X119910000Y-125300000D01*
G75*
G02*
X119760000Y-125150000I0J150000D01*
G01*
X119760000Y-123500000D01*
G75*
G02*
X119910000Y-123350000I150000J0D01*
G01*
X120210000Y-123350000D01*
G75*
G02*
X120360000Y-123500000I0J-150000D01*
G01*
X120360000Y-125150000D01*
G75*
G02*
X120210000Y-125300000I-150000J0D01*
G01*
G37*
G36*
G01*
X118940000Y-125300000D02*
X118640000Y-125300000D01*
G75*
G02*
X118490000Y-125150000I0J150000D01*
G01*
X118490000Y-123500000D01*
G75*
G02*
X118640000Y-123350000I150000J0D01*
G01*
X118940000Y-123350000D01*
G75*
G02*
X119090000Y-123500000I0J-150000D01*
G01*
X119090000Y-125150000D01*
G75*
G02*
X118940000Y-125300000I-150000J0D01*
G01*
G37*
G36*
G01*
X117670000Y-125300000D02*
X117370000Y-125300000D01*
G75*
G02*
X117220000Y-125150000I0J150000D01*
G01*
X117220000Y-123500000D01*
G75*
G02*
X117370000Y-123350000I150000J0D01*
G01*
X117670000Y-123350000D01*
G75*
G02*
X117820000Y-123500000I0J-150000D01*
G01*
X117820000Y-125150000D01*
G75*
G02*
X117670000Y-125300000I-150000J0D01*
G01*
G37*
%TD*%
D16*
%TO.C,U3*%
X152010000Y-90120000D03*
X149470000Y-90120000D03*
X152010000Y-92660000D03*
X149470000Y-92660000D03*
X152010000Y-95200000D03*
X149470000Y-95200000D03*
X152010000Y-97740000D03*
X149470000Y-97740000D03*
X152010000Y-100280000D03*
X149470000Y-100280000D03*
X177410000Y-87580000D03*
X174870000Y-87580000D03*
X172330000Y-87580000D03*
X169790000Y-87580000D03*
X167250000Y-87580000D03*
X164710000Y-87580000D03*
X162170000Y-87580000D03*
X159630000Y-87580000D03*
X157090000Y-87580000D03*
X154550000Y-87580000D03*
X152010000Y-87580000D03*
X149470000Y-87580000D03*
X146930000Y-87580000D03*
X174870000Y-100280000D03*
X177410000Y-102820000D03*
X174870000Y-102820000D03*
X172330000Y-102820000D03*
X169790000Y-102820000D03*
X167250000Y-102820000D03*
X164710000Y-102820000D03*
X162170000Y-102820000D03*
X159630000Y-102820000D03*
X157090000Y-102820000D03*
X154550000Y-102820000D03*
X152010000Y-102820000D03*
X149470000Y-102820000D03*
X146930000Y-102820000D03*
X144390000Y-87580000D03*
X144390000Y-90120000D03*
X144390000Y-92660000D03*
X144390000Y-102820000D03*
X144390000Y-100280000D03*
X144390000Y-97740000D03*
X144390000Y-95200000D03*
%TD*%
D37*
%TO.C,U9*%
X115875000Y-131350000D03*
X116825000Y-131350000D03*
X114925000Y-131350000D03*
X114925000Y-129150000D03*
X115875000Y-129150000D03*
X116825000Y-129150000D03*
%TD*%
D38*
%TO.C,TP2*%
X74275000Y-158250000D03*
%TD*%
%TO.C,TP1*%
X173275000Y-80625000D03*
%TD*%
%TO.C,R34*%
G36*
G01*
X68250002Y-129587500D02*
X67349998Y-129587500D01*
G75*
G02*
X67100000Y-129337502I0J249998D01*
G01*
X67100000Y-128812498D01*
G75*
G02*
X67349998Y-128562500I249998J0D01*
G01*
X68250002Y-128562500D01*
G75*
G02*
X68500000Y-128812498I0J-249998D01*
G01*
X68500000Y-129337502D01*
G75*
G02*
X68250002Y-129587500I-249998J0D01*
G01*
G37*
G36*
G01*
X68250002Y-131412500D02*
X67349998Y-131412500D01*
G75*
G02*
X67100000Y-131162502I0J249998D01*
G01*
X67100000Y-130637498D01*
G75*
G02*
X67349998Y-130387500I249998J0D01*
G01*
X68250002Y-130387500D01*
G75*
G02*
X68500000Y-130637498I0J-249998D01*
G01*
X68500000Y-131162502D01*
G75*
G02*
X68250002Y-131412500I-249998J0D01*
G01*
G37*
%TD*%
%TO.C,R38*%
G36*
G01*
X69077998Y-140829500D02*
X69978002Y-140829500D01*
G75*
G02*
X70228000Y-141079498I0J-249998D01*
G01*
X70228000Y-141604502D01*
G75*
G02*
X69978002Y-141854500I-249998J0D01*
G01*
X69077998Y-141854500D01*
G75*
G02*
X68828000Y-141604502I0J249998D01*
G01*
X68828000Y-141079498D01*
G75*
G02*
X69077998Y-140829500I249998J0D01*
G01*
G37*
G36*
G01*
X69077998Y-139004500D02*
X69978002Y-139004500D01*
G75*
G02*
X70228000Y-139254498I0J-249998D01*
G01*
X70228000Y-139779502D01*
G75*
G02*
X69978002Y-140029500I-249998J0D01*
G01*
X69077998Y-140029500D01*
G75*
G02*
X68828000Y-139779502I0J249998D01*
G01*
X68828000Y-139254498D01*
G75*
G02*
X69077998Y-139004500I249998J0D01*
G01*
G37*
%TD*%
%TO.C,R31*%
G36*
G01*
X68250002Y-125787500D02*
X67349998Y-125787500D01*
G75*
G02*
X67100000Y-125537502I0J249998D01*
G01*
X67100000Y-125012498D01*
G75*
G02*
X67349998Y-124762500I249998J0D01*
G01*
X68250002Y-124762500D01*
G75*
G02*
X68500000Y-125012498I0J-249998D01*
G01*
X68500000Y-125537502D01*
G75*
G02*
X68250002Y-125787500I-249998J0D01*
G01*
G37*
G36*
G01*
X68250002Y-127612500D02*
X67349998Y-127612500D01*
G75*
G02*
X67100000Y-127362502I0J249998D01*
G01*
X67100000Y-126837498D01*
G75*
G02*
X67349998Y-126587500I249998J0D01*
G01*
X68250002Y-126587500D01*
G75*
G02*
X68500000Y-126837498I0J-249998D01*
G01*
X68500000Y-127362502D01*
G75*
G02*
X68250002Y-127612500I-249998J0D01*
G01*
G37*
%TD*%
%TO.C,R17*%
G36*
G01*
X175949998Y-109200000D02*
X176850002Y-109200000D01*
G75*
G02*
X177100000Y-109449998I0J-249998D01*
G01*
X177100000Y-109975002D01*
G75*
G02*
X176850002Y-110225000I-249998J0D01*
G01*
X175949998Y-110225000D01*
G75*
G02*
X175700000Y-109975002I0J249998D01*
G01*
X175700000Y-109449998D01*
G75*
G02*
X175949998Y-109200000I249998J0D01*
G01*
G37*
G36*
G01*
X175949998Y-107375000D02*
X176850002Y-107375000D01*
G75*
G02*
X177100000Y-107624998I0J-249998D01*
G01*
X177100000Y-108150002D01*
G75*
G02*
X176850002Y-108400000I-249998J0D01*
G01*
X175949998Y-108400000D01*
G75*
G02*
X175700000Y-108150002I0J249998D01*
G01*
X175700000Y-107624998D01*
G75*
G02*
X175949998Y-107375000I249998J0D01*
G01*
G37*
%TD*%
%TO.C,R28*%
G36*
G01*
X164649998Y-119937500D02*
X165550002Y-119937500D01*
G75*
G02*
X165800000Y-120187498I0J-249998D01*
G01*
X165800000Y-120712502D01*
G75*
G02*
X165550002Y-120962500I-249998J0D01*
G01*
X164649998Y-120962500D01*
G75*
G02*
X164400000Y-120712502I0J249998D01*
G01*
X164400000Y-120187498D01*
G75*
G02*
X164649998Y-119937500I249998J0D01*
G01*
G37*
G36*
G01*
X164649998Y-118112500D02*
X165550002Y-118112500D01*
G75*
G02*
X165800000Y-118362498I0J-249998D01*
G01*
X165800000Y-118887502D01*
G75*
G02*
X165550002Y-119137500I-249998J0D01*
G01*
X164649998Y-119137500D01*
G75*
G02*
X164400000Y-118887502I0J249998D01*
G01*
X164400000Y-118362498D01*
G75*
G02*
X164649998Y-118112500I249998J0D01*
G01*
G37*
%TD*%
%TO.C,R4*%
G36*
G01*
X155537500Y-73974998D02*
X155537500Y-74875002D01*
G75*
G02*
X155287502Y-75125000I-249998J0D01*
G01*
X154762498Y-75125000D01*
G75*
G02*
X154512500Y-74875002I0J249998D01*
G01*
X154512500Y-73974998D01*
G75*
G02*
X154762498Y-73725000I249998J0D01*
G01*
X155287502Y-73725000D01*
G75*
G02*
X155537500Y-73974998I0J-249998D01*
G01*
G37*
G36*
G01*
X157362500Y-73974998D02*
X157362500Y-74875002D01*
G75*
G02*
X157112502Y-75125000I-249998J0D01*
G01*
X156587498Y-75125000D01*
G75*
G02*
X156337500Y-74875002I0J249998D01*
G01*
X156337500Y-73974998D01*
G75*
G02*
X156587498Y-73725000I249998J0D01*
G01*
X157112502Y-73725000D01*
G75*
G02*
X157362500Y-73974998I0J-249998D01*
G01*
G37*
%TD*%
%TO.C,R5*%
G36*
G01*
X146549998Y-75700000D02*
X147450002Y-75700000D01*
G75*
G02*
X147700000Y-75949998I0J-249998D01*
G01*
X147700000Y-76475002D01*
G75*
G02*
X147450002Y-76725000I-249998J0D01*
G01*
X146549998Y-76725000D01*
G75*
G02*
X146300000Y-76475002I0J249998D01*
G01*
X146300000Y-75949998D01*
G75*
G02*
X146549998Y-75700000I249998J0D01*
G01*
G37*
G36*
G01*
X146549998Y-73875000D02*
X147450002Y-73875000D01*
G75*
G02*
X147700000Y-74124998I0J-249998D01*
G01*
X147700000Y-74650002D01*
G75*
G02*
X147450002Y-74900000I-249998J0D01*
G01*
X146549998Y-74900000D01*
G75*
G02*
X146300000Y-74650002I0J249998D01*
G01*
X146300000Y-74124998D01*
G75*
G02*
X146549998Y-73875000I249998J0D01*
G01*
G37*
%TD*%
%TO.C,R41*%
G36*
G01*
X72577998Y-148624500D02*
X73478002Y-148624500D01*
G75*
G02*
X73728000Y-148874498I0J-249998D01*
G01*
X73728000Y-149399502D01*
G75*
G02*
X73478002Y-149649500I-249998J0D01*
G01*
X72577998Y-149649500D01*
G75*
G02*
X72328000Y-149399502I0J249998D01*
G01*
X72328000Y-148874498D01*
G75*
G02*
X72577998Y-148624500I249998J0D01*
G01*
G37*
G36*
G01*
X72577998Y-146799500D02*
X73478002Y-146799500D01*
G75*
G02*
X73728000Y-147049498I0J-249998D01*
G01*
X73728000Y-147574502D01*
G75*
G02*
X73478002Y-147824500I-249998J0D01*
G01*
X72577998Y-147824500D01*
G75*
G02*
X72328000Y-147574502I0J249998D01*
G01*
X72328000Y-147049498D01*
G75*
G02*
X72577998Y-146799500I249998J0D01*
G01*
G37*
%TD*%
%TO.C,R1*%
G36*
G01*
X152400000Y-40949998D02*
X152400000Y-41850002D01*
G75*
G02*
X152150002Y-42100000I-249998J0D01*
G01*
X151624998Y-42100000D01*
G75*
G02*
X151375000Y-41850002I0J249998D01*
G01*
X151375000Y-40949998D01*
G75*
G02*
X151624998Y-40700000I249998J0D01*
G01*
X152150002Y-40700000D01*
G75*
G02*
X152400000Y-40949998I0J-249998D01*
G01*
G37*
G36*
G01*
X154225000Y-40949998D02*
X154225000Y-41850002D01*
G75*
G02*
X153975002Y-42100000I-249998J0D01*
G01*
X153449998Y-42100000D01*
G75*
G02*
X153200000Y-41850002I0J249998D01*
G01*
X153200000Y-40949998D01*
G75*
G02*
X153449998Y-40700000I249998J0D01*
G01*
X153975002Y-40700000D01*
G75*
G02*
X154225000Y-40949998I0J-249998D01*
G01*
G37*
%TD*%
%TO.C,R36*%
G36*
G01*
X162252500Y-137380002D02*
X162252500Y-136479998D01*
G75*
G02*
X162502498Y-136230000I249998J0D01*
G01*
X163027502Y-136230000D01*
G75*
G02*
X163277500Y-136479998I0J-249998D01*
G01*
X163277500Y-137380002D01*
G75*
G02*
X163027502Y-137630000I-249998J0D01*
G01*
X162502498Y-137630000D01*
G75*
G02*
X162252500Y-137380002I0J249998D01*
G01*
G37*
G36*
G01*
X160427500Y-137380002D02*
X160427500Y-136479998D01*
G75*
G02*
X160677498Y-136230000I249998J0D01*
G01*
X161202502Y-136230000D01*
G75*
G02*
X161452500Y-136479998I0J-249998D01*
G01*
X161452500Y-137380002D01*
G75*
G02*
X161202502Y-137630000I-249998J0D01*
G01*
X160677498Y-137630000D01*
G75*
G02*
X160427500Y-137380002I0J249998D01*
G01*
G37*
%TD*%
%TO.C,R37*%
G36*
G01*
X158800002Y-137402500D02*
X157899998Y-137402500D01*
G75*
G02*
X157650000Y-137152502I0J249998D01*
G01*
X157650000Y-136627498D01*
G75*
G02*
X157899998Y-136377500I249998J0D01*
G01*
X158800002Y-136377500D01*
G75*
G02*
X159050000Y-136627498I0J-249998D01*
G01*
X159050000Y-137152502D01*
G75*
G02*
X158800002Y-137402500I-249998J0D01*
G01*
G37*
G36*
G01*
X158800002Y-139227500D02*
X157899998Y-139227500D01*
G75*
G02*
X157650000Y-138977502I0J249998D01*
G01*
X157650000Y-138452498D01*
G75*
G02*
X157899998Y-138202500I249998J0D01*
G01*
X158800002Y-138202500D01*
G75*
G02*
X159050000Y-138452498I0J-249998D01*
G01*
X159050000Y-138977502D01*
G75*
G02*
X158800002Y-139227500I-249998J0D01*
G01*
G37*
%TD*%
%TO.C,R25*%
G36*
G01*
X147105000Y-117075002D02*
X147105000Y-116174998D01*
G75*
G02*
X147354998Y-115925000I249998J0D01*
G01*
X147880002Y-115925000D01*
G75*
G02*
X148130000Y-116174998I0J-249998D01*
G01*
X148130000Y-117075002D01*
G75*
G02*
X147880002Y-117325000I-249998J0D01*
G01*
X147354998Y-117325000D01*
G75*
G02*
X147105000Y-117075002I0J249998D01*
G01*
G37*
G36*
G01*
X145280000Y-117149900D02*
X145280000Y-116250100D01*
G75*
G02*
X145530100Y-116000000I250100J0D01*
G01*
X146054900Y-116000000D01*
G75*
G02*
X146305000Y-116250100I0J-250100D01*
G01*
X146305000Y-117149900D01*
G75*
G02*
X146054900Y-117400000I-250100J0D01*
G01*
X145530100Y-117400000D01*
G75*
G02*
X145280000Y-117149900I0J250100D01*
G01*
G37*
%TD*%
%TO.C,R44*%
G36*
G01*
X158500002Y-152112500D02*
X157599998Y-152112500D01*
G75*
G02*
X157350000Y-151862502I0J249998D01*
G01*
X157350000Y-151337498D01*
G75*
G02*
X157599998Y-151087500I249998J0D01*
G01*
X158500002Y-151087500D01*
G75*
G02*
X158750000Y-151337498I0J-249998D01*
G01*
X158750000Y-151862502D01*
G75*
G02*
X158500002Y-152112500I-249998J0D01*
G01*
G37*
G36*
G01*
X158500002Y-153937500D02*
X157599998Y-153937500D01*
G75*
G02*
X157350000Y-153687502I0J249998D01*
G01*
X157350000Y-153162498D01*
G75*
G02*
X157599998Y-152912500I249998J0D01*
G01*
X158500002Y-152912500D01*
G75*
G02*
X158750000Y-153162498I0J-249998D01*
G01*
X158750000Y-153687502D01*
G75*
G02*
X158500002Y-153937500I-249998J0D01*
G01*
G37*
%TD*%
%TO.C,R26*%
G36*
G01*
X151605000Y-116249998D02*
X151605000Y-117150002D01*
G75*
G02*
X151355002Y-117400000I-249998J0D01*
G01*
X150829998Y-117400000D01*
G75*
G02*
X150580000Y-117150002I0J249998D01*
G01*
X150580000Y-116249998D01*
G75*
G02*
X150829998Y-116000000I249998J0D01*
G01*
X151355002Y-116000000D01*
G75*
G02*
X151605000Y-116249998I0J-249998D01*
G01*
G37*
G36*
G01*
X153430000Y-116249998D02*
X153430000Y-117150002D01*
G75*
G02*
X153180002Y-117400000I-249998J0D01*
G01*
X152654998Y-117400000D01*
G75*
G02*
X152405000Y-117150002I0J249998D01*
G01*
X152405000Y-116249998D01*
G75*
G02*
X152654998Y-116000000I249998J0D01*
G01*
X153180002Y-116000000D01*
G75*
G02*
X153430000Y-116249998I0J-249998D01*
G01*
G37*
%TD*%
%TO.C,R18*%
G36*
G01*
X141850002Y-109287500D02*
X140949998Y-109287500D01*
G75*
G02*
X140700000Y-109037502I0J249998D01*
G01*
X140700000Y-108512498D01*
G75*
G02*
X140949998Y-108262500I249998J0D01*
G01*
X141850002Y-108262500D01*
G75*
G02*
X142100000Y-108512498I0J-249998D01*
G01*
X142100000Y-109037502D01*
G75*
G02*
X141850002Y-109287500I-249998J0D01*
G01*
G37*
G36*
G01*
X141850002Y-111112500D02*
X140949998Y-111112500D01*
G75*
G02*
X140700000Y-110862502I0J249998D01*
G01*
X140700000Y-110337498D01*
G75*
G02*
X140949998Y-110087500I249998J0D01*
G01*
X141850002Y-110087500D01*
G75*
G02*
X142100000Y-110337498I0J-249998D01*
G01*
X142100000Y-110862502D01*
G75*
G02*
X141850002Y-111112500I-249998J0D01*
G01*
G37*
%TD*%
%TO.C,R43*%
G36*
G01*
X160825002Y-147962500D02*
X159924998Y-147962500D01*
G75*
G02*
X159675000Y-147712502I0J249998D01*
G01*
X159675000Y-147187498D01*
G75*
G02*
X159924998Y-146937500I249998J0D01*
G01*
X160825002Y-146937500D01*
G75*
G02*
X161075000Y-147187498I0J-249998D01*
G01*
X161075000Y-147712502D01*
G75*
G02*
X160825002Y-147962500I-249998J0D01*
G01*
G37*
G36*
G01*
X160825002Y-149787500D02*
X159924998Y-149787500D01*
G75*
G02*
X159675000Y-149537502I0J249998D01*
G01*
X159675000Y-149012498D01*
G75*
G02*
X159924998Y-148762500I249998J0D01*
G01*
X160825002Y-148762500D01*
G75*
G02*
X161075000Y-149012498I0J-249998D01*
G01*
X161075000Y-149537502D01*
G75*
G02*
X160825002Y-149787500I-249998J0D01*
G01*
G37*
%TD*%
%TO.C,R21*%
G36*
G01*
X146305000Y-113652498D02*
X146305000Y-114552502D01*
G75*
G02*
X146055002Y-114802500I-249998J0D01*
G01*
X145529998Y-114802500D01*
G75*
G02*
X145280000Y-114552502I0J249998D01*
G01*
X145280000Y-113652498D01*
G75*
G02*
X145529998Y-113402500I249998J0D01*
G01*
X146055002Y-113402500D01*
G75*
G02*
X146305000Y-113652498I0J-249998D01*
G01*
G37*
G36*
G01*
X148130000Y-113652498D02*
X148130000Y-114552502D01*
G75*
G02*
X147880002Y-114802500I-249998J0D01*
G01*
X147354998Y-114802500D01*
G75*
G02*
X147105000Y-114552502I0J249998D01*
G01*
X147105000Y-113652498D01*
G75*
G02*
X147354998Y-113402500I249998J0D01*
G01*
X147880002Y-113402500D01*
G75*
G02*
X148130000Y-113652498I0J-249998D01*
G01*
G37*
%TD*%
%TO.C,R22*%
G36*
G01*
X152405000Y-114615002D02*
X152405000Y-113714998D01*
G75*
G02*
X152654998Y-113465000I249998J0D01*
G01*
X153180002Y-113465000D01*
G75*
G02*
X153430000Y-113714998I0J-249998D01*
G01*
X153430000Y-114615002D01*
G75*
G02*
X153180002Y-114865000I-249998J0D01*
G01*
X152654998Y-114865000D01*
G75*
G02*
X152405000Y-114615002I0J249998D01*
G01*
G37*
G36*
G01*
X150580000Y-114615002D02*
X150580000Y-113714998D01*
G75*
G02*
X150829998Y-113465000I249998J0D01*
G01*
X151355002Y-113465000D01*
G75*
G02*
X151605000Y-113714998I0J-249998D01*
G01*
X151605000Y-114615002D01*
G75*
G02*
X151355002Y-114865000I-249998J0D01*
G01*
X150829998Y-114865000D01*
G75*
G02*
X150580000Y-114615002I0J249998D01*
G01*
G37*
%TD*%
%TO.C,R29*%
G36*
G01*
X143480002Y-120232500D02*
X142579998Y-120232500D01*
G75*
G02*
X142330000Y-119982502I0J249998D01*
G01*
X142330000Y-119457498D01*
G75*
G02*
X142579998Y-119207500I249998J0D01*
G01*
X143480002Y-119207500D01*
G75*
G02*
X143730000Y-119457498I0J-249998D01*
G01*
X143730000Y-119982502D01*
G75*
G02*
X143480002Y-120232500I-249998J0D01*
G01*
G37*
G36*
G01*
X143480002Y-122057500D02*
X142579998Y-122057500D01*
G75*
G02*
X142330000Y-121807502I0J249998D01*
G01*
X142330000Y-121282498D01*
G75*
G02*
X142579998Y-121032500I249998J0D01*
G01*
X143480002Y-121032500D01*
G75*
G02*
X143730000Y-121282498I0J-249998D01*
G01*
X143730000Y-121807502D01*
G75*
G02*
X143480002Y-122057500I-249998J0D01*
G01*
G37*
%TD*%
%TO.C,R35*%
G36*
G01*
X142259998Y-132210000D02*
X143160002Y-132210000D01*
G75*
G02*
X143410000Y-132459998I0J-249998D01*
G01*
X143410000Y-132985002D01*
G75*
G02*
X143160002Y-133235000I-249998J0D01*
G01*
X142259998Y-133235000D01*
G75*
G02*
X142010000Y-132985002I0J249998D01*
G01*
X142010000Y-132459998D01*
G75*
G02*
X142259998Y-132210000I249998J0D01*
G01*
G37*
G36*
G01*
X142259998Y-130385000D02*
X143160002Y-130385000D01*
G75*
G02*
X143410000Y-130634998I0J-249998D01*
G01*
X143410000Y-131160002D01*
G75*
G02*
X143160002Y-131410000I-249998J0D01*
G01*
X142259998Y-131410000D01*
G75*
G02*
X142010000Y-131160002I0J249998D01*
G01*
X142010000Y-130634998D01*
G75*
G02*
X142259998Y-130385000I249998J0D01*
G01*
G37*
%TD*%
%TO.C,R40*%
G36*
G01*
X143822500Y-140429998D02*
X143822500Y-141330002D01*
G75*
G02*
X143572502Y-141580000I-249998J0D01*
G01*
X143047498Y-141580000D01*
G75*
G02*
X142797500Y-141330002I0J249998D01*
G01*
X142797500Y-140429998D01*
G75*
G02*
X143047498Y-140180000I249998J0D01*
G01*
X143572502Y-140180000D01*
G75*
G02*
X143822500Y-140429998I0J-249998D01*
G01*
G37*
G36*
G01*
X145647500Y-140429998D02*
X145647500Y-141330002D01*
G75*
G02*
X145397502Y-141580000I-249998J0D01*
G01*
X144872498Y-141580000D01*
G75*
G02*
X144622500Y-141330002I0J249998D01*
G01*
X144622500Y-140429998D01*
G75*
G02*
X144872498Y-140180000I249998J0D01*
G01*
X145397502Y-140180000D01*
G75*
G02*
X145647500Y-140429998I0J-249998D01*
G01*
G37*
%TD*%
%TO.C,R39*%
G36*
G01*
X148269998Y-140652500D02*
X149170002Y-140652500D01*
G75*
G02*
X149420000Y-140902498I0J-249998D01*
G01*
X149420000Y-141427502D01*
G75*
G02*
X149170002Y-141677500I-249998J0D01*
G01*
X148269998Y-141677500D01*
G75*
G02*
X148020000Y-141427502I0J249998D01*
G01*
X148020000Y-140902498D01*
G75*
G02*
X148269998Y-140652500I249998J0D01*
G01*
G37*
G36*
G01*
X148269998Y-138827500D02*
X149170002Y-138827500D01*
G75*
G02*
X149420000Y-139077498I0J-249998D01*
G01*
X149420000Y-139602502D01*
G75*
G02*
X149170002Y-139852500I-249998J0D01*
G01*
X148269998Y-139852500D01*
G75*
G02*
X148020000Y-139602502I0J249998D01*
G01*
X148020000Y-139077498D01*
G75*
G02*
X148269998Y-138827500I249998J0D01*
G01*
G37*
%TD*%
%TO.C,R42*%
G36*
G01*
X144212500Y-147949998D02*
X144212500Y-148850002D01*
G75*
G02*
X143962502Y-149100000I-249998J0D01*
G01*
X143437498Y-149100000D01*
G75*
G02*
X143187500Y-148850002I0J249998D01*
G01*
X143187500Y-147949998D01*
G75*
G02*
X143437498Y-147700000I249998J0D01*
G01*
X143962502Y-147700000D01*
G75*
G02*
X144212500Y-147949998I0J-249998D01*
G01*
G37*
G36*
G01*
X146037500Y-147949998D02*
X146037500Y-148850002D01*
G75*
G02*
X145787502Y-149100000I-249998J0D01*
G01*
X145262498Y-149100000D01*
G75*
G02*
X145012500Y-148850002I0J249998D01*
G01*
X145012500Y-147949998D01*
G75*
G02*
X145262498Y-147700000I249998J0D01*
G01*
X145787502Y-147700000D01*
G75*
G02*
X146037500Y-147949998I0J-249998D01*
G01*
G37*
%TD*%
%TO.C,R16*%
G36*
G01*
X170525002Y-105750000D02*
X169624998Y-105750000D01*
G75*
G02*
X169375000Y-105500002I0J249998D01*
G01*
X169375000Y-104974998D01*
G75*
G02*
X169624998Y-104725000I249998J0D01*
G01*
X170525002Y-104725000D01*
G75*
G02*
X170775000Y-104974998I0J-249998D01*
G01*
X170775000Y-105500002D01*
G75*
G02*
X170525002Y-105750000I-249998J0D01*
G01*
G37*
G36*
G01*
X170525002Y-107575000D02*
X169624998Y-107575000D01*
G75*
G02*
X169375000Y-107325002I0J249998D01*
G01*
X169375000Y-106799998D01*
G75*
G02*
X169624998Y-106550000I249998J0D01*
G01*
X170525002Y-106550000D01*
G75*
G02*
X170775000Y-106799998I0J-249998D01*
G01*
X170775000Y-107325002D01*
G75*
G02*
X170525002Y-107575000I-249998J0D01*
G01*
G37*
%TD*%
%TO.C,R20*%
G36*
G01*
X116100000Y-113050002D02*
X116100000Y-112149998D01*
G75*
G02*
X116349998Y-111900000I249998J0D01*
G01*
X116875002Y-111900000D01*
G75*
G02*
X117125000Y-112149998I0J-249998D01*
G01*
X117125000Y-113050002D01*
G75*
G02*
X116875002Y-113300000I-249998J0D01*
G01*
X116349998Y-113300000D01*
G75*
G02*
X116100000Y-113050002I0J249998D01*
G01*
G37*
G36*
G01*
X114275000Y-113050002D02*
X114275000Y-112149998D01*
G75*
G02*
X114524998Y-111900000I249998J0D01*
G01*
X115050002Y-111900000D01*
G75*
G02*
X115300000Y-112149998I0J-249998D01*
G01*
X115300000Y-113050002D01*
G75*
G02*
X115050002Y-113300000I-249998J0D01*
G01*
X114524998Y-113300000D01*
G75*
G02*
X114275000Y-113050002I0J249998D01*
G01*
G37*
%TD*%
%TO.C,R19*%
G36*
G01*
X126749998Y-112712500D02*
X127650002Y-112712500D01*
G75*
G02*
X127900000Y-112962498I0J-249998D01*
G01*
X127900000Y-113487502D01*
G75*
G02*
X127650002Y-113737500I-249998J0D01*
G01*
X126749998Y-113737500D01*
G75*
G02*
X126500000Y-113487502I0J249998D01*
G01*
X126500000Y-112962498D01*
G75*
G02*
X126749998Y-112712500I249998J0D01*
G01*
G37*
G36*
G01*
X126749998Y-110887500D02*
X127650002Y-110887500D01*
G75*
G02*
X127900000Y-111137498I0J-249998D01*
G01*
X127900000Y-111662502D01*
G75*
G02*
X127650002Y-111912500I-249998J0D01*
G01*
X126749998Y-111912500D01*
G75*
G02*
X126500000Y-111662502I0J249998D01*
G01*
X126500000Y-111137498D01*
G75*
G02*
X126749998Y-110887500I249998J0D01*
G01*
G37*
%TD*%
%TO.C,R3*%
G36*
G01*
X59612500Y-65249998D02*
X59612500Y-66150002D01*
G75*
G02*
X59362502Y-66400000I-249998J0D01*
G01*
X58837498Y-66400000D01*
G75*
G02*
X58587500Y-66150002I0J249998D01*
G01*
X58587500Y-65249998D01*
G75*
G02*
X58837498Y-65000000I249998J0D01*
G01*
X59362502Y-65000000D01*
G75*
G02*
X59612500Y-65249998I0J-249998D01*
G01*
G37*
G36*
G01*
X61437500Y-65249998D02*
X61437500Y-66150002D01*
G75*
G02*
X61187502Y-66400000I-249998J0D01*
G01*
X60662498Y-66400000D01*
G75*
G02*
X60412500Y-66150002I0J249998D01*
G01*
X60412500Y-65249998D01*
G75*
G02*
X60662498Y-65000000I249998J0D01*
G01*
X61187502Y-65000000D01*
G75*
G02*
X61437500Y-65249998I0J-249998D01*
G01*
G37*
%TD*%
%TO.C,R2*%
G36*
G01*
X59612500Y-62249998D02*
X59612500Y-63150002D01*
G75*
G02*
X59362502Y-63400000I-249998J0D01*
G01*
X58837498Y-63400000D01*
G75*
G02*
X58587500Y-63150002I0J249998D01*
G01*
X58587500Y-62249998D01*
G75*
G02*
X58837498Y-62000000I249998J0D01*
G01*
X59362502Y-62000000D01*
G75*
G02*
X59612500Y-62249998I0J-249998D01*
G01*
G37*
G36*
G01*
X61437500Y-62249998D02*
X61437500Y-63150002D01*
G75*
G02*
X61187502Y-63400000I-249998J0D01*
G01*
X60662498Y-63400000D01*
G75*
G02*
X60412500Y-63150002I0J249998D01*
G01*
X60412500Y-62249998D01*
G75*
G02*
X60662498Y-62000000I249998J0D01*
G01*
X61187502Y-62000000D01*
G75*
G02*
X61437500Y-62249998I0J-249998D01*
G01*
G37*
%TD*%
%TO.C,R33*%
G36*
G01*
X122399998Y-128612500D02*
X123300002Y-128612500D01*
G75*
G02*
X123550000Y-128862498I0J-249998D01*
G01*
X123550000Y-129387502D01*
G75*
G02*
X123300002Y-129637500I-249998J0D01*
G01*
X122399998Y-129637500D01*
G75*
G02*
X122150000Y-129387502I0J249998D01*
G01*
X122150000Y-128862498D01*
G75*
G02*
X122399998Y-128612500I249998J0D01*
G01*
G37*
G36*
G01*
X122399998Y-126787500D02*
X123300002Y-126787500D01*
G75*
G02*
X123550000Y-127037498I0J-249998D01*
G01*
X123550000Y-127562502D01*
G75*
G02*
X123300002Y-127812500I-249998J0D01*
G01*
X122399998Y-127812500D01*
G75*
G02*
X122150000Y-127562502I0J249998D01*
G01*
X122150000Y-127037498D01*
G75*
G02*
X122399998Y-126787500I249998J0D01*
G01*
G37*
%TD*%
%TO.C,R13*%
G36*
G01*
X161974998Y-106800000D02*
X162875002Y-106800000D01*
G75*
G02*
X163125000Y-107049998I0J-249998D01*
G01*
X163125000Y-107575002D01*
G75*
G02*
X162875002Y-107825000I-249998J0D01*
G01*
X161974998Y-107825000D01*
G75*
G02*
X161725000Y-107575002I0J249998D01*
G01*
X161725000Y-107049998D01*
G75*
G02*
X161974998Y-106800000I249998J0D01*
G01*
G37*
G36*
G01*
X161974998Y-104975000D02*
X162875002Y-104975000D01*
G75*
G02*
X163125000Y-105224998I0J-249998D01*
G01*
X163125000Y-105750002D01*
G75*
G02*
X162875002Y-106000000I-249998J0D01*
G01*
X161974998Y-106000000D01*
G75*
G02*
X161725000Y-105750002I0J249998D01*
G01*
X161725000Y-105224998D01*
G75*
G02*
X161974998Y-104975000I249998J0D01*
G01*
G37*
%TD*%
%TO.C,R12*%
G36*
G01*
X159674998Y-106800000D02*
X160575002Y-106800000D01*
G75*
G02*
X160825000Y-107049998I0J-249998D01*
G01*
X160825000Y-107575002D01*
G75*
G02*
X160575002Y-107825000I-249998J0D01*
G01*
X159674998Y-107825000D01*
G75*
G02*
X159425000Y-107575002I0J249998D01*
G01*
X159425000Y-107049998D01*
G75*
G02*
X159674998Y-106800000I249998J0D01*
G01*
G37*
G36*
G01*
X159674998Y-104975000D02*
X160575002Y-104975000D01*
G75*
G02*
X160825000Y-105224998I0J-249998D01*
G01*
X160825000Y-105750002D01*
G75*
G02*
X160575002Y-106000000I-249998J0D01*
G01*
X159674998Y-106000000D01*
G75*
G02*
X159425000Y-105750002I0J249998D01*
G01*
X159425000Y-105224998D01*
G75*
G02*
X159674998Y-104975000I249998J0D01*
G01*
G37*
%TD*%
%TO.C,R11*%
G36*
G01*
X143999998Y-106750000D02*
X144900002Y-106750000D01*
G75*
G02*
X145150000Y-106999998I0J-249998D01*
G01*
X145150000Y-107525002D01*
G75*
G02*
X144900002Y-107775000I-249998J0D01*
G01*
X143999998Y-107775000D01*
G75*
G02*
X143750000Y-107525002I0J249998D01*
G01*
X143750000Y-106999998D01*
G75*
G02*
X143999998Y-106750000I249998J0D01*
G01*
G37*
G36*
G01*
X143999998Y-104925000D02*
X144900002Y-104925000D01*
G75*
G02*
X145150000Y-105174998I0J-249998D01*
G01*
X145150000Y-105700002D01*
G75*
G02*
X144900002Y-105950000I-249998J0D01*
G01*
X143999998Y-105950000D01*
G75*
G02*
X143750000Y-105700002I0J249998D01*
G01*
X143750000Y-105174998D01*
G75*
G02*
X143999998Y-104925000I249998J0D01*
G01*
G37*
%TD*%
%TO.C,R6*%
G36*
G01*
X145875002Y-83649999D02*
X144974998Y-83649999D01*
G75*
G02*
X144725000Y-83400001I0J249998D01*
G01*
X144725000Y-82874997D01*
G75*
G02*
X144974998Y-82624999I249998J0D01*
G01*
X145875002Y-82624999D01*
G75*
G02*
X146125000Y-82874997I0J-249998D01*
G01*
X146125000Y-83400001D01*
G75*
G02*
X145875002Y-83649999I-249998J0D01*
G01*
G37*
G36*
G01*
X145875002Y-85474999D02*
X144974998Y-85474999D01*
G75*
G02*
X144725000Y-85225001I0J249998D01*
G01*
X144725000Y-84699997D01*
G75*
G02*
X144974998Y-84449999I249998J0D01*
G01*
X145875002Y-84449999D01*
G75*
G02*
X146125000Y-84699997I0J-249998D01*
G01*
X146125000Y-85225001D01*
G75*
G02*
X145875002Y-85474999I-249998J0D01*
G01*
G37*
%TD*%
%TO.C,R7*%
G36*
G01*
X148112500Y-83599997D02*
X148112500Y-84500001D01*
G75*
G02*
X147862502Y-84749999I-249998J0D01*
G01*
X147337498Y-84749999D01*
G75*
G02*
X147087500Y-84500001I0J249998D01*
G01*
X147087500Y-83599997D01*
G75*
G02*
X147337498Y-83349999I249998J0D01*
G01*
X147862502Y-83349999D01*
G75*
G02*
X148112500Y-83599997I0J-249998D01*
G01*
G37*
G36*
G01*
X149937500Y-83599997D02*
X149937500Y-84500001D01*
G75*
G02*
X149687502Y-84749999I-249998J0D01*
G01*
X149162498Y-84749999D01*
G75*
G02*
X148912500Y-84500001I0J249998D01*
G01*
X148912500Y-83599997D01*
G75*
G02*
X149162498Y-83349999I249998J0D01*
G01*
X149687502Y-83349999D01*
G75*
G02*
X149937500Y-83599997I0J-249998D01*
G01*
G37*
%TD*%
%TO.C,R8*%
G36*
G01*
X152325002Y-83362500D02*
X151424998Y-83362500D01*
G75*
G02*
X151175000Y-83112502I0J249998D01*
G01*
X151175000Y-82587498D01*
G75*
G02*
X151424998Y-82337500I249998J0D01*
G01*
X152325002Y-82337500D01*
G75*
G02*
X152575000Y-82587498I0J-249998D01*
G01*
X152575000Y-83112502D01*
G75*
G02*
X152325002Y-83362500I-249998J0D01*
G01*
G37*
G36*
G01*
X152325002Y-85187500D02*
X151424998Y-85187500D01*
G75*
G02*
X151175000Y-84937502I0J249998D01*
G01*
X151175000Y-84412498D01*
G75*
G02*
X151424998Y-84162500I249998J0D01*
G01*
X152325002Y-84162500D01*
G75*
G02*
X152575000Y-84412498I0J-249998D01*
G01*
X152575000Y-84937502D01*
G75*
G02*
X152325002Y-85187500I-249998J0D01*
G01*
G37*
%TD*%
%TO.C,R10*%
G36*
G01*
X162500002Y-83762500D02*
X161599998Y-83762500D01*
G75*
G02*
X161350000Y-83512502I0J249998D01*
G01*
X161350000Y-82987498D01*
G75*
G02*
X161599998Y-82737500I249998J0D01*
G01*
X162500002Y-82737500D01*
G75*
G02*
X162750000Y-82987498I0J-249998D01*
G01*
X162750000Y-83512502D01*
G75*
G02*
X162500002Y-83762500I-249998J0D01*
G01*
G37*
G36*
G01*
X162500002Y-85587500D02*
X161599998Y-85587500D01*
G75*
G02*
X161350000Y-85337502I0J249998D01*
G01*
X161350000Y-84812498D01*
G75*
G02*
X161599998Y-84562500I249998J0D01*
G01*
X162500002Y-84562500D01*
G75*
G02*
X162750000Y-84812498I0J-249998D01*
G01*
X162750000Y-85337502D01*
G75*
G02*
X162500002Y-85587500I-249998J0D01*
G01*
G37*
%TD*%
%TO.C,R9*%
G36*
G01*
X156799998Y-84587500D02*
X157700002Y-84587500D01*
G75*
G02*
X157950000Y-84837498I0J-249998D01*
G01*
X157950000Y-85362502D01*
G75*
G02*
X157700002Y-85612500I-249998J0D01*
G01*
X156799998Y-85612500D01*
G75*
G02*
X156550000Y-85362502I0J249998D01*
G01*
X156550000Y-84837498D01*
G75*
G02*
X156799998Y-84587500I249998J0D01*
G01*
G37*
G36*
G01*
X156799998Y-82762500D02*
X157700002Y-82762500D01*
G75*
G02*
X157950000Y-83012498I0J-249998D01*
G01*
X157950000Y-83537502D01*
G75*
G02*
X157700002Y-83787500I-249998J0D01*
G01*
X156799998Y-83787500D01*
G75*
G02*
X156550000Y-83537502I0J249998D01*
G01*
X156550000Y-83012498D01*
G75*
G02*
X156799998Y-82762500I249998J0D01*
G01*
G37*
%TD*%
%TO.C,R24*%
G36*
G01*
X162575002Y-115225000D02*
X161674998Y-115225000D01*
G75*
G02*
X161425000Y-114975002I0J249998D01*
G01*
X161425000Y-114449998D01*
G75*
G02*
X161674998Y-114200000I249998J0D01*
G01*
X162575002Y-114200000D01*
G75*
G02*
X162825000Y-114449998I0J-249998D01*
G01*
X162825000Y-114975002D01*
G75*
G02*
X162575002Y-115225000I-249998J0D01*
G01*
G37*
G36*
G01*
X162575002Y-117050000D02*
X161674998Y-117050000D01*
G75*
G02*
X161425000Y-116800002I0J249998D01*
G01*
X161425000Y-116274998D01*
G75*
G02*
X161674998Y-116025000I249998J0D01*
G01*
X162575002Y-116025000D01*
G75*
G02*
X162825000Y-116274998I0J-249998D01*
G01*
X162825000Y-116800002D01*
G75*
G02*
X162575002Y-117050000I-249998J0D01*
G01*
G37*
%TD*%
%TO.C,R23*%
G36*
G01*
X159900002Y-115225000D02*
X158999998Y-115225000D01*
G75*
G02*
X158750000Y-114975002I0J249998D01*
G01*
X158750000Y-114449998D01*
G75*
G02*
X158999998Y-114200000I249998J0D01*
G01*
X159900002Y-114200000D01*
G75*
G02*
X160150000Y-114449998I0J-249998D01*
G01*
X160150000Y-114975002D01*
G75*
G02*
X159900002Y-115225000I-249998J0D01*
G01*
G37*
G36*
G01*
X159900002Y-117050000D02*
X158999998Y-117050000D01*
G75*
G02*
X158750000Y-116800002I0J249998D01*
G01*
X158750000Y-116274998D01*
G75*
G02*
X158999998Y-116025000I249998J0D01*
G01*
X159900002Y-116025000D01*
G75*
G02*
X160150000Y-116274998I0J-249998D01*
G01*
X160150000Y-116800002D01*
G75*
G02*
X159900002Y-117050000I-249998J0D01*
G01*
G37*
%TD*%
D20*
%TO.C,Q6*%
X68468000Y-148197000D03*
X70468000Y-147247000D03*
X70468000Y-149147000D03*
%TD*%
D21*
%TO.C,Q4*%
X144420000Y-136720000D03*
X145370000Y-138720000D03*
X143470000Y-138720000D03*
%TD*%
%TO.C,Q5*%
X144690000Y-143610000D03*
X145640000Y-145610000D03*
X143740000Y-145610000D03*
%TD*%
D39*
%TO.C,Q7*%
X122120000Y-108400000D03*
X124660000Y-108400000D03*
D40*
X127200000Y-108400000D03*
D33*
X124660000Y-91740000D03*
%TD*%
D41*
%TO.C,Q1*%
X63850000Y-41325000D03*
D42*
X57550000Y-43605000D03*
X57550000Y-39045000D03*
%TD*%
D41*
%TO.C,Q2*%
X63550000Y-50625000D03*
D42*
X57250000Y-52905000D03*
X57250000Y-48345000D03*
%TD*%
%TO.C,L1*%
G36*
G01*
X161562500Y-70718750D02*
X161562500Y-71481250D01*
G75*
G02*
X161343750Y-71700000I-218750J0D01*
G01*
X160906250Y-71700000D01*
G75*
G02*
X160687500Y-71481250I0J218750D01*
G01*
X160687500Y-70718750D01*
G75*
G02*
X160906250Y-70500000I218750J0D01*
G01*
X161343750Y-70500000D01*
G75*
G02*
X161562500Y-70718750I0J-218750D01*
G01*
G37*
G36*
G01*
X163687500Y-70718750D02*
X163687500Y-71481250D01*
G75*
G02*
X163468750Y-71700000I-218750J0D01*
G01*
X163031250Y-71700000D01*
G75*
G02*
X162812500Y-71481250I0J218750D01*
G01*
X162812500Y-70718750D01*
G75*
G02*
X163031250Y-70500000I218750J0D01*
G01*
X163468750Y-70500000D01*
G75*
G02*
X163687500Y-70718750I0J-218750D01*
G01*
G37*
%TD*%
D43*
%TO.C,J1*%
X173965000Y-39525000D03*
D44*
X171425000Y-39525000D03*
%TD*%
D43*
%TO.C,J5*%
X158145000Y-111750000D03*
X160685000Y-111750000D03*
D44*
X163225000Y-111750000D03*
%TD*%
D45*
%TO.C,H4*%
X173700000Y-159100000D03*
%TD*%
%TO.C,H2*%
X173700000Y-34100000D03*
%TD*%
%TO.C,H3*%
X58700000Y-159100000D03*
%TD*%
%TO.C,H1*%
X58700000Y-34100000D03*
%TD*%
D46*
%TO.C,FL1*%
X65775000Y-70377000D03*
X65775000Y-73223000D03*
X61025000Y-73223000D03*
X61025000Y-70377000D03*
%TD*%
D34*
%TO.C,FID2*%
X165225000Y-155450000D03*
%TD*%
%TO.C,FID1*%
X66175000Y-34225000D03*
%TD*%
D20*
%TO.C,D6*%
X67200000Y-135400000D03*
X69200000Y-134450000D03*
X69200000Y-136350000D03*
%TD*%
%TO.C,D4*%
X67300000Y-118500000D03*
X69300000Y-117550000D03*
X69300000Y-119450000D03*
%TD*%
D47*
%TO.C,D3*%
X73200000Y-115800000D03*
X80000000Y-115800000D03*
%TD*%
D14*
%TO.C,D7*%
X99100000Y-76500000D03*
X99100000Y-43500000D03*
D48*
X91100000Y-77000000D03*
X91100000Y-43000000D03*
X125100000Y-77000000D03*
X125100000Y-43000000D03*
%TD*%
D20*
%TO.C,D1*%
X62800000Y-62700000D03*
X64800000Y-61750000D03*
X64800000Y-63650000D03*
%TD*%
%TO.C,C10*%
G36*
G01*
X159250001Y-68100000D02*
X157949999Y-68100000D01*
G75*
G02*
X157700000Y-67850001I0J249999D01*
G01*
X157700000Y-67199999D01*
G75*
G02*
X157949999Y-66950000I249999J0D01*
G01*
X159250001Y-66950000D01*
G75*
G02*
X159500000Y-67199999I0J-249999D01*
G01*
X159500000Y-67850001D01*
G75*
G02*
X159250001Y-68100000I-249999J0D01*
G01*
G37*
G36*
G01*
X159250001Y-71050000D02*
X157949999Y-71050000D01*
G75*
G02*
X157700000Y-70800001I0J249999D01*
G01*
X157700000Y-70149999D01*
G75*
G02*
X157949999Y-69900000I249999J0D01*
G01*
X159250001Y-69900000D01*
G75*
G02*
X159500000Y-70149999I0J-249999D01*
G01*
X159500000Y-70800001D01*
G75*
G02*
X159250001Y-71050000I-249999J0D01*
G01*
G37*
%TD*%
%TO.C,C9*%
G36*
G01*
X156350002Y-68300000D02*
X155449998Y-68300000D01*
G75*
G02*
X155200000Y-68050002I0J249998D01*
G01*
X155200000Y-67524998D01*
G75*
G02*
X155449998Y-67275000I249998J0D01*
G01*
X156350002Y-67275000D01*
G75*
G02*
X156600000Y-67524998I0J-249998D01*
G01*
X156600000Y-68050002D01*
G75*
G02*
X156350002Y-68300000I-249998J0D01*
G01*
G37*
G36*
G01*
X156350002Y-70125000D02*
X155449998Y-70125000D01*
G75*
G02*
X155200000Y-69875002I0J249998D01*
G01*
X155200000Y-69349998D01*
G75*
G02*
X155449998Y-69100000I249998J0D01*
G01*
X156350002Y-69100000D01*
G75*
G02*
X156600000Y-69349998I0J-249998D01*
G01*
X156600000Y-69875002D01*
G75*
G02*
X156350002Y-70125000I-249998J0D01*
G01*
G37*
%TD*%
%TO.C,C8*%
G36*
G01*
X146150002Y-68200000D02*
X145249998Y-68200000D01*
G75*
G02*
X145000000Y-67950002I0J249998D01*
G01*
X145000000Y-67424998D01*
G75*
G02*
X145249998Y-67175000I249998J0D01*
G01*
X146150002Y-67175000D01*
G75*
G02*
X146400000Y-67424998I0J-249998D01*
G01*
X146400000Y-67950002D01*
G75*
G02*
X146150002Y-68200000I-249998J0D01*
G01*
G37*
G36*
G01*
X146150002Y-70025000D02*
X145249998Y-70025000D01*
G75*
G02*
X145000000Y-69775002I0J249998D01*
G01*
X145000000Y-69249998D01*
G75*
G02*
X145249998Y-69000000I249998J0D01*
G01*
X146150002Y-69000000D01*
G75*
G02*
X146400000Y-69249998I0J-249998D01*
G01*
X146400000Y-69775002D01*
G75*
G02*
X146150002Y-70025000I-249998J0D01*
G01*
G37*
%TD*%
%TO.C,C24*%
G36*
G01*
X67325000Y-123000000D02*
X68275000Y-123000000D01*
G75*
G02*
X68525000Y-123250000I0J-250000D01*
G01*
X68525000Y-123750000D01*
G75*
G02*
X68275000Y-124000000I-250000J0D01*
G01*
X67325000Y-124000000D01*
G75*
G02*
X67075000Y-123750000I0J250000D01*
G01*
X67075000Y-123250000D01*
G75*
G02*
X67325000Y-123000000I250000J0D01*
G01*
G37*
G36*
G01*
X67325000Y-121100000D02*
X68275000Y-121100000D01*
G75*
G02*
X68525000Y-121350000I0J-250000D01*
G01*
X68525000Y-121850000D01*
G75*
G02*
X68275000Y-122100000I-250000J0D01*
G01*
X67325000Y-122100000D01*
G75*
G02*
X67075000Y-121850000I0J250000D01*
G01*
X67075000Y-121350000D01*
G75*
G02*
X67325000Y-121100000I250000J0D01*
G01*
G37*
%TD*%
%TO.C,C28*%
G36*
G01*
X70378000Y-144237000D02*
X70378000Y-143287000D01*
G75*
G02*
X70628000Y-143037000I250000J0D01*
G01*
X71128000Y-143037000D01*
G75*
G02*
X71378000Y-143287000I0J-250000D01*
G01*
X71378000Y-144237000D01*
G75*
G02*
X71128000Y-144487000I-250000J0D01*
G01*
X70628000Y-144487000D01*
G75*
G02*
X70378000Y-144237000I0J250000D01*
G01*
G37*
G36*
G01*
X68478000Y-144237000D02*
X68478000Y-143287000D01*
G75*
G02*
X68728000Y-143037000I250000J0D01*
G01*
X69228000Y-143037000D01*
G75*
G02*
X69478000Y-143287000I0J-250000D01*
G01*
X69478000Y-144237000D01*
G75*
G02*
X69228000Y-144487000I-250000J0D01*
G01*
X68728000Y-144487000D01*
G75*
G02*
X68478000Y-144237000I0J250000D01*
G01*
G37*
%TD*%
%TO.C,C13*%
G36*
G01*
X153525000Y-77975001D02*
X153525000Y-76674999D01*
G75*
G02*
X153774999Y-76425000I249999J0D01*
G01*
X154425001Y-76425000D01*
G75*
G02*
X154675000Y-76674999I0J-249999D01*
G01*
X154675000Y-77975001D01*
G75*
G02*
X154425001Y-78225000I-249999J0D01*
G01*
X153774999Y-78225000D01*
G75*
G02*
X153525000Y-77975001I0J249999D01*
G01*
G37*
G36*
G01*
X150575000Y-77975001D02*
X150575000Y-76674999D01*
G75*
G02*
X150824999Y-76425000I249999J0D01*
G01*
X151475001Y-76425000D01*
G75*
G02*
X151725000Y-76674999I0J-249999D01*
G01*
X151725000Y-77975001D01*
G75*
G02*
X151475001Y-78225000I-249999J0D01*
G01*
X150824999Y-78225000D01*
G75*
G02*
X150575000Y-77975001I0J249999D01*
G01*
G37*
%TD*%
%TO.C,C11*%
G36*
G01*
X152437500Y-74875002D02*
X152437500Y-73974998D01*
G75*
G02*
X152687498Y-73725000I249998J0D01*
G01*
X153212502Y-73725000D01*
G75*
G02*
X153462500Y-73974998I0J-249998D01*
G01*
X153462500Y-74875002D01*
G75*
G02*
X153212502Y-75125000I-249998J0D01*
G01*
X152687498Y-75125000D01*
G75*
G02*
X152437500Y-74875002I0J249998D01*
G01*
G37*
G36*
G01*
X150612500Y-74875002D02*
X150612500Y-73974998D01*
G75*
G02*
X150862498Y-73725000I249998J0D01*
G01*
X151387502Y-73725000D01*
G75*
G02*
X151637500Y-73974998I0J-249998D01*
G01*
X151637500Y-74875002D01*
G75*
G02*
X151387502Y-75125000I-249998J0D01*
G01*
X150862498Y-75125000D01*
G75*
G02*
X150612500Y-74875002I0J249998D01*
G01*
G37*
%TD*%
%TO.C,C7*%
G36*
G01*
X153725000Y-65675002D02*
X153725000Y-64774998D01*
G75*
G02*
X153974998Y-64525000I249998J0D01*
G01*
X154500002Y-64525000D01*
G75*
G02*
X154750000Y-64774998I0J-249998D01*
G01*
X154750000Y-65675002D01*
G75*
G02*
X154500002Y-65925000I-249998J0D01*
G01*
X153974998Y-65925000D01*
G75*
G02*
X153725000Y-65675002I0J249998D01*
G01*
G37*
G36*
G01*
X151900000Y-65675002D02*
X151900000Y-64774998D01*
G75*
G02*
X152149998Y-64525000I249998J0D01*
G01*
X152675002Y-64525000D01*
G75*
G02*
X152925000Y-64774998I0J-249998D01*
G01*
X152925000Y-65675002D01*
G75*
G02*
X152675002Y-65925000I-249998J0D01*
G01*
X152149998Y-65925000D01*
G75*
G02*
X151900000Y-65675002I0J249998D01*
G01*
G37*
%TD*%
%TO.C,C1*%
G36*
G01*
X146525000Y-40749999D02*
X146525000Y-42050001D01*
G75*
G02*
X146275001Y-42300000I-249999J0D01*
G01*
X145624999Y-42300000D01*
G75*
G02*
X145375000Y-42050001I0J249999D01*
G01*
X145375000Y-40749999D01*
G75*
G02*
X145624999Y-40500000I249999J0D01*
G01*
X146275001Y-40500000D01*
G75*
G02*
X146525000Y-40749999I0J-249999D01*
G01*
G37*
G36*
G01*
X149475000Y-40749999D02*
X149475000Y-42050001D01*
G75*
G02*
X149225001Y-42300000I-249999J0D01*
G01*
X148574999Y-42300000D01*
G75*
G02*
X148325000Y-42050001I0J249999D01*
G01*
X148325000Y-40749999D01*
G75*
G02*
X148574999Y-40500000I249999J0D01*
G01*
X149225001Y-40500000D01*
G75*
G02*
X149475000Y-40749999I0J-249999D01*
G01*
G37*
%TD*%
%TO.C,C14*%
G36*
G01*
X164450002Y-78850000D02*
X163549998Y-78850000D01*
G75*
G02*
X163300000Y-78600002I0J249998D01*
G01*
X163300000Y-78074998D01*
G75*
G02*
X163549998Y-77825000I249998J0D01*
G01*
X164450002Y-77825000D01*
G75*
G02*
X164700000Y-78074998I0J-249998D01*
G01*
X164700000Y-78600002D01*
G75*
G02*
X164450002Y-78850000I-249998J0D01*
G01*
G37*
G36*
G01*
X164450002Y-80675000D02*
X163549998Y-80675000D01*
G75*
G02*
X163300000Y-80425002I0J249998D01*
G01*
X163300000Y-79899998D01*
G75*
G02*
X163549998Y-79650000I249998J0D01*
G01*
X164450002Y-79650000D01*
G75*
G02*
X164700000Y-79899998I0J-249998D01*
G01*
X164700000Y-80425002D01*
G75*
G02*
X164450002Y-80675000I-249998J0D01*
G01*
G37*
%TD*%
%TO.C,C27*%
G36*
G01*
X162875000Y-133090000D02*
X161925000Y-133090000D01*
G75*
G02*
X161675000Y-132840000I0J250000D01*
G01*
X161675000Y-132340000D01*
G75*
G02*
X161925000Y-132090000I250000J0D01*
G01*
X162875000Y-132090000D01*
G75*
G02*
X163125000Y-132340000I0J-250000D01*
G01*
X163125000Y-132840000D01*
G75*
G02*
X162875000Y-133090000I-250000J0D01*
G01*
G37*
G36*
G01*
X162875000Y-134990000D02*
X161925000Y-134990000D01*
G75*
G02*
X161675000Y-134740000I0J250000D01*
G01*
X161675000Y-134240000D01*
G75*
G02*
X161925000Y-133990000I250000J0D01*
G01*
X162875000Y-133990000D01*
G75*
G02*
X163125000Y-134240000I0J-250000D01*
G01*
X163125000Y-134740000D01*
G75*
G02*
X162875000Y-134990000I-250000J0D01*
G01*
G37*
%TD*%
%TO.C,C30*%
G36*
G01*
X157850000Y-145450000D02*
X156900000Y-145450000D01*
G75*
G02*
X156650000Y-145200000I0J250000D01*
G01*
X156650000Y-144700000D01*
G75*
G02*
X156900000Y-144450000I250000J0D01*
G01*
X157850000Y-144450000D01*
G75*
G02*
X158100000Y-144700000I0J-250000D01*
G01*
X158100000Y-145200000D01*
G75*
G02*
X157850000Y-145450000I-250000J0D01*
G01*
G37*
G36*
G01*
X157850000Y-147350000D02*
X156900000Y-147350000D01*
G75*
G02*
X156650000Y-147100000I0J250000D01*
G01*
X156650000Y-146600000D01*
G75*
G02*
X156900000Y-146350000I250000J0D01*
G01*
X157850000Y-146350000D01*
G75*
G02*
X158100000Y-146600000I0J-250000D01*
G01*
X158100000Y-147100000D01*
G75*
G02*
X157850000Y-147350000I-250000J0D01*
G01*
G37*
%TD*%
%TO.C,C17*%
G36*
G01*
X146700000Y-112075000D02*
X146700000Y-111125000D01*
G75*
G02*
X146950000Y-110875000I250000J0D01*
G01*
X147450000Y-110875000D01*
G75*
G02*
X147700000Y-111125000I0J-250000D01*
G01*
X147700000Y-112075000D01*
G75*
G02*
X147450000Y-112325000I-250000J0D01*
G01*
X146950000Y-112325000D01*
G75*
G02*
X146700000Y-112075000I0J250000D01*
G01*
G37*
G36*
G01*
X144800000Y-112125000D02*
X144800000Y-111175000D01*
G75*
G02*
X145050000Y-110925000I250000J0D01*
G01*
X145550000Y-110925000D01*
G75*
G02*
X145800000Y-111175000I0J-250000D01*
G01*
X145800000Y-112125000D01*
G75*
G02*
X145550000Y-112375000I-250000J0D01*
G01*
X145050000Y-112375000D01*
G75*
G02*
X144800000Y-112125000I0J250000D01*
G01*
G37*
%TD*%
%TO.C,C18*%
G36*
G01*
X151575000Y-111125000D02*
X151575000Y-112075000D01*
G75*
G02*
X151325000Y-112325000I-250000J0D01*
G01*
X150825000Y-112325000D01*
G75*
G02*
X150575000Y-112075000I0J250000D01*
G01*
X150575000Y-111125000D01*
G75*
G02*
X150825000Y-110875000I250000J0D01*
G01*
X151325000Y-110875000D01*
G75*
G02*
X151575000Y-111125000I0J-250000D01*
G01*
G37*
G36*
G01*
X153475000Y-111125000D02*
X153475000Y-112075000D01*
G75*
G02*
X153225000Y-112325000I-250000J0D01*
G01*
X152725000Y-112325000D01*
G75*
G02*
X152475000Y-112075000I0J250000D01*
G01*
X152475000Y-111125000D01*
G75*
G02*
X152725000Y-110875000I250000J0D01*
G01*
X153225000Y-110875000D01*
G75*
G02*
X153475000Y-111125000I0J-250000D01*
G01*
G37*
%TD*%
%TO.C,C26*%
G36*
G01*
X91500000Y-126600000D02*
X89500000Y-126600000D01*
G75*
G02*
X89250000Y-126350000I0J250000D01*
G01*
X89250000Y-123350000D01*
G75*
G02*
X89500000Y-123100000I250000J0D01*
G01*
X91500000Y-123100000D01*
G75*
G02*
X91750000Y-123350000I0J-250000D01*
G01*
X91750000Y-126350000D01*
G75*
G02*
X91500000Y-126600000I-250000J0D01*
G01*
G37*
G36*
G01*
X91500000Y-133100000D02*
X89500000Y-133100000D01*
G75*
G02*
X89250000Y-132850000I0J250000D01*
G01*
X89250000Y-129850000D01*
G75*
G02*
X89500000Y-129600000I250000J0D01*
G01*
X91500000Y-129600000D01*
G75*
G02*
X91750000Y-129850000I0J-250000D01*
G01*
X91750000Y-132850000D01*
G75*
G02*
X91500000Y-133100000I-250000J0D01*
G01*
G37*
%TD*%
%TO.C,C25*%
G36*
G01*
X114225000Y-126675000D02*
X114225000Y-127625000D01*
G75*
G02*
X113975000Y-127875000I-250000J0D01*
G01*
X113475000Y-127875000D01*
G75*
G02*
X113225000Y-127625000I0J250000D01*
G01*
X113225000Y-126675000D01*
G75*
G02*
X113475000Y-126425000I250000J0D01*
G01*
X113975000Y-126425000D01*
G75*
G02*
X114225000Y-126675000I0J-250000D01*
G01*
G37*
G36*
G01*
X116125000Y-126675000D02*
X116125000Y-127625000D01*
G75*
G02*
X115875000Y-127875000I-250000J0D01*
G01*
X115375000Y-127875000D01*
G75*
G02*
X115125000Y-127625000I0J250000D01*
G01*
X115125000Y-126675000D01*
G75*
G02*
X115375000Y-126425000I250000J0D01*
G01*
X115875000Y-126425000D01*
G75*
G02*
X116125000Y-126675000I0J-250000D01*
G01*
G37*
%TD*%
%TO.C,C15*%
G36*
G01*
X66875000Y-82800000D02*
X65925000Y-82800000D01*
G75*
G02*
X65675000Y-82550000I0J250000D01*
G01*
X65675000Y-82050000D01*
G75*
G02*
X65925000Y-81800000I250000J0D01*
G01*
X66875000Y-81800000D01*
G75*
G02*
X67125000Y-82050000I0J-250000D01*
G01*
X67125000Y-82550000D01*
G75*
G02*
X66875000Y-82800000I-250000J0D01*
G01*
G37*
G36*
G01*
X66875000Y-84700000D02*
X65925000Y-84700000D01*
G75*
G02*
X65675000Y-84450000I0J250000D01*
G01*
X65675000Y-83950000D01*
G75*
G02*
X65925000Y-83700000I250000J0D01*
G01*
X66875000Y-83700000D01*
G75*
G02*
X67125000Y-83950000I0J-250000D01*
G01*
X67125000Y-84450000D01*
G75*
G02*
X66875000Y-84700000I-250000J0D01*
G01*
G37*
%TD*%
M02*
