%TF.GenerationSoftware,KiCad,Pcbnew,5.1.10-88a1d61d58~88~ubuntu20.04.1*%
%TF.CreationDate,2021-06-19T20:11:57-07:00*%
%TF.ProjectId,ultrablinky,756c7472-6162-46c6-996e-6b792e6b6963,B*%
%TF.SameCoordinates,Original*%
%TF.FileFunction,Paste,Bot*%
%TF.FilePolarity,Positive*%
%FSLAX46Y46*%
G04 Gerber Fmt 4.6, Leading zero omitted, Abs format (unit mm)*
G04 Created by KiCad (PCBNEW 5.1.10-88a1d61d58~88~ubuntu20.04.1) date 2021-06-19 20:11:57*
%MOMM*%
%LPD*%
G01*
G04 APERTURE LIST*
%TA.AperFunction,Profile*%
%ADD10C,0.150000*%
%TD*%
G04 APERTURE END LIST*
D10*
X178700000Y-142000000D02*
X178700000Y-164100000D01*
X178200000Y-142000000D02*
G75*
G02*
X177500000Y-141300000I0J700000D01*
G01*
X177500000Y-136700000D02*
G75*
G02*
X178200000Y-136000000I700000J0D01*
G01*
X177500000Y-136700000D02*
X177500000Y-141300000D01*
X178200000Y-142000000D02*
X178700000Y-142000000D01*
X178200000Y-136000000D02*
X178700000Y-136000000D01*
X178700000Y-67550000D02*
X178700000Y-136000000D01*
X178700000Y-61550000D02*
X178700000Y-52100000D01*
X177500000Y-62250000D02*
G75*
G02*
X178200000Y-61550000I700000J0D01*
G01*
X178200000Y-61550000D02*
X178700000Y-61550000D01*
X178200000Y-67550000D02*
G75*
G02*
X177500000Y-66850000I0J700000D01*
G01*
X178200000Y-67550000D02*
X178700000Y-67550000D01*
X177500000Y-62250000D02*
X177500000Y-66850000D01*
X178200000Y-52100000D02*
X178700000Y-52100000D01*
X178200000Y-46100000D02*
X178700000Y-46100000D01*
X177500000Y-46800000D02*
X177500000Y-51400000D01*
X178200000Y-52100000D02*
G75*
G02*
X177500000Y-51400000I0J700000D01*
G01*
X177500000Y-46800000D02*
G75*
G02*
X178200000Y-46100000I700000J0D01*
G01*
X87505025Y-80109975D02*
G75*
G02*
X87300000Y-79615000I494975J494975D01*
G01*
X128694975Y-39985025D02*
G75*
G02*
X128900000Y-40480000I-494975J-494975D01*
G01*
X87510025Y-39982025D02*
G75*
G03*
X87305000Y-40477000I494975J-494975D01*
G01*
X128694975Y-80104975D02*
G75*
G03*
X128900000Y-79610000I-494975J494975D01*
G01*
X130300000Y-105100000D02*
G75*
G02*
X129600000Y-105800000I-700000J0D01*
G01*
X119700000Y-105800000D02*
G75*
G02*
X119000000Y-105100000I0J700000D01*
G01*
X129600000Y-88400000D02*
G75*
G02*
X130300000Y-89100000I0J-700000D01*
G01*
X119000000Y-89100000D02*
G75*
G02*
X119700000Y-88400000I700000J0D01*
G01*
X85900000Y-89100000D02*
G75*
G02*
X86600000Y-88400000I700000J0D01*
G01*
X96500000Y-88400000D02*
G75*
G02*
X97200000Y-89100000I0J-700000D01*
G01*
X97200000Y-105100000D02*
G75*
G02*
X96500000Y-105800000I-700000J0D01*
G01*
X86600000Y-105800000D02*
G75*
G02*
X85900000Y-105100000I0J700000D01*
G01*
X119000000Y-105100000D02*
X119000000Y-89100000D01*
X129600000Y-105800000D02*
X119700000Y-105800000D01*
X129600000Y-88400000D02*
X119700000Y-88400000D01*
X130300000Y-105100000D02*
X130300000Y-89100000D01*
X96500000Y-105800000D02*
X86600000Y-105800000D01*
X97200000Y-105100000D02*
X97200000Y-89100000D01*
X96500000Y-88400000D02*
X86600000Y-88400000D01*
X85900000Y-105100000D02*
X85900000Y-89100000D01*
X128697474Y-80107415D02*
G75*
G02*
X87505025Y-80109975I-20597474J20107415D01*
G01*
X87300000Y-79615000D02*
X87305000Y-40477000D01*
X128900000Y-79610000D02*
X128900000Y-40480000D01*
X87508953Y-39980983D02*
G75*
G02*
X128694975Y-39985025I20591047J-20019017D01*
G01*
X53700000Y-29100000D02*
X178700000Y-29100000D01*
X53700000Y-164100000D02*
X178700000Y-164100000D01*
X178700000Y-46100000D02*
X178700000Y-29100000D01*
X53700000Y-164100000D02*
X53700000Y-29100000D01*
%TO.C,D7*%
G36*
G01*
X86600000Y-51081000D02*
X86600000Y-74919000D01*
G75*
G02*
X86019000Y-75500000I-581000J0D01*
G01*
X80181000Y-75500000D01*
G75*
G02*
X79600000Y-74919000I0J581000D01*
G01*
X79600000Y-51081000D01*
G75*
G02*
X80181000Y-50500000I581000J0D01*
G01*
X86019000Y-50500000D01*
G75*
G02*
X86600000Y-51081000I0J-581000D01*
G01*
G37*
G36*
G01*
X136600000Y-44581000D02*
X136600000Y-68419000D01*
G75*
G02*
X136019000Y-69000000I-581000J0D01*
G01*
X130181000Y-69000000D01*
G75*
G02*
X129600000Y-68419000I0J581000D01*
G01*
X129600000Y-44581000D01*
G75*
G02*
X130181000Y-44000000I581000J0D01*
G01*
X136019000Y-44000000D01*
G75*
G02*
X136600000Y-44581000I0J-581000D01*
G01*
G37*
%TD*%
M02*
