%TF.GenerationSoftware,KiCad,Pcbnew,5.1.9-73d0e3b20d~88~ubuntu20.04.1*%
%TF.CreationDate,2021-04-09T17:18:55-07:00*%
%TF.ProjectId,ultrablinky,756c7472-6162-46c6-996e-6b792e6b6963,A*%
%TF.SameCoordinates,Original*%
%TF.FileFunction,Legend,Top*%
%TF.FilePolarity,Positive*%
%FSLAX46Y46*%
G04 Gerber Fmt 4.6, Leading zero omitted, Abs format (unit mm)*
G04 Created by KiCad (PCBNEW 5.1.9-73d0e3b20d~88~ubuntu20.04.1) date 2021-04-09 17:18:55*
%MOMM*%
%LPD*%
G01*
G04 APERTURE LIST*
%TA.AperFunction,Profile*%
%ADD10C,0.150000*%
%TD*%
%ADD11C,0.254000*%
%ADD12C,0.200000*%
%ADD13C,0.127000*%
%ADD14C,0.350000*%
%ADD15C,0.300000*%
%ADD16C,0.010000*%
%ADD17C,0.120000*%
%ADD18C,0.100000*%
%ADD19C,0.150000*%
%ADD20C,0.015000*%
G04 APERTURE END LIST*
D10*
X178700000Y-142000000D02*
X178700000Y-164100000D01*
X178200000Y-142000000D02*
G75*
G02*
X177500000Y-141300000I0J700000D01*
G01*
X177500000Y-136700000D02*
G75*
G02*
X178200000Y-136000000I700000J0D01*
G01*
X177500000Y-136700000D02*
X177500000Y-141300000D01*
X178200000Y-142000000D02*
X178700000Y-142000000D01*
X178200000Y-136000000D02*
X178700000Y-136000000D01*
X178700000Y-67550000D02*
X178700000Y-136000000D01*
X178700000Y-61550000D02*
X178700000Y-52100000D01*
X177500000Y-62250000D02*
G75*
G02*
X178200000Y-61550000I700000J0D01*
G01*
X178200000Y-61550000D02*
X178700000Y-61550000D01*
X178200000Y-67550000D02*
G75*
G02*
X177500000Y-66850000I0J700000D01*
G01*
X178200000Y-67550000D02*
X178700000Y-67550000D01*
X177500000Y-62250000D02*
X177500000Y-66850000D01*
X178200000Y-52100000D02*
X178700000Y-52100000D01*
X178200000Y-46100000D02*
X178700000Y-46100000D01*
X177500000Y-46800000D02*
X177500000Y-51400000D01*
X178200000Y-52100000D02*
G75*
G02*
X177500000Y-51400000I0J700000D01*
G01*
X177500000Y-46800000D02*
G75*
G02*
X178200000Y-46100000I700000J0D01*
G01*
X87505025Y-80109975D02*
G75*
G02*
X87300000Y-79615000I494975J494975D01*
G01*
X128694975Y-39985025D02*
G75*
G02*
X128900000Y-40480000I-494975J-494975D01*
G01*
X87510025Y-39982025D02*
G75*
G03*
X87305000Y-40477000I494975J-494975D01*
G01*
X128694975Y-80104975D02*
G75*
G03*
X128900000Y-79610000I-494975J494975D01*
G01*
X130300000Y-105100000D02*
G75*
G02*
X129600000Y-105800000I-700000J0D01*
G01*
X119700000Y-105800000D02*
G75*
G02*
X119000000Y-105100000I0J700000D01*
G01*
X129600000Y-88400000D02*
G75*
G02*
X130300000Y-89100000I0J-700000D01*
G01*
X119000000Y-89100000D02*
G75*
G02*
X119700000Y-88400000I700000J0D01*
G01*
X85900000Y-89100000D02*
G75*
G02*
X86600000Y-88400000I700000J0D01*
G01*
X96500000Y-88400000D02*
G75*
G02*
X97200000Y-89100000I0J-700000D01*
G01*
X97200000Y-105100000D02*
G75*
G02*
X96500000Y-105800000I-700000J0D01*
G01*
X86600000Y-105800000D02*
G75*
G02*
X85900000Y-105100000I0J700000D01*
G01*
D11*
X56220238Y-144704523D02*
X56945952Y-144704523D01*
X56583095Y-145974523D02*
X56583095Y-144704523D01*
X58095000Y-145974523D02*
X57671666Y-145369761D01*
X57369285Y-145974523D02*
X57369285Y-144704523D01*
X57853095Y-144704523D01*
X57974047Y-144765000D01*
X58034523Y-144825476D01*
X58095000Y-144946428D01*
X58095000Y-145127857D01*
X58034523Y-145248809D01*
X57974047Y-145309285D01*
X57853095Y-145369761D01*
X57369285Y-145369761D01*
X58639285Y-145974523D02*
X58639285Y-144704523D01*
X59909285Y-144765000D02*
X59788333Y-144704523D01*
X59606904Y-144704523D01*
X59425476Y-144765000D01*
X59304523Y-144885952D01*
X59244047Y-145006904D01*
X59183571Y-145248809D01*
X59183571Y-145430238D01*
X59244047Y-145672142D01*
X59304523Y-145793095D01*
X59425476Y-145914047D01*
X59606904Y-145974523D01*
X59727857Y-145974523D01*
X59909285Y-145914047D01*
X59969761Y-145853571D01*
X59969761Y-145430238D01*
X59727857Y-145430238D01*
X61179285Y-144765000D02*
X61058333Y-144704523D01*
X60876904Y-144704523D01*
X60695476Y-144765000D01*
X60574523Y-144885952D01*
X60514047Y-145006904D01*
X60453571Y-145248809D01*
X60453571Y-145430238D01*
X60514047Y-145672142D01*
X60574523Y-145793095D01*
X60695476Y-145914047D01*
X60876904Y-145974523D01*
X60997857Y-145974523D01*
X61179285Y-145914047D01*
X61239761Y-145853571D01*
X61239761Y-145430238D01*
X60997857Y-145430238D01*
X61784047Y-145309285D02*
X62207380Y-145309285D01*
X62388809Y-145974523D02*
X61784047Y-145974523D01*
X61784047Y-144704523D01*
X62388809Y-144704523D01*
X63658809Y-145974523D02*
X63235476Y-145369761D01*
X62933095Y-145974523D02*
X62933095Y-144704523D01*
X63416904Y-144704523D01*
X63537857Y-144765000D01*
X63598333Y-144825476D01*
X63658809Y-144946428D01*
X63658809Y-145127857D01*
X63598333Y-145248809D01*
X63537857Y-145309285D01*
X63416904Y-145369761D01*
X62933095Y-145369761D01*
X169169285Y-147253571D02*
X169108809Y-147314047D01*
X168927380Y-147374523D01*
X168806428Y-147374523D01*
X168625000Y-147314047D01*
X168504047Y-147193095D01*
X168443571Y-147072142D01*
X168383095Y-146830238D01*
X168383095Y-146648809D01*
X168443571Y-146406904D01*
X168504047Y-146285952D01*
X168625000Y-146165000D01*
X168806428Y-146104523D01*
X168927380Y-146104523D01*
X169108809Y-146165000D01*
X169169285Y-146225476D01*
X169653095Y-147011666D02*
X170257857Y-147011666D01*
X169532142Y-147374523D02*
X169955476Y-146104523D01*
X170378809Y-147374523D01*
X170802142Y-147374523D02*
X170802142Y-146104523D01*
X171225476Y-147011666D01*
X171648809Y-146104523D01*
X171648809Y-147374523D01*
X172253571Y-146709285D02*
X172676904Y-146709285D01*
X172858333Y-147374523D02*
X172253571Y-147374523D01*
X172253571Y-146104523D01*
X172858333Y-146104523D01*
X174128333Y-147374523D02*
X173705000Y-146769761D01*
X173402619Y-147374523D02*
X173402619Y-146104523D01*
X173886428Y-146104523D01*
X174007380Y-146165000D01*
X174067857Y-146225476D01*
X174128333Y-146346428D01*
X174128333Y-146527857D01*
X174067857Y-146648809D01*
X174007380Y-146709285D01*
X173886428Y-146769761D01*
X173402619Y-146769761D01*
X174612142Y-147011666D02*
X175216904Y-147011666D01*
X174491190Y-147374523D02*
X174914523Y-146104523D01*
X175337857Y-147374523D01*
X170027857Y-72874523D02*
X169423095Y-72874523D01*
X169423095Y-71604523D01*
X170451190Y-72874523D02*
X170451190Y-71604523D01*
X171055952Y-72874523D02*
X171055952Y-71604523D01*
X171781666Y-72874523D01*
X171781666Y-71604523D01*
X172386428Y-72209285D02*
X172809761Y-72209285D01*
X172991190Y-72874523D02*
X172386428Y-72874523D01*
X172386428Y-71604523D01*
X172991190Y-71604523D01*
X174745000Y-71604523D02*
X174986904Y-71604523D01*
X175107857Y-71665000D01*
X175228809Y-71785952D01*
X175289285Y-72027857D01*
X175289285Y-72451190D01*
X175228809Y-72693095D01*
X175107857Y-72814047D01*
X174986904Y-72874523D01*
X174745000Y-72874523D01*
X174624047Y-72814047D01*
X174503095Y-72693095D01*
X174442619Y-72451190D01*
X174442619Y-72027857D01*
X174503095Y-71785952D01*
X174624047Y-71665000D01*
X174745000Y-71604523D01*
X175833571Y-71604523D02*
X175833571Y-72632619D01*
X175894047Y-72753571D01*
X175954523Y-72814047D01*
X176075476Y-72874523D01*
X176317380Y-72874523D01*
X176438333Y-72814047D01*
X176498809Y-72753571D01*
X176559285Y-72632619D01*
X176559285Y-71604523D01*
X176982619Y-71604523D02*
X177708333Y-71604523D01*
X177345476Y-72874523D02*
X177345476Y-71604523D01*
X172174523Y-57049523D02*
X171569761Y-57049523D01*
X171569761Y-55779523D01*
X172597857Y-57049523D02*
X172597857Y-55779523D01*
X173202619Y-57049523D02*
X173202619Y-55779523D01*
X173928333Y-57049523D01*
X173928333Y-55779523D01*
X174533095Y-56384285D02*
X174956428Y-56384285D01*
X175137857Y-57049523D02*
X174533095Y-57049523D01*
X174533095Y-55779523D01*
X175137857Y-55779523D01*
X176649761Y-57049523D02*
X176649761Y-55779523D01*
X177254523Y-57049523D02*
X177254523Y-55779523D01*
X177980238Y-57049523D01*
X177980238Y-55779523D01*
D10*
X119000000Y-105100000D02*
X119000000Y-89100000D01*
X129600000Y-105800000D02*
X119700000Y-105800000D01*
X129600000Y-88400000D02*
X119700000Y-88400000D01*
X130300000Y-105100000D02*
X130300000Y-89100000D01*
X96500000Y-105800000D02*
X86600000Y-105800000D01*
X97200000Y-105100000D02*
X97200000Y-89100000D01*
X96500000Y-88400000D02*
X86600000Y-88400000D01*
X85900000Y-105100000D02*
X85900000Y-89100000D01*
X128697474Y-80107415D02*
G75*
G02*
X87505025Y-80109975I-20597474J20107415D01*
G01*
X87300000Y-79615000D02*
X87305000Y-40477000D01*
X128900000Y-79610000D02*
X128900000Y-40480000D01*
X87508953Y-39980983D02*
G75*
G02*
X128694975Y-39985025I20591047J-20019017D01*
G01*
X53700000Y-29100000D02*
X178700000Y-29100000D01*
X53700000Y-164100000D02*
X178700000Y-164100000D01*
X178700000Y-46100000D02*
X178700000Y-29100000D01*
X53700000Y-164100000D02*
X53700000Y-29100000D01*
D12*
%TO.C,J4*%
X65450000Y-88175000D02*
G75*
G03*
X65450000Y-88175000I-100000J0D01*
G01*
D13*
X54275000Y-88600000D02*
X52900000Y-88600000D01*
X52900000Y-88600000D02*
X52900000Y-78500000D01*
X52900000Y-78500000D02*
X54175000Y-78500000D01*
X57670000Y-78500000D02*
X64400000Y-78500000D01*
X64400000Y-78500000D02*
X64400000Y-78700000D01*
X64400000Y-80460000D02*
X64400000Y-83750000D01*
X64400000Y-85680000D02*
X64400000Y-87250000D01*
X61600000Y-88600000D02*
X57580000Y-88600000D01*
D14*
%TO.C,U9*%
X146235000Y-155650000D02*
G75*
G03*
X146235000Y-155650000I-100000J0D01*
G01*
D13*
X147175000Y-163190000D02*
X147175000Y-162090000D01*
X147175000Y-153190000D02*
X147175000Y-154290000D01*
X147175000Y-153190000D02*
X154375000Y-153190000D01*
X154375000Y-163190000D02*
X147175000Y-163190000D01*
X154375000Y-153190000D02*
X154375000Y-163190000D01*
D14*
X146235000Y-155650000D02*
G75*
G03*
X146235000Y-155650000I-100000J0D01*
G01*
D13*
%TO.C,SW2*%
X157700000Y-130950000D02*
X157700000Y-134250000D01*
X157700000Y-134250000D02*
X155150000Y-134250000D01*
X147750000Y-134250000D02*
X145200000Y-134250000D01*
X145200000Y-134250000D02*
X145200000Y-130950000D01*
X157700000Y-124150000D02*
X157700000Y-120850000D01*
X157700000Y-120850000D02*
X155150000Y-120850000D01*
X147750000Y-120850000D02*
X145200000Y-120850000D01*
X145200000Y-120850000D02*
X145200000Y-124150000D01*
D12*
X155750000Y-135150000D02*
G75*
G03*
X155750000Y-135150000I-100000J0D01*
G01*
D13*
%TO.C,U4*%
X176525000Y-119200000D02*
X177130000Y-119200000D01*
X177130000Y-119200000D02*
X177130000Y-112850000D01*
X177130000Y-112850000D02*
X176525000Y-112850000D01*
X168625000Y-119200000D02*
X169225000Y-119200000D01*
X168625000Y-112850000D02*
X169225000Y-112850000D01*
X168620000Y-112875000D02*
X168620000Y-119175000D01*
D15*
X175575000Y-110325000D02*
G75*
G03*
X175575000Y-110325000I-100000J0D01*
G01*
D13*
%TO.C,U7*%
X168625000Y-122850000D02*
X168625000Y-122245000D01*
X168625000Y-122245000D02*
X162275000Y-122245000D01*
X162275000Y-122245000D02*
X162275000Y-122850000D01*
X168625000Y-130750000D02*
X168625000Y-130150000D01*
X162275000Y-130750000D02*
X162275000Y-130150000D01*
X162300000Y-130755000D02*
X168600000Y-130755000D01*
D15*
X159850000Y-123900000D02*
G75*
G03*
X159850000Y-123900000I-100000J0D01*
G01*
D13*
%TO.C,SW1*%
X57700000Y-57700000D02*
X57700000Y-67700000D01*
X53700000Y-67700000D02*
X53700000Y-64700000D01*
X53700000Y-64700000D02*
X53700000Y-62700000D01*
X53700000Y-62700000D02*
X53700000Y-60700000D01*
X53700000Y-60700000D02*
X53700000Y-57700000D01*
X57700000Y-57700000D02*
X57000000Y-57700000D01*
X54400000Y-57700000D02*
X53700000Y-57700000D01*
X57700000Y-67700000D02*
X57000000Y-67700000D01*
X54400000Y-67700000D02*
X53700000Y-67700000D01*
D16*
%TO.C,REF\u002A\u002A*%
G36*
X162503910Y-157142348D02*
G01*
X162582454Y-157142778D01*
X162639298Y-157143942D01*
X162678105Y-157146207D01*
X162702538Y-157149940D01*
X162716262Y-157155506D01*
X162722940Y-157163273D01*
X162726236Y-157173605D01*
X162726556Y-157174943D01*
X162731562Y-157199079D01*
X162740829Y-157246701D01*
X162753392Y-157312741D01*
X162768287Y-157392128D01*
X162784551Y-157479796D01*
X162785119Y-157482875D01*
X162801410Y-157568789D01*
X162816652Y-157644696D01*
X162829861Y-157706045D01*
X162840054Y-157748282D01*
X162846248Y-157766855D01*
X162846543Y-157767184D01*
X162864788Y-157776253D01*
X162902405Y-157791367D01*
X162951271Y-157809262D01*
X162951543Y-157809358D01*
X163013093Y-157832493D01*
X163085657Y-157861965D01*
X163154057Y-157891597D01*
X163157294Y-157893062D01*
X163268702Y-157943626D01*
X163515399Y-157775160D01*
X163591077Y-157723803D01*
X163659631Y-157677889D01*
X163717088Y-157640030D01*
X163759476Y-157612837D01*
X163782825Y-157598921D01*
X163785042Y-157597889D01*
X163802010Y-157602484D01*
X163833701Y-157624655D01*
X163881352Y-157665447D01*
X163946198Y-157725905D01*
X164012397Y-157790227D01*
X164076214Y-157853612D01*
X164133329Y-157911451D01*
X164180305Y-157960175D01*
X164213703Y-157996210D01*
X164230085Y-158015984D01*
X164230694Y-158017002D01*
X164232505Y-158030572D01*
X164225683Y-158052733D01*
X164208540Y-158086478D01*
X164179393Y-158134800D01*
X164136555Y-158200692D01*
X164079448Y-158285517D01*
X164028766Y-158360177D01*
X163983461Y-158427140D01*
X163946150Y-158482516D01*
X163919452Y-158522420D01*
X163905985Y-158542962D01*
X163905137Y-158544356D01*
X163906781Y-158564038D01*
X163919245Y-158602293D01*
X163940048Y-158651889D01*
X163947462Y-158667728D01*
X163979814Y-158738290D01*
X164014328Y-158818353D01*
X164042365Y-158887629D01*
X164062568Y-158939045D01*
X164078615Y-158978119D01*
X164087888Y-158998541D01*
X164089041Y-159000114D01*
X164106096Y-159002721D01*
X164146298Y-159009863D01*
X164204302Y-159020523D01*
X164274763Y-159033685D01*
X164352335Y-159048333D01*
X164431672Y-159063449D01*
X164507431Y-159078018D01*
X164574264Y-159091022D01*
X164626828Y-159101445D01*
X164659776Y-159108270D01*
X164667857Y-159110199D01*
X164676205Y-159114962D01*
X164682506Y-159125718D01*
X164687045Y-159146098D01*
X164690104Y-159179734D01*
X164691967Y-159230255D01*
X164692918Y-159301292D01*
X164693240Y-159396476D01*
X164693257Y-159435492D01*
X164693257Y-159752799D01*
X164617057Y-159767839D01*
X164574663Y-159775995D01*
X164511400Y-159787899D01*
X164434962Y-159802116D01*
X164353043Y-159817210D01*
X164330400Y-159821355D01*
X164254806Y-159836053D01*
X164188953Y-159850505D01*
X164138366Y-159863375D01*
X164108574Y-159873322D01*
X164103612Y-159876287D01*
X164091426Y-159897283D01*
X164073953Y-159937967D01*
X164054577Y-159990322D01*
X164050734Y-160001600D01*
X164025339Y-160071523D01*
X163993817Y-160150418D01*
X163962969Y-160221266D01*
X163962817Y-160221595D01*
X163911447Y-160332733D01*
X164080399Y-160581253D01*
X164249352Y-160829772D01*
X164032429Y-161047058D01*
X163966819Y-161111726D01*
X163906979Y-161168733D01*
X163856267Y-161215033D01*
X163818046Y-161247584D01*
X163795675Y-161263343D01*
X163792466Y-161264343D01*
X163773626Y-161256469D01*
X163735180Y-161234578D01*
X163681330Y-161201267D01*
X163616276Y-161159131D01*
X163545940Y-161111943D01*
X163474555Y-161063810D01*
X163410908Y-161021928D01*
X163359041Y-160988871D01*
X163322995Y-160967218D01*
X163306867Y-160959543D01*
X163287189Y-160966037D01*
X163249875Y-160983150D01*
X163202621Y-161007326D01*
X163197612Y-161010013D01*
X163133977Y-161041927D01*
X163090341Y-161057579D01*
X163063202Y-161057745D01*
X163049057Y-161043204D01*
X163048975Y-161043000D01*
X163041905Y-161025779D01*
X163025042Y-160984899D01*
X162999695Y-160923525D01*
X162967171Y-160844819D01*
X162928778Y-160751947D01*
X162885822Y-160648072D01*
X162844222Y-160547502D01*
X162798504Y-160436516D01*
X162756526Y-160333703D01*
X162719548Y-160242215D01*
X162688827Y-160165201D01*
X162665622Y-160105815D01*
X162651190Y-160067209D01*
X162646743Y-160052800D01*
X162657896Y-160036272D01*
X162687069Y-160009930D01*
X162725971Y-159980887D01*
X162836757Y-159889039D01*
X162923351Y-159783759D01*
X162984716Y-159667266D01*
X163019815Y-159541776D01*
X163027608Y-159409507D01*
X163021943Y-159348457D01*
X162991078Y-159221795D01*
X162937920Y-159109941D01*
X162865767Y-159014001D01*
X162777917Y-158935076D01*
X162677665Y-158874270D01*
X162568310Y-158832687D01*
X162453147Y-158811428D01*
X162335475Y-158811599D01*
X162218590Y-158834301D01*
X162105789Y-158880638D01*
X162000369Y-158951713D01*
X161956368Y-158991911D01*
X161871979Y-159095129D01*
X161813222Y-159207925D01*
X161779704Y-159327010D01*
X161771035Y-159449095D01*
X161786823Y-159570893D01*
X161826678Y-159689116D01*
X161890207Y-159800475D01*
X161977021Y-159901684D01*
X162074029Y-159980887D01*
X162114437Y-160011162D01*
X162142982Y-160037219D01*
X162153257Y-160052825D01*
X162147877Y-160069843D01*
X162132575Y-160110500D01*
X162108612Y-160171642D01*
X162077244Y-160250119D01*
X162039732Y-160342780D01*
X161997333Y-160446472D01*
X161955663Y-160547526D01*
X161909690Y-160658607D01*
X161867107Y-160761541D01*
X161829221Y-160853165D01*
X161797340Y-160930316D01*
X161772771Y-160989831D01*
X161756820Y-161028544D01*
X161750910Y-161043000D01*
X161736948Y-161057685D01*
X161709940Y-161057642D01*
X161666413Y-161042099D01*
X161602890Y-161010284D01*
X161602388Y-161010013D01*
X161554560Y-160985323D01*
X161515897Y-160967338D01*
X161494095Y-160959614D01*
X161493133Y-160959543D01*
X161476721Y-160967378D01*
X161440487Y-160989165D01*
X161388474Y-161022328D01*
X161324725Y-161064291D01*
X161254060Y-161111943D01*
X161182116Y-161160191D01*
X161117274Y-161202151D01*
X161063735Y-161235227D01*
X161025697Y-161256821D01*
X161007533Y-161264343D01*
X160990808Y-161254457D01*
X160957180Y-161226826D01*
X160910010Y-161184495D01*
X160852658Y-161130505D01*
X160788484Y-161067899D01*
X160767497Y-161046983D01*
X160550499Y-160829623D01*
X160715668Y-160587220D01*
X160765864Y-160512781D01*
X160809919Y-160445972D01*
X160845362Y-160390665D01*
X160869719Y-160350729D01*
X160880522Y-160330036D01*
X160880838Y-160328563D01*
X160875143Y-160309058D01*
X160859826Y-160269822D01*
X160837537Y-160217430D01*
X160821893Y-160182355D01*
X160792641Y-160115201D01*
X160765094Y-160047358D01*
X160743737Y-159990034D01*
X160737935Y-159972572D01*
X160721452Y-159925938D01*
X160705340Y-159889905D01*
X160696490Y-159876287D01*
X160676960Y-159867952D01*
X160634334Y-159856137D01*
X160574145Y-159842181D01*
X160501922Y-159827422D01*
X160469600Y-159821355D01*
X160387522Y-159806273D01*
X160308795Y-159791669D01*
X160241109Y-159778980D01*
X160192160Y-159769642D01*
X160182943Y-159767839D01*
X160106743Y-159752799D01*
X160106743Y-159435492D01*
X160106914Y-159331154D01*
X160107616Y-159252213D01*
X160109134Y-159195038D01*
X160111749Y-159155999D01*
X160115746Y-159131465D01*
X160121409Y-159117805D01*
X160129020Y-159111389D01*
X160132143Y-159110199D01*
X160150978Y-159105980D01*
X160192588Y-159097562D01*
X160251630Y-159085961D01*
X160322757Y-159072195D01*
X160400625Y-159057280D01*
X160479887Y-159042232D01*
X160555198Y-159028069D01*
X160621213Y-159015806D01*
X160672587Y-159006461D01*
X160703975Y-159001050D01*
X160710959Y-159000114D01*
X160717285Y-158987596D01*
X160731290Y-158954246D01*
X160750355Y-158906377D01*
X160757634Y-158887629D01*
X160786996Y-158815195D01*
X160821571Y-158735170D01*
X160852537Y-158667728D01*
X160875323Y-158616159D01*
X160890482Y-158573785D01*
X160895542Y-158547834D01*
X160894736Y-158544356D01*
X160884041Y-158527936D01*
X160859620Y-158491417D01*
X160824095Y-158438687D01*
X160780087Y-158373635D01*
X160730217Y-158300151D01*
X160720356Y-158285645D01*
X160662492Y-158199704D01*
X160619956Y-158134261D01*
X160591054Y-158086304D01*
X160574090Y-158052820D01*
X160567367Y-158030795D01*
X160569190Y-158017217D01*
X160569236Y-158017131D01*
X160583586Y-157999297D01*
X160615323Y-157964817D01*
X160661010Y-157917268D01*
X160717204Y-157860222D01*
X160780468Y-157797255D01*
X160787602Y-157790227D01*
X160867330Y-157713020D01*
X160928857Y-157656330D01*
X160973421Y-157619110D01*
X161002257Y-157600315D01*
X161014958Y-157597889D01*
X161033494Y-157608471D01*
X161071961Y-157632916D01*
X161126386Y-157668612D01*
X161192798Y-157712947D01*
X161267225Y-157763311D01*
X161284601Y-157775160D01*
X161531297Y-157943626D01*
X161642706Y-157893062D01*
X161710457Y-157863595D01*
X161783183Y-157833959D01*
X161845703Y-157810330D01*
X161848457Y-157809358D01*
X161897360Y-157791457D01*
X161935057Y-157776320D01*
X161953425Y-157767210D01*
X161953456Y-157767184D01*
X161959285Y-157750717D01*
X161969192Y-157710219D01*
X161982195Y-157650242D01*
X161997309Y-157575340D01*
X162013552Y-157490064D01*
X162014881Y-157482875D01*
X162031175Y-157395014D01*
X162046133Y-157315260D01*
X162058791Y-157248681D01*
X162068186Y-157200347D01*
X162073354Y-157175325D01*
X162073444Y-157174943D01*
X162076589Y-157164299D01*
X162082704Y-157156262D01*
X162095453Y-157150467D01*
X162118500Y-157146547D01*
X162155509Y-157144135D01*
X162210144Y-157142865D01*
X162286067Y-157142371D01*
X162386944Y-157142286D01*
X162400000Y-157142286D01*
X162503910Y-157142348D01*
G37*
X162503910Y-157142348D02*
X162582454Y-157142778D01*
X162639298Y-157143942D01*
X162678105Y-157146207D01*
X162702538Y-157149940D01*
X162716262Y-157155506D01*
X162722940Y-157163273D01*
X162726236Y-157173605D01*
X162726556Y-157174943D01*
X162731562Y-157199079D01*
X162740829Y-157246701D01*
X162753392Y-157312741D01*
X162768287Y-157392128D01*
X162784551Y-157479796D01*
X162785119Y-157482875D01*
X162801410Y-157568789D01*
X162816652Y-157644696D01*
X162829861Y-157706045D01*
X162840054Y-157748282D01*
X162846248Y-157766855D01*
X162846543Y-157767184D01*
X162864788Y-157776253D01*
X162902405Y-157791367D01*
X162951271Y-157809262D01*
X162951543Y-157809358D01*
X163013093Y-157832493D01*
X163085657Y-157861965D01*
X163154057Y-157891597D01*
X163157294Y-157893062D01*
X163268702Y-157943626D01*
X163515399Y-157775160D01*
X163591077Y-157723803D01*
X163659631Y-157677889D01*
X163717088Y-157640030D01*
X163759476Y-157612837D01*
X163782825Y-157598921D01*
X163785042Y-157597889D01*
X163802010Y-157602484D01*
X163833701Y-157624655D01*
X163881352Y-157665447D01*
X163946198Y-157725905D01*
X164012397Y-157790227D01*
X164076214Y-157853612D01*
X164133329Y-157911451D01*
X164180305Y-157960175D01*
X164213703Y-157996210D01*
X164230085Y-158015984D01*
X164230694Y-158017002D01*
X164232505Y-158030572D01*
X164225683Y-158052733D01*
X164208540Y-158086478D01*
X164179393Y-158134800D01*
X164136555Y-158200692D01*
X164079448Y-158285517D01*
X164028766Y-158360177D01*
X163983461Y-158427140D01*
X163946150Y-158482516D01*
X163919452Y-158522420D01*
X163905985Y-158542962D01*
X163905137Y-158544356D01*
X163906781Y-158564038D01*
X163919245Y-158602293D01*
X163940048Y-158651889D01*
X163947462Y-158667728D01*
X163979814Y-158738290D01*
X164014328Y-158818353D01*
X164042365Y-158887629D01*
X164062568Y-158939045D01*
X164078615Y-158978119D01*
X164087888Y-158998541D01*
X164089041Y-159000114D01*
X164106096Y-159002721D01*
X164146298Y-159009863D01*
X164204302Y-159020523D01*
X164274763Y-159033685D01*
X164352335Y-159048333D01*
X164431672Y-159063449D01*
X164507431Y-159078018D01*
X164574264Y-159091022D01*
X164626828Y-159101445D01*
X164659776Y-159108270D01*
X164667857Y-159110199D01*
X164676205Y-159114962D01*
X164682506Y-159125718D01*
X164687045Y-159146098D01*
X164690104Y-159179734D01*
X164691967Y-159230255D01*
X164692918Y-159301292D01*
X164693240Y-159396476D01*
X164693257Y-159435492D01*
X164693257Y-159752799D01*
X164617057Y-159767839D01*
X164574663Y-159775995D01*
X164511400Y-159787899D01*
X164434962Y-159802116D01*
X164353043Y-159817210D01*
X164330400Y-159821355D01*
X164254806Y-159836053D01*
X164188953Y-159850505D01*
X164138366Y-159863375D01*
X164108574Y-159873322D01*
X164103612Y-159876287D01*
X164091426Y-159897283D01*
X164073953Y-159937967D01*
X164054577Y-159990322D01*
X164050734Y-160001600D01*
X164025339Y-160071523D01*
X163993817Y-160150418D01*
X163962969Y-160221266D01*
X163962817Y-160221595D01*
X163911447Y-160332733D01*
X164080399Y-160581253D01*
X164249352Y-160829772D01*
X164032429Y-161047058D01*
X163966819Y-161111726D01*
X163906979Y-161168733D01*
X163856267Y-161215033D01*
X163818046Y-161247584D01*
X163795675Y-161263343D01*
X163792466Y-161264343D01*
X163773626Y-161256469D01*
X163735180Y-161234578D01*
X163681330Y-161201267D01*
X163616276Y-161159131D01*
X163545940Y-161111943D01*
X163474555Y-161063810D01*
X163410908Y-161021928D01*
X163359041Y-160988871D01*
X163322995Y-160967218D01*
X163306867Y-160959543D01*
X163287189Y-160966037D01*
X163249875Y-160983150D01*
X163202621Y-161007326D01*
X163197612Y-161010013D01*
X163133977Y-161041927D01*
X163090341Y-161057579D01*
X163063202Y-161057745D01*
X163049057Y-161043204D01*
X163048975Y-161043000D01*
X163041905Y-161025779D01*
X163025042Y-160984899D01*
X162999695Y-160923525D01*
X162967171Y-160844819D01*
X162928778Y-160751947D01*
X162885822Y-160648072D01*
X162844222Y-160547502D01*
X162798504Y-160436516D01*
X162756526Y-160333703D01*
X162719548Y-160242215D01*
X162688827Y-160165201D01*
X162665622Y-160105815D01*
X162651190Y-160067209D01*
X162646743Y-160052800D01*
X162657896Y-160036272D01*
X162687069Y-160009930D01*
X162725971Y-159980887D01*
X162836757Y-159889039D01*
X162923351Y-159783759D01*
X162984716Y-159667266D01*
X163019815Y-159541776D01*
X163027608Y-159409507D01*
X163021943Y-159348457D01*
X162991078Y-159221795D01*
X162937920Y-159109941D01*
X162865767Y-159014001D01*
X162777917Y-158935076D01*
X162677665Y-158874270D01*
X162568310Y-158832687D01*
X162453147Y-158811428D01*
X162335475Y-158811599D01*
X162218590Y-158834301D01*
X162105789Y-158880638D01*
X162000369Y-158951713D01*
X161956368Y-158991911D01*
X161871979Y-159095129D01*
X161813222Y-159207925D01*
X161779704Y-159327010D01*
X161771035Y-159449095D01*
X161786823Y-159570893D01*
X161826678Y-159689116D01*
X161890207Y-159800475D01*
X161977021Y-159901684D01*
X162074029Y-159980887D01*
X162114437Y-160011162D01*
X162142982Y-160037219D01*
X162153257Y-160052825D01*
X162147877Y-160069843D01*
X162132575Y-160110500D01*
X162108612Y-160171642D01*
X162077244Y-160250119D01*
X162039732Y-160342780D01*
X161997333Y-160446472D01*
X161955663Y-160547526D01*
X161909690Y-160658607D01*
X161867107Y-160761541D01*
X161829221Y-160853165D01*
X161797340Y-160930316D01*
X161772771Y-160989831D01*
X161756820Y-161028544D01*
X161750910Y-161043000D01*
X161736948Y-161057685D01*
X161709940Y-161057642D01*
X161666413Y-161042099D01*
X161602890Y-161010284D01*
X161602388Y-161010013D01*
X161554560Y-160985323D01*
X161515897Y-160967338D01*
X161494095Y-160959614D01*
X161493133Y-160959543D01*
X161476721Y-160967378D01*
X161440487Y-160989165D01*
X161388474Y-161022328D01*
X161324725Y-161064291D01*
X161254060Y-161111943D01*
X161182116Y-161160191D01*
X161117274Y-161202151D01*
X161063735Y-161235227D01*
X161025697Y-161256821D01*
X161007533Y-161264343D01*
X160990808Y-161254457D01*
X160957180Y-161226826D01*
X160910010Y-161184495D01*
X160852658Y-161130505D01*
X160788484Y-161067899D01*
X160767497Y-161046983D01*
X160550499Y-160829623D01*
X160715668Y-160587220D01*
X160765864Y-160512781D01*
X160809919Y-160445972D01*
X160845362Y-160390665D01*
X160869719Y-160350729D01*
X160880522Y-160330036D01*
X160880838Y-160328563D01*
X160875143Y-160309058D01*
X160859826Y-160269822D01*
X160837537Y-160217430D01*
X160821893Y-160182355D01*
X160792641Y-160115201D01*
X160765094Y-160047358D01*
X160743737Y-159990034D01*
X160737935Y-159972572D01*
X160721452Y-159925938D01*
X160705340Y-159889905D01*
X160696490Y-159876287D01*
X160676960Y-159867952D01*
X160634334Y-159856137D01*
X160574145Y-159842181D01*
X160501922Y-159827422D01*
X160469600Y-159821355D01*
X160387522Y-159806273D01*
X160308795Y-159791669D01*
X160241109Y-159778980D01*
X160192160Y-159769642D01*
X160182943Y-159767839D01*
X160106743Y-159752799D01*
X160106743Y-159435492D01*
X160106914Y-159331154D01*
X160107616Y-159252213D01*
X160109134Y-159195038D01*
X160111749Y-159155999D01*
X160115746Y-159131465D01*
X160121409Y-159117805D01*
X160129020Y-159111389D01*
X160132143Y-159110199D01*
X160150978Y-159105980D01*
X160192588Y-159097562D01*
X160251630Y-159085961D01*
X160322757Y-159072195D01*
X160400625Y-159057280D01*
X160479887Y-159042232D01*
X160555198Y-159028069D01*
X160621213Y-159015806D01*
X160672587Y-159006461D01*
X160703975Y-159001050D01*
X160710959Y-159000114D01*
X160717285Y-158987596D01*
X160731290Y-158954246D01*
X160750355Y-158906377D01*
X160757634Y-158887629D01*
X160786996Y-158815195D01*
X160821571Y-158735170D01*
X160852537Y-158667728D01*
X160875323Y-158616159D01*
X160890482Y-158573785D01*
X160895542Y-158547834D01*
X160894736Y-158544356D01*
X160884041Y-158527936D01*
X160859620Y-158491417D01*
X160824095Y-158438687D01*
X160780087Y-158373635D01*
X160730217Y-158300151D01*
X160720356Y-158285645D01*
X160662492Y-158199704D01*
X160619956Y-158134261D01*
X160591054Y-158086304D01*
X160574090Y-158052820D01*
X160567367Y-158030795D01*
X160569190Y-158017217D01*
X160569236Y-158017131D01*
X160583586Y-157999297D01*
X160615323Y-157964817D01*
X160661010Y-157917268D01*
X160717204Y-157860222D01*
X160780468Y-157797255D01*
X160787602Y-157790227D01*
X160867330Y-157713020D01*
X160928857Y-157656330D01*
X160973421Y-157619110D01*
X161002257Y-157600315D01*
X161014958Y-157597889D01*
X161033494Y-157608471D01*
X161071961Y-157632916D01*
X161126386Y-157668612D01*
X161192798Y-157712947D01*
X161267225Y-157763311D01*
X161284601Y-157775160D01*
X161531297Y-157943626D01*
X161642706Y-157893062D01*
X161710457Y-157863595D01*
X161783183Y-157833959D01*
X161845703Y-157810330D01*
X161848457Y-157809358D01*
X161897360Y-157791457D01*
X161935057Y-157776320D01*
X161953425Y-157767210D01*
X161953456Y-157767184D01*
X161959285Y-157750717D01*
X161969192Y-157710219D01*
X161982195Y-157650242D01*
X161997309Y-157575340D01*
X162013552Y-157490064D01*
X162014881Y-157482875D01*
X162031175Y-157395014D01*
X162046133Y-157315260D01*
X162058791Y-157248681D01*
X162068186Y-157200347D01*
X162073354Y-157175325D01*
X162073444Y-157174943D01*
X162076589Y-157164299D01*
X162082704Y-157156262D01*
X162095453Y-157150467D01*
X162118500Y-157146547D01*
X162155509Y-157144135D01*
X162210144Y-157142865D01*
X162286067Y-157142371D01*
X162386944Y-157142286D01*
X162400000Y-157142286D01*
X162503910Y-157142348D01*
G36*
X165553595Y-161866966D02*
G01*
X165611021Y-161904497D01*
X165638719Y-161938096D01*
X165660662Y-161999064D01*
X165662405Y-162047308D01*
X165658457Y-162111816D01*
X165509686Y-162176934D01*
X165437349Y-162210202D01*
X165390084Y-162236964D01*
X165365507Y-162260144D01*
X165361237Y-162282667D01*
X165374889Y-162307455D01*
X165389943Y-162323886D01*
X165433746Y-162350235D01*
X165481389Y-162352081D01*
X165525145Y-162331546D01*
X165557289Y-162290752D01*
X165563038Y-162276347D01*
X165590576Y-162231356D01*
X165622258Y-162212182D01*
X165665714Y-162195779D01*
X165665714Y-162257966D01*
X165661872Y-162300283D01*
X165646823Y-162335969D01*
X165615280Y-162376943D01*
X165610592Y-162382267D01*
X165575506Y-162418720D01*
X165545347Y-162438283D01*
X165507615Y-162447283D01*
X165476335Y-162450230D01*
X165420385Y-162450965D01*
X165380555Y-162441660D01*
X165355708Y-162427846D01*
X165316656Y-162397467D01*
X165289625Y-162364613D01*
X165272517Y-162323294D01*
X165263238Y-162267521D01*
X165259693Y-162191305D01*
X165259410Y-162152622D01*
X165260372Y-162106247D01*
X165348007Y-162106247D01*
X165349023Y-162131126D01*
X165351556Y-162135200D01*
X165368274Y-162129665D01*
X165404249Y-162115017D01*
X165452331Y-162094190D01*
X165462386Y-162089714D01*
X165523152Y-162058814D01*
X165556632Y-162031657D01*
X165563990Y-162006220D01*
X165546391Y-161980481D01*
X165531856Y-161969109D01*
X165479410Y-161946364D01*
X165430322Y-161950122D01*
X165389227Y-161977884D01*
X165360758Y-162027152D01*
X165351631Y-162066257D01*
X165348007Y-162106247D01*
X165260372Y-162106247D01*
X165261285Y-162062249D01*
X165268196Y-161995384D01*
X165281884Y-161946695D01*
X165304096Y-161910849D01*
X165336574Y-161882513D01*
X165350733Y-161873355D01*
X165415053Y-161849507D01*
X165485473Y-161848006D01*
X165553595Y-161866966D01*
G37*
X165553595Y-161866966D02*
X165611021Y-161904497D01*
X165638719Y-161938096D01*
X165660662Y-161999064D01*
X165662405Y-162047308D01*
X165658457Y-162111816D01*
X165509686Y-162176934D01*
X165437349Y-162210202D01*
X165390084Y-162236964D01*
X165365507Y-162260144D01*
X165361237Y-162282667D01*
X165374889Y-162307455D01*
X165389943Y-162323886D01*
X165433746Y-162350235D01*
X165481389Y-162352081D01*
X165525145Y-162331546D01*
X165557289Y-162290752D01*
X165563038Y-162276347D01*
X165590576Y-162231356D01*
X165622258Y-162212182D01*
X165665714Y-162195779D01*
X165665714Y-162257966D01*
X165661872Y-162300283D01*
X165646823Y-162335969D01*
X165615280Y-162376943D01*
X165610592Y-162382267D01*
X165575506Y-162418720D01*
X165545347Y-162438283D01*
X165507615Y-162447283D01*
X165476335Y-162450230D01*
X165420385Y-162450965D01*
X165380555Y-162441660D01*
X165355708Y-162427846D01*
X165316656Y-162397467D01*
X165289625Y-162364613D01*
X165272517Y-162323294D01*
X165263238Y-162267521D01*
X165259693Y-162191305D01*
X165259410Y-162152622D01*
X165260372Y-162106247D01*
X165348007Y-162106247D01*
X165349023Y-162131126D01*
X165351556Y-162135200D01*
X165368274Y-162129665D01*
X165404249Y-162115017D01*
X165452331Y-162094190D01*
X165462386Y-162089714D01*
X165523152Y-162058814D01*
X165556632Y-162031657D01*
X165563990Y-162006220D01*
X165546391Y-161980481D01*
X165531856Y-161969109D01*
X165479410Y-161946364D01*
X165430322Y-161950122D01*
X165389227Y-161977884D01*
X165360758Y-162027152D01*
X165351631Y-162066257D01*
X165348007Y-162106247D01*
X165260372Y-162106247D01*
X165261285Y-162062249D01*
X165268196Y-161995384D01*
X165281884Y-161946695D01*
X165304096Y-161910849D01*
X165336574Y-161882513D01*
X165350733Y-161873355D01*
X165415053Y-161849507D01*
X165485473Y-161848006D01*
X165553595Y-161866966D01*
G36*
X165052600Y-161858752D02*
G01*
X165069948Y-161866334D01*
X165111356Y-161899128D01*
X165146765Y-161946547D01*
X165168664Y-161997151D01*
X165172229Y-162022098D01*
X165160279Y-162056927D01*
X165134067Y-162075357D01*
X165105964Y-162086516D01*
X165093095Y-162088572D01*
X165086829Y-162073649D01*
X165074456Y-162041175D01*
X165069028Y-162026502D01*
X165038590Y-161975744D01*
X164994520Y-161950427D01*
X164938010Y-161951206D01*
X164933825Y-161952203D01*
X164903655Y-161966507D01*
X164881476Y-161994393D01*
X164866327Y-162039287D01*
X164857250Y-162104615D01*
X164853286Y-162193804D01*
X164852914Y-162241261D01*
X164852730Y-162316071D01*
X164851522Y-162367069D01*
X164848309Y-162399471D01*
X164842109Y-162418495D01*
X164831940Y-162429356D01*
X164816819Y-162437272D01*
X164815946Y-162437670D01*
X164786828Y-162449981D01*
X164772403Y-162454514D01*
X164770186Y-162440809D01*
X164768289Y-162402925D01*
X164766847Y-162345715D01*
X164765998Y-162274027D01*
X164765829Y-162221565D01*
X164766692Y-162120047D01*
X164770070Y-162043032D01*
X164777142Y-161986023D01*
X164789088Y-161944526D01*
X164807090Y-161914043D01*
X164832327Y-161890080D01*
X164857247Y-161873355D01*
X164917171Y-161851097D01*
X164986911Y-161846076D01*
X165052600Y-161858752D01*
G37*
X165052600Y-161858752D02*
X165069948Y-161866334D01*
X165111356Y-161899128D01*
X165146765Y-161946547D01*
X165168664Y-161997151D01*
X165172229Y-162022098D01*
X165160279Y-162056927D01*
X165134067Y-162075357D01*
X165105964Y-162086516D01*
X165093095Y-162088572D01*
X165086829Y-162073649D01*
X165074456Y-162041175D01*
X165069028Y-162026502D01*
X165038590Y-161975744D01*
X164994520Y-161950427D01*
X164938010Y-161951206D01*
X164933825Y-161952203D01*
X164903655Y-161966507D01*
X164881476Y-161994393D01*
X164866327Y-162039287D01*
X164857250Y-162104615D01*
X164853286Y-162193804D01*
X164852914Y-162241261D01*
X164852730Y-162316071D01*
X164851522Y-162367069D01*
X164848309Y-162399471D01*
X164842109Y-162418495D01*
X164831940Y-162429356D01*
X164816819Y-162437272D01*
X164815946Y-162437670D01*
X164786828Y-162449981D01*
X164772403Y-162454514D01*
X164770186Y-162440809D01*
X164768289Y-162402925D01*
X164766847Y-162345715D01*
X164765998Y-162274027D01*
X164765829Y-162221565D01*
X164766692Y-162120047D01*
X164770070Y-162043032D01*
X164777142Y-161986023D01*
X164789088Y-161944526D01*
X164807090Y-161914043D01*
X164832327Y-161890080D01*
X164857247Y-161873355D01*
X164917171Y-161851097D01*
X164986911Y-161846076D01*
X165052600Y-161858752D01*
G36*
X164544876Y-161856335D02*
G01*
X164586667Y-161875344D01*
X164619469Y-161898378D01*
X164643503Y-161924133D01*
X164660097Y-161957358D01*
X164670577Y-162002800D01*
X164676271Y-162065207D01*
X164678507Y-162149327D01*
X164678743Y-162204721D01*
X164678743Y-162420826D01*
X164641774Y-162437670D01*
X164612656Y-162449981D01*
X164598231Y-162454514D01*
X164595472Y-162441025D01*
X164593282Y-162404653D01*
X164591942Y-162351542D01*
X164591657Y-162309372D01*
X164590434Y-162248447D01*
X164587136Y-162200115D01*
X164582321Y-162170518D01*
X164578496Y-162164229D01*
X164552783Y-162170652D01*
X164512418Y-162187125D01*
X164465679Y-162209458D01*
X164420845Y-162233457D01*
X164386193Y-162254930D01*
X164370002Y-162269685D01*
X164369938Y-162269845D01*
X164371330Y-162297152D01*
X164383818Y-162323219D01*
X164405743Y-162344392D01*
X164437743Y-162351474D01*
X164465092Y-162350649D01*
X164503826Y-162350042D01*
X164524158Y-162359116D01*
X164536369Y-162383092D01*
X164537909Y-162387613D01*
X164543203Y-162421806D01*
X164529047Y-162442568D01*
X164492148Y-162452462D01*
X164452289Y-162454292D01*
X164380562Y-162440727D01*
X164343432Y-162421355D01*
X164297576Y-162375845D01*
X164273256Y-162319983D01*
X164271073Y-162260957D01*
X164291629Y-162205953D01*
X164322549Y-162171486D01*
X164353420Y-162152189D01*
X164401942Y-162127759D01*
X164458485Y-162102985D01*
X164467910Y-162099199D01*
X164530019Y-162071791D01*
X164565822Y-162047634D01*
X164577337Y-162023619D01*
X164566580Y-161996635D01*
X164548114Y-161975543D01*
X164504469Y-161949572D01*
X164456446Y-161947624D01*
X164412406Y-161967637D01*
X164380709Y-162007551D01*
X164376549Y-162017848D01*
X164352327Y-162055724D01*
X164316965Y-162083842D01*
X164272343Y-162106917D01*
X164272343Y-162041485D01*
X164274969Y-162001506D01*
X164286230Y-161969997D01*
X164311199Y-161936378D01*
X164335169Y-161910484D01*
X164372441Y-161873817D01*
X164401401Y-161854121D01*
X164432505Y-161846220D01*
X164467713Y-161844914D01*
X164544876Y-161856335D01*
G37*
X164544876Y-161856335D02*
X164586667Y-161875344D01*
X164619469Y-161898378D01*
X164643503Y-161924133D01*
X164660097Y-161957358D01*
X164670577Y-162002800D01*
X164676271Y-162065207D01*
X164678507Y-162149327D01*
X164678743Y-162204721D01*
X164678743Y-162420826D01*
X164641774Y-162437670D01*
X164612656Y-162449981D01*
X164598231Y-162454514D01*
X164595472Y-162441025D01*
X164593282Y-162404653D01*
X164591942Y-162351542D01*
X164591657Y-162309372D01*
X164590434Y-162248447D01*
X164587136Y-162200115D01*
X164582321Y-162170518D01*
X164578496Y-162164229D01*
X164552783Y-162170652D01*
X164512418Y-162187125D01*
X164465679Y-162209458D01*
X164420845Y-162233457D01*
X164386193Y-162254930D01*
X164370002Y-162269685D01*
X164369938Y-162269845D01*
X164371330Y-162297152D01*
X164383818Y-162323219D01*
X164405743Y-162344392D01*
X164437743Y-162351474D01*
X164465092Y-162350649D01*
X164503826Y-162350042D01*
X164524158Y-162359116D01*
X164536369Y-162383092D01*
X164537909Y-162387613D01*
X164543203Y-162421806D01*
X164529047Y-162442568D01*
X164492148Y-162452462D01*
X164452289Y-162454292D01*
X164380562Y-162440727D01*
X164343432Y-162421355D01*
X164297576Y-162375845D01*
X164273256Y-162319983D01*
X164271073Y-162260957D01*
X164291629Y-162205953D01*
X164322549Y-162171486D01*
X164353420Y-162152189D01*
X164401942Y-162127759D01*
X164458485Y-162102985D01*
X164467910Y-162099199D01*
X164530019Y-162071791D01*
X164565822Y-162047634D01*
X164577337Y-162023619D01*
X164566580Y-161996635D01*
X164548114Y-161975543D01*
X164504469Y-161949572D01*
X164456446Y-161947624D01*
X164412406Y-161967637D01*
X164380709Y-162007551D01*
X164376549Y-162017848D01*
X164352327Y-162055724D01*
X164316965Y-162083842D01*
X164272343Y-162106917D01*
X164272343Y-162041485D01*
X164274969Y-162001506D01*
X164286230Y-161969997D01*
X164311199Y-161936378D01*
X164335169Y-161910484D01*
X164372441Y-161873817D01*
X164401401Y-161854121D01*
X164432505Y-161846220D01*
X164467713Y-161844914D01*
X164544876Y-161856335D01*
G36*
X164179833Y-161858663D02*
G01*
X164182048Y-161896850D01*
X164183784Y-161954886D01*
X164184899Y-162028180D01*
X164185257Y-162105055D01*
X164185257Y-162365196D01*
X164139326Y-162411127D01*
X164107675Y-162439429D01*
X164079890Y-162450893D01*
X164041915Y-162450168D01*
X164026840Y-162448321D01*
X163979726Y-162442948D01*
X163940756Y-162439869D01*
X163931257Y-162439585D01*
X163899233Y-162441445D01*
X163853432Y-162446114D01*
X163835674Y-162448321D01*
X163792057Y-162451735D01*
X163762745Y-162444320D01*
X163733680Y-162421427D01*
X163723188Y-162411127D01*
X163677257Y-162365196D01*
X163677257Y-161878602D01*
X163714226Y-161861758D01*
X163746059Y-161849282D01*
X163764683Y-161844914D01*
X163769458Y-161858718D01*
X163773921Y-161897286D01*
X163777775Y-161956356D01*
X163780722Y-162031663D01*
X163782143Y-162095286D01*
X163786114Y-162345657D01*
X163820759Y-162350556D01*
X163852268Y-162347131D01*
X163867708Y-162336041D01*
X163872023Y-162315308D01*
X163875708Y-162271145D01*
X163878469Y-162209146D01*
X163880012Y-162134909D01*
X163880235Y-162096706D01*
X163880457Y-161876783D01*
X163926166Y-161860849D01*
X163958518Y-161850015D01*
X163976115Y-161844962D01*
X163976623Y-161844914D01*
X163978388Y-161858648D01*
X163980329Y-161896730D01*
X163982282Y-161954482D01*
X163984084Y-162027227D01*
X163985343Y-162095286D01*
X163989314Y-162345657D01*
X164076400Y-162345657D01*
X164080396Y-162117240D01*
X164084392Y-161888822D01*
X164126847Y-161866868D01*
X164158192Y-161851793D01*
X164176744Y-161844951D01*
X164177279Y-161844914D01*
X164179833Y-161858663D01*
G37*
X164179833Y-161858663D02*
X164182048Y-161896850D01*
X164183784Y-161954886D01*
X164184899Y-162028180D01*
X164185257Y-162105055D01*
X164185257Y-162365196D01*
X164139326Y-162411127D01*
X164107675Y-162439429D01*
X164079890Y-162450893D01*
X164041915Y-162450168D01*
X164026840Y-162448321D01*
X163979726Y-162442948D01*
X163940756Y-162439869D01*
X163931257Y-162439585D01*
X163899233Y-162441445D01*
X163853432Y-162446114D01*
X163835674Y-162448321D01*
X163792057Y-162451735D01*
X163762745Y-162444320D01*
X163733680Y-162421427D01*
X163723188Y-162411127D01*
X163677257Y-162365196D01*
X163677257Y-161878602D01*
X163714226Y-161861758D01*
X163746059Y-161849282D01*
X163764683Y-161844914D01*
X163769458Y-161858718D01*
X163773921Y-161897286D01*
X163777775Y-161956356D01*
X163780722Y-162031663D01*
X163782143Y-162095286D01*
X163786114Y-162345657D01*
X163820759Y-162350556D01*
X163852268Y-162347131D01*
X163867708Y-162336041D01*
X163872023Y-162315308D01*
X163875708Y-162271145D01*
X163878469Y-162209146D01*
X163880012Y-162134909D01*
X163880235Y-162096706D01*
X163880457Y-161876783D01*
X163926166Y-161860849D01*
X163958518Y-161850015D01*
X163976115Y-161844962D01*
X163976623Y-161844914D01*
X163978388Y-161858648D01*
X163980329Y-161896730D01*
X163982282Y-161954482D01*
X163984084Y-162027227D01*
X163985343Y-162095286D01*
X163989314Y-162345657D01*
X164076400Y-162345657D01*
X164080396Y-162117240D01*
X164084392Y-161888822D01*
X164126847Y-161866868D01*
X164158192Y-161851793D01*
X164176744Y-161844951D01*
X164177279Y-161844914D01*
X164179833Y-161858663D01*
G36*
X163590117Y-161965358D02*
G01*
X163589933Y-162073837D01*
X163589219Y-162157287D01*
X163587675Y-162219704D01*
X163585001Y-162265085D01*
X163580894Y-162297429D01*
X163575055Y-162320733D01*
X163567182Y-162338995D01*
X163561221Y-162349418D01*
X163511855Y-162405945D01*
X163449264Y-162441377D01*
X163380013Y-162454090D01*
X163310668Y-162442463D01*
X163269375Y-162421568D01*
X163226025Y-162385422D01*
X163196481Y-162341276D01*
X163178655Y-162283462D01*
X163170463Y-162206313D01*
X163169302Y-162149714D01*
X163169458Y-162145647D01*
X163270857Y-162145647D01*
X163271476Y-162210550D01*
X163274314Y-162253514D01*
X163280840Y-162281622D01*
X163292523Y-162301953D01*
X163306483Y-162317288D01*
X163353365Y-162346890D01*
X163403701Y-162349419D01*
X163451276Y-162324705D01*
X163454979Y-162321356D01*
X163470783Y-162303935D01*
X163480693Y-162283209D01*
X163486058Y-162252362D01*
X163488228Y-162204577D01*
X163488571Y-162151748D01*
X163487827Y-162085381D01*
X163484748Y-162041106D01*
X163478061Y-162012009D01*
X163466496Y-161991173D01*
X163457013Y-161980107D01*
X163412960Y-161952198D01*
X163362224Y-161948843D01*
X163313796Y-161970159D01*
X163304450Y-161978073D01*
X163288540Y-161995647D01*
X163278610Y-162016587D01*
X163273278Y-162047782D01*
X163271163Y-162096122D01*
X163270857Y-162145647D01*
X163169458Y-162145647D01*
X163172810Y-162058568D01*
X163184726Y-161990086D01*
X163207135Y-161938600D01*
X163242124Y-161898443D01*
X163269375Y-161877861D01*
X163318907Y-161855625D01*
X163376316Y-161845304D01*
X163429682Y-161848067D01*
X163459543Y-161859212D01*
X163471261Y-161862383D01*
X163479037Y-161850557D01*
X163484465Y-161818866D01*
X163488571Y-161770593D01*
X163493067Y-161716829D01*
X163499313Y-161684482D01*
X163510676Y-161665985D01*
X163530528Y-161653770D01*
X163543000Y-161648362D01*
X163590171Y-161628601D01*
X163590117Y-161965358D01*
G37*
X163590117Y-161965358D02*
X163589933Y-162073837D01*
X163589219Y-162157287D01*
X163587675Y-162219704D01*
X163585001Y-162265085D01*
X163580894Y-162297429D01*
X163575055Y-162320733D01*
X163567182Y-162338995D01*
X163561221Y-162349418D01*
X163511855Y-162405945D01*
X163449264Y-162441377D01*
X163380013Y-162454090D01*
X163310668Y-162442463D01*
X163269375Y-162421568D01*
X163226025Y-162385422D01*
X163196481Y-162341276D01*
X163178655Y-162283462D01*
X163170463Y-162206313D01*
X163169302Y-162149714D01*
X163169458Y-162145647D01*
X163270857Y-162145647D01*
X163271476Y-162210550D01*
X163274314Y-162253514D01*
X163280840Y-162281622D01*
X163292523Y-162301953D01*
X163306483Y-162317288D01*
X163353365Y-162346890D01*
X163403701Y-162349419D01*
X163451276Y-162324705D01*
X163454979Y-162321356D01*
X163470783Y-162303935D01*
X163480693Y-162283209D01*
X163486058Y-162252362D01*
X163488228Y-162204577D01*
X163488571Y-162151748D01*
X163487827Y-162085381D01*
X163484748Y-162041106D01*
X163478061Y-162012009D01*
X163466496Y-161991173D01*
X163457013Y-161980107D01*
X163412960Y-161952198D01*
X163362224Y-161948843D01*
X163313796Y-161970159D01*
X163304450Y-161978073D01*
X163288540Y-161995647D01*
X163278610Y-162016587D01*
X163273278Y-162047782D01*
X163271163Y-162096122D01*
X163270857Y-162145647D01*
X163169458Y-162145647D01*
X163172810Y-162058568D01*
X163184726Y-161990086D01*
X163207135Y-161938600D01*
X163242124Y-161898443D01*
X163269375Y-161877861D01*
X163318907Y-161855625D01*
X163376316Y-161845304D01*
X163429682Y-161848067D01*
X163459543Y-161859212D01*
X163471261Y-161862383D01*
X163479037Y-161850557D01*
X163484465Y-161818866D01*
X163488571Y-161770593D01*
X163493067Y-161716829D01*
X163499313Y-161684482D01*
X163510676Y-161665985D01*
X163530528Y-161653770D01*
X163543000Y-161648362D01*
X163590171Y-161628601D01*
X163590117Y-161965358D01*
G36*
X162929926Y-161849755D02*
G01*
X162995858Y-161874084D01*
X163049273Y-161917117D01*
X163070164Y-161947409D01*
X163092939Y-162002994D01*
X163092466Y-162043186D01*
X163068562Y-162070217D01*
X163059717Y-162074813D01*
X163021530Y-162089144D01*
X163002028Y-162085472D01*
X162995422Y-162061407D01*
X162995086Y-162048114D01*
X162982992Y-161999210D01*
X162951471Y-161964999D01*
X162907659Y-161948476D01*
X162858695Y-161952634D01*
X162818894Y-161974227D01*
X162805450Y-161986544D01*
X162795921Y-162001487D01*
X162789485Y-162024075D01*
X162785317Y-162059328D01*
X162782597Y-162112266D01*
X162780502Y-162187907D01*
X162779960Y-162211857D01*
X162777981Y-162293790D01*
X162775731Y-162351455D01*
X162772357Y-162389608D01*
X162767006Y-162413004D01*
X162758824Y-162426398D01*
X162746959Y-162434545D01*
X162739362Y-162438144D01*
X162707102Y-162450452D01*
X162688111Y-162454514D01*
X162681836Y-162440948D01*
X162678006Y-162399934D01*
X162676600Y-162330999D01*
X162677598Y-162233669D01*
X162677908Y-162218657D01*
X162680101Y-162129859D01*
X162682693Y-162065019D01*
X162686382Y-162019067D01*
X162691864Y-161986935D01*
X162699835Y-161963553D01*
X162710993Y-161943852D01*
X162716830Y-161935410D01*
X162750296Y-161898057D01*
X162787727Y-161869003D01*
X162792309Y-161866467D01*
X162859426Y-161846443D01*
X162929926Y-161849755D01*
G37*
X162929926Y-161849755D02*
X162995858Y-161874084D01*
X163049273Y-161917117D01*
X163070164Y-161947409D01*
X163092939Y-162002994D01*
X163092466Y-162043186D01*
X163068562Y-162070217D01*
X163059717Y-162074813D01*
X163021530Y-162089144D01*
X163002028Y-162085472D01*
X162995422Y-162061407D01*
X162995086Y-162048114D01*
X162982992Y-161999210D01*
X162951471Y-161964999D01*
X162907659Y-161948476D01*
X162858695Y-161952634D01*
X162818894Y-161974227D01*
X162805450Y-161986544D01*
X162795921Y-162001487D01*
X162789485Y-162024075D01*
X162785317Y-162059328D01*
X162782597Y-162112266D01*
X162780502Y-162187907D01*
X162779960Y-162211857D01*
X162777981Y-162293790D01*
X162775731Y-162351455D01*
X162772357Y-162389608D01*
X162767006Y-162413004D01*
X162758824Y-162426398D01*
X162746959Y-162434545D01*
X162739362Y-162438144D01*
X162707102Y-162450452D01*
X162688111Y-162454514D01*
X162681836Y-162440948D01*
X162678006Y-162399934D01*
X162676600Y-162330999D01*
X162677598Y-162233669D01*
X162677908Y-162218657D01*
X162680101Y-162129859D01*
X162682693Y-162065019D01*
X162686382Y-162019067D01*
X162691864Y-161986935D01*
X162699835Y-161963553D01*
X162710993Y-161943852D01*
X162716830Y-161935410D01*
X162750296Y-161898057D01*
X162787727Y-161869003D01*
X162792309Y-161866467D01*
X162859426Y-161846443D01*
X162929926Y-161849755D01*
G36*
X162439744Y-161850968D02*
G01*
X162496616Y-161872087D01*
X162497267Y-161872493D01*
X162532440Y-161898380D01*
X162558407Y-161928633D01*
X162576670Y-161968058D01*
X162588732Y-162021462D01*
X162596096Y-162093651D01*
X162600264Y-162189432D01*
X162600629Y-162203078D01*
X162605876Y-162408842D01*
X162561716Y-162431678D01*
X162529763Y-162447110D01*
X162510470Y-162454423D01*
X162509578Y-162454514D01*
X162506239Y-162441022D01*
X162503587Y-162404626D01*
X162501956Y-162351452D01*
X162501600Y-162308393D01*
X162501592Y-162238641D01*
X162498403Y-162194837D01*
X162487288Y-162173944D01*
X162463501Y-162172925D01*
X162422296Y-162188741D01*
X162360086Y-162217815D01*
X162314341Y-162241963D01*
X162290813Y-162262913D01*
X162283896Y-162285747D01*
X162283886Y-162286877D01*
X162295299Y-162326212D01*
X162329092Y-162347462D01*
X162380809Y-162350539D01*
X162418061Y-162350006D01*
X162437703Y-162360735D01*
X162449952Y-162386505D01*
X162457002Y-162419337D01*
X162446842Y-162437966D01*
X162443017Y-162440632D01*
X162407001Y-162451340D01*
X162356566Y-162452856D01*
X162304626Y-162445759D01*
X162267822Y-162432788D01*
X162216938Y-162389585D01*
X162188014Y-162329446D01*
X162182286Y-162282462D01*
X162186657Y-162240082D01*
X162202475Y-162205488D01*
X162233797Y-162174763D01*
X162284678Y-162143990D01*
X162359176Y-162109252D01*
X162363714Y-162107288D01*
X162430821Y-162076287D01*
X162472232Y-162050862D01*
X162489981Y-162028014D01*
X162486107Y-162004745D01*
X162462643Y-161978056D01*
X162455627Y-161971914D01*
X162408630Y-161948100D01*
X162359933Y-161949103D01*
X162317522Y-161972451D01*
X162289384Y-162015675D01*
X162286769Y-162024160D01*
X162261308Y-162065308D01*
X162229001Y-162085128D01*
X162182286Y-162104770D01*
X162182286Y-162053950D01*
X162196496Y-161980082D01*
X162238675Y-161912327D01*
X162260624Y-161889661D01*
X162310517Y-161860569D01*
X162373967Y-161847400D01*
X162439744Y-161850968D01*
G37*
X162439744Y-161850968D02*
X162496616Y-161872087D01*
X162497267Y-161872493D01*
X162532440Y-161898380D01*
X162558407Y-161928633D01*
X162576670Y-161968058D01*
X162588732Y-162021462D01*
X162596096Y-162093651D01*
X162600264Y-162189432D01*
X162600629Y-162203078D01*
X162605876Y-162408842D01*
X162561716Y-162431678D01*
X162529763Y-162447110D01*
X162510470Y-162454423D01*
X162509578Y-162454514D01*
X162506239Y-162441022D01*
X162503587Y-162404626D01*
X162501956Y-162351452D01*
X162501600Y-162308393D01*
X162501592Y-162238641D01*
X162498403Y-162194837D01*
X162487288Y-162173944D01*
X162463501Y-162172925D01*
X162422296Y-162188741D01*
X162360086Y-162217815D01*
X162314341Y-162241963D01*
X162290813Y-162262913D01*
X162283896Y-162285747D01*
X162283886Y-162286877D01*
X162295299Y-162326212D01*
X162329092Y-162347462D01*
X162380809Y-162350539D01*
X162418061Y-162350006D01*
X162437703Y-162360735D01*
X162449952Y-162386505D01*
X162457002Y-162419337D01*
X162446842Y-162437966D01*
X162443017Y-162440632D01*
X162407001Y-162451340D01*
X162356566Y-162452856D01*
X162304626Y-162445759D01*
X162267822Y-162432788D01*
X162216938Y-162389585D01*
X162188014Y-162329446D01*
X162182286Y-162282462D01*
X162186657Y-162240082D01*
X162202475Y-162205488D01*
X162233797Y-162174763D01*
X162284678Y-162143990D01*
X162359176Y-162109252D01*
X162363714Y-162107288D01*
X162430821Y-162076287D01*
X162472232Y-162050862D01*
X162489981Y-162028014D01*
X162486107Y-162004745D01*
X162462643Y-161978056D01*
X162455627Y-161971914D01*
X162408630Y-161948100D01*
X162359933Y-161949103D01*
X162317522Y-161972451D01*
X162289384Y-162015675D01*
X162286769Y-162024160D01*
X162261308Y-162065308D01*
X162229001Y-162085128D01*
X162182286Y-162104770D01*
X162182286Y-162053950D01*
X162196496Y-161980082D01*
X162238675Y-161912327D01*
X162260624Y-161889661D01*
X162310517Y-161860569D01*
X162373967Y-161847400D01*
X162439744Y-161850968D01*
G36*
X161775886Y-161751289D02*
G01*
X161780139Y-161810613D01*
X161785025Y-161845572D01*
X161791795Y-161860820D01*
X161801702Y-161861015D01*
X161804914Y-161859195D01*
X161847644Y-161846015D01*
X161903227Y-161846785D01*
X161959737Y-161860333D01*
X161995082Y-161877861D01*
X162031321Y-161905861D01*
X162057813Y-161937549D01*
X162075999Y-161977813D01*
X162087322Y-162031543D01*
X162093222Y-162103626D01*
X162095143Y-162198951D01*
X162095177Y-162217237D01*
X162095200Y-162422646D01*
X162049491Y-162438580D01*
X162017027Y-162449420D01*
X161999215Y-162454468D01*
X161998691Y-162454514D01*
X161996937Y-162440828D01*
X161995444Y-162403076D01*
X161994326Y-162346224D01*
X161993697Y-162275234D01*
X161993600Y-162232073D01*
X161993398Y-162146973D01*
X161992358Y-162085981D01*
X161989831Y-162044177D01*
X161985164Y-162016642D01*
X161977707Y-161998456D01*
X161966811Y-161984698D01*
X161960007Y-161978073D01*
X161913272Y-161951375D01*
X161862272Y-161949375D01*
X161816001Y-161971955D01*
X161807444Y-161980107D01*
X161794893Y-161995436D01*
X161786188Y-162013618D01*
X161780631Y-162039909D01*
X161777526Y-162079562D01*
X161776176Y-162137832D01*
X161775886Y-162218173D01*
X161775886Y-162422646D01*
X161730177Y-162438580D01*
X161697713Y-162449420D01*
X161679901Y-162454468D01*
X161679377Y-162454514D01*
X161678037Y-162440623D01*
X161676828Y-162401439D01*
X161675801Y-162340700D01*
X161675002Y-162262141D01*
X161674481Y-162169498D01*
X161674286Y-162066509D01*
X161674286Y-161669342D01*
X161721457Y-161649444D01*
X161768629Y-161629547D01*
X161775886Y-161751289D01*
G37*
X161775886Y-161751289D02*
X161780139Y-161810613D01*
X161785025Y-161845572D01*
X161791795Y-161860820D01*
X161801702Y-161861015D01*
X161804914Y-161859195D01*
X161847644Y-161846015D01*
X161903227Y-161846785D01*
X161959737Y-161860333D01*
X161995082Y-161877861D01*
X162031321Y-161905861D01*
X162057813Y-161937549D01*
X162075999Y-161977813D01*
X162087322Y-162031543D01*
X162093222Y-162103626D01*
X162095143Y-162198951D01*
X162095177Y-162217237D01*
X162095200Y-162422646D01*
X162049491Y-162438580D01*
X162017027Y-162449420D01*
X161999215Y-162454468D01*
X161998691Y-162454514D01*
X161996937Y-162440828D01*
X161995444Y-162403076D01*
X161994326Y-162346224D01*
X161993697Y-162275234D01*
X161993600Y-162232073D01*
X161993398Y-162146973D01*
X161992358Y-162085981D01*
X161989831Y-162044177D01*
X161985164Y-162016642D01*
X161977707Y-161998456D01*
X161966811Y-161984698D01*
X161960007Y-161978073D01*
X161913272Y-161951375D01*
X161862272Y-161949375D01*
X161816001Y-161971955D01*
X161807444Y-161980107D01*
X161794893Y-161995436D01*
X161786188Y-162013618D01*
X161780631Y-162039909D01*
X161777526Y-162079562D01*
X161776176Y-162137832D01*
X161775886Y-162218173D01*
X161775886Y-162422646D01*
X161730177Y-162438580D01*
X161697713Y-162449420D01*
X161679901Y-162454468D01*
X161679377Y-162454514D01*
X161678037Y-162440623D01*
X161676828Y-162401439D01*
X161675801Y-162340700D01*
X161675002Y-162262141D01*
X161674481Y-162169498D01*
X161674286Y-162066509D01*
X161674286Y-161669342D01*
X161721457Y-161649444D01*
X161768629Y-161629547D01*
X161775886Y-161751289D01*
G36*
X160568303Y-161831239D02*
G01*
X160625527Y-161869735D01*
X160669749Y-161925335D01*
X160696167Y-161996086D01*
X160701510Y-162048162D01*
X160700903Y-162069893D01*
X160695822Y-162086531D01*
X160681855Y-162101437D01*
X160654589Y-162117973D01*
X160609612Y-162139498D01*
X160542511Y-162169374D01*
X160542171Y-162169524D01*
X160480407Y-162197813D01*
X160429759Y-162222933D01*
X160395404Y-162242179D01*
X160382518Y-162252848D01*
X160382514Y-162252934D01*
X160393872Y-162276166D01*
X160420431Y-162301774D01*
X160450923Y-162320221D01*
X160466370Y-162323886D01*
X160508515Y-162311212D01*
X160544808Y-162279471D01*
X160562517Y-162244572D01*
X160579552Y-162218845D01*
X160612922Y-162189546D01*
X160652149Y-162164235D01*
X160686756Y-162150471D01*
X160693993Y-162149714D01*
X160702139Y-162162160D01*
X160702630Y-162193972D01*
X160696643Y-162236866D01*
X160685357Y-162282558D01*
X160669950Y-162322761D01*
X160669171Y-162324322D01*
X160622804Y-162389062D01*
X160562711Y-162433097D01*
X160494465Y-162454711D01*
X160423638Y-162452185D01*
X160355804Y-162423804D01*
X160352788Y-162421808D01*
X160299427Y-162373448D01*
X160264340Y-162310352D01*
X160244922Y-162227387D01*
X160242316Y-162204078D01*
X160237701Y-162094055D01*
X160243233Y-162042748D01*
X160382514Y-162042748D01*
X160384324Y-162074753D01*
X160394222Y-162084093D01*
X160418898Y-162077105D01*
X160457795Y-162060587D01*
X160501275Y-162039881D01*
X160502356Y-162039333D01*
X160539209Y-162019949D01*
X160554000Y-162007013D01*
X160550353Y-161993451D01*
X160534995Y-161975632D01*
X160495923Y-161949845D01*
X160453846Y-161947950D01*
X160416103Y-161966717D01*
X160390034Y-162002915D01*
X160382514Y-162042748D01*
X160243233Y-162042748D01*
X160247194Y-162006027D01*
X160271550Y-161936212D01*
X160305456Y-161887302D01*
X160366653Y-161837878D01*
X160434063Y-161813359D01*
X160502880Y-161811797D01*
X160568303Y-161831239D01*
G37*
X160568303Y-161831239D02*
X160625527Y-161869735D01*
X160669749Y-161925335D01*
X160696167Y-161996086D01*
X160701510Y-162048162D01*
X160700903Y-162069893D01*
X160695822Y-162086531D01*
X160681855Y-162101437D01*
X160654589Y-162117973D01*
X160609612Y-162139498D01*
X160542511Y-162169374D01*
X160542171Y-162169524D01*
X160480407Y-162197813D01*
X160429759Y-162222933D01*
X160395404Y-162242179D01*
X160382518Y-162252848D01*
X160382514Y-162252934D01*
X160393872Y-162276166D01*
X160420431Y-162301774D01*
X160450923Y-162320221D01*
X160466370Y-162323886D01*
X160508515Y-162311212D01*
X160544808Y-162279471D01*
X160562517Y-162244572D01*
X160579552Y-162218845D01*
X160612922Y-162189546D01*
X160652149Y-162164235D01*
X160686756Y-162150471D01*
X160693993Y-162149714D01*
X160702139Y-162162160D01*
X160702630Y-162193972D01*
X160696643Y-162236866D01*
X160685357Y-162282558D01*
X160669950Y-162322761D01*
X160669171Y-162324322D01*
X160622804Y-162389062D01*
X160562711Y-162433097D01*
X160494465Y-162454711D01*
X160423638Y-162452185D01*
X160355804Y-162423804D01*
X160352788Y-162421808D01*
X160299427Y-162373448D01*
X160264340Y-162310352D01*
X160244922Y-162227387D01*
X160242316Y-162204078D01*
X160237701Y-162094055D01*
X160243233Y-162042748D01*
X160382514Y-162042748D01*
X160384324Y-162074753D01*
X160394222Y-162084093D01*
X160418898Y-162077105D01*
X160457795Y-162060587D01*
X160501275Y-162039881D01*
X160502356Y-162039333D01*
X160539209Y-162019949D01*
X160554000Y-162007013D01*
X160550353Y-161993451D01*
X160534995Y-161975632D01*
X160495923Y-161949845D01*
X160453846Y-161947950D01*
X160416103Y-161966717D01*
X160390034Y-162002915D01*
X160382514Y-162042748D01*
X160243233Y-162042748D01*
X160247194Y-162006027D01*
X160271550Y-161936212D01*
X160305456Y-161887302D01*
X160366653Y-161837878D01*
X160434063Y-161813359D01*
X160502880Y-161811797D01*
X160568303Y-161831239D01*
G36*
X159441115Y-161821962D02*
G01*
X159509145Y-161857733D01*
X159559351Y-161915301D01*
X159577185Y-161952312D01*
X159591063Y-162007882D01*
X159598167Y-162078096D01*
X159598840Y-162154727D01*
X159593427Y-162229552D01*
X159582270Y-162294342D01*
X159565714Y-162340873D01*
X159560626Y-162348887D01*
X159500355Y-162408707D01*
X159428769Y-162444535D01*
X159351092Y-162455020D01*
X159272548Y-162438810D01*
X159250689Y-162429092D01*
X159208122Y-162399143D01*
X159170763Y-162359433D01*
X159167232Y-162354397D01*
X159152881Y-162330124D01*
X159143394Y-162304178D01*
X159137790Y-162270022D01*
X159135086Y-162221119D01*
X159134299Y-162150935D01*
X159134286Y-162135200D01*
X159134322Y-162130192D01*
X159279429Y-162130192D01*
X159280273Y-162196430D01*
X159283596Y-162240386D01*
X159290583Y-162268779D01*
X159302416Y-162288325D01*
X159308457Y-162294857D01*
X159343186Y-162319680D01*
X159376903Y-162318548D01*
X159410995Y-162297016D01*
X159431329Y-162274029D01*
X159443371Y-162240478D01*
X159450134Y-162187569D01*
X159450598Y-162181399D01*
X159451752Y-162085513D01*
X159439688Y-162014299D01*
X159414570Y-161968194D01*
X159376560Y-161947635D01*
X159362992Y-161946514D01*
X159327364Y-161952152D01*
X159302994Y-161971686D01*
X159288093Y-162009042D01*
X159280875Y-162068150D01*
X159279429Y-162130192D01*
X159134322Y-162130192D01*
X159134826Y-162060413D01*
X159137096Y-162008159D01*
X159142068Y-161971949D01*
X159150713Y-161945299D01*
X159164005Y-161921722D01*
X159166943Y-161917338D01*
X159216313Y-161858249D01*
X159270109Y-161823947D01*
X159335602Y-161810331D01*
X159357842Y-161809665D01*
X159441115Y-161821962D01*
G37*
X159441115Y-161821962D02*
X159509145Y-161857733D01*
X159559351Y-161915301D01*
X159577185Y-161952312D01*
X159591063Y-162007882D01*
X159598167Y-162078096D01*
X159598840Y-162154727D01*
X159593427Y-162229552D01*
X159582270Y-162294342D01*
X159565714Y-162340873D01*
X159560626Y-162348887D01*
X159500355Y-162408707D01*
X159428769Y-162444535D01*
X159351092Y-162455020D01*
X159272548Y-162438810D01*
X159250689Y-162429092D01*
X159208122Y-162399143D01*
X159170763Y-162359433D01*
X159167232Y-162354397D01*
X159152881Y-162330124D01*
X159143394Y-162304178D01*
X159137790Y-162270022D01*
X159135086Y-162221119D01*
X159134299Y-162150935D01*
X159134286Y-162135200D01*
X159134322Y-162130192D01*
X159279429Y-162130192D01*
X159280273Y-162196430D01*
X159283596Y-162240386D01*
X159290583Y-162268779D01*
X159302416Y-162288325D01*
X159308457Y-162294857D01*
X159343186Y-162319680D01*
X159376903Y-162318548D01*
X159410995Y-162297016D01*
X159431329Y-162274029D01*
X159443371Y-162240478D01*
X159450134Y-162187569D01*
X159450598Y-162181399D01*
X159451752Y-162085513D01*
X159439688Y-162014299D01*
X159414570Y-161968194D01*
X159376560Y-161947635D01*
X159362992Y-161946514D01*
X159327364Y-161952152D01*
X159302994Y-161971686D01*
X159288093Y-162009042D01*
X159280875Y-162068150D01*
X159279429Y-162130192D01*
X159134322Y-162130192D01*
X159134826Y-162060413D01*
X159137096Y-162008159D01*
X159142068Y-161971949D01*
X159150713Y-161945299D01*
X159164005Y-161921722D01*
X159166943Y-161917338D01*
X159216313Y-161858249D01*
X159270109Y-161823947D01*
X159335602Y-161810331D01*
X159357842Y-161809665D01*
X159441115Y-161821962D01*
G36*
X161116093Y-161827780D02*
G01*
X161162672Y-161854723D01*
X161195057Y-161881466D01*
X161218742Y-161909484D01*
X161235059Y-161943748D01*
X161245339Y-161989227D01*
X161250914Y-162050892D01*
X161253116Y-162133711D01*
X161253371Y-162193246D01*
X161253371Y-162412391D01*
X161191686Y-162440044D01*
X161130000Y-162467697D01*
X161122743Y-162227670D01*
X161119744Y-162138028D01*
X161116598Y-162072962D01*
X161112701Y-162028026D01*
X161107447Y-161998770D01*
X161100231Y-161980748D01*
X161090450Y-161969511D01*
X161087312Y-161967079D01*
X161039761Y-161948083D01*
X160991697Y-161955600D01*
X160963086Y-161975543D01*
X160951447Y-161989675D01*
X160943391Y-162008220D01*
X160938271Y-162036334D01*
X160935441Y-162079173D01*
X160934256Y-162141895D01*
X160934057Y-162207261D01*
X160934018Y-162289268D01*
X160932614Y-162347316D01*
X160927914Y-162386465D01*
X160917987Y-162411780D01*
X160900903Y-162428323D01*
X160874732Y-162441156D01*
X160839775Y-162454491D01*
X160801596Y-162469007D01*
X160806141Y-162211389D01*
X160807971Y-162118519D01*
X160810112Y-162049889D01*
X160813181Y-162000711D01*
X160817794Y-161966198D01*
X160824568Y-161941562D01*
X160834119Y-161922016D01*
X160845634Y-161904770D01*
X160901190Y-161849680D01*
X160968980Y-161817822D01*
X161042713Y-161810191D01*
X161116093Y-161827780D01*
G37*
X161116093Y-161827780D02*
X161162672Y-161854723D01*
X161195057Y-161881466D01*
X161218742Y-161909484D01*
X161235059Y-161943748D01*
X161245339Y-161989227D01*
X161250914Y-162050892D01*
X161253116Y-162133711D01*
X161253371Y-162193246D01*
X161253371Y-162412391D01*
X161191686Y-162440044D01*
X161130000Y-162467697D01*
X161122743Y-162227670D01*
X161119744Y-162138028D01*
X161116598Y-162072962D01*
X161112701Y-162028026D01*
X161107447Y-161998770D01*
X161100231Y-161980748D01*
X161090450Y-161969511D01*
X161087312Y-161967079D01*
X161039761Y-161948083D01*
X160991697Y-161955600D01*
X160963086Y-161975543D01*
X160951447Y-161989675D01*
X160943391Y-162008220D01*
X160938271Y-162036334D01*
X160935441Y-162079173D01*
X160934256Y-162141895D01*
X160934057Y-162207261D01*
X160934018Y-162289268D01*
X160932614Y-162347316D01*
X160927914Y-162386465D01*
X160917987Y-162411780D01*
X160900903Y-162428323D01*
X160874732Y-162441156D01*
X160839775Y-162454491D01*
X160801596Y-162469007D01*
X160806141Y-162211389D01*
X160807971Y-162118519D01*
X160810112Y-162049889D01*
X160813181Y-162000711D01*
X160817794Y-161966198D01*
X160824568Y-161941562D01*
X160834119Y-161922016D01*
X160845634Y-161904770D01*
X160901190Y-161849680D01*
X160968980Y-161817822D01*
X161042713Y-161810191D01*
X161116093Y-161827780D01*
G36*
X159999744Y-161819918D02*
G01*
X160055201Y-161847568D01*
X160104148Y-161898480D01*
X160117629Y-161917338D01*
X160132314Y-161942015D01*
X160141842Y-161968816D01*
X160147293Y-162004587D01*
X160149747Y-162056169D01*
X160150286Y-162124267D01*
X160147852Y-162217588D01*
X160139394Y-162287657D01*
X160123174Y-162339931D01*
X160097454Y-162379869D01*
X160060497Y-162412929D01*
X160057782Y-162414886D01*
X160021360Y-162434908D01*
X159977502Y-162444815D01*
X159921724Y-162447257D01*
X159831048Y-162447257D01*
X159831010Y-162535283D01*
X159830166Y-162584308D01*
X159825024Y-162613065D01*
X159811587Y-162630311D01*
X159785858Y-162644808D01*
X159779679Y-162647769D01*
X159750764Y-162661648D01*
X159728376Y-162670414D01*
X159711729Y-162671171D01*
X159700036Y-162661023D01*
X159692510Y-162637073D01*
X159688366Y-162596426D01*
X159686815Y-162536186D01*
X159687071Y-162453455D01*
X159688349Y-162345339D01*
X159688748Y-162313000D01*
X159690185Y-162201524D01*
X159691472Y-162128603D01*
X159830971Y-162128603D01*
X159831755Y-162190499D01*
X159835240Y-162230997D01*
X159843124Y-162257708D01*
X159857105Y-162278244D01*
X159866597Y-162288260D01*
X159905404Y-162317567D01*
X159939763Y-162319952D01*
X159975216Y-162295750D01*
X159976114Y-162294857D01*
X159990539Y-162276153D01*
X159999313Y-162250732D01*
X160003739Y-162211584D01*
X160005118Y-162151697D01*
X160005143Y-162138430D01*
X160001812Y-162055901D01*
X159990969Y-161998691D01*
X159971340Y-161963766D01*
X159941650Y-161948094D01*
X159924491Y-161946514D01*
X159883766Y-161953926D01*
X159855832Y-161978330D01*
X159839017Y-162022980D01*
X159831650Y-162091130D01*
X159830971Y-162128603D01*
X159691472Y-162128603D01*
X159691708Y-162115245D01*
X159693677Y-162050333D01*
X159696450Y-162002958D01*
X159700388Y-161969290D01*
X159705849Y-161945498D01*
X159713192Y-161927753D01*
X159722777Y-161912224D01*
X159726887Y-161906381D01*
X159781405Y-161851185D01*
X159850336Y-161819890D01*
X159930072Y-161811165D01*
X159999744Y-161819918D01*
G37*
X159999744Y-161819918D02*
X160055201Y-161847568D01*
X160104148Y-161898480D01*
X160117629Y-161917338D01*
X160132314Y-161942015D01*
X160141842Y-161968816D01*
X160147293Y-162004587D01*
X160149747Y-162056169D01*
X160150286Y-162124267D01*
X160147852Y-162217588D01*
X160139394Y-162287657D01*
X160123174Y-162339931D01*
X160097454Y-162379869D01*
X160060497Y-162412929D01*
X160057782Y-162414886D01*
X160021360Y-162434908D01*
X159977502Y-162444815D01*
X159921724Y-162447257D01*
X159831048Y-162447257D01*
X159831010Y-162535283D01*
X159830166Y-162584308D01*
X159825024Y-162613065D01*
X159811587Y-162630311D01*
X159785858Y-162644808D01*
X159779679Y-162647769D01*
X159750764Y-162661648D01*
X159728376Y-162670414D01*
X159711729Y-162671171D01*
X159700036Y-162661023D01*
X159692510Y-162637073D01*
X159688366Y-162596426D01*
X159686815Y-162536186D01*
X159687071Y-162453455D01*
X159688349Y-162345339D01*
X159688748Y-162313000D01*
X159690185Y-162201524D01*
X159691472Y-162128603D01*
X159830971Y-162128603D01*
X159831755Y-162190499D01*
X159835240Y-162230997D01*
X159843124Y-162257708D01*
X159857105Y-162278244D01*
X159866597Y-162288260D01*
X159905404Y-162317567D01*
X159939763Y-162319952D01*
X159975216Y-162295750D01*
X159976114Y-162294857D01*
X159990539Y-162276153D01*
X159999313Y-162250732D01*
X160003739Y-162211584D01*
X160005118Y-162151697D01*
X160005143Y-162138430D01*
X160001812Y-162055901D01*
X159990969Y-161998691D01*
X159971340Y-161963766D01*
X159941650Y-161948094D01*
X159924491Y-161946514D01*
X159883766Y-161953926D01*
X159855832Y-161978330D01*
X159839017Y-162022980D01*
X159831650Y-162091130D01*
X159830971Y-162128603D01*
X159691472Y-162128603D01*
X159691708Y-162115245D01*
X159693677Y-162050333D01*
X159696450Y-162002958D01*
X159700388Y-161969290D01*
X159705849Y-161945498D01*
X159713192Y-161927753D01*
X159722777Y-161912224D01*
X159726887Y-161906381D01*
X159781405Y-161851185D01*
X159850336Y-161819890D01*
X159930072Y-161811165D01*
X159999744Y-161819918D01*
D17*
%TO.C,HS1*%
X70900000Y-31000000D02*
X70900000Y-101200000D01*
X141100000Y-31000000D02*
X70900000Y-31000000D01*
X141100000Y-101200000D02*
X141100000Y-31000000D01*
X70900000Y-101200000D02*
X141100000Y-101200000D01*
%TO.C,DISP1*%
X138410000Y-111840000D02*
X138410000Y-147640000D01*
X141190000Y-111840000D02*
X138410000Y-111840000D01*
X141190000Y-147640000D02*
X141190000Y-111840000D01*
X138410000Y-147640000D02*
X141190000Y-147640000D01*
X55680000Y-154860000D02*
X141920000Y-154860000D01*
X141920000Y-154860000D02*
X141920000Y-104620000D01*
X141920000Y-104620000D02*
X55680000Y-104620000D01*
X55680000Y-104620000D02*
X55680000Y-154860000D01*
%TO.C,C17*%
X176411252Y-104890000D02*
X174988748Y-104890000D01*
X176411252Y-106710000D02*
X174988748Y-106710000D01*
%TO.C,C29*%
X137010000Y-145411252D02*
X137010000Y-143988748D01*
X135190000Y-145411252D02*
X135190000Y-143988748D01*
%TO.C,L2*%
X83100000Y-133600000D02*
X80100000Y-133600000D01*
X83100000Y-121000000D02*
X83100000Y-133600000D01*
X80100000Y-121000000D02*
X83100000Y-121000000D01*
X70500000Y-121000000D02*
X73500000Y-121000000D01*
X70500000Y-133600000D02*
X70500000Y-121000000D01*
X73500000Y-133600000D02*
X70500000Y-133600000D01*
%TO.C,C16*%
X67125000Y-99385000D02*
X67125000Y-98135000D01*
X67750000Y-98760000D02*
X66500000Y-98760000D01*
X66260000Y-91804437D02*
X65195563Y-90740000D01*
X66260000Y-100195563D02*
X65195563Y-101260000D01*
X66260000Y-100195563D02*
X66260000Y-97510000D01*
X66260000Y-91804437D02*
X66260000Y-94490000D01*
X65195563Y-90740000D02*
X55740000Y-90740000D01*
X65195563Y-101260000D02*
X55740000Y-101260000D01*
X55740000Y-101260000D02*
X55740000Y-97510000D01*
X55740000Y-90740000D02*
X55740000Y-94490000D01*
%TO.C,C18*%
X76025000Y-111085000D02*
X76025000Y-109835000D01*
X76650000Y-110460000D02*
X75400000Y-110460000D01*
X75160000Y-103504437D02*
X74095563Y-102440000D01*
X75160000Y-111895563D02*
X74095563Y-112960000D01*
X75160000Y-111895563D02*
X75160000Y-109210000D01*
X75160000Y-103504437D02*
X75160000Y-106190000D01*
X74095563Y-102440000D02*
X64640000Y-102440000D01*
X74095563Y-112960000D02*
X64640000Y-112960000D01*
X64640000Y-112960000D02*
X64640000Y-109210000D01*
X64640000Y-102440000D02*
X64640000Y-106190000D01*
D18*
%TO.C,C5*%
X164750000Y-50987500D02*
X164750000Y-56987500D01*
X157550000Y-50987500D02*
X164750000Y-50987500D01*
X157550000Y-56987500D02*
X157550000Y-50987500D01*
X164750000Y-56987500D02*
X157550000Y-56987500D01*
%TO.C,C6*%
X164850000Y-59350000D02*
X164850000Y-65350000D01*
X157650000Y-59350000D02*
X164850000Y-59350000D01*
X157650000Y-65350000D02*
X157650000Y-59350000D01*
X164850000Y-65350000D02*
X157650000Y-65350000D01*
%TO.C,C4*%
X153275000Y-48800000D02*
X147275000Y-48800000D01*
X153275000Y-41600000D02*
X153275000Y-48800000D01*
X147275000Y-41600000D02*
X153275000Y-41600000D01*
X147275000Y-48800000D02*
X147275000Y-41600000D01*
%TO.C,C2*%
X157650000Y-40262500D02*
X157650000Y-34262500D01*
X164850000Y-40262500D02*
X157650000Y-40262500D01*
X164850000Y-34262500D02*
X164850000Y-40262500D01*
X157650000Y-34262500D02*
X164850000Y-34262500D01*
%TO.C,C3*%
X157650000Y-48625000D02*
X157650000Y-42625000D01*
X164850000Y-48625000D02*
X157650000Y-48625000D01*
X164850000Y-42625000D02*
X164850000Y-48625000D01*
X157650000Y-42625000D02*
X164850000Y-42625000D01*
D17*
%TO.C,U5*%
X93760000Y-121970000D02*
X95575000Y-121970000D01*
X93760000Y-122210000D02*
X93760000Y-121970000D01*
X89900000Y-122210000D02*
X93760000Y-122210000D01*
X86040000Y-122210000D02*
X86040000Y-121970000D01*
X89900000Y-122210000D02*
X86040000Y-122210000D01*
X93760000Y-112990000D02*
X93760000Y-113230000D01*
X89900000Y-112990000D02*
X93760000Y-112990000D01*
X86040000Y-112990000D02*
X86040000Y-113230000D01*
X89900000Y-112990000D02*
X86040000Y-112990000D01*
D18*
%TO.C,J3*%
X177500000Y-67550000D02*
X177500000Y-61550000D01*
X179700000Y-67550000D02*
X179700000Y-61550000D01*
X177500000Y-61550000D02*
X179700000Y-61550000D01*
X179700000Y-67550000D02*
X177500000Y-67550000D01*
X167000000Y-70550000D02*
X167000000Y-58550000D01*
X178700000Y-70550000D02*
X171200000Y-70550000D01*
X178700000Y-58550000D02*
X171200000Y-58550000D01*
X178700000Y-70550000D02*
X178700000Y-58550000D01*
%TO.C,J8*%
X177500000Y-142025000D02*
X177500000Y-136025000D01*
X179700000Y-142025000D02*
X179700000Y-136025000D01*
X177500000Y-136025000D02*
X179700000Y-136025000D01*
X179700000Y-142025000D02*
X177500000Y-142025000D01*
X167000000Y-145025000D02*
X167000000Y-133025000D01*
X178700000Y-145025000D02*
X171200000Y-145025000D01*
X178700000Y-133025000D02*
X171200000Y-133025000D01*
X178700000Y-145025000D02*
X178700000Y-133025000D01*
%TO.C,J2*%
X177500000Y-52100000D02*
X177500000Y-46100000D01*
X179700000Y-52100000D02*
X179700000Y-46100000D01*
X177500000Y-46100000D02*
X179700000Y-46100000D01*
X179700000Y-52100000D02*
X177500000Y-52100000D01*
X167000000Y-55100000D02*
X167000000Y-43100000D01*
X178700000Y-55100000D02*
X171200000Y-55100000D01*
X178700000Y-43100000D02*
X171200000Y-43100000D01*
X178700000Y-55100000D02*
X178700000Y-43100000D01*
D17*
%TO.C,SW3*%
X151950000Y-143350000D02*
X150450000Y-143350000D01*
X147950000Y-144600000D02*
X147950000Y-149100000D01*
X150450000Y-150350000D02*
X151950000Y-150350000D01*
X154450000Y-149100000D02*
X154450000Y-144600000D01*
%TO.C,U1*%
X148590000Y-72435000D02*
X148115000Y-72435000D01*
X148115000Y-72435000D02*
X148115000Y-71960000D01*
X152860000Y-67215000D02*
X153335000Y-67215000D01*
X153335000Y-67215000D02*
X153335000Y-67690000D01*
X148590000Y-67215000D02*
X148115000Y-67215000D01*
X148115000Y-67215000D02*
X148115000Y-67690000D01*
X152860000Y-72435000D02*
X153335000Y-72435000D01*
%TO.C,U2*%
X161200000Y-76790000D02*
X159400000Y-76790000D01*
X159400000Y-80010000D02*
X161850000Y-80010000D01*
%TO.C,U6*%
X121985000Y-121850000D02*
X121985000Y-119900000D01*
X121985000Y-121850000D02*
X121985000Y-123800000D01*
X116865000Y-121850000D02*
X116865000Y-119900000D01*
X116865000Y-121850000D02*
X116865000Y-125300000D01*
D19*
%TO.C,U3*%
X153280000Y-101550000D02*
X153280000Y-88850000D01*
X148200000Y-101550000D02*
X148200000Y-88850000D01*
X178680000Y-88850000D02*
X143120000Y-88850000D01*
X178680000Y-86310000D02*
X178680000Y-104090000D01*
X143120000Y-86310000D02*
X178680000Y-86310000D01*
X143120000Y-104090000D02*
X143120000Y-86310000D01*
X178680000Y-104090000D02*
X143120000Y-104090000D01*
X178680000Y-101550000D02*
X143120000Y-101550000D01*
X145660000Y-101550000D02*
X145660000Y-88850000D01*
X173600000Y-91390000D02*
X178680000Y-91390000D01*
X173600000Y-99010000D02*
X178680000Y-99010000D01*
X173600000Y-91390000D02*
X173600000Y-99010000D01*
X179950000Y-99010000D02*
X178680000Y-99010000D01*
X179950000Y-91390000D02*
X179950000Y-99010000D01*
X178680000Y-91390000D02*
X179950000Y-91390000D01*
D17*
%TO.C,U8*%
X114265000Y-129350000D02*
X114265000Y-131150000D01*
X117485000Y-131150000D02*
X117485000Y-128700000D01*
D19*
%TO.C,TP2*%
X76025000Y-158250000D02*
G75*
G03*
X76025000Y-158250000I-1750000J0D01*
G01*
%TO.C,TP1*%
X175025000Y-80625000D02*
G75*
G03*
X175025000Y-80625000I-1750000J0D01*
G01*
D17*
%TO.C,R30*%
X65565000Y-130214564D02*
X65565000Y-129760436D01*
X67035000Y-130214564D02*
X67035000Y-129760436D01*
%TO.C,R36*%
X66985000Y-139440436D02*
X66985000Y-139894564D01*
X65515000Y-139440436D02*
X65515000Y-139894564D01*
%TO.C,R28*%
X65565000Y-126414564D02*
X65565000Y-125960436D01*
X67035000Y-126414564D02*
X67035000Y-125960436D01*
%TO.C,R16*%
X174639564Y-109135000D02*
X174185436Y-109135000D01*
X174639564Y-107665000D02*
X174185436Y-107665000D01*
%TO.C,R26*%
X165835000Y-119310436D02*
X165835000Y-119764564D01*
X164365000Y-119310436D02*
X164365000Y-119764564D01*
%TO.C,R4*%
X156164564Y-75160000D02*
X155710436Y-75160000D01*
X156164564Y-73690000D02*
X155710436Y-73690000D01*
%TO.C,R5*%
X147735000Y-75072936D02*
X147735000Y-75527064D01*
X146265000Y-75072936D02*
X146265000Y-75527064D01*
%TO.C,R39*%
X70485000Y-147235436D02*
X70485000Y-147689564D01*
X69015000Y-147235436D02*
X69015000Y-147689564D01*
%TO.C,R1*%
X153027064Y-37935000D02*
X152572936Y-37935000D01*
X153027064Y-36465000D02*
X152572936Y-36465000D01*
%TO.C,R33*%
X161625436Y-136195000D02*
X162079564Y-136195000D01*
X161625436Y-137665000D02*
X162079564Y-137665000D01*
%TO.C,R34*%
X157615000Y-138029564D02*
X157615000Y-137575436D01*
X159085000Y-138029564D02*
X159085000Y-137575436D01*
%TO.C,R24*%
X146477936Y-115890000D02*
X146932064Y-115890000D01*
X146477936Y-117360000D02*
X146932064Y-117360000D01*
%TO.C,R42*%
X157315000Y-152739564D02*
X157315000Y-152285436D01*
X158785000Y-152739564D02*
X158785000Y-152285436D01*
%TO.C,R25*%
X152232064Y-117435000D02*
X151777936Y-117435000D01*
X152232064Y-115965000D02*
X151777936Y-115965000D01*
%TO.C,R18*%
X140665000Y-109914564D02*
X140665000Y-109460436D01*
X142135000Y-109914564D02*
X142135000Y-109460436D01*
%TO.C,R41*%
X159640000Y-148589564D02*
X159640000Y-148135436D01*
X161110000Y-148589564D02*
X161110000Y-148135436D01*
%TO.C,R20*%
X146932064Y-114837500D02*
X146477936Y-114837500D01*
X146932064Y-113367500D02*
X146477936Y-113367500D01*
%TO.C,R21*%
X151777936Y-113430000D02*
X152232064Y-113430000D01*
X151777936Y-114900000D02*
X152232064Y-114900000D01*
%TO.C,R27*%
X142295000Y-120859564D02*
X142295000Y-120405436D01*
X143765000Y-120859564D02*
X143765000Y-120405436D01*
%TO.C,R31*%
X143445000Y-131582936D02*
X143445000Y-132037064D01*
X141975000Y-131582936D02*
X141975000Y-132037064D01*
%TO.C,R38*%
X144449564Y-141615000D02*
X143995436Y-141615000D01*
X144449564Y-140145000D02*
X143995436Y-140145000D01*
%TO.C,R37*%
X149455000Y-140025436D02*
X149455000Y-140479564D01*
X147985000Y-140025436D02*
X147985000Y-140479564D01*
%TO.C,R40*%
X144839564Y-149135000D02*
X144385436Y-149135000D01*
X144839564Y-147665000D02*
X144385436Y-147665000D01*
%TO.C,R13*%
X168035000Y-106360436D02*
X168035000Y-106814564D01*
X166565000Y-106360436D02*
X166565000Y-106814564D01*
%TO.C,R15*%
X169315000Y-107077064D02*
X169315000Y-106622936D01*
X170785000Y-107077064D02*
X170785000Y-106622936D01*
%TO.C,R17*%
X115472936Y-111865000D02*
X115927064Y-111865000D01*
X115472936Y-113335000D02*
X115927064Y-113335000D01*
%TO.C,R19*%
X127935000Y-112085436D02*
X127935000Y-112539564D01*
X126465000Y-112085436D02*
X126465000Y-112539564D01*
%TO.C,R3*%
X60239564Y-66435000D02*
X59785436Y-66435000D01*
X60239564Y-64965000D02*
X59785436Y-64965000D01*
%TO.C,R2*%
X60239564Y-63435000D02*
X59785436Y-63435000D01*
X60239564Y-61965000D02*
X59785436Y-61965000D01*
%TO.C,R29*%
X120735000Y-127985436D02*
X120735000Y-128439564D01*
X119265000Y-127985436D02*
X119265000Y-128439564D01*
%TO.C,R12*%
X165835000Y-106335436D02*
X165835000Y-106789564D01*
X164365000Y-106335436D02*
X164365000Y-106789564D01*
%TO.C,R14*%
X163335000Y-106660436D02*
X163335000Y-107114564D01*
X161865000Y-106660436D02*
X161865000Y-107114564D01*
%TO.C,R11*%
X145185000Y-106122936D02*
X145185000Y-106577064D01*
X143715000Y-106122936D02*
X143715000Y-106577064D01*
%TO.C,R6*%
X144752064Y-84784999D02*
X144297936Y-84784999D01*
X144752064Y-83314999D02*
X144297936Y-83314999D01*
%TO.C,R7*%
X148739564Y-84784999D02*
X148285436Y-84784999D01*
X148739564Y-83314999D02*
X148285436Y-83314999D01*
%TO.C,R8*%
X151140000Y-83989564D02*
X151140000Y-83535436D01*
X152610000Y-83989564D02*
X152610000Y-83535436D01*
%TO.C,R9*%
X153965000Y-83989564D02*
X153965000Y-83535436D01*
X155435000Y-83989564D02*
X155435000Y-83535436D01*
%TO.C,R10*%
X161089564Y-85785000D02*
X160635436Y-85785000D01*
X161089564Y-84315000D02*
X160635436Y-84315000D01*
%TO.C,R23*%
X161390000Y-115852064D02*
X161390000Y-115397936D01*
X162860000Y-115852064D02*
X162860000Y-115397936D01*
%TO.C,R22*%
X158715000Y-115852064D02*
X158715000Y-115397936D01*
X160185000Y-115852064D02*
X160185000Y-115397936D01*
%TO.C,R35*%
X114785000Y-139335436D02*
X114785000Y-139789564D01*
X113315000Y-139335436D02*
X113315000Y-139789564D01*
%TO.C,R32*%
X114785000Y-135122936D02*
X114785000Y-135577064D01*
X113315000Y-135122936D02*
X113315000Y-135577064D01*
%TO.C,Q6*%
X65430000Y-145855000D02*
X65430000Y-146785000D01*
X65430000Y-149015000D02*
X65430000Y-148085000D01*
X65430000Y-149015000D02*
X67590000Y-149015000D01*
X65430000Y-145855000D02*
X66890000Y-145855000D01*
%TO.C,Q4*%
X146000000Y-136960000D02*
X145070000Y-136960000D01*
X142840000Y-136960000D02*
X143770000Y-136960000D01*
X142840000Y-136960000D02*
X142840000Y-139120000D01*
X146000000Y-136960000D02*
X146000000Y-138420000D01*
%TO.C,Q5*%
X146270000Y-143850000D02*
X145340000Y-143850000D01*
X143110000Y-143850000D02*
X144040000Y-143850000D01*
X143110000Y-143850000D02*
X143110000Y-146010000D01*
X146270000Y-143850000D02*
X146270000Y-145310000D01*
%TO.C,Q1*%
X60780000Y-37875000D02*
X59280000Y-37875000D01*
X59280000Y-37875000D02*
X59280000Y-38145000D01*
X59280000Y-38145000D02*
X56450000Y-38145000D01*
X60780000Y-44775000D02*
X59280000Y-44775000D01*
X59280000Y-44775000D02*
X59280000Y-44505000D01*
X59280000Y-44505000D02*
X58180000Y-44505000D01*
%TO.C,Q3*%
X123140000Y-125620000D02*
X123140000Y-126550000D01*
X123140000Y-128780000D02*
X123140000Y-127850000D01*
X123140000Y-128780000D02*
X125300000Y-128780000D01*
X123140000Y-125620000D02*
X124600000Y-125620000D01*
%TO.C,Q2*%
X60480000Y-47175000D02*
X58980000Y-47175000D01*
X58980000Y-47175000D02*
X58980000Y-47445000D01*
X58980000Y-47445000D02*
X56150000Y-47445000D01*
X60480000Y-54075000D02*
X58980000Y-54075000D01*
X58980000Y-54075000D02*
X58980000Y-53805000D01*
X58980000Y-53805000D02*
X57880000Y-53805000D01*
%TO.C,L1*%
X162587122Y-71660000D02*
X161787878Y-71660000D01*
X162587122Y-70540000D02*
X161787878Y-70540000D01*
%TO.C,J7*%
X46192000Y-139193000D02*
X46146000Y-139146000D01*
X48490000Y-141490000D02*
X48454000Y-141455000D01*
X45976000Y-139386000D02*
X45941000Y-139351000D01*
X48284000Y-141695000D02*
X48238000Y-141648000D01*
X46192000Y-134113000D02*
X46146000Y-134066000D01*
X48490000Y-136410000D02*
X48454000Y-136375000D01*
X45976000Y-134306000D02*
X45941000Y-134271000D01*
X48284000Y-136615000D02*
X48238000Y-136568000D01*
X46192000Y-129033000D02*
X46146000Y-128986000D01*
X48490000Y-131330000D02*
X48454000Y-131295000D01*
X45976000Y-129226000D02*
X45941000Y-129191000D01*
X48284000Y-131535000D02*
X48238000Y-131488000D01*
X46192000Y-123953000D02*
X46146000Y-123906000D01*
X48490000Y-126250000D02*
X48454000Y-126215000D01*
X45976000Y-124146000D02*
X45941000Y-124111000D01*
X48284000Y-126455000D02*
X48238000Y-126408000D01*
X51735000Y-143020000D02*
X41825000Y-143020000D01*
X51735000Y-117500000D02*
X41825000Y-117500000D01*
X51735000Y-116495000D02*
X51735000Y-144025000D01*
X63800000Y-116495000D02*
X63800000Y-144025000D01*
X48895000Y-140420000D02*
G75*
G03*
X48895000Y-140420000I-1680000J0D01*
G01*
X48895000Y-135340000D02*
G75*
G03*
X48895000Y-135340000I-1680000J0D01*
G01*
X48895000Y-130260000D02*
G75*
G03*
X48895000Y-130260000I-1680000J0D01*
G01*
X48895000Y-125180000D02*
G75*
G03*
X48895000Y-125180000I-1680000J0D01*
G01*
X41825000Y-117500000D02*
X41825000Y-143020000D01*
X63800000Y-144025000D02*
X51735000Y-144025000D01*
X63800000Y-116495000D02*
X51735000Y-116495000D01*
X45534747Y-120128805D02*
G75*
G02*
X45680000Y-119416000I1680253J28805D01*
G01*
X46531958Y-118564574D02*
G75*
G02*
X47899000Y-118565000I683042J-1535426D01*
G01*
X48750426Y-119416958D02*
G75*
G02*
X48750000Y-120784000I-1535426J-683042D01*
G01*
X47898042Y-121635426D02*
G75*
G02*
X46531000Y-121635000I-683042J1535426D01*
G01*
X45680244Y-120783318D02*
G75*
G02*
X45535000Y-120100000I1534756J683318D01*
G01*
%TO.C,J1*%
X175295000Y-40855000D02*
X175295000Y-38195000D01*
X172695000Y-40855000D02*
X175295000Y-40855000D01*
X172695000Y-38195000D02*
X175295000Y-38195000D01*
X172695000Y-40855000D02*
X172695000Y-38195000D01*
X171425000Y-40855000D02*
X170095000Y-40855000D01*
X170095000Y-40855000D02*
X170095000Y-39525000D01*
%TO.C,J5*%
X148995000Y-105595000D02*
X148995000Y-108255000D01*
X154135000Y-105595000D02*
X148995000Y-105595000D01*
X154135000Y-108255000D02*
X148995000Y-108255000D01*
X154135000Y-105595000D02*
X154135000Y-108255000D01*
X155405000Y-105595000D02*
X156735000Y-105595000D01*
X156735000Y-105595000D02*
X156735000Y-106925000D01*
%TO.C,J6*%
X156815000Y-110420000D02*
X156815000Y-113080000D01*
X161955000Y-110420000D02*
X156815000Y-110420000D01*
X161955000Y-113080000D02*
X156815000Y-113080000D01*
X161955000Y-110420000D02*
X161955000Y-113080000D01*
X163225000Y-110420000D02*
X164555000Y-110420000D01*
X164555000Y-110420000D02*
X164555000Y-111750000D01*
D12*
%TO.C,FL1*%
X58400000Y-70000000D02*
X58400000Y-70000000D01*
X58200000Y-70000000D02*
X58200000Y-70000000D01*
D18*
X61025000Y-69000000D02*
X65800000Y-69000000D01*
X61025000Y-74600000D02*
X65775000Y-74600000D01*
D12*
X58200000Y-70000000D02*
G75*
G02*
X58400000Y-70000000I100000J0D01*
G01*
X58400000Y-70000000D02*
G75*
G02*
X58200000Y-70000000I-100000J0D01*
G01*
D17*
%TO.C,D4*%
X65940000Y-133820000D02*
X65940000Y-134750000D01*
X65940000Y-136980000D02*
X65940000Y-136050000D01*
X65940000Y-136980000D02*
X68100000Y-136980000D01*
X65940000Y-133820000D02*
X67400000Y-133820000D01*
%TO.C,D3*%
X66040000Y-116920000D02*
X66040000Y-117850000D01*
X66040000Y-120080000D02*
X66040000Y-119150000D01*
X66040000Y-120080000D02*
X68200000Y-120080000D01*
X66040000Y-116920000D02*
X67500000Y-116920000D01*
%TO.C,D2*%
X79900000Y-113550000D02*
X79900000Y-120050000D01*
X79900000Y-113550000D02*
X71500000Y-113550000D01*
X79900000Y-120050000D02*
X71500000Y-120050000D01*
%TO.C,D1*%
X63040000Y-61120000D02*
X63040000Y-62050000D01*
X63040000Y-64280000D02*
X63040000Y-63350000D01*
X63040000Y-64280000D02*
X65200000Y-64280000D01*
X63040000Y-61120000D02*
X64500000Y-61120000D01*
%TO.C,C10*%
X157690000Y-69711252D02*
X157690000Y-68288748D01*
X159510000Y-69711252D02*
X159510000Y-68288748D01*
%TO.C,C9*%
X155165000Y-68927064D02*
X155165000Y-68472936D01*
X156635000Y-68927064D02*
X156635000Y-68472936D01*
%TO.C,C8*%
X144965000Y-68827064D02*
X144965000Y-68372936D01*
X146435000Y-68827064D02*
X146435000Y-68372936D01*
%TO.C,C23*%
X67035000Y-122288748D02*
X67035000Y-122811252D01*
X65565000Y-122288748D02*
X65565000Y-122811252D01*
%TO.C,C28*%
X66388748Y-142265000D02*
X66911252Y-142265000D01*
X66388748Y-143735000D02*
X66911252Y-143735000D01*
%TO.C,C13*%
X151913748Y-76415000D02*
X153336252Y-76415000D01*
X151913748Y-78235000D02*
X153336252Y-78235000D01*
%TO.C,C11*%
X151810436Y-73690000D02*
X152264564Y-73690000D01*
X151810436Y-75160000D02*
X152264564Y-75160000D01*
%TO.C,C7*%
X153097936Y-64490000D02*
X153552064Y-64490000D01*
X153097936Y-65960000D02*
X153552064Y-65960000D01*
%TO.C,C12*%
X159922936Y-74415000D02*
X160377064Y-74415000D01*
X159922936Y-75885000D02*
X160377064Y-75885000D01*
%TO.C,C1*%
X148036252Y-38110000D02*
X146613748Y-38110000D01*
X148036252Y-36290000D02*
X146613748Y-36290000D01*
%TO.C,C14*%
X163265000Y-79477064D02*
X163265000Y-79022936D01*
X164735000Y-79477064D02*
X164735000Y-79022936D01*
%TO.C,C26*%
X161665000Y-133801252D02*
X161665000Y-133278748D01*
X163135000Y-133801252D02*
X163135000Y-133278748D01*
%TO.C,C32*%
X142340000Y-160886252D02*
X142340000Y-159463748D01*
X145060000Y-160886252D02*
X145060000Y-159463748D01*
%TO.C,C30*%
X156640000Y-146161252D02*
X156640000Y-145638748D01*
X158110000Y-146161252D02*
X158110000Y-145638748D01*
%TO.C,C19*%
X146463748Y-110815000D02*
X146986252Y-110815000D01*
X146463748Y-112285000D02*
X146986252Y-112285000D01*
%TO.C,C20*%
X152286252Y-112335000D02*
X151763748Y-112335000D01*
X152286252Y-110865000D02*
X151763748Y-110865000D01*
%TO.C,C31*%
X144885000Y-154013748D02*
X144885000Y-155436252D01*
X143065000Y-154013748D02*
X143065000Y-155436252D01*
%TO.C,C25*%
X93260000Y-123840000D02*
X90510000Y-123840000D01*
X84740000Y-123840000D02*
X87490000Y-123840000D01*
X84740000Y-131295563D02*
X84740000Y-123840000D01*
X93260000Y-131295563D02*
X93260000Y-123840000D01*
X92195563Y-132360000D02*
X90510000Y-132360000D01*
X85804437Y-132360000D02*
X87490000Y-132360000D01*
X85804437Y-132360000D02*
X84740000Y-131295563D01*
X92195563Y-132360000D02*
X93260000Y-131295563D01*
X86490000Y-133600000D02*
X86490000Y-132600000D01*
X85990000Y-133100000D02*
X86990000Y-133100000D01*
%TO.C,C21*%
X121811252Y-113435000D02*
X121288748Y-113435000D01*
X121811252Y-111965000D02*
X121288748Y-111965000D01*
%TO.C,C22*%
X120636252Y-117085000D02*
X120113748Y-117085000D01*
X120636252Y-115615000D02*
X120113748Y-115615000D01*
%TO.C,C24*%
X114936252Y-127885000D02*
X114413748Y-127885000D01*
X114936252Y-126415000D02*
X114413748Y-126415000D01*
%TO.C,C15*%
X65665000Y-83511252D02*
X65665000Y-82988748D01*
X67135000Y-83511252D02*
X67135000Y-82988748D01*
%TO.C,C27*%
X126160000Y-140760000D02*
X126160000Y-138010000D01*
X126160000Y-132240000D02*
X126160000Y-134990000D01*
X118704437Y-132240000D02*
X126160000Y-132240000D01*
X118704437Y-140760000D02*
X126160000Y-140760000D01*
X117640000Y-139695563D02*
X117640000Y-138010000D01*
X117640000Y-133304437D02*
X117640000Y-134990000D01*
X117640000Y-133304437D02*
X118704437Y-132240000D01*
X117640000Y-139695563D02*
X118704437Y-140760000D01*
X116400000Y-133990000D02*
X117400000Y-133990000D01*
X116900000Y-133490000D02*
X116900000Y-134490000D01*
%TD*%
%TO.C,J4*%
D19*
X54548666Y-76420980D02*
X54548666Y-77135266D01*
X54501047Y-77278123D01*
X54405809Y-77373361D01*
X54262952Y-77420980D01*
X54167714Y-77420980D01*
X55453428Y-76754314D02*
X55453428Y-77420980D01*
X55215333Y-76373361D02*
X54977238Y-77087647D01*
X55596285Y-77087647D01*
%TO.C,U9*%
X154888095Y-157802380D02*
X154888095Y-158611904D01*
X154935714Y-158707142D01*
X154983333Y-158754761D01*
X155078571Y-158802380D01*
X155269047Y-158802380D01*
X155364285Y-158754761D01*
X155411904Y-158707142D01*
X155459523Y-158611904D01*
X155459523Y-157802380D01*
X155983333Y-158802380D02*
X156173809Y-158802380D01*
X156269047Y-158754761D01*
X156316666Y-158707142D01*
X156411904Y-158564285D01*
X156459523Y-158373809D01*
X156459523Y-157992857D01*
X156411904Y-157897619D01*
X156364285Y-157850000D01*
X156269047Y-157802380D01*
X156078571Y-157802380D01*
X155983333Y-157850000D01*
X155935714Y-157897619D01*
X155888095Y-157992857D01*
X155888095Y-158230952D01*
X155935714Y-158326190D01*
X155983333Y-158373809D01*
X156078571Y-158421428D01*
X156269047Y-158421428D01*
X156364285Y-158373809D01*
X156411904Y-158326190D01*
X156459523Y-158230952D01*
%TO.C,SW2*%
X159104761Y-134133333D02*
X159152380Y-133990476D01*
X159152380Y-133752380D01*
X159104761Y-133657142D01*
X159057142Y-133609523D01*
X158961904Y-133561904D01*
X158866666Y-133561904D01*
X158771428Y-133609523D01*
X158723809Y-133657142D01*
X158676190Y-133752380D01*
X158628571Y-133942857D01*
X158580952Y-134038095D01*
X158533333Y-134085714D01*
X158438095Y-134133333D01*
X158342857Y-134133333D01*
X158247619Y-134085714D01*
X158200000Y-134038095D01*
X158152380Y-133942857D01*
X158152380Y-133704761D01*
X158200000Y-133561904D01*
X158152380Y-133228571D02*
X159152380Y-132990476D01*
X158438095Y-132800000D01*
X159152380Y-132609523D01*
X158152380Y-132371428D01*
X158247619Y-132038095D02*
X158200000Y-131990476D01*
X158152380Y-131895238D01*
X158152380Y-131657142D01*
X158200000Y-131561904D01*
X158247619Y-131514285D01*
X158342857Y-131466666D01*
X158438095Y-131466666D01*
X158580952Y-131514285D01*
X159152380Y-132085714D01*
X159152380Y-131466666D01*
%TO.C,U4*%
X167252380Y-115961904D02*
X168061904Y-115961904D01*
X168157142Y-115914285D01*
X168204761Y-115866666D01*
X168252380Y-115771428D01*
X168252380Y-115580952D01*
X168204761Y-115485714D01*
X168157142Y-115438095D01*
X168061904Y-115390476D01*
X167252380Y-115390476D01*
X167585714Y-114485714D02*
X168252380Y-114485714D01*
X167204761Y-114723809D02*
X167919047Y-114961904D01*
X167919047Y-114342857D01*
%TO.C,U7*%
X162488095Y-120902380D02*
X162488095Y-121711904D01*
X162535714Y-121807142D01*
X162583333Y-121854761D01*
X162678571Y-121902380D01*
X162869047Y-121902380D01*
X162964285Y-121854761D01*
X163011904Y-121807142D01*
X163059523Y-121711904D01*
X163059523Y-120902380D01*
X163440476Y-120902380D02*
X164107142Y-120902380D01*
X163678571Y-121902380D01*
%TO.C,SW1*%
D20*
X56018710Y-63749869D02*
X56056205Y-63637383D01*
X56056205Y-63449906D01*
X56018710Y-63374916D01*
X55981215Y-63337420D01*
X55906224Y-63299925D01*
X55831233Y-63299925D01*
X55756243Y-63337420D01*
X55718747Y-63374916D01*
X55681252Y-63449906D01*
X55643757Y-63599888D01*
X55606261Y-63674878D01*
X55568766Y-63712374D01*
X55493775Y-63749869D01*
X55418785Y-63749869D01*
X55343794Y-63712374D01*
X55306299Y-63674878D01*
X55268803Y-63599888D01*
X55268803Y-63412411D01*
X55306299Y-63299925D01*
X55268803Y-63037458D02*
X56056205Y-62849981D01*
X55493775Y-62700000D01*
X56056205Y-62550018D01*
X55268803Y-62362542D01*
X56056205Y-61650130D02*
X56056205Y-62100074D01*
X56056205Y-61875102D02*
X55268803Y-61875102D01*
X55381289Y-61950093D01*
X55456280Y-62025084D01*
X55493775Y-62100074D01*
%TO.C,DISP1*%
D19*
X91347619Y-156552380D02*
X91347619Y-155552380D01*
X91585714Y-155552380D01*
X91728571Y-155600000D01*
X91823809Y-155695238D01*
X91871428Y-155790476D01*
X91919047Y-155980952D01*
X91919047Y-156123809D01*
X91871428Y-156314285D01*
X91823809Y-156409523D01*
X91728571Y-156504761D01*
X91585714Y-156552380D01*
X91347619Y-156552380D01*
X92347619Y-156552380D02*
X92347619Y-155552380D01*
X92776190Y-156504761D02*
X92919047Y-156552380D01*
X93157142Y-156552380D01*
X93252380Y-156504761D01*
X93300000Y-156457142D01*
X93347619Y-156361904D01*
X93347619Y-156266666D01*
X93300000Y-156171428D01*
X93252380Y-156123809D01*
X93157142Y-156076190D01*
X92966666Y-156028571D01*
X92871428Y-155980952D01*
X92823809Y-155933333D01*
X92776190Y-155838095D01*
X92776190Y-155742857D01*
X92823809Y-155647619D01*
X92871428Y-155600000D01*
X92966666Y-155552380D01*
X93204761Y-155552380D01*
X93347619Y-155600000D01*
X93776190Y-156552380D02*
X93776190Y-155552380D01*
X94157142Y-155552380D01*
X94252380Y-155600000D01*
X94300000Y-155647619D01*
X94347619Y-155742857D01*
X94347619Y-155885714D01*
X94300000Y-155980952D01*
X94252380Y-156028571D01*
X94157142Y-156076190D01*
X93776190Y-156076190D01*
X95300000Y-156552380D02*
X94728571Y-156552380D01*
X95014285Y-156552380D02*
X95014285Y-155552380D01*
X94919047Y-155695238D01*
X94823809Y-155790476D01*
X94728571Y-155838095D01*
%TO.C,C17*%
X176557142Y-107857142D02*
X176509523Y-107904761D01*
X176366666Y-107952380D01*
X176271428Y-107952380D01*
X176128571Y-107904761D01*
X176033333Y-107809523D01*
X175985714Y-107714285D01*
X175938095Y-107523809D01*
X175938095Y-107380952D01*
X175985714Y-107190476D01*
X176033333Y-107095238D01*
X176128571Y-107000000D01*
X176271428Y-106952380D01*
X176366666Y-106952380D01*
X176509523Y-107000000D01*
X176557142Y-107047619D01*
X177509523Y-107952380D02*
X176938095Y-107952380D01*
X177223809Y-107952380D02*
X177223809Y-106952380D01*
X177128571Y-107095238D01*
X177033333Y-107190476D01*
X176938095Y-107238095D01*
X177842857Y-106952380D02*
X178509523Y-106952380D01*
X178080952Y-107952380D01*
%TO.C,C29*%
X134607142Y-145342857D02*
X134654761Y-145390476D01*
X134702380Y-145533333D01*
X134702380Y-145628571D01*
X134654761Y-145771428D01*
X134559523Y-145866666D01*
X134464285Y-145914285D01*
X134273809Y-145961904D01*
X134130952Y-145961904D01*
X133940476Y-145914285D01*
X133845238Y-145866666D01*
X133750000Y-145771428D01*
X133702380Y-145628571D01*
X133702380Y-145533333D01*
X133750000Y-145390476D01*
X133797619Y-145342857D01*
X133797619Y-144961904D02*
X133750000Y-144914285D01*
X133702380Y-144819047D01*
X133702380Y-144580952D01*
X133750000Y-144485714D01*
X133797619Y-144438095D01*
X133892857Y-144390476D01*
X133988095Y-144390476D01*
X134130952Y-144438095D01*
X134702380Y-145009523D01*
X134702380Y-144390476D01*
X134702380Y-143914285D02*
X134702380Y-143723809D01*
X134654761Y-143628571D01*
X134607142Y-143580952D01*
X134464285Y-143485714D01*
X134273809Y-143438095D01*
X133892857Y-143438095D01*
X133797619Y-143485714D01*
X133750000Y-143533333D01*
X133702380Y-143628571D01*
X133702380Y-143819047D01*
X133750000Y-143914285D01*
X133797619Y-143961904D01*
X133892857Y-144009523D01*
X134130952Y-144009523D01*
X134226190Y-143961904D01*
X134273809Y-143914285D01*
X134321428Y-143819047D01*
X134321428Y-143628571D01*
X134273809Y-143533333D01*
X134226190Y-143485714D01*
X134130952Y-143438095D01*
%TO.C,L2*%
X75533333Y-135352380D02*
X75057142Y-135352380D01*
X75057142Y-134352380D01*
X75819047Y-134447619D02*
X75866666Y-134400000D01*
X75961904Y-134352380D01*
X76200000Y-134352380D01*
X76295238Y-134400000D01*
X76342857Y-134447619D01*
X76390476Y-134542857D01*
X76390476Y-134638095D01*
X76342857Y-134780952D01*
X75771428Y-135352380D01*
X76390476Y-135352380D01*
%TO.C,C16*%
X60357142Y-102557142D02*
X60309523Y-102604761D01*
X60166666Y-102652380D01*
X60071428Y-102652380D01*
X59928571Y-102604761D01*
X59833333Y-102509523D01*
X59785714Y-102414285D01*
X59738095Y-102223809D01*
X59738095Y-102080952D01*
X59785714Y-101890476D01*
X59833333Y-101795238D01*
X59928571Y-101700000D01*
X60071428Y-101652380D01*
X60166666Y-101652380D01*
X60309523Y-101700000D01*
X60357142Y-101747619D01*
X61309523Y-102652380D02*
X60738095Y-102652380D01*
X61023809Y-102652380D02*
X61023809Y-101652380D01*
X60928571Y-101795238D01*
X60833333Y-101890476D01*
X60738095Y-101938095D01*
X62166666Y-101652380D02*
X61976190Y-101652380D01*
X61880952Y-101700000D01*
X61833333Y-101747619D01*
X61738095Y-101890476D01*
X61690476Y-102080952D01*
X61690476Y-102461904D01*
X61738095Y-102557142D01*
X61785714Y-102604761D01*
X61880952Y-102652380D01*
X62071428Y-102652380D01*
X62166666Y-102604761D01*
X62214285Y-102557142D01*
X62261904Y-102461904D01*
X62261904Y-102223809D01*
X62214285Y-102128571D01*
X62166666Y-102080952D01*
X62071428Y-102033333D01*
X61880952Y-102033333D01*
X61785714Y-102080952D01*
X61738095Y-102128571D01*
X61690476Y-102223809D01*
%TO.C,C18*%
X67457142Y-114357142D02*
X67409523Y-114404761D01*
X67266666Y-114452380D01*
X67171428Y-114452380D01*
X67028571Y-114404761D01*
X66933333Y-114309523D01*
X66885714Y-114214285D01*
X66838095Y-114023809D01*
X66838095Y-113880952D01*
X66885714Y-113690476D01*
X66933333Y-113595238D01*
X67028571Y-113500000D01*
X67171428Y-113452380D01*
X67266666Y-113452380D01*
X67409523Y-113500000D01*
X67457142Y-113547619D01*
X68409523Y-114452380D02*
X67838095Y-114452380D01*
X68123809Y-114452380D02*
X68123809Y-113452380D01*
X68028571Y-113595238D01*
X67933333Y-113690476D01*
X67838095Y-113738095D01*
X68980952Y-113880952D02*
X68885714Y-113833333D01*
X68838095Y-113785714D01*
X68790476Y-113690476D01*
X68790476Y-113642857D01*
X68838095Y-113547619D01*
X68885714Y-113500000D01*
X68980952Y-113452380D01*
X69171428Y-113452380D01*
X69266666Y-113500000D01*
X69314285Y-113547619D01*
X69361904Y-113642857D01*
X69361904Y-113690476D01*
X69314285Y-113785714D01*
X69266666Y-113833333D01*
X69171428Y-113880952D01*
X68980952Y-113880952D01*
X68885714Y-113928571D01*
X68838095Y-113976190D01*
X68790476Y-114071428D01*
X68790476Y-114261904D01*
X68838095Y-114357142D01*
X68885714Y-114404761D01*
X68980952Y-114452380D01*
X69171428Y-114452380D01*
X69266666Y-114404761D01*
X69314285Y-114357142D01*
X69361904Y-114261904D01*
X69361904Y-114071428D01*
X69314285Y-113976190D01*
X69266666Y-113928571D01*
X69171428Y-113880952D01*
%TO.C,C5*%
D11*
X160788333Y-50353571D02*
X160727857Y-50414047D01*
X160546428Y-50474523D01*
X160425476Y-50474523D01*
X160244047Y-50414047D01*
X160123095Y-50293095D01*
X160062619Y-50172142D01*
X160002142Y-49930238D01*
X160002142Y-49748809D01*
X160062619Y-49506904D01*
X160123095Y-49385952D01*
X160244047Y-49265000D01*
X160425476Y-49204523D01*
X160546428Y-49204523D01*
X160727857Y-49265000D01*
X160788333Y-49325476D01*
X161937380Y-49204523D02*
X161332619Y-49204523D01*
X161272142Y-49809285D01*
X161332619Y-49748809D01*
X161453571Y-49688333D01*
X161755952Y-49688333D01*
X161876904Y-49748809D01*
X161937380Y-49809285D01*
X161997857Y-49930238D01*
X161997857Y-50232619D01*
X161937380Y-50353571D01*
X161876904Y-50414047D01*
X161755952Y-50474523D01*
X161453571Y-50474523D01*
X161332619Y-50414047D01*
X161272142Y-50353571D01*
%TO.C,C6*%
X161038333Y-62803571D02*
X160977857Y-62864047D01*
X160796428Y-62924523D01*
X160675476Y-62924523D01*
X160494047Y-62864047D01*
X160373095Y-62743095D01*
X160312619Y-62622142D01*
X160252142Y-62380238D01*
X160252142Y-62198809D01*
X160312619Y-61956904D01*
X160373095Y-61835952D01*
X160494047Y-61715000D01*
X160675476Y-61654523D01*
X160796428Y-61654523D01*
X160977857Y-61715000D01*
X161038333Y-61775476D01*
X162126904Y-61654523D02*
X161885000Y-61654523D01*
X161764047Y-61715000D01*
X161703571Y-61775476D01*
X161582619Y-61956904D01*
X161522142Y-62198809D01*
X161522142Y-62682619D01*
X161582619Y-62803571D01*
X161643095Y-62864047D01*
X161764047Y-62924523D01*
X162005952Y-62924523D01*
X162126904Y-62864047D01*
X162187380Y-62803571D01*
X162247857Y-62682619D01*
X162247857Y-62380238D01*
X162187380Y-62259285D01*
X162126904Y-62198809D01*
X162005952Y-62138333D01*
X161764047Y-62138333D01*
X161643095Y-62198809D01*
X161582619Y-62259285D01*
X161522142Y-62380238D01*
%TO.C,C4*%
X145538333Y-45453571D02*
X145477857Y-45514047D01*
X145296428Y-45574523D01*
X145175476Y-45574523D01*
X144994047Y-45514047D01*
X144873095Y-45393095D01*
X144812619Y-45272142D01*
X144752142Y-45030238D01*
X144752142Y-44848809D01*
X144812619Y-44606904D01*
X144873095Y-44485952D01*
X144994047Y-44365000D01*
X145175476Y-44304523D01*
X145296428Y-44304523D01*
X145477857Y-44365000D01*
X145538333Y-44425476D01*
X146626904Y-44727857D02*
X146626904Y-45574523D01*
X146324523Y-44244047D02*
X146022142Y-45151190D01*
X146808333Y-45151190D01*
%TO.C,C2*%
X161038333Y-33553571D02*
X160977857Y-33614047D01*
X160796428Y-33674523D01*
X160675476Y-33674523D01*
X160494047Y-33614047D01*
X160373095Y-33493095D01*
X160312619Y-33372142D01*
X160252142Y-33130238D01*
X160252142Y-32948809D01*
X160312619Y-32706904D01*
X160373095Y-32585952D01*
X160494047Y-32465000D01*
X160675476Y-32404523D01*
X160796428Y-32404523D01*
X160977857Y-32465000D01*
X161038333Y-32525476D01*
X161522142Y-32525476D02*
X161582619Y-32465000D01*
X161703571Y-32404523D01*
X162005952Y-32404523D01*
X162126904Y-32465000D01*
X162187380Y-32525476D01*
X162247857Y-32646428D01*
X162247857Y-32767380D01*
X162187380Y-32948809D01*
X161461666Y-33674523D01*
X162247857Y-33674523D01*
%TO.C,C3*%
X160788333Y-42153571D02*
X160727857Y-42214047D01*
X160546428Y-42274523D01*
X160425476Y-42274523D01*
X160244047Y-42214047D01*
X160123095Y-42093095D01*
X160062619Y-41972142D01*
X160002142Y-41730238D01*
X160002142Y-41548809D01*
X160062619Y-41306904D01*
X160123095Y-41185952D01*
X160244047Y-41065000D01*
X160425476Y-41004523D01*
X160546428Y-41004523D01*
X160727857Y-41065000D01*
X160788333Y-41125476D01*
X161211666Y-41004523D02*
X161997857Y-41004523D01*
X161574523Y-41488333D01*
X161755952Y-41488333D01*
X161876904Y-41548809D01*
X161937380Y-41609285D01*
X161997857Y-41730238D01*
X161997857Y-42032619D01*
X161937380Y-42153571D01*
X161876904Y-42214047D01*
X161755952Y-42274523D01*
X161393095Y-42274523D01*
X161272142Y-42214047D01*
X161211666Y-42153571D01*
%TO.C,U5*%
D19*
X89038095Y-111352380D02*
X89038095Y-112161904D01*
X89085714Y-112257142D01*
X89133333Y-112304761D01*
X89228571Y-112352380D01*
X89419047Y-112352380D01*
X89514285Y-112304761D01*
X89561904Y-112257142D01*
X89609523Y-112161904D01*
X89609523Y-111352380D01*
X90561904Y-111352380D02*
X90085714Y-111352380D01*
X90038095Y-111828571D01*
X90085714Y-111780952D01*
X90180952Y-111733333D01*
X90419047Y-111733333D01*
X90514285Y-111780952D01*
X90561904Y-111828571D01*
X90609523Y-111923809D01*
X90609523Y-112161904D01*
X90561904Y-112257142D01*
X90514285Y-112304761D01*
X90419047Y-112352380D01*
X90180952Y-112352380D01*
X90085714Y-112304761D01*
X90038095Y-112257142D01*
%TO.C,J3*%
D11*
X164976666Y-68004523D02*
X164976666Y-68911666D01*
X164916190Y-69093095D01*
X164795238Y-69214047D01*
X164613809Y-69274523D01*
X164492857Y-69274523D01*
X165460476Y-68004523D02*
X166246666Y-68004523D01*
X165823333Y-68488333D01*
X166004761Y-68488333D01*
X166125714Y-68548809D01*
X166186190Y-68609285D01*
X166246666Y-68730238D01*
X166246666Y-69032619D01*
X166186190Y-69153571D01*
X166125714Y-69214047D01*
X166004761Y-69274523D01*
X165641904Y-69274523D01*
X165520952Y-69214047D01*
X165460476Y-69153571D01*
%TO.C,J8*%
X174676666Y-131004523D02*
X174676666Y-131911666D01*
X174616190Y-132093095D01*
X174495238Y-132214047D01*
X174313809Y-132274523D01*
X174192857Y-132274523D01*
X175462857Y-131548809D02*
X175341904Y-131488333D01*
X175281428Y-131427857D01*
X175220952Y-131306904D01*
X175220952Y-131246428D01*
X175281428Y-131125476D01*
X175341904Y-131065000D01*
X175462857Y-131004523D01*
X175704761Y-131004523D01*
X175825714Y-131065000D01*
X175886190Y-131125476D01*
X175946666Y-131246428D01*
X175946666Y-131306904D01*
X175886190Y-131427857D01*
X175825714Y-131488333D01*
X175704761Y-131548809D01*
X175462857Y-131548809D01*
X175341904Y-131609285D01*
X175281428Y-131669761D01*
X175220952Y-131790714D01*
X175220952Y-132032619D01*
X175281428Y-132153571D01*
X175341904Y-132214047D01*
X175462857Y-132274523D01*
X175704761Y-132274523D01*
X175825714Y-132214047D01*
X175886190Y-132153571D01*
X175946666Y-132032619D01*
X175946666Y-131790714D01*
X175886190Y-131669761D01*
X175825714Y-131609285D01*
X175704761Y-131548809D01*
%TO.C,J2*%
X176776666Y-41204523D02*
X176776666Y-42111666D01*
X176716190Y-42293095D01*
X176595238Y-42414047D01*
X176413809Y-42474523D01*
X176292857Y-42474523D01*
X177320952Y-41325476D02*
X177381428Y-41265000D01*
X177502380Y-41204523D01*
X177804761Y-41204523D01*
X177925714Y-41265000D01*
X177986190Y-41325476D01*
X178046666Y-41446428D01*
X178046666Y-41567380D01*
X177986190Y-41748809D01*
X177260476Y-42474523D01*
X178046666Y-42474523D01*
%TO.C,SW3*%
D19*
X155804761Y-148633333D02*
X155852380Y-148490476D01*
X155852380Y-148252380D01*
X155804761Y-148157142D01*
X155757142Y-148109523D01*
X155661904Y-148061904D01*
X155566666Y-148061904D01*
X155471428Y-148109523D01*
X155423809Y-148157142D01*
X155376190Y-148252380D01*
X155328571Y-148442857D01*
X155280952Y-148538095D01*
X155233333Y-148585714D01*
X155138095Y-148633333D01*
X155042857Y-148633333D01*
X154947619Y-148585714D01*
X154900000Y-148538095D01*
X154852380Y-148442857D01*
X154852380Y-148204761D01*
X154900000Y-148061904D01*
X154852380Y-147728571D02*
X155852380Y-147490476D01*
X155138095Y-147300000D01*
X155852380Y-147109523D01*
X154852380Y-146871428D01*
X154852380Y-146585714D02*
X154852380Y-145966666D01*
X155233333Y-146300000D01*
X155233333Y-146157142D01*
X155280952Y-146061904D01*
X155328571Y-146014285D01*
X155423809Y-145966666D01*
X155661904Y-145966666D01*
X155757142Y-146014285D01*
X155804761Y-146061904D01*
X155852380Y-146157142D01*
X155852380Y-146442857D01*
X155804761Y-146538095D01*
X155757142Y-146585714D01*
%TO.C,U1*%
X145838095Y-71052380D02*
X145838095Y-71861904D01*
X145885714Y-71957142D01*
X145933333Y-72004761D01*
X146028571Y-72052380D01*
X146219047Y-72052380D01*
X146314285Y-72004761D01*
X146361904Y-71957142D01*
X146409523Y-71861904D01*
X146409523Y-71052380D01*
X147409523Y-72052380D02*
X146838095Y-72052380D01*
X147123809Y-72052380D02*
X147123809Y-71052380D01*
X147028571Y-71195238D01*
X146933333Y-71290476D01*
X146838095Y-71338095D01*
%TO.C,U2*%
X159638095Y-80452380D02*
X159638095Y-81261904D01*
X159685714Y-81357142D01*
X159733333Y-81404761D01*
X159828571Y-81452380D01*
X160019047Y-81452380D01*
X160114285Y-81404761D01*
X160161904Y-81357142D01*
X160209523Y-81261904D01*
X160209523Y-80452380D01*
X160638095Y-80547619D02*
X160685714Y-80500000D01*
X160780952Y-80452380D01*
X161019047Y-80452380D01*
X161114285Y-80500000D01*
X161161904Y-80547619D01*
X161209523Y-80642857D01*
X161209523Y-80738095D01*
X161161904Y-80880952D01*
X160590476Y-81452380D01*
X161209523Y-81452380D01*
%TO.C,U6*%
X115352380Y-123261904D02*
X116161904Y-123261904D01*
X116257142Y-123214285D01*
X116304761Y-123166666D01*
X116352380Y-123071428D01*
X116352380Y-122880952D01*
X116304761Y-122785714D01*
X116257142Y-122738095D01*
X116161904Y-122690476D01*
X115352380Y-122690476D01*
X115352380Y-121785714D02*
X115352380Y-121976190D01*
X115400000Y-122071428D01*
X115447619Y-122119047D01*
X115590476Y-122214285D01*
X115780952Y-122261904D01*
X116161904Y-122261904D01*
X116257142Y-122214285D01*
X116304761Y-122166666D01*
X116352380Y-122071428D01*
X116352380Y-121880952D01*
X116304761Y-121785714D01*
X116257142Y-121738095D01*
X116161904Y-121690476D01*
X115923809Y-121690476D01*
X115828571Y-121738095D01*
X115780952Y-121785714D01*
X115733333Y-121880952D01*
X115733333Y-122071428D01*
X115780952Y-122166666D01*
X115828571Y-122214285D01*
X115923809Y-122261904D01*
%TO.C,U3*%
X175338095Y-84652380D02*
X175338095Y-85461904D01*
X175385714Y-85557142D01*
X175433333Y-85604761D01*
X175528571Y-85652380D01*
X175719047Y-85652380D01*
X175814285Y-85604761D01*
X175861904Y-85557142D01*
X175909523Y-85461904D01*
X175909523Y-84652380D01*
X176290476Y-84652380D02*
X176909523Y-84652380D01*
X176576190Y-85033333D01*
X176719047Y-85033333D01*
X176814285Y-85080952D01*
X176861904Y-85128571D01*
X176909523Y-85223809D01*
X176909523Y-85461904D01*
X176861904Y-85557142D01*
X176814285Y-85604761D01*
X176719047Y-85652380D01*
X176433333Y-85652380D01*
X176338095Y-85604761D01*
X176290476Y-85557142D01*
%TO.C,U8*%
X112338095Y-130952380D02*
X112338095Y-131761904D01*
X112385714Y-131857142D01*
X112433333Y-131904761D01*
X112528571Y-131952380D01*
X112719047Y-131952380D01*
X112814285Y-131904761D01*
X112861904Y-131857142D01*
X112909523Y-131761904D01*
X112909523Y-130952380D01*
X113528571Y-131380952D02*
X113433333Y-131333333D01*
X113385714Y-131285714D01*
X113338095Y-131190476D01*
X113338095Y-131142857D01*
X113385714Y-131047619D01*
X113433333Y-131000000D01*
X113528571Y-130952380D01*
X113719047Y-130952380D01*
X113814285Y-131000000D01*
X113861904Y-131047619D01*
X113909523Y-131142857D01*
X113909523Y-131190476D01*
X113861904Y-131285714D01*
X113814285Y-131333333D01*
X113719047Y-131380952D01*
X113528571Y-131380952D01*
X113433333Y-131428571D01*
X113385714Y-131476190D01*
X113338095Y-131571428D01*
X113338095Y-131761904D01*
X113385714Y-131857142D01*
X113433333Y-131904761D01*
X113528571Y-131952380D01*
X113719047Y-131952380D01*
X113814285Y-131904761D01*
X113861904Y-131857142D01*
X113909523Y-131761904D01*
X113909523Y-131571428D01*
X113861904Y-131476190D01*
X113814285Y-131428571D01*
X113719047Y-131380952D01*
%TO.C,TP2*%
X76638095Y-157752380D02*
X77209523Y-157752380D01*
X76923809Y-158752380D02*
X76923809Y-157752380D01*
X77542857Y-158752380D02*
X77542857Y-157752380D01*
X77923809Y-157752380D01*
X78019047Y-157800000D01*
X78066666Y-157847619D01*
X78114285Y-157942857D01*
X78114285Y-158085714D01*
X78066666Y-158180952D01*
X78019047Y-158228571D01*
X77923809Y-158276190D01*
X77542857Y-158276190D01*
X78495238Y-157847619D02*
X78542857Y-157800000D01*
X78638095Y-157752380D01*
X78876190Y-157752380D01*
X78971428Y-157800000D01*
X79019047Y-157847619D01*
X79066666Y-157942857D01*
X79066666Y-158038095D01*
X79019047Y-158180952D01*
X78447619Y-158752380D01*
X79066666Y-158752380D01*
%TO.C,TP1*%
X172013095Y-77327380D02*
X172584523Y-77327380D01*
X172298809Y-78327380D02*
X172298809Y-77327380D01*
X172917857Y-78327380D02*
X172917857Y-77327380D01*
X173298809Y-77327380D01*
X173394047Y-77375000D01*
X173441666Y-77422619D01*
X173489285Y-77517857D01*
X173489285Y-77660714D01*
X173441666Y-77755952D01*
X173394047Y-77803571D01*
X173298809Y-77851190D01*
X172917857Y-77851190D01*
X174441666Y-78327380D02*
X173870238Y-78327380D01*
X174155952Y-78327380D02*
X174155952Y-77327380D01*
X174060714Y-77470238D01*
X173965476Y-77565476D01*
X173870238Y-77613095D01*
%TO.C,R30*%
X68852380Y-130942857D02*
X68376190Y-131276190D01*
X68852380Y-131514285D02*
X67852380Y-131514285D01*
X67852380Y-131133333D01*
X67900000Y-131038095D01*
X67947619Y-130990476D01*
X68042857Y-130942857D01*
X68185714Y-130942857D01*
X68280952Y-130990476D01*
X68328571Y-131038095D01*
X68376190Y-131133333D01*
X68376190Y-131514285D01*
X67852380Y-130609523D02*
X67852380Y-129990476D01*
X68233333Y-130323809D01*
X68233333Y-130180952D01*
X68280952Y-130085714D01*
X68328571Y-130038095D01*
X68423809Y-129990476D01*
X68661904Y-129990476D01*
X68757142Y-130038095D01*
X68804761Y-130085714D01*
X68852380Y-130180952D01*
X68852380Y-130466666D01*
X68804761Y-130561904D01*
X68757142Y-130609523D01*
X67852380Y-129371428D02*
X67852380Y-129276190D01*
X67900000Y-129180952D01*
X67947619Y-129133333D01*
X68042857Y-129085714D01*
X68233333Y-129038095D01*
X68471428Y-129038095D01*
X68661904Y-129085714D01*
X68757142Y-129133333D01*
X68804761Y-129180952D01*
X68852380Y-129276190D01*
X68852380Y-129371428D01*
X68804761Y-129466666D01*
X68757142Y-129514285D01*
X68661904Y-129561904D01*
X68471428Y-129609523D01*
X68233333Y-129609523D01*
X68042857Y-129561904D01*
X67947619Y-129514285D01*
X67900000Y-129466666D01*
X67852380Y-129371428D01*
%TO.C,R36*%
X65152380Y-140242857D02*
X64676190Y-140576190D01*
X65152380Y-140814285D02*
X64152380Y-140814285D01*
X64152380Y-140433333D01*
X64200000Y-140338095D01*
X64247619Y-140290476D01*
X64342857Y-140242857D01*
X64485714Y-140242857D01*
X64580952Y-140290476D01*
X64628571Y-140338095D01*
X64676190Y-140433333D01*
X64676190Y-140814285D01*
X64152380Y-139909523D02*
X64152380Y-139290476D01*
X64533333Y-139623809D01*
X64533333Y-139480952D01*
X64580952Y-139385714D01*
X64628571Y-139338095D01*
X64723809Y-139290476D01*
X64961904Y-139290476D01*
X65057142Y-139338095D01*
X65104761Y-139385714D01*
X65152380Y-139480952D01*
X65152380Y-139766666D01*
X65104761Y-139861904D01*
X65057142Y-139909523D01*
X64152380Y-138433333D02*
X64152380Y-138623809D01*
X64200000Y-138719047D01*
X64247619Y-138766666D01*
X64390476Y-138861904D01*
X64580952Y-138909523D01*
X64961904Y-138909523D01*
X65057142Y-138861904D01*
X65104761Y-138814285D01*
X65152380Y-138719047D01*
X65152380Y-138528571D01*
X65104761Y-138433333D01*
X65057142Y-138385714D01*
X64961904Y-138338095D01*
X64723809Y-138338095D01*
X64628571Y-138385714D01*
X64580952Y-138433333D01*
X64533333Y-138528571D01*
X64533333Y-138719047D01*
X64580952Y-138814285D01*
X64628571Y-138861904D01*
X64723809Y-138909523D01*
%TO.C,R28*%
X65102380Y-126830357D02*
X64626190Y-127163690D01*
X65102380Y-127401785D02*
X64102380Y-127401785D01*
X64102380Y-127020833D01*
X64150000Y-126925595D01*
X64197619Y-126877976D01*
X64292857Y-126830357D01*
X64435714Y-126830357D01*
X64530952Y-126877976D01*
X64578571Y-126925595D01*
X64626190Y-127020833D01*
X64626190Y-127401785D01*
X64197619Y-126449404D02*
X64150000Y-126401785D01*
X64102380Y-126306547D01*
X64102380Y-126068452D01*
X64150000Y-125973214D01*
X64197619Y-125925595D01*
X64292857Y-125877976D01*
X64388095Y-125877976D01*
X64530952Y-125925595D01*
X65102380Y-126497023D01*
X65102380Y-125877976D01*
X64530952Y-125306547D02*
X64483333Y-125401785D01*
X64435714Y-125449404D01*
X64340476Y-125497023D01*
X64292857Y-125497023D01*
X64197619Y-125449404D01*
X64150000Y-125401785D01*
X64102380Y-125306547D01*
X64102380Y-125116071D01*
X64150000Y-125020833D01*
X64197619Y-124973214D01*
X64292857Y-124925595D01*
X64340476Y-124925595D01*
X64435714Y-124973214D01*
X64483333Y-125020833D01*
X64530952Y-125116071D01*
X64530952Y-125306547D01*
X64578571Y-125401785D01*
X64626190Y-125449404D01*
X64721428Y-125497023D01*
X64911904Y-125497023D01*
X65007142Y-125449404D01*
X65054761Y-125401785D01*
X65102380Y-125306547D01*
X65102380Y-125116071D01*
X65054761Y-125020833D01*
X65007142Y-124973214D01*
X64911904Y-124925595D01*
X64721428Y-124925595D01*
X64626190Y-124973214D01*
X64578571Y-125020833D01*
X64530952Y-125116071D01*
%TO.C,R16*%
X172357142Y-110502380D02*
X172023809Y-110026190D01*
X171785714Y-110502380D02*
X171785714Y-109502380D01*
X172166666Y-109502380D01*
X172261904Y-109550000D01*
X172309523Y-109597619D01*
X172357142Y-109692857D01*
X172357142Y-109835714D01*
X172309523Y-109930952D01*
X172261904Y-109978571D01*
X172166666Y-110026190D01*
X171785714Y-110026190D01*
X173309523Y-110502380D02*
X172738095Y-110502380D01*
X173023809Y-110502380D02*
X173023809Y-109502380D01*
X172928571Y-109645238D01*
X172833333Y-109740476D01*
X172738095Y-109788095D01*
X174166666Y-109502380D02*
X173976190Y-109502380D01*
X173880952Y-109550000D01*
X173833333Y-109597619D01*
X173738095Y-109740476D01*
X173690476Y-109930952D01*
X173690476Y-110311904D01*
X173738095Y-110407142D01*
X173785714Y-110454761D01*
X173880952Y-110502380D01*
X174071428Y-110502380D01*
X174166666Y-110454761D01*
X174214285Y-110407142D01*
X174261904Y-110311904D01*
X174261904Y-110073809D01*
X174214285Y-109978571D01*
X174166666Y-109930952D01*
X174071428Y-109883333D01*
X173880952Y-109883333D01*
X173785714Y-109930952D01*
X173738095Y-109978571D01*
X173690476Y-110073809D01*
%TO.C,R26*%
X167202380Y-120180357D02*
X166726190Y-120513690D01*
X167202380Y-120751785D02*
X166202380Y-120751785D01*
X166202380Y-120370833D01*
X166250000Y-120275595D01*
X166297619Y-120227976D01*
X166392857Y-120180357D01*
X166535714Y-120180357D01*
X166630952Y-120227976D01*
X166678571Y-120275595D01*
X166726190Y-120370833D01*
X166726190Y-120751785D01*
X166297619Y-119799404D02*
X166250000Y-119751785D01*
X166202380Y-119656547D01*
X166202380Y-119418452D01*
X166250000Y-119323214D01*
X166297619Y-119275595D01*
X166392857Y-119227976D01*
X166488095Y-119227976D01*
X166630952Y-119275595D01*
X167202380Y-119847023D01*
X167202380Y-119227976D01*
X166202380Y-118370833D02*
X166202380Y-118561309D01*
X166250000Y-118656547D01*
X166297619Y-118704166D01*
X166440476Y-118799404D01*
X166630952Y-118847023D01*
X167011904Y-118847023D01*
X167107142Y-118799404D01*
X167154761Y-118751785D01*
X167202380Y-118656547D01*
X167202380Y-118466071D01*
X167154761Y-118370833D01*
X167107142Y-118323214D01*
X167011904Y-118275595D01*
X166773809Y-118275595D01*
X166678571Y-118323214D01*
X166630952Y-118370833D01*
X166583333Y-118466071D01*
X166583333Y-118656547D01*
X166630952Y-118751785D01*
X166678571Y-118799404D01*
X166773809Y-118847023D01*
%TO.C,R4*%
X155770833Y-76527380D02*
X155437500Y-76051190D01*
X155199404Y-76527380D02*
X155199404Y-75527380D01*
X155580357Y-75527380D01*
X155675595Y-75575000D01*
X155723214Y-75622619D01*
X155770833Y-75717857D01*
X155770833Y-75860714D01*
X155723214Y-75955952D01*
X155675595Y-76003571D01*
X155580357Y-76051190D01*
X155199404Y-76051190D01*
X156627976Y-75860714D02*
X156627976Y-76527380D01*
X156389880Y-75479761D02*
X156151785Y-76194047D01*
X156770833Y-76194047D01*
%TO.C,R5*%
X145652380Y-75166666D02*
X145176190Y-75500000D01*
X145652380Y-75738095D02*
X144652380Y-75738095D01*
X144652380Y-75357142D01*
X144700000Y-75261904D01*
X144747619Y-75214285D01*
X144842857Y-75166666D01*
X144985714Y-75166666D01*
X145080952Y-75214285D01*
X145128571Y-75261904D01*
X145176190Y-75357142D01*
X145176190Y-75738095D01*
X144652380Y-74261904D02*
X144652380Y-74738095D01*
X145128571Y-74785714D01*
X145080952Y-74738095D01*
X145033333Y-74642857D01*
X145033333Y-74404761D01*
X145080952Y-74309523D01*
X145128571Y-74261904D01*
X145223809Y-74214285D01*
X145461904Y-74214285D01*
X145557142Y-74261904D01*
X145604761Y-74309523D01*
X145652380Y-74404761D01*
X145652380Y-74642857D01*
X145604761Y-74738095D01*
X145557142Y-74785714D01*
%TO.C,R39*%
X71852380Y-148105357D02*
X71376190Y-148438690D01*
X71852380Y-148676785D02*
X70852380Y-148676785D01*
X70852380Y-148295833D01*
X70900000Y-148200595D01*
X70947619Y-148152976D01*
X71042857Y-148105357D01*
X71185714Y-148105357D01*
X71280952Y-148152976D01*
X71328571Y-148200595D01*
X71376190Y-148295833D01*
X71376190Y-148676785D01*
X70852380Y-147772023D02*
X70852380Y-147152976D01*
X71233333Y-147486309D01*
X71233333Y-147343452D01*
X71280952Y-147248214D01*
X71328571Y-147200595D01*
X71423809Y-147152976D01*
X71661904Y-147152976D01*
X71757142Y-147200595D01*
X71804761Y-147248214D01*
X71852380Y-147343452D01*
X71852380Y-147629166D01*
X71804761Y-147724404D01*
X71757142Y-147772023D01*
X71852380Y-146676785D02*
X71852380Y-146486309D01*
X71804761Y-146391071D01*
X71757142Y-146343452D01*
X71614285Y-146248214D01*
X71423809Y-146200595D01*
X71042857Y-146200595D01*
X70947619Y-146248214D01*
X70900000Y-146295833D01*
X70852380Y-146391071D01*
X70852380Y-146581547D01*
X70900000Y-146676785D01*
X70947619Y-146724404D01*
X71042857Y-146772023D01*
X71280952Y-146772023D01*
X71376190Y-146724404D01*
X71423809Y-146676785D01*
X71471428Y-146581547D01*
X71471428Y-146391071D01*
X71423809Y-146295833D01*
X71376190Y-146248214D01*
X71280952Y-146200595D01*
%TO.C,R1*%
X152633333Y-39302380D02*
X152300000Y-38826190D01*
X152061904Y-39302380D02*
X152061904Y-38302380D01*
X152442857Y-38302380D01*
X152538095Y-38350000D01*
X152585714Y-38397619D01*
X152633333Y-38492857D01*
X152633333Y-38635714D01*
X152585714Y-38730952D01*
X152538095Y-38778571D01*
X152442857Y-38826190D01*
X152061904Y-38826190D01*
X153585714Y-39302380D02*
X153014285Y-39302380D01*
X153300000Y-39302380D02*
X153300000Y-38302380D01*
X153204761Y-38445238D01*
X153109523Y-38540476D01*
X153014285Y-38588095D01*
%TO.C,R33*%
X161057142Y-139052380D02*
X160723809Y-138576190D01*
X160485714Y-139052380D02*
X160485714Y-138052380D01*
X160866666Y-138052380D01*
X160961904Y-138100000D01*
X161009523Y-138147619D01*
X161057142Y-138242857D01*
X161057142Y-138385714D01*
X161009523Y-138480952D01*
X160961904Y-138528571D01*
X160866666Y-138576190D01*
X160485714Y-138576190D01*
X161390476Y-138052380D02*
X162009523Y-138052380D01*
X161676190Y-138433333D01*
X161819047Y-138433333D01*
X161914285Y-138480952D01*
X161961904Y-138528571D01*
X162009523Y-138623809D01*
X162009523Y-138861904D01*
X161961904Y-138957142D01*
X161914285Y-139004761D01*
X161819047Y-139052380D01*
X161533333Y-139052380D01*
X161438095Y-139004761D01*
X161390476Y-138957142D01*
X162342857Y-138052380D02*
X162961904Y-138052380D01*
X162628571Y-138433333D01*
X162771428Y-138433333D01*
X162866666Y-138480952D01*
X162914285Y-138528571D01*
X162961904Y-138623809D01*
X162961904Y-138861904D01*
X162914285Y-138957142D01*
X162866666Y-139004761D01*
X162771428Y-139052380D01*
X162485714Y-139052380D01*
X162390476Y-139004761D01*
X162342857Y-138957142D01*
%TO.C,R34*%
X157152380Y-138445357D02*
X156676190Y-138778690D01*
X157152380Y-139016785D02*
X156152380Y-139016785D01*
X156152380Y-138635833D01*
X156200000Y-138540595D01*
X156247619Y-138492976D01*
X156342857Y-138445357D01*
X156485714Y-138445357D01*
X156580952Y-138492976D01*
X156628571Y-138540595D01*
X156676190Y-138635833D01*
X156676190Y-139016785D01*
X156152380Y-138112023D02*
X156152380Y-137492976D01*
X156533333Y-137826309D01*
X156533333Y-137683452D01*
X156580952Y-137588214D01*
X156628571Y-137540595D01*
X156723809Y-137492976D01*
X156961904Y-137492976D01*
X157057142Y-137540595D01*
X157104761Y-137588214D01*
X157152380Y-137683452D01*
X157152380Y-137969166D01*
X157104761Y-138064404D01*
X157057142Y-138112023D01*
X156485714Y-136635833D02*
X157152380Y-136635833D01*
X156104761Y-136873928D02*
X156819047Y-137112023D01*
X156819047Y-136492976D01*
%TO.C,R24*%
X143057142Y-117052380D02*
X142723809Y-116576190D01*
X142485714Y-117052380D02*
X142485714Y-116052380D01*
X142866666Y-116052380D01*
X142961904Y-116100000D01*
X143009523Y-116147619D01*
X143057142Y-116242857D01*
X143057142Y-116385714D01*
X143009523Y-116480952D01*
X142961904Y-116528571D01*
X142866666Y-116576190D01*
X142485714Y-116576190D01*
X143438095Y-116147619D02*
X143485714Y-116100000D01*
X143580952Y-116052380D01*
X143819047Y-116052380D01*
X143914285Y-116100000D01*
X143961904Y-116147619D01*
X144009523Y-116242857D01*
X144009523Y-116338095D01*
X143961904Y-116480952D01*
X143390476Y-117052380D01*
X144009523Y-117052380D01*
X144866666Y-116385714D02*
X144866666Y-117052380D01*
X144628571Y-116004761D02*
X144390476Y-116719047D01*
X145009523Y-116719047D01*
%TO.C,R42*%
X156852380Y-153155357D02*
X156376190Y-153488690D01*
X156852380Y-153726785D02*
X155852380Y-153726785D01*
X155852380Y-153345833D01*
X155900000Y-153250595D01*
X155947619Y-153202976D01*
X156042857Y-153155357D01*
X156185714Y-153155357D01*
X156280952Y-153202976D01*
X156328571Y-153250595D01*
X156376190Y-153345833D01*
X156376190Y-153726785D01*
X156185714Y-152298214D02*
X156852380Y-152298214D01*
X155804761Y-152536309D02*
X156519047Y-152774404D01*
X156519047Y-152155357D01*
X155947619Y-151822023D02*
X155900000Y-151774404D01*
X155852380Y-151679166D01*
X155852380Y-151441071D01*
X155900000Y-151345833D01*
X155947619Y-151298214D01*
X156042857Y-151250595D01*
X156138095Y-151250595D01*
X156280952Y-151298214D01*
X156852380Y-151869642D01*
X156852380Y-151250595D01*
%TO.C,R25*%
X151362142Y-118802380D02*
X151028809Y-118326190D01*
X150790714Y-118802380D02*
X150790714Y-117802380D01*
X151171666Y-117802380D01*
X151266904Y-117850000D01*
X151314523Y-117897619D01*
X151362142Y-117992857D01*
X151362142Y-118135714D01*
X151314523Y-118230952D01*
X151266904Y-118278571D01*
X151171666Y-118326190D01*
X150790714Y-118326190D01*
X151743095Y-117897619D02*
X151790714Y-117850000D01*
X151885952Y-117802380D01*
X152124047Y-117802380D01*
X152219285Y-117850000D01*
X152266904Y-117897619D01*
X152314523Y-117992857D01*
X152314523Y-118088095D01*
X152266904Y-118230952D01*
X151695476Y-118802380D01*
X152314523Y-118802380D01*
X153219285Y-117802380D02*
X152743095Y-117802380D01*
X152695476Y-118278571D01*
X152743095Y-118230952D01*
X152838333Y-118183333D01*
X153076428Y-118183333D01*
X153171666Y-118230952D01*
X153219285Y-118278571D01*
X153266904Y-118373809D01*
X153266904Y-118611904D01*
X153219285Y-118707142D01*
X153171666Y-118754761D01*
X153076428Y-118802380D01*
X152838333Y-118802380D01*
X152743095Y-118754761D01*
X152695476Y-118707142D01*
%TO.C,R18*%
X140202380Y-110330357D02*
X139726190Y-110663690D01*
X140202380Y-110901785D02*
X139202380Y-110901785D01*
X139202380Y-110520833D01*
X139250000Y-110425595D01*
X139297619Y-110377976D01*
X139392857Y-110330357D01*
X139535714Y-110330357D01*
X139630952Y-110377976D01*
X139678571Y-110425595D01*
X139726190Y-110520833D01*
X139726190Y-110901785D01*
X140202380Y-109377976D02*
X140202380Y-109949404D01*
X140202380Y-109663690D02*
X139202380Y-109663690D01*
X139345238Y-109758928D01*
X139440476Y-109854166D01*
X139488095Y-109949404D01*
X139630952Y-108806547D02*
X139583333Y-108901785D01*
X139535714Y-108949404D01*
X139440476Y-108997023D01*
X139392857Y-108997023D01*
X139297619Y-108949404D01*
X139250000Y-108901785D01*
X139202380Y-108806547D01*
X139202380Y-108616071D01*
X139250000Y-108520833D01*
X139297619Y-108473214D01*
X139392857Y-108425595D01*
X139440476Y-108425595D01*
X139535714Y-108473214D01*
X139583333Y-108520833D01*
X139630952Y-108616071D01*
X139630952Y-108806547D01*
X139678571Y-108901785D01*
X139726190Y-108949404D01*
X139821428Y-108997023D01*
X140011904Y-108997023D01*
X140107142Y-108949404D01*
X140154761Y-108901785D01*
X140202380Y-108806547D01*
X140202380Y-108616071D01*
X140154761Y-108520833D01*
X140107142Y-108473214D01*
X140011904Y-108425595D01*
X139821428Y-108425595D01*
X139726190Y-108473214D01*
X139678571Y-108520833D01*
X139630952Y-108616071D01*
%TO.C,R41*%
X162552380Y-147342857D02*
X162076190Y-147676190D01*
X162552380Y-147914285D02*
X161552380Y-147914285D01*
X161552380Y-147533333D01*
X161600000Y-147438095D01*
X161647619Y-147390476D01*
X161742857Y-147342857D01*
X161885714Y-147342857D01*
X161980952Y-147390476D01*
X162028571Y-147438095D01*
X162076190Y-147533333D01*
X162076190Y-147914285D01*
X161885714Y-146485714D02*
X162552380Y-146485714D01*
X161504761Y-146723809D02*
X162219047Y-146961904D01*
X162219047Y-146342857D01*
X162552380Y-145438095D02*
X162552380Y-146009523D01*
X162552380Y-145723809D02*
X161552380Y-145723809D01*
X161695238Y-145819047D01*
X161790476Y-145914285D01*
X161838095Y-146009523D01*
%TO.C,R20*%
X143057142Y-114552380D02*
X142723809Y-114076190D01*
X142485714Y-114552380D02*
X142485714Y-113552380D01*
X142866666Y-113552380D01*
X142961904Y-113600000D01*
X143009523Y-113647619D01*
X143057142Y-113742857D01*
X143057142Y-113885714D01*
X143009523Y-113980952D01*
X142961904Y-114028571D01*
X142866666Y-114076190D01*
X142485714Y-114076190D01*
X143438095Y-113647619D02*
X143485714Y-113600000D01*
X143580952Y-113552380D01*
X143819047Y-113552380D01*
X143914285Y-113600000D01*
X143961904Y-113647619D01*
X144009523Y-113742857D01*
X144009523Y-113838095D01*
X143961904Y-113980952D01*
X143390476Y-114552380D01*
X144009523Y-114552380D01*
X144628571Y-113552380D02*
X144723809Y-113552380D01*
X144819047Y-113600000D01*
X144866666Y-113647619D01*
X144914285Y-113742857D01*
X144961904Y-113933333D01*
X144961904Y-114171428D01*
X144914285Y-114361904D01*
X144866666Y-114457142D01*
X144819047Y-114504761D01*
X144723809Y-114552380D01*
X144628571Y-114552380D01*
X144533333Y-114504761D01*
X144485714Y-114457142D01*
X144438095Y-114361904D01*
X144390476Y-114171428D01*
X144390476Y-113933333D01*
X144438095Y-113742857D01*
X144485714Y-113647619D01*
X144533333Y-113600000D01*
X144628571Y-113552380D01*
%TO.C,R21*%
X154357142Y-114652380D02*
X154023809Y-114176190D01*
X153785714Y-114652380D02*
X153785714Y-113652380D01*
X154166666Y-113652380D01*
X154261904Y-113700000D01*
X154309523Y-113747619D01*
X154357142Y-113842857D01*
X154357142Y-113985714D01*
X154309523Y-114080952D01*
X154261904Y-114128571D01*
X154166666Y-114176190D01*
X153785714Y-114176190D01*
X154738095Y-113747619D02*
X154785714Y-113700000D01*
X154880952Y-113652380D01*
X155119047Y-113652380D01*
X155214285Y-113700000D01*
X155261904Y-113747619D01*
X155309523Y-113842857D01*
X155309523Y-113938095D01*
X155261904Y-114080952D01*
X154690476Y-114652380D01*
X155309523Y-114652380D01*
X156261904Y-114652380D02*
X155690476Y-114652380D01*
X155976190Y-114652380D02*
X155976190Y-113652380D01*
X155880952Y-113795238D01*
X155785714Y-113890476D01*
X155690476Y-113938095D01*
%TO.C,R27*%
X145052380Y-120842857D02*
X144576190Y-121176190D01*
X145052380Y-121414285D02*
X144052380Y-121414285D01*
X144052380Y-121033333D01*
X144100000Y-120938095D01*
X144147619Y-120890476D01*
X144242857Y-120842857D01*
X144385714Y-120842857D01*
X144480952Y-120890476D01*
X144528571Y-120938095D01*
X144576190Y-121033333D01*
X144576190Y-121414285D01*
X144147619Y-120461904D02*
X144100000Y-120414285D01*
X144052380Y-120319047D01*
X144052380Y-120080952D01*
X144100000Y-119985714D01*
X144147619Y-119938095D01*
X144242857Y-119890476D01*
X144338095Y-119890476D01*
X144480952Y-119938095D01*
X145052380Y-120509523D01*
X145052380Y-119890476D01*
X144052380Y-119557142D02*
X144052380Y-118890476D01*
X145052380Y-119319047D01*
%TO.C,R31*%
X144812380Y-132942857D02*
X144336190Y-133276190D01*
X144812380Y-133514285D02*
X143812380Y-133514285D01*
X143812380Y-133133333D01*
X143860000Y-133038095D01*
X143907619Y-132990476D01*
X144002857Y-132942857D01*
X144145714Y-132942857D01*
X144240952Y-132990476D01*
X144288571Y-133038095D01*
X144336190Y-133133333D01*
X144336190Y-133514285D01*
X143812380Y-132609523D02*
X143812380Y-131990476D01*
X144193333Y-132323809D01*
X144193333Y-132180952D01*
X144240952Y-132085714D01*
X144288571Y-132038095D01*
X144383809Y-131990476D01*
X144621904Y-131990476D01*
X144717142Y-132038095D01*
X144764761Y-132085714D01*
X144812380Y-132180952D01*
X144812380Y-132466666D01*
X144764761Y-132561904D01*
X144717142Y-132609523D01*
X144812380Y-131038095D02*
X144812380Y-131609523D01*
X144812380Y-131323809D02*
X143812380Y-131323809D01*
X143955238Y-131419047D01*
X144050476Y-131514285D01*
X144098095Y-131609523D01*
%TO.C,R38*%
X142757142Y-143052380D02*
X142423809Y-142576190D01*
X142185714Y-143052380D02*
X142185714Y-142052380D01*
X142566666Y-142052380D01*
X142661904Y-142100000D01*
X142709523Y-142147619D01*
X142757142Y-142242857D01*
X142757142Y-142385714D01*
X142709523Y-142480952D01*
X142661904Y-142528571D01*
X142566666Y-142576190D01*
X142185714Y-142576190D01*
X143090476Y-142052380D02*
X143709523Y-142052380D01*
X143376190Y-142433333D01*
X143519047Y-142433333D01*
X143614285Y-142480952D01*
X143661904Y-142528571D01*
X143709523Y-142623809D01*
X143709523Y-142861904D01*
X143661904Y-142957142D01*
X143614285Y-143004761D01*
X143519047Y-143052380D01*
X143233333Y-143052380D01*
X143138095Y-143004761D01*
X143090476Y-142957142D01*
X144280952Y-142480952D02*
X144185714Y-142433333D01*
X144138095Y-142385714D01*
X144090476Y-142290476D01*
X144090476Y-142242857D01*
X144138095Y-142147619D01*
X144185714Y-142100000D01*
X144280952Y-142052380D01*
X144471428Y-142052380D01*
X144566666Y-142100000D01*
X144614285Y-142147619D01*
X144661904Y-142242857D01*
X144661904Y-142290476D01*
X144614285Y-142385714D01*
X144566666Y-142433333D01*
X144471428Y-142480952D01*
X144280952Y-142480952D01*
X144185714Y-142528571D01*
X144138095Y-142576190D01*
X144090476Y-142671428D01*
X144090476Y-142861904D01*
X144138095Y-142957142D01*
X144185714Y-143004761D01*
X144280952Y-143052380D01*
X144471428Y-143052380D01*
X144566666Y-143004761D01*
X144614285Y-142957142D01*
X144661904Y-142861904D01*
X144661904Y-142671428D01*
X144614285Y-142576190D01*
X144566666Y-142528571D01*
X144471428Y-142480952D01*
%TO.C,R37*%
X150822380Y-140895357D02*
X150346190Y-141228690D01*
X150822380Y-141466785D02*
X149822380Y-141466785D01*
X149822380Y-141085833D01*
X149870000Y-140990595D01*
X149917619Y-140942976D01*
X150012857Y-140895357D01*
X150155714Y-140895357D01*
X150250952Y-140942976D01*
X150298571Y-140990595D01*
X150346190Y-141085833D01*
X150346190Y-141466785D01*
X149822380Y-140562023D02*
X149822380Y-139942976D01*
X150203333Y-140276309D01*
X150203333Y-140133452D01*
X150250952Y-140038214D01*
X150298571Y-139990595D01*
X150393809Y-139942976D01*
X150631904Y-139942976D01*
X150727142Y-139990595D01*
X150774761Y-140038214D01*
X150822380Y-140133452D01*
X150822380Y-140419166D01*
X150774761Y-140514404D01*
X150727142Y-140562023D01*
X149822380Y-139609642D02*
X149822380Y-138942976D01*
X150822380Y-139371547D01*
%TO.C,R40*%
X145357142Y-150652380D02*
X145023809Y-150176190D01*
X144785714Y-150652380D02*
X144785714Y-149652380D01*
X145166666Y-149652380D01*
X145261904Y-149700000D01*
X145309523Y-149747619D01*
X145357142Y-149842857D01*
X145357142Y-149985714D01*
X145309523Y-150080952D01*
X145261904Y-150128571D01*
X145166666Y-150176190D01*
X144785714Y-150176190D01*
X146214285Y-149985714D02*
X146214285Y-150652380D01*
X145976190Y-149604761D02*
X145738095Y-150319047D01*
X146357142Y-150319047D01*
X146928571Y-149652380D02*
X147023809Y-149652380D01*
X147119047Y-149700000D01*
X147166666Y-149747619D01*
X147214285Y-149842857D01*
X147261904Y-150033333D01*
X147261904Y-150271428D01*
X147214285Y-150461904D01*
X147166666Y-150557142D01*
X147119047Y-150604761D01*
X147023809Y-150652380D01*
X146928571Y-150652380D01*
X146833333Y-150604761D01*
X146785714Y-150557142D01*
X146738095Y-150461904D01*
X146690476Y-150271428D01*
X146690476Y-150033333D01*
X146738095Y-149842857D01*
X146785714Y-149747619D01*
X146833333Y-149700000D01*
X146928571Y-149652380D01*
%TO.C,R13*%
X167652380Y-111442857D02*
X167176190Y-111776190D01*
X167652380Y-112014285D02*
X166652380Y-112014285D01*
X166652380Y-111633333D01*
X166700000Y-111538095D01*
X166747619Y-111490476D01*
X166842857Y-111442857D01*
X166985714Y-111442857D01*
X167080952Y-111490476D01*
X167128571Y-111538095D01*
X167176190Y-111633333D01*
X167176190Y-112014285D01*
X167652380Y-110490476D02*
X167652380Y-111061904D01*
X167652380Y-110776190D02*
X166652380Y-110776190D01*
X166795238Y-110871428D01*
X166890476Y-110966666D01*
X166938095Y-111061904D01*
X166652380Y-110157142D02*
X166652380Y-109538095D01*
X167033333Y-109871428D01*
X167033333Y-109728571D01*
X167080952Y-109633333D01*
X167128571Y-109585714D01*
X167223809Y-109538095D01*
X167461904Y-109538095D01*
X167557142Y-109585714D01*
X167604761Y-109633333D01*
X167652380Y-109728571D01*
X167652380Y-110014285D01*
X167604761Y-110109523D01*
X167557142Y-110157142D01*
%TO.C,R15*%
X172252380Y-106442857D02*
X171776190Y-106776190D01*
X172252380Y-107014285D02*
X171252380Y-107014285D01*
X171252380Y-106633333D01*
X171300000Y-106538095D01*
X171347619Y-106490476D01*
X171442857Y-106442857D01*
X171585714Y-106442857D01*
X171680952Y-106490476D01*
X171728571Y-106538095D01*
X171776190Y-106633333D01*
X171776190Y-107014285D01*
X172252380Y-105490476D02*
X172252380Y-106061904D01*
X172252380Y-105776190D02*
X171252380Y-105776190D01*
X171395238Y-105871428D01*
X171490476Y-105966666D01*
X171538095Y-106061904D01*
X171252380Y-104585714D02*
X171252380Y-105061904D01*
X171728571Y-105109523D01*
X171680952Y-105061904D01*
X171633333Y-104966666D01*
X171633333Y-104728571D01*
X171680952Y-104633333D01*
X171728571Y-104585714D01*
X171823809Y-104538095D01*
X172061904Y-104538095D01*
X172157142Y-104585714D01*
X172204761Y-104633333D01*
X172252380Y-104728571D01*
X172252380Y-104966666D01*
X172204761Y-105061904D01*
X172157142Y-105109523D01*
%TO.C,R17*%
X115057142Y-111402380D02*
X114723809Y-110926190D01*
X114485714Y-111402380D02*
X114485714Y-110402380D01*
X114866666Y-110402380D01*
X114961904Y-110450000D01*
X115009523Y-110497619D01*
X115057142Y-110592857D01*
X115057142Y-110735714D01*
X115009523Y-110830952D01*
X114961904Y-110878571D01*
X114866666Y-110926190D01*
X114485714Y-110926190D01*
X116009523Y-111402380D02*
X115438095Y-111402380D01*
X115723809Y-111402380D02*
X115723809Y-110402380D01*
X115628571Y-110545238D01*
X115533333Y-110640476D01*
X115438095Y-110688095D01*
X116342857Y-110402380D02*
X117009523Y-110402380D01*
X116580952Y-111402380D01*
%TO.C,R19*%
X129302380Y-112955357D02*
X128826190Y-113288690D01*
X129302380Y-113526785D02*
X128302380Y-113526785D01*
X128302380Y-113145833D01*
X128350000Y-113050595D01*
X128397619Y-113002976D01*
X128492857Y-112955357D01*
X128635714Y-112955357D01*
X128730952Y-113002976D01*
X128778571Y-113050595D01*
X128826190Y-113145833D01*
X128826190Y-113526785D01*
X129302380Y-112002976D02*
X129302380Y-112574404D01*
X129302380Y-112288690D02*
X128302380Y-112288690D01*
X128445238Y-112383928D01*
X128540476Y-112479166D01*
X128588095Y-112574404D01*
X129302380Y-111526785D02*
X129302380Y-111336309D01*
X129254761Y-111241071D01*
X129207142Y-111193452D01*
X129064285Y-111098214D01*
X128873809Y-111050595D01*
X128492857Y-111050595D01*
X128397619Y-111098214D01*
X128350000Y-111145833D01*
X128302380Y-111241071D01*
X128302380Y-111431547D01*
X128350000Y-111526785D01*
X128397619Y-111574404D01*
X128492857Y-111622023D01*
X128730952Y-111622023D01*
X128826190Y-111574404D01*
X128873809Y-111526785D01*
X128921428Y-111431547D01*
X128921428Y-111241071D01*
X128873809Y-111145833D01*
X128826190Y-111098214D01*
X128730952Y-111050595D01*
%TO.C,R3*%
X59845833Y-67802380D02*
X59512500Y-67326190D01*
X59274404Y-67802380D02*
X59274404Y-66802380D01*
X59655357Y-66802380D01*
X59750595Y-66850000D01*
X59798214Y-66897619D01*
X59845833Y-66992857D01*
X59845833Y-67135714D01*
X59798214Y-67230952D01*
X59750595Y-67278571D01*
X59655357Y-67326190D01*
X59274404Y-67326190D01*
X60179166Y-66802380D02*
X60798214Y-66802380D01*
X60464880Y-67183333D01*
X60607738Y-67183333D01*
X60702976Y-67230952D01*
X60750595Y-67278571D01*
X60798214Y-67373809D01*
X60798214Y-67611904D01*
X60750595Y-67707142D01*
X60702976Y-67754761D01*
X60607738Y-67802380D01*
X60322023Y-67802380D01*
X60226785Y-67754761D01*
X60179166Y-67707142D01*
%TO.C,R2*%
X59633333Y-61152380D02*
X59300000Y-60676190D01*
X59061904Y-61152380D02*
X59061904Y-60152380D01*
X59442857Y-60152380D01*
X59538095Y-60200000D01*
X59585714Y-60247619D01*
X59633333Y-60342857D01*
X59633333Y-60485714D01*
X59585714Y-60580952D01*
X59538095Y-60628571D01*
X59442857Y-60676190D01*
X59061904Y-60676190D01*
X60014285Y-60247619D02*
X60061904Y-60200000D01*
X60157142Y-60152380D01*
X60395238Y-60152380D01*
X60490476Y-60200000D01*
X60538095Y-60247619D01*
X60585714Y-60342857D01*
X60585714Y-60438095D01*
X60538095Y-60580952D01*
X59966666Y-61152380D01*
X60585714Y-61152380D01*
%TO.C,R29*%
X122102380Y-128855357D02*
X121626190Y-129188690D01*
X122102380Y-129426785D02*
X121102380Y-129426785D01*
X121102380Y-129045833D01*
X121150000Y-128950595D01*
X121197619Y-128902976D01*
X121292857Y-128855357D01*
X121435714Y-128855357D01*
X121530952Y-128902976D01*
X121578571Y-128950595D01*
X121626190Y-129045833D01*
X121626190Y-129426785D01*
X121197619Y-128474404D02*
X121150000Y-128426785D01*
X121102380Y-128331547D01*
X121102380Y-128093452D01*
X121150000Y-127998214D01*
X121197619Y-127950595D01*
X121292857Y-127902976D01*
X121388095Y-127902976D01*
X121530952Y-127950595D01*
X122102380Y-128522023D01*
X122102380Y-127902976D01*
X122102380Y-127426785D02*
X122102380Y-127236309D01*
X122054761Y-127141071D01*
X122007142Y-127093452D01*
X121864285Y-126998214D01*
X121673809Y-126950595D01*
X121292857Y-126950595D01*
X121197619Y-126998214D01*
X121150000Y-127045833D01*
X121102380Y-127141071D01*
X121102380Y-127331547D01*
X121150000Y-127426785D01*
X121197619Y-127474404D01*
X121292857Y-127522023D01*
X121530952Y-127522023D01*
X121626190Y-127474404D01*
X121673809Y-127426785D01*
X121721428Y-127331547D01*
X121721428Y-127141071D01*
X121673809Y-127045833D01*
X121626190Y-126998214D01*
X121530952Y-126950595D01*
%TO.C,R12*%
X165507142Y-109978571D02*
X165078571Y-110278571D01*
X165507142Y-110492857D02*
X164607142Y-110492857D01*
X164607142Y-110150000D01*
X164650000Y-110064285D01*
X164692857Y-110021428D01*
X164778571Y-109978571D01*
X164907142Y-109978571D01*
X164992857Y-110021428D01*
X165035714Y-110064285D01*
X165078571Y-110150000D01*
X165078571Y-110492857D01*
X165507142Y-109121428D02*
X165507142Y-109635714D01*
X165507142Y-109378571D02*
X164607142Y-109378571D01*
X164735714Y-109464285D01*
X164821428Y-109550000D01*
X164864285Y-109635714D01*
X164692857Y-108778571D02*
X164650000Y-108735714D01*
X164607142Y-108650000D01*
X164607142Y-108435714D01*
X164650000Y-108350000D01*
X164692857Y-108307142D01*
X164778571Y-108264285D01*
X164864285Y-108264285D01*
X164992857Y-108307142D01*
X165507142Y-108821428D01*
X165507142Y-108264285D01*
%TO.C,R14*%
X161452380Y-106242857D02*
X160976190Y-106576190D01*
X161452380Y-106814285D02*
X160452380Y-106814285D01*
X160452380Y-106433333D01*
X160500000Y-106338095D01*
X160547619Y-106290476D01*
X160642857Y-106242857D01*
X160785714Y-106242857D01*
X160880952Y-106290476D01*
X160928571Y-106338095D01*
X160976190Y-106433333D01*
X160976190Y-106814285D01*
X161452380Y-105290476D02*
X161452380Y-105861904D01*
X161452380Y-105576190D02*
X160452380Y-105576190D01*
X160595238Y-105671428D01*
X160690476Y-105766666D01*
X160738095Y-105861904D01*
X160785714Y-104433333D02*
X161452380Y-104433333D01*
X160404761Y-104671428D02*
X161119047Y-104909523D01*
X161119047Y-104290476D01*
%TO.C,R11*%
X146552380Y-106992857D02*
X146076190Y-107326190D01*
X146552380Y-107564285D02*
X145552380Y-107564285D01*
X145552380Y-107183333D01*
X145600000Y-107088095D01*
X145647619Y-107040476D01*
X145742857Y-106992857D01*
X145885714Y-106992857D01*
X145980952Y-107040476D01*
X146028571Y-107088095D01*
X146076190Y-107183333D01*
X146076190Y-107564285D01*
X146552380Y-106040476D02*
X146552380Y-106611904D01*
X146552380Y-106326190D02*
X145552380Y-106326190D01*
X145695238Y-106421428D01*
X145790476Y-106516666D01*
X145838095Y-106611904D01*
X146552380Y-105088095D02*
X146552380Y-105659523D01*
X146552380Y-105373809D02*
X145552380Y-105373809D01*
X145695238Y-105469047D01*
X145790476Y-105564285D01*
X145838095Y-105659523D01*
%TO.C,R6*%
X145033333Y-82752380D02*
X144700000Y-82276190D01*
X144461904Y-82752380D02*
X144461904Y-81752380D01*
X144842857Y-81752380D01*
X144938095Y-81800000D01*
X144985714Y-81847619D01*
X145033333Y-81942857D01*
X145033333Y-82085714D01*
X144985714Y-82180952D01*
X144938095Y-82228571D01*
X144842857Y-82276190D01*
X144461904Y-82276190D01*
X145890476Y-81752380D02*
X145700000Y-81752380D01*
X145604761Y-81800000D01*
X145557142Y-81847619D01*
X145461904Y-81990476D01*
X145414285Y-82180952D01*
X145414285Y-82561904D01*
X145461904Y-82657142D01*
X145509523Y-82704761D01*
X145604761Y-82752380D01*
X145795238Y-82752380D01*
X145890476Y-82704761D01*
X145938095Y-82657142D01*
X145985714Y-82561904D01*
X145985714Y-82323809D01*
X145938095Y-82228571D01*
X145890476Y-82180952D01*
X145795238Y-82133333D01*
X145604761Y-82133333D01*
X145509523Y-82180952D01*
X145461904Y-82228571D01*
X145414285Y-82323809D01*
%TO.C,R7*%
X149433333Y-82552380D02*
X149100000Y-82076190D01*
X148861904Y-82552380D02*
X148861904Y-81552380D01*
X149242857Y-81552380D01*
X149338095Y-81600000D01*
X149385714Y-81647619D01*
X149433333Y-81742857D01*
X149433333Y-81885714D01*
X149385714Y-81980952D01*
X149338095Y-82028571D01*
X149242857Y-82076190D01*
X148861904Y-82076190D01*
X149766666Y-81552380D02*
X150433333Y-81552380D01*
X150004761Y-82552380D01*
%TO.C,R8*%
X152252380Y-81166666D02*
X151776190Y-81500000D01*
X152252380Y-81738095D02*
X151252380Y-81738095D01*
X151252380Y-81357142D01*
X151300000Y-81261904D01*
X151347619Y-81214285D01*
X151442857Y-81166666D01*
X151585714Y-81166666D01*
X151680952Y-81214285D01*
X151728571Y-81261904D01*
X151776190Y-81357142D01*
X151776190Y-81738095D01*
X151680952Y-80595238D02*
X151633333Y-80690476D01*
X151585714Y-80738095D01*
X151490476Y-80785714D01*
X151442857Y-80785714D01*
X151347619Y-80738095D01*
X151300000Y-80690476D01*
X151252380Y-80595238D01*
X151252380Y-80404761D01*
X151300000Y-80309523D01*
X151347619Y-80261904D01*
X151442857Y-80214285D01*
X151490476Y-80214285D01*
X151585714Y-80261904D01*
X151633333Y-80309523D01*
X151680952Y-80404761D01*
X151680952Y-80595238D01*
X151728571Y-80690476D01*
X151776190Y-80738095D01*
X151871428Y-80785714D01*
X152061904Y-80785714D01*
X152157142Y-80738095D01*
X152204761Y-80690476D01*
X152252380Y-80595238D01*
X152252380Y-80404761D01*
X152204761Y-80309523D01*
X152157142Y-80261904D01*
X152061904Y-80214285D01*
X151871428Y-80214285D01*
X151776190Y-80261904D01*
X151728571Y-80309523D01*
X151680952Y-80404761D01*
%TO.C,R9*%
X156952380Y-83866666D02*
X156476190Y-84200000D01*
X156952380Y-84438095D02*
X155952380Y-84438095D01*
X155952380Y-84057142D01*
X156000000Y-83961904D01*
X156047619Y-83914285D01*
X156142857Y-83866666D01*
X156285714Y-83866666D01*
X156380952Y-83914285D01*
X156428571Y-83961904D01*
X156476190Y-84057142D01*
X156476190Y-84438095D01*
X156952380Y-83390476D02*
X156952380Y-83200000D01*
X156904761Y-83104761D01*
X156857142Y-83057142D01*
X156714285Y-82961904D01*
X156523809Y-82914285D01*
X156142857Y-82914285D01*
X156047619Y-82961904D01*
X156000000Y-83009523D01*
X155952380Y-83104761D01*
X155952380Y-83295238D01*
X156000000Y-83390476D01*
X156047619Y-83438095D01*
X156142857Y-83485714D01*
X156380952Y-83485714D01*
X156476190Y-83438095D01*
X156523809Y-83390476D01*
X156571428Y-83295238D01*
X156571428Y-83104761D01*
X156523809Y-83009523D01*
X156476190Y-82961904D01*
X156380952Y-82914285D01*
%TO.C,R10*%
X160107142Y-83802380D02*
X159773809Y-83326190D01*
X159535714Y-83802380D02*
X159535714Y-82802380D01*
X159916666Y-82802380D01*
X160011904Y-82850000D01*
X160059523Y-82897619D01*
X160107142Y-82992857D01*
X160107142Y-83135714D01*
X160059523Y-83230952D01*
X160011904Y-83278571D01*
X159916666Y-83326190D01*
X159535714Y-83326190D01*
X161059523Y-83802380D02*
X160488095Y-83802380D01*
X160773809Y-83802380D02*
X160773809Y-82802380D01*
X160678571Y-82945238D01*
X160583333Y-83040476D01*
X160488095Y-83088095D01*
X161678571Y-82802380D02*
X161773809Y-82802380D01*
X161869047Y-82850000D01*
X161916666Y-82897619D01*
X161964285Y-82992857D01*
X162011904Y-83183333D01*
X162011904Y-83421428D01*
X161964285Y-83611904D01*
X161916666Y-83707142D01*
X161869047Y-83754761D01*
X161773809Y-83802380D01*
X161678571Y-83802380D01*
X161583333Y-83754761D01*
X161535714Y-83707142D01*
X161488095Y-83611904D01*
X161440476Y-83421428D01*
X161440476Y-83183333D01*
X161488095Y-82992857D01*
X161535714Y-82897619D01*
X161583333Y-82850000D01*
X161678571Y-82802380D01*
%TO.C,R23*%
X164352380Y-116442857D02*
X163876190Y-116776190D01*
X164352380Y-117014285D02*
X163352380Y-117014285D01*
X163352380Y-116633333D01*
X163400000Y-116538095D01*
X163447619Y-116490476D01*
X163542857Y-116442857D01*
X163685714Y-116442857D01*
X163780952Y-116490476D01*
X163828571Y-116538095D01*
X163876190Y-116633333D01*
X163876190Y-117014285D01*
X163447619Y-116061904D02*
X163400000Y-116014285D01*
X163352380Y-115919047D01*
X163352380Y-115680952D01*
X163400000Y-115585714D01*
X163447619Y-115538095D01*
X163542857Y-115490476D01*
X163638095Y-115490476D01*
X163780952Y-115538095D01*
X164352380Y-116109523D01*
X164352380Y-115490476D01*
X163352380Y-115157142D02*
X163352380Y-114538095D01*
X163733333Y-114871428D01*
X163733333Y-114728571D01*
X163780952Y-114633333D01*
X163828571Y-114585714D01*
X163923809Y-114538095D01*
X164161904Y-114538095D01*
X164257142Y-114585714D01*
X164304761Y-114633333D01*
X164352380Y-114728571D01*
X164352380Y-115014285D01*
X164304761Y-115109523D01*
X164257142Y-115157142D01*
%TO.C,R22*%
X158352380Y-116242857D02*
X157876190Y-116576190D01*
X158352380Y-116814285D02*
X157352380Y-116814285D01*
X157352380Y-116433333D01*
X157400000Y-116338095D01*
X157447619Y-116290476D01*
X157542857Y-116242857D01*
X157685714Y-116242857D01*
X157780952Y-116290476D01*
X157828571Y-116338095D01*
X157876190Y-116433333D01*
X157876190Y-116814285D01*
X157447619Y-115861904D02*
X157400000Y-115814285D01*
X157352380Y-115719047D01*
X157352380Y-115480952D01*
X157400000Y-115385714D01*
X157447619Y-115338095D01*
X157542857Y-115290476D01*
X157638095Y-115290476D01*
X157780952Y-115338095D01*
X158352380Y-115909523D01*
X158352380Y-115290476D01*
X157447619Y-114909523D02*
X157400000Y-114861904D01*
X157352380Y-114766666D01*
X157352380Y-114528571D01*
X157400000Y-114433333D01*
X157447619Y-114385714D01*
X157542857Y-114338095D01*
X157638095Y-114338095D01*
X157780952Y-114385714D01*
X158352380Y-114957142D01*
X158352380Y-114338095D01*
%TO.C,R35*%
X112652380Y-140042857D02*
X112176190Y-140376190D01*
X112652380Y-140614285D02*
X111652380Y-140614285D01*
X111652380Y-140233333D01*
X111700000Y-140138095D01*
X111747619Y-140090476D01*
X111842857Y-140042857D01*
X111985714Y-140042857D01*
X112080952Y-140090476D01*
X112128571Y-140138095D01*
X112176190Y-140233333D01*
X112176190Y-140614285D01*
X111652380Y-139709523D02*
X111652380Y-139090476D01*
X112033333Y-139423809D01*
X112033333Y-139280952D01*
X112080952Y-139185714D01*
X112128571Y-139138095D01*
X112223809Y-139090476D01*
X112461904Y-139090476D01*
X112557142Y-139138095D01*
X112604761Y-139185714D01*
X112652380Y-139280952D01*
X112652380Y-139566666D01*
X112604761Y-139661904D01*
X112557142Y-139709523D01*
X111652380Y-138185714D02*
X111652380Y-138661904D01*
X112128571Y-138709523D01*
X112080952Y-138661904D01*
X112033333Y-138566666D01*
X112033333Y-138328571D01*
X112080952Y-138233333D01*
X112128571Y-138185714D01*
X112223809Y-138138095D01*
X112461904Y-138138095D01*
X112557142Y-138185714D01*
X112604761Y-138233333D01*
X112652380Y-138328571D01*
X112652380Y-138566666D01*
X112604761Y-138661904D01*
X112557142Y-138709523D01*
%TO.C,R32*%
X112852380Y-136142857D02*
X112376190Y-136476190D01*
X112852380Y-136714285D02*
X111852380Y-136714285D01*
X111852380Y-136333333D01*
X111900000Y-136238095D01*
X111947619Y-136190476D01*
X112042857Y-136142857D01*
X112185714Y-136142857D01*
X112280952Y-136190476D01*
X112328571Y-136238095D01*
X112376190Y-136333333D01*
X112376190Y-136714285D01*
X111852380Y-135809523D02*
X111852380Y-135190476D01*
X112233333Y-135523809D01*
X112233333Y-135380952D01*
X112280952Y-135285714D01*
X112328571Y-135238095D01*
X112423809Y-135190476D01*
X112661904Y-135190476D01*
X112757142Y-135238095D01*
X112804761Y-135285714D01*
X112852380Y-135380952D01*
X112852380Y-135666666D01*
X112804761Y-135761904D01*
X112757142Y-135809523D01*
X111947619Y-134809523D02*
X111900000Y-134761904D01*
X111852380Y-134666666D01*
X111852380Y-134428571D01*
X111900000Y-134333333D01*
X111947619Y-134285714D01*
X112042857Y-134238095D01*
X112138095Y-134238095D01*
X112280952Y-134285714D01*
X112852380Y-134857142D01*
X112852380Y-134238095D01*
%TO.C,Q6*%
X66094761Y-150482619D02*
X65999523Y-150435000D01*
X65904285Y-150339761D01*
X65761428Y-150196904D01*
X65666190Y-150149285D01*
X65570952Y-150149285D01*
X65618571Y-150387380D02*
X65523333Y-150339761D01*
X65428095Y-150244523D01*
X65380476Y-150054047D01*
X65380476Y-149720714D01*
X65428095Y-149530238D01*
X65523333Y-149435000D01*
X65618571Y-149387380D01*
X65809047Y-149387380D01*
X65904285Y-149435000D01*
X65999523Y-149530238D01*
X66047142Y-149720714D01*
X66047142Y-150054047D01*
X65999523Y-150244523D01*
X65904285Y-150339761D01*
X65809047Y-150387380D01*
X65618571Y-150387380D01*
X66904285Y-149387380D02*
X66713809Y-149387380D01*
X66618571Y-149435000D01*
X66570952Y-149482619D01*
X66475714Y-149625476D01*
X66428095Y-149815952D01*
X66428095Y-150196904D01*
X66475714Y-150292142D01*
X66523333Y-150339761D01*
X66618571Y-150387380D01*
X66809047Y-150387380D01*
X66904285Y-150339761D01*
X66951904Y-150292142D01*
X66999523Y-150196904D01*
X66999523Y-149958809D01*
X66951904Y-149863571D01*
X66904285Y-149815952D01*
X66809047Y-149768333D01*
X66618571Y-149768333D01*
X66523333Y-149815952D01*
X66475714Y-149863571D01*
X66428095Y-149958809D01*
%TO.C,Q4*%
X146204761Y-136547619D02*
X146109523Y-136500000D01*
X146014285Y-136404761D01*
X145871428Y-136261904D01*
X145776190Y-136214285D01*
X145680952Y-136214285D01*
X145728571Y-136452380D02*
X145633333Y-136404761D01*
X145538095Y-136309523D01*
X145490476Y-136119047D01*
X145490476Y-135785714D01*
X145538095Y-135595238D01*
X145633333Y-135500000D01*
X145728571Y-135452380D01*
X145919047Y-135452380D01*
X146014285Y-135500000D01*
X146109523Y-135595238D01*
X146157142Y-135785714D01*
X146157142Y-136119047D01*
X146109523Y-136309523D01*
X146014285Y-136404761D01*
X145919047Y-136452380D01*
X145728571Y-136452380D01*
X147014285Y-135785714D02*
X147014285Y-136452380D01*
X146776190Y-135404761D02*
X146538095Y-136119047D01*
X147157142Y-136119047D01*
%TO.C,Q5*%
X146504761Y-143447619D02*
X146409523Y-143400000D01*
X146314285Y-143304761D01*
X146171428Y-143161904D01*
X146076190Y-143114285D01*
X145980952Y-143114285D01*
X146028571Y-143352380D02*
X145933333Y-143304761D01*
X145838095Y-143209523D01*
X145790476Y-143019047D01*
X145790476Y-142685714D01*
X145838095Y-142495238D01*
X145933333Y-142400000D01*
X146028571Y-142352380D01*
X146219047Y-142352380D01*
X146314285Y-142400000D01*
X146409523Y-142495238D01*
X146457142Y-142685714D01*
X146457142Y-143019047D01*
X146409523Y-143209523D01*
X146314285Y-143304761D01*
X146219047Y-143352380D01*
X146028571Y-143352380D01*
X147361904Y-142352380D02*
X146885714Y-142352380D01*
X146838095Y-142828571D01*
X146885714Y-142780952D01*
X146980952Y-142733333D01*
X147219047Y-142733333D01*
X147314285Y-142780952D01*
X147361904Y-142828571D01*
X147409523Y-142923809D01*
X147409523Y-143161904D01*
X147361904Y-143257142D01*
X147314285Y-143304761D01*
X147219047Y-143352380D01*
X146980952Y-143352380D01*
X146885714Y-143304761D01*
X146838095Y-143257142D01*
%TO.C,Q1*%
X63404761Y-37047619D02*
X63309523Y-37000000D01*
X63214285Y-36904761D01*
X63071428Y-36761904D01*
X62976190Y-36714285D01*
X62880952Y-36714285D01*
X62928571Y-36952380D02*
X62833333Y-36904761D01*
X62738095Y-36809523D01*
X62690476Y-36619047D01*
X62690476Y-36285714D01*
X62738095Y-36095238D01*
X62833333Y-36000000D01*
X62928571Y-35952380D01*
X63119047Y-35952380D01*
X63214285Y-36000000D01*
X63309523Y-36095238D01*
X63357142Y-36285714D01*
X63357142Y-36619047D01*
X63309523Y-36809523D01*
X63214285Y-36904761D01*
X63119047Y-36952380D01*
X62928571Y-36952380D01*
X64309523Y-36952380D02*
X63738095Y-36952380D01*
X64023809Y-36952380D02*
X64023809Y-35952380D01*
X63928571Y-36095238D01*
X63833333Y-36190476D01*
X63738095Y-36238095D01*
%TO.C,Q3*%
X123804761Y-130247619D02*
X123709523Y-130200000D01*
X123614285Y-130104761D01*
X123471428Y-129961904D01*
X123376190Y-129914285D01*
X123280952Y-129914285D01*
X123328571Y-130152380D02*
X123233333Y-130104761D01*
X123138095Y-130009523D01*
X123090476Y-129819047D01*
X123090476Y-129485714D01*
X123138095Y-129295238D01*
X123233333Y-129200000D01*
X123328571Y-129152380D01*
X123519047Y-129152380D01*
X123614285Y-129200000D01*
X123709523Y-129295238D01*
X123757142Y-129485714D01*
X123757142Y-129819047D01*
X123709523Y-130009523D01*
X123614285Y-130104761D01*
X123519047Y-130152380D01*
X123328571Y-130152380D01*
X124090476Y-129152380D02*
X124709523Y-129152380D01*
X124376190Y-129533333D01*
X124519047Y-129533333D01*
X124614285Y-129580952D01*
X124661904Y-129628571D01*
X124709523Y-129723809D01*
X124709523Y-129961904D01*
X124661904Y-130057142D01*
X124614285Y-130104761D01*
X124519047Y-130152380D01*
X124233333Y-130152380D01*
X124138095Y-130104761D01*
X124090476Y-130057142D01*
%TO.C,Q2*%
X63404761Y-47047619D02*
X63309523Y-47000000D01*
X63214285Y-46904761D01*
X63071428Y-46761904D01*
X62976190Y-46714285D01*
X62880952Y-46714285D01*
X62928571Y-46952380D02*
X62833333Y-46904761D01*
X62738095Y-46809523D01*
X62690476Y-46619047D01*
X62690476Y-46285714D01*
X62738095Y-46095238D01*
X62833333Y-46000000D01*
X62928571Y-45952380D01*
X63119047Y-45952380D01*
X63214285Y-46000000D01*
X63309523Y-46095238D01*
X63357142Y-46285714D01*
X63357142Y-46619047D01*
X63309523Y-46809523D01*
X63214285Y-46904761D01*
X63119047Y-46952380D01*
X62928571Y-46952380D01*
X63738095Y-46047619D02*
X63785714Y-46000000D01*
X63880952Y-45952380D01*
X64119047Y-45952380D01*
X64214285Y-46000000D01*
X64261904Y-46047619D01*
X64309523Y-46142857D01*
X64309523Y-46238095D01*
X64261904Y-46380952D01*
X63690476Y-46952380D01*
X64309523Y-46952380D01*
%TO.C,L1*%
X162933333Y-73252380D02*
X162457142Y-73252380D01*
X162457142Y-72252380D01*
X163790476Y-73252380D02*
X163219047Y-73252380D01*
X163504761Y-73252380D02*
X163504761Y-72252380D01*
X163409523Y-72395238D01*
X163314285Y-72490476D01*
X163219047Y-72538095D01*
%TO.C,J7*%
X57266666Y-114852380D02*
X57266666Y-115566666D01*
X57219047Y-115709523D01*
X57123809Y-115804761D01*
X56980952Y-115852380D01*
X56885714Y-115852380D01*
X57647619Y-114852380D02*
X58314285Y-114852380D01*
X57885714Y-115852380D01*
%TO.C,J1*%
X169266666Y-36152380D02*
X169266666Y-36866666D01*
X169219047Y-37009523D01*
X169123809Y-37104761D01*
X168980952Y-37152380D01*
X168885714Y-37152380D01*
X170266666Y-37152380D02*
X169695238Y-37152380D01*
X169980952Y-37152380D02*
X169980952Y-36152380D01*
X169885714Y-36295238D01*
X169790476Y-36390476D01*
X169695238Y-36438095D01*
%TO.C,J5*%
X157466666Y-105552380D02*
X157466666Y-106266666D01*
X157419047Y-106409523D01*
X157323809Y-106504761D01*
X157180952Y-106552380D01*
X157085714Y-106552380D01*
X158419047Y-105552380D02*
X157942857Y-105552380D01*
X157895238Y-106028571D01*
X157942857Y-105980952D01*
X158038095Y-105933333D01*
X158276190Y-105933333D01*
X158371428Y-105980952D01*
X158419047Y-106028571D01*
X158466666Y-106123809D01*
X158466666Y-106361904D01*
X158419047Y-106457142D01*
X158371428Y-106504761D01*
X158276190Y-106552380D01*
X158038095Y-106552380D01*
X157942857Y-106504761D01*
X157895238Y-106457142D01*
%TO.C,J6*%
X159766666Y-109052380D02*
X159766666Y-109766666D01*
X159719047Y-109909523D01*
X159623809Y-110004761D01*
X159480952Y-110052380D01*
X159385714Y-110052380D01*
X160671428Y-109052380D02*
X160480952Y-109052380D01*
X160385714Y-109100000D01*
X160338095Y-109147619D01*
X160242857Y-109290476D01*
X160195238Y-109480952D01*
X160195238Y-109861904D01*
X160242857Y-109957142D01*
X160290476Y-110004761D01*
X160385714Y-110052380D01*
X160576190Y-110052380D01*
X160671428Y-110004761D01*
X160719047Y-109957142D01*
X160766666Y-109861904D01*
X160766666Y-109623809D01*
X160719047Y-109528571D01*
X160671428Y-109480952D01*
X160576190Y-109433333D01*
X160385714Y-109433333D01*
X160290476Y-109480952D01*
X160242857Y-109528571D01*
X160195238Y-109623809D01*
%TO.C,FL1*%
X63061904Y-75728571D02*
X62728571Y-75728571D01*
X62728571Y-76252380D02*
X62728571Y-75252380D01*
X63204761Y-75252380D01*
X64061904Y-76252380D02*
X63585714Y-76252380D01*
X63585714Y-75252380D01*
X64919047Y-76252380D02*
X64347619Y-76252380D01*
X64633333Y-76252380D02*
X64633333Y-75252380D01*
X64538095Y-75395238D01*
X64442857Y-75490476D01*
X64347619Y-75538095D01*
%TO.C,FID1*%
X65103571Y-32153571D02*
X64770238Y-32153571D01*
X64770238Y-32677380D02*
X64770238Y-31677380D01*
X65246428Y-31677380D01*
X65627380Y-32677380D02*
X65627380Y-31677380D01*
X66103571Y-32677380D02*
X66103571Y-31677380D01*
X66341666Y-31677380D01*
X66484523Y-31725000D01*
X66579761Y-31820238D01*
X66627380Y-31915476D01*
X66675000Y-32105952D01*
X66675000Y-32248809D01*
X66627380Y-32439285D01*
X66579761Y-32534523D01*
X66484523Y-32629761D01*
X66341666Y-32677380D01*
X66103571Y-32677380D01*
X67627380Y-32677380D02*
X67055952Y-32677380D01*
X67341666Y-32677380D02*
X67341666Y-31677380D01*
X67246428Y-31820238D01*
X67151190Y-31915476D01*
X67055952Y-31963095D01*
%TO.C,D4*%
X68661904Y-134452380D02*
X68661904Y-133452380D01*
X68900000Y-133452380D01*
X69042857Y-133500000D01*
X69138095Y-133595238D01*
X69185714Y-133690476D01*
X69233333Y-133880952D01*
X69233333Y-134023809D01*
X69185714Y-134214285D01*
X69138095Y-134309523D01*
X69042857Y-134404761D01*
X68900000Y-134452380D01*
X68661904Y-134452380D01*
X70090476Y-133785714D02*
X70090476Y-134452380D01*
X69852380Y-133404761D02*
X69614285Y-134119047D01*
X70233333Y-134119047D01*
%TO.C,D3*%
X65061904Y-116652380D02*
X65061904Y-115652380D01*
X65300000Y-115652380D01*
X65442857Y-115700000D01*
X65538095Y-115795238D01*
X65585714Y-115890476D01*
X65633333Y-116080952D01*
X65633333Y-116223809D01*
X65585714Y-116414285D01*
X65538095Y-116509523D01*
X65442857Y-116604761D01*
X65300000Y-116652380D01*
X65061904Y-116652380D01*
X65966666Y-115652380D02*
X66585714Y-115652380D01*
X66252380Y-116033333D01*
X66395238Y-116033333D01*
X66490476Y-116080952D01*
X66538095Y-116128571D01*
X66585714Y-116223809D01*
X66585714Y-116461904D01*
X66538095Y-116557142D01*
X66490476Y-116604761D01*
X66395238Y-116652380D01*
X66109523Y-116652380D01*
X66014285Y-116604761D01*
X65966666Y-116557142D01*
%TO.C,D2*%
X76961904Y-112852380D02*
X76961904Y-111852380D01*
X77200000Y-111852380D01*
X77342857Y-111900000D01*
X77438095Y-111995238D01*
X77485714Y-112090476D01*
X77533333Y-112280952D01*
X77533333Y-112423809D01*
X77485714Y-112614285D01*
X77438095Y-112709523D01*
X77342857Y-112804761D01*
X77200000Y-112852380D01*
X76961904Y-112852380D01*
X77914285Y-111947619D02*
X77961904Y-111900000D01*
X78057142Y-111852380D01*
X78295238Y-111852380D01*
X78390476Y-111900000D01*
X78438095Y-111947619D01*
X78485714Y-112042857D01*
X78485714Y-112138095D01*
X78438095Y-112280952D01*
X77866666Y-112852380D01*
X78485714Y-112852380D01*
%TO.C,D1*%
X63061904Y-65652380D02*
X63061904Y-64652380D01*
X63300000Y-64652380D01*
X63442857Y-64700000D01*
X63538095Y-64795238D01*
X63585714Y-64890476D01*
X63633333Y-65080952D01*
X63633333Y-65223809D01*
X63585714Y-65414285D01*
X63538095Y-65509523D01*
X63442857Y-65604761D01*
X63300000Y-65652380D01*
X63061904Y-65652380D01*
X64585714Y-65652380D02*
X64014285Y-65652380D01*
X64300000Y-65652380D02*
X64300000Y-64652380D01*
X64204761Y-64795238D01*
X64109523Y-64890476D01*
X64014285Y-64938095D01*
%TO.C,C10*%
X160857142Y-68842857D02*
X160904761Y-68890476D01*
X160952380Y-69033333D01*
X160952380Y-69128571D01*
X160904761Y-69271428D01*
X160809523Y-69366666D01*
X160714285Y-69414285D01*
X160523809Y-69461904D01*
X160380952Y-69461904D01*
X160190476Y-69414285D01*
X160095238Y-69366666D01*
X160000000Y-69271428D01*
X159952380Y-69128571D01*
X159952380Y-69033333D01*
X160000000Y-68890476D01*
X160047619Y-68842857D01*
X160952380Y-67890476D02*
X160952380Y-68461904D01*
X160952380Y-68176190D02*
X159952380Y-68176190D01*
X160095238Y-68271428D01*
X160190476Y-68366666D01*
X160238095Y-68461904D01*
X159952380Y-67271428D02*
X159952380Y-67176190D01*
X160000000Y-67080952D01*
X160047619Y-67033333D01*
X160142857Y-66985714D01*
X160333333Y-66938095D01*
X160571428Y-66938095D01*
X160761904Y-66985714D01*
X160857142Y-67033333D01*
X160904761Y-67080952D01*
X160952380Y-67176190D01*
X160952380Y-67271428D01*
X160904761Y-67366666D01*
X160857142Y-67414285D01*
X160761904Y-67461904D01*
X160571428Y-67509523D01*
X160333333Y-67509523D01*
X160142857Y-67461904D01*
X160047619Y-67414285D01*
X160000000Y-67366666D01*
X159952380Y-67271428D01*
%TO.C,C9*%
X156257142Y-71566666D02*
X156304761Y-71614285D01*
X156352380Y-71757142D01*
X156352380Y-71852380D01*
X156304761Y-71995238D01*
X156209523Y-72090476D01*
X156114285Y-72138095D01*
X155923809Y-72185714D01*
X155780952Y-72185714D01*
X155590476Y-72138095D01*
X155495238Y-72090476D01*
X155400000Y-71995238D01*
X155352380Y-71852380D01*
X155352380Y-71757142D01*
X155400000Y-71614285D01*
X155447619Y-71566666D01*
X156352380Y-71090476D02*
X156352380Y-70900000D01*
X156304761Y-70804761D01*
X156257142Y-70757142D01*
X156114285Y-70661904D01*
X155923809Y-70614285D01*
X155542857Y-70614285D01*
X155447619Y-70661904D01*
X155400000Y-70709523D01*
X155352380Y-70804761D01*
X155352380Y-70995238D01*
X155400000Y-71090476D01*
X155447619Y-71138095D01*
X155542857Y-71185714D01*
X155780952Y-71185714D01*
X155876190Y-71138095D01*
X155923809Y-71090476D01*
X155971428Y-70995238D01*
X155971428Y-70804761D01*
X155923809Y-70709523D01*
X155876190Y-70661904D01*
X155780952Y-70614285D01*
%TO.C,C8*%
X144157142Y-67966666D02*
X144204761Y-68014285D01*
X144252380Y-68157142D01*
X144252380Y-68252380D01*
X144204761Y-68395238D01*
X144109523Y-68490476D01*
X144014285Y-68538095D01*
X143823809Y-68585714D01*
X143680952Y-68585714D01*
X143490476Y-68538095D01*
X143395238Y-68490476D01*
X143300000Y-68395238D01*
X143252380Y-68252380D01*
X143252380Y-68157142D01*
X143300000Y-68014285D01*
X143347619Y-67966666D01*
X143680952Y-67395238D02*
X143633333Y-67490476D01*
X143585714Y-67538095D01*
X143490476Y-67585714D01*
X143442857Y-67585714D01*
X143347619Y-67538095D01*
X143300000Y-67490476D01*
X143252380Y-67395238D01*
X143252380Y-67204761D01*
X143300000Y-67109523D01*
X143347619Y-67061904D01*
X143442857Y-67014285D01*
X143490476Y-67014285D01*
X143585714Y-67061904D01*
X143633333Y-67109523D01*
X143680952Y-67204761D01*
X143680952Y-67395238D01*
X143728571Y-67490476D01*
X143776190Y-67538095D01*
X143871428Y-67585714D01*
X144061904Y-67585714D01*
X144157142Y-67538095D01*
X144204761Y-67490476D01*
X144252380Y-67395238D01*
X144252380Y-67204761D01*
X144204761Y-67109523D01*
X144157142Y-67061904D01*
X144061904Y-67014285D01*
X143871428Y-67014285D01*
X143776190Y-67061904D01*
X143728571Y-67109523D01*
X143680952Y-67204761D01*
%TO.C,C23*%
X68337142Y-123192857D02*
X68384761Y-123240476D01*
X68432380Y-123383333D01*
X68432380Y-123478571D01*
X68384761Y-123621428D01*
X68289523Y-123716666D01*
X68194285Y-123764285D01*
X68003809Y-123811904D01*
X67860952Y-123811904D01*
X67670476Y-123764285D01*
X67575238Y-123716666D01*
X67480000Y-123621428D01*
X67432380Y-123478571D01*
X67432380Y-123383333D01*
X67480000Y-123240476D01*
X67527619Y-123192857D01*
X67527619Y-122811904D02*
X67480000Y-122764285D01*
X67432380Y-122669047D01*
X67432380Y-122430952D01*
X67480000Y-122335714D01*
X67527619Y-122288095D01*
X67622857Y-122240476D01*
X67718095Y-122240476D01*
X67860952Y-122288095D01*
X68432380Y-122859523D01*
X68432380Y-122240476D01*
X67432380Y-121907142D02*
X67432380Y-121288095D01*
X67813333Y-121621428D01*
X67813333Y-121478571D01*
X67860952Y-121383333D01*
X67908571Y-121335714D01*
X68003809Y-121288095D01*
X68241904Y-121288095D01*
X68337142Y-121335714D01*
X68384761Y-121383333D01*
X68432380Y-121478571D01*
X68432380Y-121764285D01*
X68384761Y-121859523D01*
X68337142Y-121907142D01*
%TO.C,C28*%
X69457142Y-143557142D02*
X69409523Y-143604761D01*
X69266666Y-143652380D01*
X69171428Y-143652380D01*
X69028571Y-143604761D01*
X68933333Y-143509523D01*
X68885714Y-143414285D01*
X68838095Y-143223809D01*
X68838095Y-143080952D01*
X68885714Y-142890476D01*
X68933333Y-142795238D01*
X69028571Y-142700000D01*
X69171428Y-142652380D01*
X69266666Y-142652380D01*
X69409523Y-142700000D01*
X69457142Y-142747619D01*
X69838095Y-142747619D02*
X69885714Y-142700000D01*
X69980952Y-142652380D01*
X70219047Y-142652380D01*
X70314285Y-142700000D01*
X70361904Y-142747619D01*
X70409523Y-142842857D01*
X70409523Y-142938095D01*
X70361904Y-143080952D01*
X69790476Y-143652380D01*
X70409523Y-143652380D01*
X70980952Y-143080952D02*
X70885714Y-143033333D01*
X70838095Y-142985714D01*
X70790476Y-142890476D01*
X70790476Y-142842857D01*
X70838095Y-142747619D01*
X70885714Y-142700000D01*
X70980952Y-142652380D01*
X71171428Y-142652380D01*
X71266666Y-142700000D01*
X71314285Y-142747619D01*
X71361904Y-142842857D01*
X71361904Y-142890476D01*
X71314285Y-142985714D01*
X71266666Y-143033333D01*
X71171428Y-143080952D01*
X70980952Y-143080952D01*
X70885714Y-143128571D01*
X70838095Y-143176190D01*
X70790476Y-143271428D01*
X70790476Y-143461904D01*
X70838095Y-143557142D01*
X70885714Y-143604761D01*
X70980952Y-143652380D01*
X71171428Y-143652380D01*
X71266666Y-143604761D01*
X71314285Y-143557142D01*
X71361904Y-143461904D01*
X71361904Y-143271428D01*
X71314285Y-143176190D01*
X71266666Y-143128571D01*
X71171428Y-143080952D01*
%TO.C,C13*%
X153357142Y-79657142D02*
X153309523Y-79704761D01*
X153166666Y-79752380D01*
X153071428Y-79752380D01*
X152928571Y-79704761D01*
X152833333Y-79609523D01*
X152785714Y-79514285D01*
X152738095Y-79323809D01*
X152738095Y-79180952D01*
X152785714Y-78990476D01*
X152833333Y-78895238D01*
X152928571Y-78800000D01*
X153071428Y-78752380D01*
X153166666Y-78752380D01*
X153309523Y-78800000D01*
X153357142Y-78847619D01*
X154309523Y-79752380D02*
X153738095Y-79752380D01*
X154023809Y-79752380D02*
X154023809Y-78752380D01*
X153928571Y-78895238D01*
X153833333Y-78990476D01*
X153738095Y-79038095D01*
X154642857Y-78752380D02*
X155261904Y-78752380D01*
X154928571Y-79133333D01*
X155071428Y-79133333D01*
X155166666Y-79180952D01*
X155214285Y-79228571D01*
X155261904Y-79323809D01*
X155261904Y-79561904D01*
X155214285Y-79657142D01*
X155166666Y-79704761D01*
X155071428Y-79752380D01*
X154785714Y-79752380D01*
X154690476Y-79704761D01*
X154642857Y-79657142D01*
%TO.C,C11*%
X148685714Y-74785714D02*
X148647619Y-74823809D01*
X148533333Y-74861904D01*
X148457142Y-74861904D01*
X148342857Y-74823809D01*
X148266666Y-74747619D01*
X148228571Y-74671428D01*
X148190476Y-74519047D01*
X148190476Y-74404761D01*
X148228571Y-74252380D01*
X148266666Y-74176190D01*
X148342857Y-74100000D01*
X148457142Y-74061904D01*
X148533333Y-74061904D01*
X148647619Y-74100000D01*
X148685714Y-74138095D01*
X149447619Y-74861904D02*
X148990476Y-74861904D01*
X149219047Y-74861904D02*
X149219047Y-74061904D01*
X149142857Y-74176190D01*
X149066666Y-74252380D01*
X148990476Y-74290476D01*
X150209523Y-74861904D02*
X149752380Y-74861904D01*
X149980952Y-74861904D02*
X149980952Y-74061904D01*
X149904761Y-74176190D01*
X149828571Y-74252380D01*
X149752380Y-74290476D01*
%TO.C,C7*%
X153158333Y-63932142D02*
X153110714Y-63979761D01*
X152967857Y-64027380D01*
X152872619Y-64027380D01*
X152729761Y-63979761D01*
X152634523Y-63884523D01*
X152586904Y-63789285D01*
X152539285Y-63598809D01*
X152539285Y-63455952D01*
X152586904Y-63265476D01*
X152634523Y-63170238D01*
X152729761Y-63075000D01*
X152872619Y-63027380D01*
X152967857Y-63027380D01*
X153110714Y-63075000D01*
X153158333Y-63122619D01*
X153491666Y-63027380D02*
X154158333Y-63027380D01*
X153729761Y-64027380D01*
%TO.C,C12*%
X159507142Y-73857142D02*
X159459523Y-73904761D01*
X159316666Y-73952380D01*
X159221428Y-73952380D01*
X159078571Y-73904761D01*
X158983333Y-73809523D01*
X158935714Y-73714285D01*
X158888095Y-73523809D01*
X158888095Y-73380952D01*
X158935714Y-73190476D01*
X158983333Y-73095238D01*
X159078571Y-73000000D01*
X159221428Y-72952380D01*
X159316666Y-72952380D01*
X159459523Y-73000000D01*
X159507142Y-73047619D01*
X160459523Y-73952380D02*
X159888095Y-73952380D01*
X160173809Y-73952380D02*
X160173809Y-72952380D01*
X160078571Y-73095238D01*
X159983333Y-73190476D01*
X159888095Y-73238095D01*
X160840476Y-73047619D02*
X160888095Y-73000000D01*
X160983333Y-72952380D01*
X161221428Y-72952380D01*
X161316666Y-73000000D01*
X161364285Y-73047619D01*
X161411904Y-73142857D01*
X161411904Y-73238095D01*
X161364285Y-73380952D01*
X160792857Y-73952380D01*
X161411904Y-73952380D01*
%TO.C,C1*%
X147158333Y-39407142D02*
X147110714Y-39454761D01*
X146967857Y-39502380D01*
X146872619Y-39502380D01*
X146729761Y-39454761D01*
X146634523Y-39359523D01*
X146586904Y-39264285D01*
X146539285Y-39073809D01*
X146539285Y-38930952D01*
X146586904Y-38740476D01*
X146634523Y-38645238D01*
X146729761Y-38550000D01*
X146872619Y-38502380D01*
X146967857Y-38502380D01*
X147110714Y-38550000D01*
X147158333Y-38597619D01*
X148110714Y-39502380D02*
X147539285Y-39502380D01*
X147825000Y-39502380D02*
X147825000Y-38502380D01*
X147729761Y-38645238D01*
X147634523Y-38740476D01*
X147539285Y-38788095D01*
%TO.C,C14*%
X166457142Y-79642857D02*
X166504761Y-79690476D01*
X166552380Y-79833333D01*
X166552380Y-79928571D01*
X166504761Y-80071428D01*
X166409523Y-80166666D01*
X166314285Y-80214285D01*
X166123809Y-80261904D01*
X165980952Y-80261904D01*
X165790476Y-80214285D01*
X165695238Y-80166666D01*
X165600000Y-80071428D01*
X165552380Y-79928571D01*
X165552380Y-79833333D01*
X165600000Y-79690476D01*
X165647619Y-79642857D01*
X166552380Y-78690476D02*
X166552380Y-79261904D01*
X166552380Y-78976190D02*
X165552380Y-78976190D01*
X165695238Y-79071428D01*
X165790476Y-79166666D01*
X165838095Y-79261904D01*
X165885714Y-77833333D02*
X166552380Y-77833333D01*
X165504761Y-78071428D02*
X166219047Y-78309523D01*
X166219047Y-77690476D01*
%TO.C,C26*%
X164457142Y-134242857D02*
X164504761Y-134290476D01*
X164552380Y-134433333D01*
X164552380Y-134528571D01*
X164504761Y-134671428D01*
X164409523Y-134766666D01*
X164314285Y-134814285D01*
X164123809Y-134861904D01*
X163980952Y-134861904D01*
X163790476Y-134814285D01*
X163695238Y-134766666D01*
X163600000Y-134671428D01*
X163552380Y-134528571D01*
X163552380Y-134433333D01*
X163600000Y-134290476D01*
X163647619Y-134242857D01*
X163647619Y-133861904D02*
X163600000Y-133814285D01*
X163552380Y-133719047D01*
X163552380Y-133480952D01*
X163600000Y-133385714D01*
X163647619Y-133338095D01*
X163742857Y-133290476D01*
X163838095Y-133290476D01*
X163980952Y-133338095D01*
X164552380Y-133909523D01*
X164552380Y-133290476D01*
X163552380Y-132433333D02*
X163552380Y-132623809D01*
X163600000Y-132719047D01*
X163647619Y-132766666D01*
X163790476Y-132861904D01*
X163980952Y-132909523D01*
X164361904Y-132909523D01*
X164457142Y-132861904D01*
X164504761Y-132814285D01*
X164552380Y-132719047D01*
X164552380Y-132528571D01*
X164504761Y-132433333D01*
X164457142Y-132385714D01*
X164361904Y-132338095D01*
X164123809Y-132338095D01*
X164028571Y-132385714D01*
X163980952Y-132433333D01*
X163933333Y-132528571D01*
X163933333Y-132719047D01*
X163980952Y-132814285D01*
X164028571Y-132861904D01*
X164123809Y-132909523D01*
%TO.C,C32*%
X141757142Y-160817857D02*
X141804761Y-160865476D01*
X141852380Y-161008333D01*
X141852380Y-161103571D01*
X141804761Y-161246428D01*
X141709523Y-161341666D01*
X141614285Y-161389285D01*
X141423809Y-161436904D01*
X141280952Y-161436904D01*
X141090476Y-161389285D01*
X140995238Y-161341666D01*
X140900000Y-161246428D01*
X140852380Y-161103571D01*
X140852380Y-161008333D01*
X140900000Y-160865476D01*
X140947619Y-160817857D01*
X140852380Y-160484523D02*
X140852380Y-159865476D01*
X141233333Y-160198809D01*
X141233333Y-160055952D01*
X141280952Y-159960714D01*
X141328571Y-159913095D01*
X141423809Y-159865476D01*
X141661904Y-159865476D01*
X141757142Y-159913095D01*
X141804761Y-159960714D01*
X141852380Y-160055952D01*
X141852380Y-160341666D01*
X141804761Y-160436904D01*
X141757142Y-160484523D01*
X140947619Y-159484523D02*
X140900000Y-159436904D01*
X140852380Y-159341666D01*
X140852380Y-159103571D01*
X140900000Y-159008333D01*
X140947619Y-158960714D01*
X141042857Y-158913095D01*
X141138095Y-158913095D01*
X141280952Y-158960714D01*
X141852380Y-159532142D01*
X141852380Y-158913095D01*
%TO.C,C30*%
X159457142Y-145742857D02*
X159504761Y-145790476D01*
X159552380Y-145933333D01*
X159552380Y-146028571D01*
X159504761Y-146171428D01*
X159409523Y-146266666D01*
X159314285Y-146314285D01*
X159123809Y-146361904D01*
X158980952Y-146361904D01*
X158790476Y-146314285D01*
X158695238Y-146266666D01*
X158600000Y-146171428D01*
X158552380Y-146028571D01*
X158552380Y-145933333D01*
X158600000Y-145790476D01*
X158647619Y-145742857D01*
X158552380Y-145409523D02*
X158552380Y-144790476D01*
X158933333Y-145123809D01*
X158933333Y-144980952D01*
X158980952Y-144885714D01*
X159028571Y-144838095D01*
X159123809Y-144790476D01*
X159361904Y-144790476D01*
X159457142Y-144838095D01*
X159504761Y-144885714D01*
X159552380Y-144980952D01*
X159552380Y-145266666D01*
X159504761Y-145361904D01*
X159457142Y-145409523D01*
X158552380Y-144171428D02*
X158552380Y-144076190D01*
X158600000Y-143980952D01*
X158647619Y-143933333D01*
X158742857Y-143885714D01*
X158933333Y-143838095D01*
X159171428Y-143838095D01*
X159361904Y-143885714D01*
X159457142Y-143933333D01*
X159504761Y-143980952D01*
X159552380Y-144076190D01*
X159552380Y-144171428D01*
X159504761Y-144266666D01*
X159457142Y-144314285D01*
X159361904Y-144361904D01*
X159171428Y-144409523D01*
X158933333Y-144409523D01*
X158742857Y-144361904D01*
X158647619Y-144314285D01*
X158600000Y-144266666D01*
X158552380Y-144171428D01*
%TO.C,C19*%
X144957142Y-110057142D02*
X144909523Y-110104761D01*
X144766666Y-110152380D01*
X144671428Y-110152380D01*
X144528571Y-110104761D01*
X144433333Y-110009523D01*
X144385714Y-109914285D01*
X144338095Y-109723809D01*
X144338095Y-109580952D01*
X144385714Y-109390476D01*
X144433333Y-109295238D01*
X144528571Y-109200000D01*
X144671428Y-109152380D01*
X144766666Y-109152380D01*
X144909523Y-109200000D01*
X144957142Y-109247619D01*
X145909523Y-110152380D02*
X145338095Y-110152380D01*
X145623809Y-110152380D02*
X145623809Y-109152380D01*
X145528571Y-109295238D01*
X145433333Y-109390476D01*
X145338095Y-109438095D01*
X146385714Y-110152380D02*
X146576190Y-110152380D01*
X146671428Y-110104761D01*
X146719047Y-110057142D01*
X146814285Y-109914285D01*
X146861904Y-109723809D01*
X146861904Y-109342857D01*
X146814285Y-109247619D01*
X146766666Y-109200000D01*
X146671428Y-109152380D01*
X146480952Y-109152380D01*
X146385714Y-109200000D01*
X146338095Y-109247619D01*
X146290476Y-109342857D01*
X146290476Y-109580952D01*
X146338095Y-109676190D01*
X146385714Y-109723809D01*
X146480952Y-109771428D01*
X146671428Y-109771428D01*
X146766666Y-109723809D01*
X146814285Y-109676190D01*
X146861904Y-109580952D01*
%TO.C,C20*%
X153957142Y-110657142D02*
X153909523Y-110704761D01*
X153766666Y-110752380D01*
X153671428Y-110752380D01*
X153528571Y-110704761D01*
X153433333Y-110609523D01*
X153385714Y-110514285D01*
X153338095Y-110323809D01*
X153338095Y-110180952D01*
X153385714Y-109990476D01*
X153433333Y-109895238D01*
X153528571Y-109800000D01*
X153671428Y-109752380D01*
X153766666Y-109752380D01*
X153909523Y-109800000D01*
X153957142Y-109847619D01*
X154338095Y-109847619D02*
X154385714Y-109800000D01*
X154480952Y-109752380D01*
X154719047Y-109752380D01*
X154814285Y-109800000D01*
X154861904Y-109847619D01*
X154909523Y-109942857D01*
X154909523Y-110038095D01*
X154861904Y-110180952D01*
X154290476Y-110752380D01*
X154909523Y-110752380D01*
X155528571Y-109752380D02*
X155623809Y-109752380D01*
X155719047Y-109800000D01*
X155766666Y-109847619D01*
X155814285Y-109942857D01*
X155861904Y-110133333D01*
X155861904Y-110371428D01*
X155814285Y-110561904D01*
X155766666Y-110657142D01*
X155719047Y-110704761D01*
X155623809Y-110752380D01*
X155528571Y-110752380D01*
X155433333Y-110704761D01*
X155385714Y-110657142D01*
X155338095Y-110561904D01*
X155290476Y-110371428D01*
X155290476Y-110133333D01*
X155338095Y-109942857D01*
X155385714Y-109847619D01*
X155433333Y-109800000D01*
X155528571Y-109752380D01*
%TO.C,C31*%
X146357142Y-154042857D02*
X146404761Y-154090476D01*
X146452380Y-154233333D01*
X146452380Y-154328571D01*
X146404761Y-154471428D01*
X146309523Y-154566666D01*
X146214285Y-154614285D01*
X146023809Y-154661904D01*
X145880952Y-154661904D01*
X145690476Y-154614285D01*
X145595238Y-154566666D01*
X145500000Y-154471428D01*
X145452380Y-154328571D01*
X145452380Y-154233333D01*
X145500000Y-154090476D01*
X145547619Y-154042857D01*
X145452380Y-153709523D02*
X145452380Y-153090476D01*
X145833333Y-153423809D01*
X145833333Y-153280952D01*
X145880952Y-153185714D01*
X145928571Y-153138095D01*
X146023809Y-153090476D01*
X146261904Y-153090476D01*
X146357142Y-153138095D01*
X146404761Y-153185714D01*
X146452380Y-153280952D01*
X146452380Y-153566666D01*
X146404761Y-153661904D01*
X146357142Y-153709523D01*
X146452380Y-152138095D02*
X146452380Y-152709523D01*
X146452380Y-152423809D02*
X145452380Y-152423809D01*
X145595238Y-152519047D01*
X145690476Y-152614285D01*
X145738095Y-152709523D01*
%TO.C,C25*%
X94757142Y-128142857D02*
X94804761Y-128190476D01*
X94852380Y-128333333D01*
X94852380Y-128428571D01*
X94804761Y-128571428D01*
X94709523Y-128666666D01*
X94614285Y-128714285D01*
X94423809Y-128761904D01*
X94280952Y-128761904D01*
X94090476Y-128714285D01*
X93995238Y-128666666D01*
X93900000Y-128571428D01*
X93852380Y-128428571D01*
X93852380Y-128333333D01*
X93900000Y-128190476D01*
X93947619Y-128142857D01*
X93947619Y-127761904D02*
X93900000Y-127714285D01*
X93852380Y-127619047D01*
X93852380Y-127380952D01*
X93900000Y-127285714D01*
X93947619Y-127238095D01*
X94042857Y-127190476D01*
X94138095Y-127190476D01*
X94280952Y-127238095D01*
X94852380Y-127809523D01*
X94852380Y-127190476D01*
X93852380Y-126285714D02*
X93852380Y-126761904D01*
X94328571Y-126809523D01*
X94280952Y-126761904D01*
X94233333Y-126666666D01*
X94233333Y-126428571D01*
X94280952Y-126333333D01*
X94328571Y-126285714D01*
X94423809Y-126238095D01*
X94661904Y-126238095D01*
X94757142Y-126285714D01*
X94804761Y-126333333D01*
X94852380Y-126428571D01*
X94852380Y-126666666D01*
X94804761Y-126761904D01*
X94757142Y-126809523D01*
%TO.C,C21*%
X120857142Y-111357142D02*
X120809523Y-111404761D01*
X120666666Y-111452380D01*
X120571428Y-111452380D01*
X120428571Y-111404761D01*
X120333333Y-111309523D01*
X120285714Y-111214285D01*
X120238095Y-111023809D01*
X120238095Y-110880952D01*
X120285714Y-110690476D01*
X120333333Y-110595238D01*
X120428571Y-110500000D01*
X120571428Y-110452380D01*
X120666666Y-110452380D01*
X120809523Y-110500000D01*
X120857142Y-110547619D01*
X121238095Y-110547619D02*
X121285714Y-110500000D01*
X121380952Y-110452380D01*
X121619047Y-110452380D01*
X121714285Y-110500000D01*
X121761904Y-110547619D01*
X121809523Y-110642857D01*
X121809523Y-110738095D01*
X121761904Y-110880952D01*
X121190476Y-111452380D01*
X121809523Y-111452380D01*
X122761904Y-111452380D02*
X122190476Y-111452380D01*
X122476190Y-111452380D02*
X122476190Y-110452380D01*
X122380952Y-110595238D01*
X122285714Y-110690476D01*
X122190476Y-110738095D01*
%TO.C,C22*%
X118057142Y-114957142D02*
X118009523Y-115004761D01*
X117866666Y-115052380D01*
X117771428Y-115052380D01*
X117628571Y-115004761D01*
X117533333Y-114909523D01*
X117485714Y-114814285D01*
X117438095Y-114623809D01*
X117438095Y-114480952D01*
X117485714Y-114290476D01*
X117533333Y-114195238D01*
X117628571Y-114100000D01*
X117771428Y-114052380D01*
X117866666Y-114052380D01*
X118009523Y-114100000D01*
X118057142Y-114147619D01*
X118438095Y-114147619D02*
X118485714Y-114100000D01*
X118580952Y-114052380D01*
X118819047Y-114052380D01*
X118914285Y-114100000D01*
X118961904Y-114147619D01*
X119009523Y-114242857D01*
X119009523Y-114338095D01*
X118961904Y-114480952D01*
X118390476Y-115052380D01*
X119009523Y-115052380D01*
X119390476Y-114147619D02*
X119438095Y-114100000D01*
X119533333Y-114052380D01*
X119771428Y-114052380D01*
X119866666Y-114100000D01*
X119914285Y-114147619D01*
X119961904Y-114242857D01*
X119961904Y-114338095D01*
X119914285Y-114480952D01*
X119342857Y-115052380D01*
X119961904Y-115052380D01*
%TO.C,C24*%
X113257142Y-125857142D02*
X113209523Y-125904761D01*
X113066666Y-125952380D01*
X112971428Y-125952380D01*
X112828571Y-125904761D01*
X112733333Y-125809523D01*
X112685714Y-125714285D01*
X112638095Y-125523809D01*
X112638095Y-125380952D01*
X112685714Y-125190476D01*
X112733333Y-125095238D01*
X112828571Y-125000000D01*
X112971428Y-124952380D01*
X113066666Y-124952380D01*
X113209523Y-125000000D01*
X113257142Y-125047619D01*
X113638095Y-125047619D02*
X113685714Y-125000000D01*
X113780952Y-124952380D01*
X114019047Y-124952380D01*
X114114285Y-125000000D01*
X114161904Y-125047619D01*
X114209523Y-125142857D01*
X114209523Y-125238095D01*
X114161904Y-125380952D01*
X113590476Y-125952380D01*
X114209523Y-125952380D01*
X115066666Y-125285714D02*
X115066666Y-125952380D01*
X114828571Y-124904761D02*
X114590476Y-125619047D01*
X115209523Y-125619047D01*
%TO.C,C15*%
X68857142Y-84142857D02*
X68904761Y-84190476D01*
X68952380Y-84333333D01*
X68952380Y-84428571D01*
X68904761Y-84571428D01*
X68809523Y-84666666D01*
X68714285Y-84714285D01*
X68523809Y-84761904D01*
X68380952Y-84761904D01*
X68190476Y-84714285D01*
X68095238Y-84666666D01*
X68000000Y-84571428D01*
X67952380Y-84428571D01*
X67952380Y-84333333D01*
X68000000Y-84190476D01*
X68047619Y-84142857D01*
X68952380Y-83190476D02*
X68952380Y-83761904D01*
X68952380Y-83476190D02*
X67952380Y-83476190D01*
X68095238Y-83571428D01*
X68190476Y-83666666D01*
X68238095Y-83761904D01*
X67952380Y-82285714D02*
X67952380Y-82761904D01*
X68428571Y-82809523D01*
X68380952Y-82761904D01*
X68333333Y-82666666D01*
X68333333Y-82428571D01*
X68380952Y-82333333D01*
X68428571Y-82285714D01*
X68523809Y-82238095D01*
X68761904Y-82238095D01*
X68857142Y-82285714D01*
X68904761Y-82333333D01*
X68952380Y-82428571D01*
X68952380Y-82666666D01*
X68904761Y-82761904D01*
X68857142Y-82809523D01*
%TO.C,C27*%
X123557142Y-142157142D02*
X123509523Y-142204761D01*
X123366666Y-142252380D01*
X123271428Y-142252380D01*
X123128571Y-142204761D01*
X123033333Y-142109523D01*
X122985714Y-142014285D01*
X122938095Y-141823809D01*
X122938095Y-141680952D01*
X122985714Y-141490476D01*
X123033333Y-141395238D01*
X123128571Y-141300000D01*
X123271428Y-141252380D01*
X123366666Y-141252380D01*
X123509523Y-141300000D01*
X123557142Y-141347619D01*
X123938095Y-141347619D02*
X123985714Y-141300000D01*
X124080952Y-141252380D01*
X124319047Y-141252380D01*
X124414285Y-141300000D01*
X124461904Y-141347619D01*
X124509523Y-141442857D01*
X124509523Y-141538095D01*
X124461904Y-141680952D01*
X123890476Y-142252380D01*
X124509523Y-142252380D01*
X124842857Y-141252380D02*
X125509523Y-141252380D01*
X125080952Y-142252380D01*
%TD*%
M02*
