M48
; DRILL file {KiCad 5.1.10-88a1d61d58~88~ubuntu20.04.1} date Sat Jun 19 20:12:01 2021
; FORMAT={-:-/ absolute / metric / decimal}
; #@! TF.CreationDate,2021-06-19T20:12:01-07:00
; #@! TF.GenerationSoftware,Kicad,Pcbnew,5.1.10-88a1d61d58~88~ubuntu20.04.1
; #@! TF.FileFunction,NonPlated,1,2,NPTH
FMAT,2
METRIC
T1C1.200
T2C2.500
T3C3.000
T4C3.500
%
G90
G05
T1
X169.2Y-49.1
X169.2Y-64.55
X169.2Y-139.025
X174.2Y-44.1
X174.2Y-54.1
X174.2Y-59.55
X174.2Y-69.55
X174.2Y-134.025
X174.2Y-144.025
X176.7Y-44.1
X176.7Y-54.1
X176.7Y-59.55
X176.7Y-69.55
X176.7Y-134.025
X176.7Y-144.025
T2
X56.9Y-84.8
T3
X56.684Y-126.456
X56.684Y-143.256
T4
X91.56Y-91.74
X124.66Y-91.74
T0
M30
