%TF.GenerationSoftware,KiCad,Pcbnew,5.1.10-88a1d61d58~88~ubuntu20.04.1*%
%TF.CreationDate,2021-06-19T20:11:57-07:00*%
%TF.ProjectId,ultrablinky,756c7472-6162-46c6-996e-6b792e6b6963,B*%
%TF.SameCoordinates,Original*%
%TF.FileFunction,Other,Fab,Bot*%
%FSLAX46Y46*%
G04 Gerber Fmt 4.6, Leading zero omitted, Abs format (unit mm)*
G04 Created by KiCad (PCBNEW 5.1.10-88a1d61d58~88~ubuntu20.04.1) date 2021-06-19 20:11:57*
%MOMM*%
%LPD*%
G01*
G04 APERTURE LIST*
%TA.AperFunction,Profile*%
%ADD10C,0.150000*%
%TD*%
%ADD11C,0.100000*%
%ADD12C,0.120000*%
%ADD13C,0.150000*%
G04 APERTURE END LIST*
D10*
X178700000Y-142000000D02*
X178700000Y-164100000D01*
X178200000Y-142000000D02*
G75*
G02*
X177500000Y-141300000I0J700000D01*
G01*
X177500000Y-136700000D02*
G75*
G02*
X178200000Y-136000000I700000J0D01*
G01*
X177500000Y-136700000D02*
X177500000Y-141300000D01*
X178200000Y-142000000D02*
X178700000Y-142000000D01*
X178200000Y-136000000D02*
X178700000Y-136000000D01*
X178700000Y-67550000D02*
X178700000Y-136000000D01*
X178700000Y-61550000D02*
X178700000Y-52100000D01*
X177500000Y-62250000D02*
G75*
G02*
X178200000Y-61550000I700000J0D01*
G01*
X178200000Y-61550000D02*
X178700000Y-61550000D01*
X178200000Y-67550000D02*
G75*
G02*
X177500000Y-66850000I0J700000D01*
G01*
X178200000Y-67550000D02*
X178700000Y-67550000D01*
X177500000Y-62250000D02*
X177500000Y-66850000D01*
X178200000Y-52100000D02*
X178700000Y-52100000D01*
X178200000Y-46100000D02*
X178700000Y-46100000D01*
X177500000Y-46800000D02*
X177500000Y-51400000D01*
X178200000Y-52100000D02*
G75*
G02*
X177500000Y-51400000I0J700000D01*
G01*
X177500000Y-46800000D02*
G75*
G02*
X178200000Y-46100000I700000J0D01*
G01*
X87505025Y-80109975D02*
G75*
G02*
X87300000Y-79615000I494975J494975D01*
G01*
X128694975Y-39985025D02*
G75*
G02*
X128900000Y-40480000I-494975J-494975D01*
G01*
X87510025Y-39982025D02*
G75*
G03*
X87305000Y-40477000I494975J-494975D01*
G01*
X128694975Y-80104975D02*
G75*
G03*
X128900000Y-79610000I-494975J494975D01*
G01*
X130300000Y-105100000D02*
G75*
G02*
X129600000Y-105800000I-700000J0D01*
G01*
X119700000Y-105800000D02*
G75*
G02*
X119000000Y-105100000I0J700000D01*
G01*
X129600000Y-88400000D02*
G75*
G02*
X130300000Y-89100000I0J-700000D01*
G01*
X119000000Y-89100000D02*
G75*
G02*
X119700000Y-88400000I700000J0D01*
G01*
X85900000Y-89100000D02*
G75*
G02*
X86600000Y-88400000I700000J0D01*
G01*
X96500000Y-88400000D02*
G75*
G02*
X97200000Y-89100000I0J-700000D01*
G01*
X97200000Y-105100000D02*
G75*
G02*
X96500000Y-105800000I-700000J0D01*
G01*
X86600000Y-105800000D02*
G75*
G02*
X85900000Y-105100000I0J700000D01*
G01*
X119000000Y-105100000D02*
X119000000Y-89100000D01*
X129600000Y-105800000D02*
X119700000Y-105800000D01*
X129600000Y-88400000D02*
X119700000Y-88400000D01*
X130300000Y-105100000D02*
X130300000Y-89100000D01*
X96500000Y-105800000D02*
X86600000Y-105800000D01*
X97200000Y-105100000D02*
X97200000Y-89100000D01*
X96500000Y-88400000D02*
X86600000Y-88400000D01*
X85900000Y-105100000D02*
X85900000Y-89100000D01*
X128697474Y-80107415D02*
G75*
G02*
X87505025Y-80109975I-20597474J20107415D01*
G01*
X87300000Y-79615000D02*
X87305000Y-40477000D01*
X128900000Y-79610000D02*
X128900000Y-40480000D01*
X87508953Y-39980983D02*
G75*
G02*
X128694975Y-39985025I20591047J-20019017D01*
G01*
X53700000Y-29100000D02*
X178700000Y-29100000D01*
X53700000Y-164100000D02*
X178700000Y-164100000D01*
X178700000Y-46100000D02*
X178700000Y-29100000D01*
X53700000Y-164100000D02*
X53700000Y-29100000D01*
D11*
%TO.C,C31*%
X75150000Y-92550000D02*
X55150000Y-92550000D01*
X75150000Y-52550000D02*
X55150000Y-52550000D01*
X75150000Y-92550000D02*
X75150000Y-90870000D01*
X75150000Y-90870000D02*
X74250000Y-89970000D01*
X74250000Y-89970000D02*
X75150000Y-89070000D01*
X75150000Y-89070000D02*
X75150000Y-52550000D01*
X55150000Y-92550000D02*
X55150000Y-90870000D01*
X55150000Y-90870000D02*
X56050000Y-89970000D01*
X56050000Y-89970000D02*
X55150000Y-89070000D01*
X55150000Y-89070000D02*
X55150000Y-52550000D01*
X61400000Y-95550000D02*
X61400000Y-92550000D01*
X68900000Y-95550000D02*
X68900000Y-92550000D01*
X65150000Y-90850000D02*
X65150000Y-89050000D01*
X66050000Y-89950000D02*
X64250000Y-89950000D01*
%TO.C,R45*%
X93410000Y-91740000D02*
G75*
G03*
X93410000Y-91740000I-1850000J0D01*
G01*
X96560000Y-95340000D02*
X96560000Y-88940000D01*
X96560000Y-88940000D02*
X86560000Y-88940000D01*
X86560000Y-88940000D02*
X86560000Y-95340000D01*
X86560000Y-95340000D02*
X96560000Y-95340000D01*
X96560000Y-104590000D02*
X96560000Y-95340000D01*
X96560000Y-95340000D02*
X86560000Y-95340000D01*
X86560000Y-95340000D02*
X86560000Y-104590000D01*
X86560000Y-104590000D02*
X96560000Y-104590000D01*
X94100000Y-104590000D02*
X94100000Y-108400000D01*
X89020000Y-104590000D02*
X89020000Y-108400000D01*
%TO.C,Q7*%
X122120000Y-104590000D02*
X122120000Y-108400000D01*
X124660000Y-104590000D02*
X124660000Y-108400000D01*
X127200000Y-104590000D02*
X127200000Y-108400000D01*
X119660000Y-104590000D02*
X129660000Y-104590000D01*
X119660000Y-95340000D02*
X119660000Y-104590000D01*
X129660000Y-95340000D02*
X119660000Y-95340000D01*
X129660000Y-104590000D02*
X129660000Y-95340000D01*
X119660000Y-95340000D02*
X129660000Y-95340000D01*
X119660000Y-88940000D02*
X119660000Y-95340000D01*
X129660000Y-88940000D02*
X119660000Y-88940000D01*
X129660000Y-95340000D02*
X129660000Y-88940000D01*
X126510000Y-91740000D02*
G75*
G03*
X126510000Y-91740000I-1850000J0D01*
G01*
D12*
%TO.C,D7*%
X88100000Y-40410000D02*
X88100000Y-79590000D01*
X128100000Y-40410000D02*
X128100000Y-79590000D01*
X128104552Y-40414648D02*
G75*
G03*
X88100000Y-40410000I-20004552J-19585352D01*
G01*
X88095448Y-79585352D02*
G75*
G03*
X128100000Y-79590000I20004552J19585352D01*
G01*
%TD*%
%TO.C,C31*%
D13*
X61527380Y-71357142D02*
X61527380Y-71976190D01*
X61908333Y-71642857D01*
X61908333Y-71785714D01*
X61955952Y-71880952D01*
X62003571Y-71928571D01*
X62098809Y-71976190D01*
X62336904Y-71976190D01*
X62432142Y-71928571D01*
X62479761Y-71880952D01*
X62527380Y-71785714D01*
X62527380Y-71500000D01*
X62479761Y-71404761D01*
X62432142Y-71357142D01*
X61527380Y-72309523D02*
X61527380Y-72928571D01*
X61908333Y-72595238D01*
X61908333Y-72738095D01*
X61955952Y-72833333D01*
X62003571Y-72880952D01*
X62098809Y-72928571D01*
X62336904Y-72928571D01*
X62432142Y-72880952D01*
X62479761Y-72833333D01*
X62527380Y-72738095D01*
X62527380Y-72452380D01*
X62479761Y-72357142D01*
X62432142Y-72309523D01*
X61527380Y-73547619D02*
X61527380Y-73642857D01*
X61575000Y-73738095D01*
X61622619Y-73785714D01*
X61717857Y-73833333D01*
X61908333Y-73880952D01*
X62146428Y-73880952D01*
X62336904Y-73833333D01*
X62432142Y-73785714D01*
X62479761Y-73738095D01*
X62527380Y-73642857D01*
X62527380Y-73547619D01*
X62479761Y-73452380D01*
X62432142Y-73404761D01*
X62336904Y-73357142D01*
X62146428Y-73309523D01*
X61908333Y-73309523D01*
X61717857Y-73357142D01*
X61622619Y-73404761D01*
X61575000Y-73452380D01*
X61527380Y-73547619D01*
X61527380Y-74500000D02*
X61527380Y-74595238D01*
X61575000Y-74690476D01*
X61622619Y-74738095D01*
X61717857Y-74785714D01*
X61908333Y-74833333D01*
X62146428Y-74833333D01*
X62336904Y-74785714D01*
X62432142Y-74738095D01*
X62479761Y-74690476D01*
X62527380Y-74595238D01*
X62527380Y-74500000D01*
X62479761Y-74404761D01*
X62432142Y-74357142D01*
X62336904Y-74309523D01*
X62146428Y-74261904D01*
X61908333Y-74261904D01*
X61717857Y-74309523D01*
X61622619Y-74357142D01*
X61575000Y-74404761D01*
X61527380Y-74500000D01*
X61860714Y-75690476D02*
X62527380Y-75690476D01*
X61860714Y-75261904D02*
X62384523Y-75261904D01*
X62479761Y-75309523D01*
X62527380Y-75404761D01*
X62527380Y-75547619D01*
X62479761Y-75642857D01*
X62432142Y-75690476D01*
X62003571Y-76500000D02*
X62003571Y-76166666D01*
X62527380Y-76166666D02*
X61527380Y-76166666D01*
X61527380Y-76642857D01*
X65507142Y-72907142D02*
X65554761Y-72859523D01*
X65602380Y-72716666D01*
X65602380Y-72621428D01*
X65554761Y-72478571D01*
X65459523Y-72383333D01*
X65364285Y-72335714D01*
X65173809Y-72288095D01*
X65030952Y-72288095D01*
X64840476Y-72335714D01*
X64745238Y-72383333D01*
X64650000Y-72478571D01*
X64602380Y-72621428D01*
X64602380Y-72716666D01*
X64650000Y-72859523D01*
X64697619Y-72907142D01*
X64602380Y-73240476D02*
X64602380Y-73859523D01*
X64983333Y-73526190D01*
X64983333Y-73669047D01*
X65030952Y-73764285D01*
X65078571Y-73811904D01*
X65173809Y-73859523D01*
X65411904Y-73859523D01*
X65507142Y-73811904D01*
X65554761Y-73764285D01*
X65602380Y-73669047D01*
X65602380Y-73383333D01*
X65554761Y-73288095D01*
X65507142Y-73240476D01*
X65602380Y-74811904D02*
X65602380Y-74240476D01*
X65602380Y-74526190D02*
X64602380Y-74526190D01*
X64745238Y-74430952D01*
X64840476Y-74335714D01*
X64888095Y-74240476D01*
%TO.C,R45*%
X94792857Y-100202380D02*
X94697619Y-100202380D01*
X94602380Y-100250000D01*
X94554761Y-100297619D01*
X94507142Y-100392857D01*
X94459523Y-100583333D01*
X94459523Y-100821428D01*
X94507142Y-101011904D01*
X94554761Y-101107142D01*
X94602380Y-101154761D01*
X94697619Y-101202380D01*
X94792857Y-101202380D01*
X94888095Y-101154761D01*
X94935714Y-101107142D01*
X94983333Y-101011904D01*
X95030952Y-100821428D01*
X95030952Y-100583333D01*
X94983333Y-100392857D01*
X94935714Y-100297619D01*
X94888095Y-100250000D01*
X94792857Y-100202380D01*
X94030952Y-101107142D02*
X93983333Y-101154761D01*
X94030952Y-101202380D01*
X94078571Y-101154761D01*
X94030952Y-101107142D01*
X94030952Y-101202380D01*
X93364285Y-100202380D02*
X93269047Y-100202380D01*
X93173809Y-100250000D01*
X93126190Y-100297619D01*
X93078571Y-100392857D01*
X93030952Y-100583333D01*
X93030952Y-100821428D01*
X93078571Y-101011904D01*
X93126190Y-101107142D01*
X93173809Y-101154761D01*
X93269047Y-101202380D01*
X93364285Y-101202380D01*
X93459523Y-101154761D01*
X93507142Y-101107142D01*
X93554761Y-101011904D01*
X93602380Y-100821428D01*
X93602380Y-100583333D01*
X93554761Y-100392857D01*
X93507142Y-100297619D01*
X93459523Y-100250000D01*
X93364285Y-100202380D01*
X92126190Y-100202380D02*
X92602380Y-100202380D01*
X92650000Y-100678571D01*
X92602380Y-100630952D01*
X92507142Y-100583333D01*
X92269047Y-100583333D01*
X92173809Y-100630952D01*
X92126190Y-100678571D01*
X92078571Y-100773809D01*
X92078571Y-101011904D01*
X92126190Y-101107142D01*
X92173809Y-101154761D01*
X92269047Y-101202380D01*
X92507142Y-101202380D01*
X92602380Y-101154761D01*
X92650000Y-101107142D01*
X90935714Y-100297619D02*
X90888095Y-100250000D01*
X90792857Y-100202380D01*
X90554761Y-100202380D01*
X90459523Y-100250000D01*
X90411904Y-100297619D01*
X90364285Y-100392857D01*
X90364285Y-100488095D01*
X90411904Y-100630952D01*
X90983333Y-101202380D01*
X90364285Y-101202380D01*
X89745238Y-100202380D02*
X89650000Y-100202380D01*
X89554761Y-100250000D01*
X89507142Y-100297619D01*
X89459523Y-100392857D01*
X89411904Y-100583333D01*
X89411904Y-100821428D01*
X89459523Y-101011904D01*
X89507142Y-101107142D01*
X89554761Y-101154761D01*
X89650000Y-101202380D01*
X89745238Y-101202380D01*
X89840476Y-101154761D01*
X89888095Y-101107142D01*
X89935714Y-101011904D01*
X89983333Y-100821428D01*
X89983333Y-100583333D01*
X89935714Y-100392857D01*
X89888095Y-100297619D01*
X89840476Y-100250000D01*
X89745238Y-100202380D01*
X89078571Y-100202380D02*
X88840476Y-101202380D01*
X88650000Y-100488095D01*
X88459523Y-101202380D01*
X88221428Y-100202380D01*
X92192857Y-99102380D02*
X92526190Y-98626190D01*
X92764285Y-99102380D02*
X92764285Y-98102380D01*
X92383333Y-98102380D01*
X92288095Y-98150000D01*
X92240476Y-98197619D01*
X92192857Y-98292857D01*
X92192857Y-98435714D01*
X92240476Y-98530952D01*
X92288095Y-98578571D01*
X92383333Y-98626190D01*
X92764285Y-98626190D01*
X91335714Y-98435714D02*
X91335714Y-99102380D01*
X91573809Y-98054761D02*
X91811904Y-98769047D01*
X91192857Y-98769047D01*
X90335714Y-98102380D02*
X90811904Y-98102380D01*
X90859523Y-98578571D01*
X90811904Y-98530952D01*
X90716666Y-98483333D01*
X90478571Y-98483333D01*
X90383333Y-98530952D01*
X90335714Y-98578571D01*
X90288095Y-98673809D01*
X90288095Y-98911904D01*
X90335714Y-99007142D01*
X90383333Y-99054761D01*
X90478571Y-99102380D01*
X90716666Y-99102380D01*
X90811904Y-99054761D01*
X90859523Y-99007142D01*
%TO.C,Q7*%
X129261904Y-102152380D02*
X129261904Y-101152380D01*
X128214285Y-102152380D02*
X128547619Y-101676190D01*
X128785714Y-102152380D02*
X128785714Y-101152380D01*
X128404761Y-101152380D01*
X128309523Y-101200000D01*
X128261904Y-101247619D01*
X128214285Y-101342857D01*
X128214285Y-101485714D01*
X128261904Y-101580952D01*
X128309523Y-101628571D01*
X128404761Y-101676190D01*
X128785714Y-101676190D01*
X127452380Y-101628571D02*
X127785714Y-101628571D01*
X127785714Y-102152380D02*
X127785714Y-101152380D01*
X127309523Y-101152380D01*
X127023809Y-101152380D02*
X126357142Y-101152380D01*
X127023809Y-102152380D01*
X126357142Y-102152380D01*
X125547619Y-101485714D02*
X125547619Y-102152380D01*
X125785714Y-101104761D02*
X126023809Y-101819047D01*
X125404761Y-101819047D01*
X124595238Y-101485714D02*
X124595238Y-102152380D01*
X124833333Y-101104761D02*
X125071428Y-101819047D01*
X124452380Y-101819047D01*
X124166666Y-101152380D02*
X123500000Y-101152380D01*
X124166666Y-102152380D01*
X123500000Y-102152380D01*
X123119047Y-102152380D02*
X123119047Y-101152380D01*
X122738095Y-101152380D01*
X122642857Y-101200000D01*
X122595238Y-101247619D01*
X122547619Y-101342857D01*
X122547619Y-101485714D01*
X122595238Y-101580952D01*
X122642857Y-101628571D01*
X122738095Y-101676190D01*
X123119047Y-101676190D01*
X121785714Y-101628571D02*
X121642857Y-101676190D01*
X121595238Y-101723809D01*
X121547619Y-101819047D01*
X121547619Y-101961904D01*
X121595238Y-102057142D01*
X121642857Y-102104761D01*
X121738095Y-102152380D01*
X122119047Y-102152380D01*
X122119047Y-101152380D01*
X121785714Y-101152380D01*
X121690476Y-101200000D01*
X121642857Y-101247619D01*
X121595238Y-101342857D01*
X121595238Y-101438095D01*
X121642857Y-101533333D01*
X121690476Y-101580952D01*
X121785714Y-101628571D01*
X122119047Y-101628571D01*
X120785714Y-101628571D02*
X121119047Y-101628571D01*
X121119047Y-102152380D02*
X121119047Y-101152380D01*
X120642857Y-101152380D01*
X124795238Y-99247619D02*
X124890476Y-99200000D01*
X124985714Y-99104761D01*
X125128571Y-98961904D01*
X125223809Y-98914285D01*
X125319047Y-98914285D01*
X125271428Y-99152380D02*
X125366666Y-99104761D01*
X125461904Y-99009523D01*
X125509523Y-98819047D01*
X125509523Y-98485714D01*
X125461904Y-98295238D01*
X125366666Y-98200000D01*
X125271428Y-98152380D01*
X125080952Y-98152380D01*
X124985714Y-98200000D01*
X124890476Y-98295238D01*
X124842857Y-98485714D01*
X124842857Y-98819047D01*
X124890476Y-99009523D01*
X124985714Y-99104761D01*
X125080952Y-99152380D01*
X125271428Y-99152380D01*
X124509523Y-98152380D02*
X123842857Y-98152380D01*
X124271428Y-99152380D01*
%TO.C,D7*%
X110552380Y-64357142D02*
X110600000Y-64404761D01*
X110742857Y-64452380D01*
X110838095Y-64452380D01*
X110980952Y-64404761D01*
X111076190Y-64309523D01*
X111123809Y-64214285D01*
X111171428Y-64023809D01*
X111171428Y-63880952D01*
X111123809Y-63690476D01*
X111076190Y-63595238D01*
X110980952Y-63500000D01*
X110838095Y-63452380D01*
X110742857Y-63452380D01*
X110600000Y-63500000D01*
X110552380Y-63547619D01*
X109933333Y-63452380D02*
X109742857Y-63452380D01*
X109647619Y-63500000D01*
X109552380Y-63595238D01*
X109504761Y-63785714D01*
X109504761Y-64119047D01*
X109552380Y-64309523D01*
X109647619Y-64404761D01*
X109742857Y-64452380D01*
X109933333Y-64452380D01*
X110028571Y-64404761D01*
X110123809Y-64309523D01*
X110171428Y-64119047D01*
X110171428Y-63785714D01*
X110123809Y-63595238D01*
X110028571Y-63500000D01*
X109933333Y-63452380D01*
X108742857Y-63928571D02*
X108600000Y-63976190D01*
X108552380Y-64023809D01*
X108504761Y-64119047D01*
X108504761Y-64261904D01*
X108552380Y-64357142D01*
X108600000Y-64404761D01*
X108695238Y-64452380D01*
X109076190Y-64452380D01*
X109076190Y-63452380D01*
X108742857Y-63452380D01*
X108647619Y-63500000D01*
X108600000Y-63547619D01*
X108552380Y-63642857D01*
X108552380Y-63738095D01*
X108600000Y-63833333D01*
X108647619Y-63880952D01*
X108742857Y-63928571D01*
X109076190Y-63928571D01*
X106838095Y-64452380D02*
X107314285Y-64452380D01*
X107314285Y-63452380D01*
X106504761Y-63928571D02*
X106171428Y-63928571D01*
X106028571Y-64452380D02*
X106504761Y-64452380D01*
X106504761Y-63452380D01*
X106028571Y-63452380D01*
X105600000Y-64452380D02*
X105600000Y-63452380D01*
X105361904Y-63452380D01*
X105219047Y-63500000D01*
X105123809Y-63595238D01*
X105076190Y-63690476D01*
X105028571Y-63880952D01*
X105028571Y-64023809D01*
X105076190Y-64214285D01*
X105123809Y-64309523D01*
X105219047Y-64404761D01*
X105361904Y-64452380D01*
X105600000Y-64452380D01*
X108838095Y-60452380D02*
X108838095Y-59452380D01*
X108600000Y-59452380D01*
X108457142Y-59500000D01*
X108361904Y-59595238D01*
X108314285Y-59690476D01*
X108266666Y-59880952D01*
X108266666Y-60023809D01*
X108314285Y-60214285D01*
X108361904Y-60309523D01*
X108457142Y-60404761D01*
X108600000Y-60452380D01*
X108838095Y-60452380D01*
X107933333Y-59452380D02*
X107266666Y-59452380D01*
X107695238Y-60452380D01*
%TD*%
M02*
