%TF.GenerationSoftware,KiCad,Pcbnew,5.1.9-73d0e3b20d~88~ubuntu20.04.1*%
%TF.CreationDate,2021-04-09T17:18:55-07:00*%
%TF.ProjectId,ultrablinky,756c7472-6162-46c6-996e-6b792e6b6963,A*%
%TF.SameCoordinates,Original*%
%TF.FileFunction,Legend,Bot*%
%TF.FilePolarity,Positive*%
%FSLAX46Y46*%
G04 Gerber Fmt 4.6, Leading zero omitted, Abs format (unit mm)*
G04 Created by KiCad (PCBNEW 5.1.9-73d0e3b20d~88~ubuntu20.04.1) date 2021-04-09 17:18:55*
%MOMM*%
%LPD*%
G01*
G04 APERTURE LIST*
%TA.AperFunction,Profile*%
%ADD10C,0.150000*%
%TD*%
%ADD11C,0.120000*%
%ADD12C,0.800000*%
%ADD13C,0.600000*%
%ADD14C,0.150000*%
G04 APERTURE END LIST*
D10*
X178700000Y-142000000D02*
X178700000Y-164100000D01*
X178200000Y-142000000D02*
G75*
G02*
X177500000Y-141300000I0J700000D01*
G01*
X177500000Y-136700000D02*
G75*
G02*
X178200000Y-136000000I700000J0D01*
G01*
X177500000Y-136700000D02*
X177500000Y-141300000D01*
X178200000Y-142000000D02*
X178700000Y-142000000D01*
X178200000Y-136000000D02*
X178700000Y-136000000D01*
X178700000Y-67550000D02*
X178700000Y-136000000D01*
X178700000Y-61550000D02*
X178700000Y-52100000D01*
X177500000Y-62250000D02*
G75*
G02*
X178200000Y-61550000I700000J0D01*
G01*
X178200000Y-61550000D02*
X178700000Y-61550000D01*
X178200000Y-67550000D02*
G75*
G02*
X177500000Y-66850000I0J700000D01*
G01*
X178200000Y-67550000D02*
X178700000Y-67550000D01*
X177500000Y-62250000D02*
X177500000Y-66850000D01*
X178200000Y-52100000D02*
X178700000Y-52100000D01*
X178200000Y-46100000D02*
X178700000Y-46100000D01*
X177500000Y-46800000D02*
X177500000Y-51400000D01*
X178200000Y-52100000D02*
G75*
G02*
X177500000Y-51400000I0J700000D01*
G01*
X177500000Y-46800000D02*
G75*
G02*
X178200000Y-46100000I700000J0D01*
G01*
X87505025Y-80109975D02*
G75*
G02*
X87300000Y-79615000I494975J494975D01*
G01*
X128694975Y-39985025D02*
G75*
G02*
X128900000Y-40480000I-494975J-494975D01*
G01*
X87510025Y-39982025D02*
G75*
G03*
X87305000Y-40477000I494975J-494975D01*
G01*
X128694975Y-80104975D02*
G75*
G03*
X128900000Y-79610000I-494975J494975D01*
G01*
X130300000Y-105100000D02*
G75*
G02*
X129600000Y-105800000I-700000J0D01*
G01*
X119700000Y-105800000D02*
G75*
G02*
X119000000Y-105100000I0J700000D01*
G01*
X129600000Y-88400000D02*
G75*
G02*
X130300000Y-89100000I0J-700000D01*
G01*
X119000000Y-89100000D02*
G75*
G02*
X119700000Y-88400000I700000J0D01*
G01*
X85900000Y-89100000D02*
G75*
G02*
X86600000Y-88400000I700000J0D01*
G01*
X96500000Y-88400000D02*
G75*
G02*
X97200000Y-89100000I0J-700000D01*
G01*
X97200000Y-105100000D02*
G75*
G02*
X96500000Y-105800000I-700000J0D01*
G01*
X86600000Y-105800000D02*
G75*
G02*
X85900000Y-105100000I0J700000D01*
G01*
X119000000Y-105100000D02*
X119000000Y-89100000D01*
X129600000Y-105800000D02*
X119700000Y-105800000D01*
X129600000Y-88400000D02*
X119700000Y-88400000D01*
X130300000Y-105100000D02*
X130300000Y-89100000D01*
X96500000Y-105800000D02*
X86600000Y-105800000D01*
X97200000Y-105100000D02*
X97200000Y-89100000D01*
X96500000Y-88400000D02*
X86600000Y-88400000D01*
X85900000Y-105100000D02*
X85900000Y-89100000D01*
X128697474Y-80107415D02*
G75*
G02*
X87505025Y-80109975I-20597474J20107415D01*
G01*
X87300000Y-79615000D02*
X87305000Y-40477000D01*
X128900000Y-79610000D02*
X128900000Y-40480000D01*
X87508953Y-39980983D02*
G75*
G02*
X128694975Y-39985025I20591047J-20019017D01*
G01*
X53700000Y-29100000D02*
X178700000Y-29100000D01*
X53700000Y-164100000D02*
X178700000Y-164100000D01*
X178700000Y-46100000D02*
X178700000Y-29100000D01*
X53700000Y-164100000D02*
X53700000Y-29100000D01*
D11*
%TO.C,R43*%
X89020000Y-104710000D02*
X89020000Y-107235000D01*
X94100000Y-104710000D02*
X94100000Y-107250000D01*
X86440000Y-88820000D02*
X86440000Y-104710000D01*
X96680000Y-88820000D02*
X96680000Y-104710000D01*
X96680000Y-88820000D02*
X86440000Y-88820000D01*
X96680000Y-104710000D02*
X86440000Y-104710000D01*
%TO.C,Q7*%
X129780000Y-104710000D02*
X119540000Y-104710000D01*
X129780000Y-88820000D02*
X119540000Y-88820000D01*
X129780000Y-88820000D02*
X129780000Y-104710000D01*
X119540000Y-88820000D02*
X119540000Y-104710000D01*
X127200000Y-104710000D02*
X127200000Y-107250000D01*
X124660000Y-104710000D02*
X124660000Y-107250000D01*
X122120000Y-104710000D02*
X122120000Y-107250000D01*
%TO.C,D5*%
X128220000Y-79620000D02*
X128220000Y-40380000D01*
X87980000Y-40380000D02*
X87980000Y-79620000D01*
D12*
X139000000Y-60000000D02*
G75*
G03*
X139000000Y-60000000I-400000J0D01*
G01*
X78000000Y-60000000D02*
G75*
G03*
X78000000Y-60000000I-400000J0D01*
G01*
D13*
X77900000Y-71000000D02*
G75*
G03*
X77900000Y-71000000I-300000J0D01*
G01*
D11*
X87994281Y-79634635D02*
G75*
G03*
X128220000Y-79620000I20105719J19634635D01*
G01*
X128205719Y-40365365D02*
G75*
G03*
X87980000Y-40380000I-20105719J-19634635D01*
G01*
%TD*%
%TO.C,R43*%
D14*
X92202857Y-88272380D02*
X92536190Y-87796190D01*
X92774285Y-88272380D02*
X92774285Y-87272380D01*
X92393333Y-87272380D01*
X92298095Y-87320000D01*
X92250476Y-87367619D01*
X92202857Y-87462857D01*
X92202857Y-87605714D01*
X92250476Y-87700952D01*
X92298095Y-87748571D01*
X92393333Y-87796190D01*
X92774285Y-87796190D01*
X91345714Y-87605714D02*
X91345714Y-88272380D01*
X91583809Y-87224761D02*
X91821904Y-87939047D01*
X91202857Y-87939047D01*
X90917142Y-87272380D02*
X90298095Y-87272380D01*
X90631428Y-87653333D01*
X90488571Y-87653333D01*
X90393333Y-87700952D01*
X90345714Y-87748571D01*
X90298095Y-87843809D01*
X90298095Y-88081904D01*
X90345714Y-88177142D01*
X90393333Y-88224761D01*
X90488571Y-88272380D01*
X90774285Y-88272380D01*
X90869523Y-88224761D01*
X90917142Y-88177142D01*
%TO.C,Q7*%
X124755238Y-88367619D02*
X124850476Y-88320000D01*
X124945714Y-88224761D01*
X125088571Y-88081904D01*
X125183809Y-88034285D01*
X125279047Y-88034285D01*
X125231428Y-88272380D02*
X125326666Y-88224761D01*
X125421904Y-88129523D01*
X125469523Y-87939047D01*
X125469523Y-87605714D01*
X125421904Y-87415238D01*
X125326666Y-87320000D01*
X125231428Y-87272380D01*
X125040952Y-87272380D01*
X124945714Y-87320000D01*
X124850476Y-87415238D01*
X124802857Y-87605714D01*
X124802857Y-87939047D01*
X124850476Y-88129523D01*
X124945714Y-88224761D01*
X125040952Y-88272380D01*
X125231428Y-88272380D01*
X124469523Y-87272380D02*
X123802857Y-87272380D01*
X124231428Y-88272380D01*
%TO.C,D5*%
X91438095Y-35252380D02*
X91438095Y-34252380D01*
X91200000Y-34252380D01*
X91057142Y-34300000D01*
X90961904Y-34395238D01*
X90914285Y-34490476D01*
X90866666Y-34680952D01*
X90866666Y-34823809D01*
X90914285Y-35014285D01*
X90961904Y-35109523D01*
X91057142Y-35204761D01*
X91200000Y-35252380D01*
X91438095Y-35252380D01*
X89961904Y-34252380D02*
X90438095Y-34252380D01*
X90485714Y-34728571D01*
X90438095Y-34680952D01*
X90342857Y-34633333D01*
X90104761Y-34633333D01*
X90009523Y-34680952D01*
X89961904Y-34728571D01*
X89914285Y-34823809D01*
X89914285Y-35061904D01*
X89961904Y-35157142D01*
X90009523Y-35204761D01*
X90104761Y-35252380D01*
X90342857Y-35252380D01*
X90438095Y-35204761D01*
X90485714Y-35157142D01*
%TD*%
M02*
